%TF.GenerationSoftware,KiCad,Pcbnew,7.0.5*%
%TF.CreationDate,2023-09-22T01:01:30+09:00*%
%TF.ProjectId,scratch-rp2040,73637261-7463-4682-9d72-70323034302e,rev?*%
%TF.SameCoordinates,Original*%
%TF.FileFunction,Paste,Top*%
%TF.FilePolarity,Positive*%
%FSLAX46Y46*%
G04 Gerber Fmt 4.6, Leading zero omitted, Abs format (unit mm)*
G04 Created by KiCad (PCBNEW 7.0.5) date 2023-09-22 01:01:30*
%MOMM*%
%LPD*%
G01*
G04 APERTURE LIST*
G04 Aperture macros list*
%AMRoundRect*
0 Rectangle with rounded corners*
0 $1 Rounding radius*
0 $2 $3 $4 $5 $6 $7 $8 $9 X,Y pos of 4 corners*
0 Add a 4 corners polygon primitive as box body*
4,1,4,$2,$3,$4,$5,$6,$7,$8,$9,$2,$3,0*
0 Add four circle primitives for the rounded corners*
1,1,$1+$1,$2,$3*
1,1,$1+$1,$4,$5*
1,1,$1+$1,$6,$7*
1,1,$1+$1,$8,$9*
0 Add four rect primitives between the rounded corners*
20,1,$1+$1,$2,$3,$4,$5,0*
20,1,$1+$1,$4,$5,$6,$7,0*
20,1,$1+$1,$6,$7,$8,$9,0*
20,1,$1+$1,$8,$9,$2,$3,0*%
G04 Aperture macros list end*
%ADD10RoundRect,0.250000X-0.250000X-0.750000X0.250000X-0.750000X0.250000X0.750000X-0.250000X0.750000X0*%
%ADD11R,1.000000X3.150000*%
%ADD12RoundRect,0.249999X0.395001X0.395001X-0.395001X0.395001X-0.395001X-0.395001X0.395001X-0.395001X0*%
%ADD13RoundRect,0.050000X0.387500X0.050000X-0.387500X0.050000X-0.387500X-0.050000X0.387500X-0.050000X0*%
%ADD14RoundRect,0.050000X0.050000X0.387500X-0.050000X0.387500X-0.050000X-0.387500X0.050000X-0.387500X0*%
%ADD15RoundRect,0.079500X-0.100500X0.079500X-0.100500X-0.079500X0.100500X-0.079500X0.100500X0.079500X0*%
%ADD16RoundRect,0.079500X-0.079500X-0.100500X0.079500X-0.100500X0.079500X0.100500X-0.079500X0.100500X0*%
%ADD17RoundRect,0.079500X0.100500X-0.079500X0.100500X0.079500X-0.100500X0.079500X-0.100500X-0.079500X0*%
%ADD18R,0.900000X1.700000*%
%ADD19R,0.600000X1.240000*%
%ADD20R,0.300000X1.240000*%
%ADD21RoundRect,0.079500X0.079500X0.100500X-0.079500X0.100500X-0.079500X-0.100500X0.079500X-0.100500X0*%
%ADD22R,1.400000X1.200000*%
%ADD23RoundRect,0.140000X-0.170000X0.140000X-0.170000X-0.140000X0.170000X-0.140000X0.170000X0.140000X0*%
%ADD24RoundRect,0.140000X-0.140000X-0.170000X0.140000X-0.170000X0.140000X0.170000X-0.140000X0.170000X0*%
%ADD25R,1.000000X0.800000*%
%ADD26R,0.700000X1.500000*%
%ADD27RoundRect,0.150000X0.650000X0.150000X-0.650000X0.150000X-0.650000X-0.150000X0.650000X-0.150000X0*%
%ADD28R,1.500000X2.000000*%
%ADD29R,3.800000X2.000000*%
G04 APERTURE END LIST*
D10*
%TO.C,REF\u002A\u002A*%
X51200000Y-41000000D03*
%TD*%
%TO.C,REF\u002A\u002A*%
X51200000Y-38400000D03*
%TD*%
%TO.C,REF\u002A\u002A*%
X51200000Y-35800000D03*
%TD*%
%TO.C,REF\u002A\u002A*%
X51200000Y-33200000D03*
%TD*%
D11*
%TO.C,REF\u002A\u002A*%
X83240000Y-23475000D03*
X83240000Y-28525000D03*
X80700000Y-23475000D03*
X80700000Y-28525000D03*
X78160000Y-23475000D03*
X78160000Y-28525000D03*
X75620000Y-23475000D03*
X75620000Y-28525000D03*
X73080000Y-23475000D03*
X73080000Y-28525000D03*
X70540000Y-23475000D03*
X70540000Y-28525000D03*
X68000000Y-23475000D03*
X68000000Y-28525000D03*
X65460000Y-23475000D03*
X65460000Y-28525000D03*
X62920000Y-23475000D03*
X62920000Y-28525000D03*
X60380000Y-23475000D03*
X60380000Y-28525000D03*
X57840000Y-23475000D03*
X57840000Y-28525000D03*
X55300000Y-23475000D03*
X55300000Y-28525000D03*
X52760000Y-23475000D03*
X52760000Y-28525000D03*
%TD*%
D12*
%TO.C,U1*%
X69000000Y-41162500D03*
X69000000Y-39562500D03*
X67400000Y-41162500D03*
X67400000Y-39562500D03*
D13*
X71637500Y-42962500D03*
X71637500Y-42562500D03*
X71637500Y-42162500D03*
X71637500Y-41762500D03*
X71637500Y-41362500D03*
X71637500Y-40962500D03*
X71637500Y-40562500D03*
X71637500Y-40162500D03*
X71637500Y-39762500D03*
X71637500Y-39362500D03*
X71637500Y-38962500D03*
X71637500Y-38562500D03*
X71637500Y-38162500D03*
X71637500Y-37762500D03*
D14*
X70800000Y-36925000D03*
X70400000Y-36925000D03*
X70000000Y-36925000D03*
X69600000Y-36925000D03*
X69200000Y-36925000D03*
X68800000Y-36925000D03*
X68400000Y-36925000D03*
X68000000Y-36925000D03*
X67600000Y-36925000D03*
X67200000Y-36925000D03*
X66800000Y-36925000D03*
X66400000Y-36925000D03*
X66000000Y-36925000D03*
X65600000Y-36925000D03*
D13*
X64762500Y-37762500D03*
X64762500Y-38162500D03*
X64762500Y-38562500D03*
X64762500Y-38962500D03*
X64762500Y-39362500D03*
X64762500Y-39762500D03*
X64762500Y-40162500D03*
X64762500Y-40562500D03*
X64762500Y-40962500D03*
X64762500Y-41362500D03*
X64762500Y-41762500D03*
X64762500Y-42162500D03*
X64762500Y-42562500D03*
X64762500Y-42962500D03*
D14*
X65600000Y-43800000D03*
X66000000Y-43800000D03*
X66400000Y-43800000D03*
X66800000Y-43800000D03*
X67200000Y-43800000D03*
X67600000Y-43800000D03*
X68000000Y-43800000D03*
X68400000Y-43800000D03*
X68800000Y-43800000D03*
X69200000Y-43800000D03*
X69600000Y-43800000D03*
X70000000Y-43800000D03*
X70400000Y-43800000D03*
X70800000Y-43800000D03*
%TD*%
D15*
%TO.C,C10*%
X63840000Y-45255000D03*
X63840000Y-45945000D03*
%TD*%
D16*
%TO.C,C3*%
X60935000Y-36800000D03*
X61625000Y-36800000D03*
%TD*%
D17*
%TO.C,R4*%
X68000000Y-46745000D03*
X68000000Y-46055000D03*
%TD*%
%TO.C,C1*%
X63756000Y-34425000D03*
X63756000Y-33735000D03*
%TD*%
D18*
%TO.C,SW4*%
X83300000Y-38400000D03*
X79900000Y-38400000D03*
%TD*%
D19*
%TO.C,P1*%
X54400000Y-43775000D03*
X55200000Y-43775000D03*
D20*
X56350000Y-43775000D03*
X57350000Y-43775000D03*
X57850000Y-43775000D03*
X58850000Y-43775000D03*
D19*
X60000000Y-43775000D03*
X60800000Y-43775000D03*
X60800000Y-43775000D03*
X60000000Y-43775000D03*
D20*
X59350000Y-43775000D03*
X58350000Y-43775000D03*
X56850000Y-43775000D03*
X55850000Y-43775000D03*
D19*
X55200000Y-43775000D03*
X54400000Y-43775000D03*
%TD*%
D18*
%TO.C,SW6*%
X83300000Y-34400000D03*
X79900000Y-34400000D03*
%TD*%
D17*
%TO.C,C2*%
X64518000Y-34425000D03*
X64518000Y-33735000D03*
%TD*%
D16*
%TO.C,C4*%
X60935000Y-37760000D03*
X61625000Y-37760000D03*
%TD*%
D21*
%TO.C,R3*%
X56375000Y-42150000D03*
X55685000Y-42150000D03*
%TD*%
D17*
%TO.C,C12*%
X71040000Y-34425000D03*
X71040000Y-33735000D03*
%TD*%
D18*
%TO.C,SW2*%
X75100000Y-42400000D03*
X78500000Y-42400000D03*
%TD*%
D15*
%TO.C,C11*%
X64800000Y-45255000D03*
X64800000Y-45945000D03*
%TD*%
D21*
%TO.C,C16*%
X63545000Y-40320000D03*
X62855000Y-40320000D03*
%TD*%
D16*
%TO.C,C8*%
X60935000Y-34880000D03*
X61625000Y-34880000D03*
%TD*%
%TO.C,C7*%
X60935000Y-40640000D03*
X61625000Y-40640000D03*
%TD*%
D15*
%TO.C,R2*%
X65760000Y-45255000D03*
X65760000Y-45945000D03*
%TD*%
D22*
%TO.C,Y1*%
X67060000Y-34930000D03*
X69260000Y-34930000D03*
X69260000Y-33230000D03*
X67060000Y-33230000D03*
%TD*%
D23*
%TO.C,C14*%
X62600000Y-38880000D03*
X62600000Y-37920000D03*
%TD*%
D15*
%TO.C,C13*%
X65280000Y-33735000D03*
X65280000Y-34425000D03*
%TD*%
D24*
%TO.C,C15*%
X60000000Y-42164000D03*
X60960000Y-42164000D03*
%TD*%
D16*
%TO.C,C6*%
X60935000Y-39680000D03*
X61625000Y-39680000D03*
%TD*%
D25*
%TO.C,SW1*%
X64350000Y-48820000D03*
X64350000Y-51030000D03*
X71650000Y-48820000D03*
X71650000Y-51030000D03*
D26*
X65750000Y-48170000D03*
X68750000Y-48170000D03*
X70250000Y-48170000D03*
%TD*%
D16*
%TO.C,C9*%
X60935000Y-35840000D03*
X61625000Y-35840000D03*
%TD*%
%TO.C,C5*%
X60935000Y-38720000D03*
X61625000Y-38720000D03*
%TD*%
D27*
%TO.C,U3*%
X82800000Y-50705000D03*
X82800000Y-49435000D03*
X82800000Y-48165000D03*
X82800000Y-46895000D03*
X75600000Y-46895000D03*
X75600000Y-48165000D03*
X75600000Y-49435000D03*
X75600000Y-50705000D03*
%TD*%
D18*
%TO.C,SW3*%
X83300000Y-42400000D03*
X79900000Y-42400000D03*
%TD*%
%TO.C,SW7*%
X75100000Y-34400000D03*
X78500000Y-34400000D03*
%TD*%
%TO.C,SW5*%
X75100000Y-38400000D03*
X78500000Y-38400000D03*
%TD*%
D28*
%TO.C,U2*%
X54180000Y-39950000D03*
X56480000Y-39950000D03*
D29*
X56480000Y-33650000D03*
D28*
X58780000Y-39950000D03*
%TD*%
D15*
%TO.C,R1*%
X66720000Y-45255000D03*
X66720000Y-45945000D03*
%TD*%
M02*
