%TF.GenerationSoftware,KiCad,Pcbnew,7.0.6-0*%
%TF.CreationDate,2023-09-19T06:41:03+09:00*%
%TF.ProjectId,scratch-rp2040,73637261-7463-4682-9d72-70323034302e,rev?*%
%TF.SameCoordinates,Original*%
%TF.FileFunction,Copper,L1,Top*%
%TF.FilePolarity,Positive*%
%FSLAX46Y46*%
G04 Gerber Fmt 4.6, Leading zero omitted, Abs format (unit mm)*
G04 Created by KiCad (PCBNEW 7.0.6-0) date 2023-09-19 06:41:03*
%MOMM*%
%LPD*%
G01*
G04 APERTURE LIST*
G04 Aperture macros list*
%AMRoundRect*
0 Rectangle with rounded corners*
0 $1 Rounding radius*
0 $2 $3 $4 $5 $6 $7 $8 $9 X,Y pos of 4 corners*
0 Add a 4 corners polygon primitive as box body*
4,1,4,$2,$3,$4,$5,$6,$7,$8,$9,$2,$3,0*
0 Add four circle primitives for the rounded corners*
1,1,$1+$1,$2,$3*
1,1,$1+$1,$4,$5*
1,1,$1+$1,$6,$7*
1,1,$1+$1,$8,$9*
0 Add four rect primitives between the rounded corners*
20,1,$1+$1,$2,$3,$4,$5,0*
20,1,$1+$1,$4,$5,$6,$7,0*
20,1,$1+$1,$6,$7,$8,$9,0*
20,1,$1+$1,$8,$9,$2,$3,0*%
G04 Aperture macros list end*
%TA.AperFunction,SMDPad,CuDef*%
%ADD10RoundRect,0.140000X0.140000X0.170000X-0.140000X0.170000X-0.140000X-0.170000X0.140000X-0.170000X0*%
%TD*%
%TA.AperFunction,SMDPad,CuDef*%
%ADD11RoundRect,0.140000X-0.170000X0.140000X-0.170000X-0.140000X0.170000X-0.140000X0.170000X0.140000X0*%
%TD*%
%TA.AperFunction,SMDPad,CuDef*%
%ADD12RoundRect,0.140000X0.170000X-0.140000X0.170000X0.140000X-0.170000X0.140000X-0.170000X-0.140000X0*%
%TD*%
%TA.AperFunction,SMDPad,CuDef*%
%ADD13RoundRect,0.250000X-0.250000X-0.475000X0.250000X-0.475000X0.250000X0.475000X-0.250000X0.475000X0*%
%TD*%
%TA.AperFunction,SMDPad,CuDef*%
%ADD14RoundRect,0.135000X-0.185000X0.135000X-0.185000X-0.135000X0.185000X-0.135000X0.185000X0.135000X0*%
%TD*%
%TA.AperFunction,SMDPad,CuDef*%
%ADD15R,1.500000X2.000000*%
%TD*%
%TA.AperFunction,SMDPad,CuDef*%
%ADD16R,3.800000X2.000000*%
%TD*%
%TA.AperFunction,SMDPad,CuDef*%
%ADD17R,0.900000X1.700000*%
%TD*%
%TA.AperFunction,SMDPad,CuDef*%
%ADD18RoundRect,0.150000X-0.650000X-0.150000X0.650000X-0.150000X0.650000X0.150000X-0.650000X0.150000X0*%
%TD*%
%TA.AperFunction,SMDPad,CuDef*%
%ADD19R,2.160000X1.120000*%
%TD*%
%TA.AperFunction,SMDPad,CuDef*%
%ADD20R,0.600000X1.150000*%
%TD*%
%TA.AperFunction,SMDPad,CuDef*%
%ADD21R,0.300000X1.150000*%
%TD*%
%TA.AperFunction,ComponentPad*%
%ADD22O,1.000000X2.100000*%
%TD*%
%TA.AperFunction,ComponentPad*%
%ADD23O,1.000000X1.800000*%
%TD*%
%TA.AperFunction,SMDPad,CuDef*%
%ADD24RoundRect,0.140000X-0.140000X-0.170000X0.140000X-0.170000X0.140000X0.170000X-0.140000X0.170000X0*%
%TD*%
%TA.AperFunction,SMDPad,CuDef*%
%ADD25R,1.400000X1.200000*%
%TD*%
%TA.AperFunction,SMDPad,CuDef*%
%ADD26RoundRect,0.135000X-0.135000X-0.185000X0.135000X-0.185000X0.135000X0.185000X-0.135000X0.185000X0*%
%TD*%
%TA.AperFunction,SMDPad,CuDef*%
%ADD27RoundRect,0.050000X-0.387500X-0.050000X0.387500X-0.050000X0.387500X0.050000X-0.387500X0.050000X0*%
%TD*%
%TA.AperFunction,SMDPad,CuDef*%
%ADD28RoundRect,0.050000X-0.050000X-0.387500X0.050000X-0.387500X0.050000X0.387500X-0.050000X0.387500X0*%
%TD*%
%TA.AperFunction,SMDPad,CuDef*%
%ADD29R,3.200000X3.200000*%
%TD*%
%TA.AperFunction,ViaPad*%
%ADD30C,0.800000*%
%TD*%
%TA.AperFunction,Conductor*%
%ADD31C,0.130000*%
%TD*%
%TA.AperFunction,Conductor*%
%ADD32C,0.250000*%
%TD*%
%TA.AperFunction,Conductor*%
%ADD33C,0.200000*%
%TD*%
G04 APERTURE END LIST*
D10*
%TO.P,C8,1*%
%TO.N,+3.3V*%
X114000000Y-73500000D03*
%TO.P,C8,2*%
%TO.N,GND*%
X113040000Y-73500000D03*
%TD*%
D11*
%TO.P,C12,1*%
%TO.N,GND*%
X103000000Y-71320000D03*
%TO.P,C12,2*%
%TO.N,Net-(U1-XIN)*%
X103000000Y-72280000D03*
%TD*%
D12*
%TO.P,C10,1*%
%TO.N,+3.3V*%
X108600000Y-61880000D03*
%TO.P,C10,2*%
%TO.N,GND*%
X108600000Y-60920000D03*
%TD*%
D10*
%TO.P,C6,1*%
%TO.N,+3.3V*%
X114000000Y-71500000D03*
%TO.P,C6,2*%
%TO.N,GND*%
X113040000Y-71500000D03*
%TD*%
D13*
%TO.P,C14,1*%
%TO.N,+3.3V*%
X120300000Y-72600000D03*
%TO.P,C14,2*%
%TO.N,GND*%
X122200000Y-72600000D03*
%TD*%
D14*
%TO.P,R3,1*%
%TO.N,Net-(P1-CC)*%
X121250000Y-57990000D03*
%TO.P,R3,2*%
%TO.N,GND*%
X121250000Y-59010000D03*
%TD*%
D15*
%TO.P,U2,1,GND*%
%TO.N,GND*%
X123250000Y-62750000D03*
%TO.P,U2,2,VO*%
%TO.N,+3.3V*%
X120950000Y-62750000D03*
D16*
X120950000Y-69050000D03*
D15*
%TO.P,U2,3,VI*%
%TO.N,VBUS*%
X118650000Y-62750000D03*
%TD*%
D17*
%TO.P,SW6,1,A*%
%TO.N,GND*%
X95600000Y-68400000D03*
%TO.P,SW6,2,B*%
%TO.N,Net-(SW6-B)*%
X99000000Y-68400000D03*
%TD*%
D18*
%TO.P,U3,1,~{CS}*%
%TO.N,Net-(U1-QSPI_SS)*%
X103200000Y-55095000D03*
%TO.P,U3,2,DO(IO1)*%
%TO.N,Net-(U1-QSPI_SD1)*%
X103200000Y-56365000D03*
%TO.P,U3,3,IO2*%
%TO.N,Net-(U1-QSPI_SD2)*%
X103200000Y-57635000D03*
%TO.P,U3,4,GND*%
%TO.N,GND*%
X103200000Y-58905000D03*
%TO.P,U3,5,DI(IO0)*%
%TO.N,Net-(U1-QSPI_SD0)*%
X110400000Y-58905000D03*
%TO.P,U3,6,CLK*%
%TO.N,Net-(U1-QSPI_SCLK)*%
X110400000Y-57635000D03*
%TO.P,U3,7,IO3*%
%TO.N,Net-(U1-QSPI_SD3)*%
X110400000Y-56365000D03*
%TO.P,U3,8,VCC*%
%TO.N,+3.3V*%
X110400000Y-55095000D03*
%TD*%
D19*
%TO.P,SW1,1,A*%
%TO.N,GND*%
X110000000Y-51200000D03*
%TO.P,SW1,2,B*%
%TO.N,Net-(SW1-B)*%
X103270000Y-51200000D03*
%TD*%
D20*
%TO.P,P1,A1,GND*%
%TO.N,GND*%
X124200000Y-55680000D03*
%TO.P,P1,A4,VBUS*%
%TO.N,VBUS*%
X123400000Y-55680000D03*
D21*
%TO.P,P1,A5,CC*%
%TO.N,Net-(P1-CC)*%
X122250000Y-55680000D03*
%TO.P,P1,A6,D+*%
%TO.N,USB_D+*%
X121250000Y-55680000D03*
%TO.P,P1,A7,D-*%
%TO.N,USB_D-*%
X120750000Y-55680000D03*
%TO.P,P1,A8*%
%TO.N,N/C*%
X119750000Y-55680000D03*
D20*
%TO.P,P1,A9,VBUS*%
%TO.N,VBUS*%
X118600000Y-55680000D03*
%TO.P,P1,A12,GND*%
%TO.N,GND*%
X117800000Y-55680000D03*
%TO.P,P1,B1,GND*%
X117800000Y-55680000D03*
%TO.P,P1,B4,VBUS*%
%TO.N,VBUS*%
X118600000Y-55680000D03*
D21*
%TO.P,P1,B5,VCONN*%
%TO.N,unconnected-(P1-VCONN-PadB5)*%
X119250000Y-55680000D03*
%TO.P,P1,B6*%
%TO.N,N/C*%
X120250000Y-55680000D03*
%TO.P,P1,B7*%
X121750000Y-55680000D03*
%TO.P,P1,B8*%
X122750000Y-55680000D03*
D20*
%TO.P,P1,B9,VBUS*%
%TO.N,VBUS*%
X123400000Y-55680000D03*
%TO.P,P1,B12,GND*%
%TO.N,GND*%
X124200000Y-55680000D03*
D22*
%TO.P,P1,S1,SHIELD*%
X125320000Y-55105000D03*
D23*
X125320000Y-50925000D03*
D22*
X116680000Y-55105000D03*
D23*
X116680000Y-50925000D03*
%TD*%
D24*
%TO.P,C5,1*%
%TO.N,+3.3V*%
X111040000Y-74500000D03*
%TO.P,C5,2*%
%TO.N,GND*%
X112000000Y-74500000D03*
%TD*%
D14*
%TO.P,R4,1*%
%TO.N,Net-(SW1-B)*%
X101250000Y-53490000D03*
%TO.P,R4,2*%
%TO.N,Net-(U1-QSPI_SS)*%
X101250000Y-54510000D03*
%TD*%
D24*
%TO.P,C4,1*%
%TO.N,+3.3V*%
X111040000Y-73500000D03*
%TO.P,C4,2*%
%TO.N,GND*%
X112000000Y-73500000D03*
%TD*%
D12*
%TO.P,C11,1*%
%TO.N,+1V1*%
X107600000Y-61880000D03*
%TO.P,C11,2*%
%TO.N,GND*%
X107600000Y-60920000D03*
%TD*%
D10*
%TO.P,C7,1*%
%TO.N,+3.3V*%
X114000000Y-72500000D03*
%TO.P,C7,2*%
%TO.N,GND*%
X113040000Y-72500000D03*
%TD*%
D17*
%TO.P,SW2,1,A*%
%TO.N,GND*%
X95600000Y-51000000D03*
%TO.P,SW2,2,B*%
%TO.N,Net-(SW2-B)*%
X99000000Y-51000000D03*
%TD*%
D25*
%TO.P,Y1,1,1*%
%TO.N,Net-(U1-XOUT)*%
X106900000Y-71750000D03*
%TO.P,Y1,2,2*%
%TO.N,Net-(U1-XIN)*%
X104700000Y-71750000D03*
%TO.P,Y1,3*%
%TO.N,N/C*%
X104700000Y-73450000D03*
%TO.P,Y1,4*%
X106900000Y-73450000D03*
%TD*%
D13*
%TO.P,C15,1*%
%TO.N,VBUS*%
X123350000Y-59500000D03*
%TO.P,C15,2*%
%TO.N,GND*%
X125250000Y-59500000D03*
%TD*%
D12*
%TO.P,C2,1*%
%TO.N,+1V1*%
X106500000Y-61730000D03*
%TO.P,C2,2*%
%TO.N,GND*%
X106500000Y-60770000D03*
%TD*%
%TO.P,C16,1*%
%TO.N,+3.3V*%
X112000000Y-54500000D03*
%TO.P,C16,2*%
%TO.N,GND*%
X112000000Y-53540000D03*
%TD*%
D17*
%TO.P,SW3,1,A*%
%TO.N,GND*%
X95600000Y-55350000D03*
%TO.P,SW3,2,B*%
%TO.N,Net-(SW3-B)*%
X99000000Y-55350000D03*
%TD*%
D24*
%TO.P,C9,1*%
%TO.N,+3.3V*%
X111040000Y-71500000D03*
%TO.P,C9,2*%
%TO.N,GND*%
X112000000Y-71500000D03*
%TD*%
D26*
%TO.P,R2,1*%
%TO.N,Net-(U1-USB_DM)*%
X111730000Y-64000000D03*
%TO.P,R2,2*%
%TO.N,USB_D-*%
X112750000Y-64000000D03*
%TD*%
D17*
%TO.P,SW5,1,A*%
%TO.N,GND*%
X95600000Y-64050000D03*
%TO.P,SW5,2,B*%
%TO.N,Net-(SW5-B)*%
X99000000Y-64050000D03*
%TD*%
D26*
%TO.P,R1,1*%
%TO.N,Net-(U1-USB_DP)*%
X111730000Y-65250000D03*
%TO.P,R1,2*%
%TO.N,USB_D+*%
X112750000Y-65250000D03*
%TD*%
D17*
%TO.P,SW7,1,A*%
%TO.N,GND*%
X95600000Y-72750000D03*
%TO.P,SW7,2,B*%
%TO.N,Net-(SW7-B)*%
X99000000Y-72750000D03*
%TD*%
D24*
%TO.P,C3,1*%
%TO.N,+3.3V*%
X111040000Y-72500000D03*
%TO.P,C3,2*%
%TO.N,GND*%
X112000000Y-72500000D03*
%TD*%
D12*
%TO.P,C1,1*%
%TO.N,+1V1*%
X105500000Y-61730000D03*
%TO.P,C1,2*%
%TO.N,GND*%
X105500000Y-60770000D03*
%TD*%
D27*
%TO.P,U1,1,IOVDD*%
%TO.N,+3.3V*%
X102762500Y-64037500D03*
%TO.P,U1,2,GPIO0*%
%TO.N,Net-(SW2-B)*%
X102762500Y-64437500D03*
%TO.P,U1,3,GPIO1*%
%TO.N,Net-(SW3-B)*%
X102762500Y-64837500D03*
%TO.P,U1,4,GPIO2*%
%TO.N,Net-(SW4-B)*%
X102762500Y-65237500D03*
%TO.P,U1,5,GPIO3*%
%TO.N,Net-(SW5-B)*%
X102762500Y-65637500D03*
%TO.P,U1,6,GPIO4*%
%TO.N,Net-(SW6-B)*%
X102762500Y-66037500D03*
%TO.P,U1,7,GPIO5*%
%TO.N,Net-(SW7-B)*%
X102762500Y-66437500D03*
%TO.P,U1,8,GPIO6*%
%TO.N,unconnected-(U1-GPIO6-Pad8)*%
X102762500Y-66837500D03*
%TO.P,U1,9,GPIO7*%
%TO.N,unconnected-(U1-GPIO7-Pad9)*%
X102762500Y-67237500D03*
%TO.P,U1,10,IOVDD*%
%TO.N,+3.3V*%
X102762500Y-67637500D03*
%TO.P,U1,11,GPIO8*%
%TO.N,unconnected-(U1-GPIO8-Pad11)*%
X102762500Y-68037500D03*
%TO.P,U1,12,GPIO9*%
%TO.N,unconnected-(U1-GPIO9-Pad12)*%
X102762500Y-68437500D03*
%TO.P,U1,13,GPIO10*%
%TO.N,unconnected-(U1-GPIO10-Pad13)*%
X102762500Y-68837500D03*
%TO.P,U1,14,GPIO11*%
%TO.N,unconnected-(U1-GPIO11-Pad14)*%
X102762500Y-69237500D03*
D28*
%TO.P,U1,15,GPIO12*%
%TO.N,unconnected-(U1-GPIO12-Pad15)*%
X103600000Y-70075000D03*
%TO.P,U1,16,GPIO13*%
%TO.N,unconnected-(U1-GPIO13-Pad16)*%
X104000000Y-70075000D03*
%TO.P,U1,17,GPIO14*%
%TO.N,unconnected-(U1-GPIO14-Pad17)*%
X104400000Y-70075000D03*
%TO.P,U1,18,GPIO15*%
%TO.N,unconnected-(U1-GPIO15-Pad18)*%
X104800000Y-70075000D03*
%TO.P,U1,19,TESTEN*%
%TO.N,GND*%
X105200000Y-70075000D03*
%TO.P,U1,20,XIN*%
%TO.N,Net-(U1-XIN)*%
X105600000Y-70075000D03*
%TO.P,U1,21,XOUT*%
%TO.N,Net-(U1-XOUT)*%
X106000000Y-70075000D03*
%TO.P,U1,22,IOVDD*%
%TO.N,+3.3V*%
X106400000Y-70075000D03*
%TO.P,U1,23,DVDD*%
%TO.N,+1V1*%
X106800000Y-70075000D03*
%TO.P,U1,24,SWCLK*%
%TO.N,unconnected-(U1-SWCLK-Pad24)*%
X107200000Y-70075000D03*
%TO.P,U1,25,SWD*%
%TO.N,unconnected-(U1-SWD-Pad25)*%
X107600000Y-70075000D03*
%TO.P,U1,26,RUN*%
%TO.N,unconnected-(U1-RUN-Pad26)*%
X108000000Y-70075000D03*
%TO.P,U1,27,GPIO16*%
%TO.N,unconnected-(U1-GPIO16-Pad27)*%
X108400000Y-70075000D03*
%TO.P,U1,28,GPIO17*%
%TO.N,unconnected-(U1-GPIO17-Pad28)*%
X108800000Y-70075000D03*
D27*
%TO.P,U1,29,GPIO18*%
%TO.N,unconnected-(U1-GPIO18-Pad29)*%
X109637500Y-69237500D03*
%TO.P,U1,30,GPIO19*%
%TO.N,unconnected-(U1-GPIO19-Pad30)*%
X109637500Y-68837500D03*
%TO.P,U1,31,GPIO20*%
%TO.N,unconnected-(U1-GPIO20-Pad31)*%
X109637500Y-68437500D03*
%TO.P,U1,32,GPIO21*%
%TO.N,unconnected-(U1-GPIO21-Pad32)*%
X109637500Y-68037500D03*
%TO.P,U1,33,IOVDD*%
%TO.N,+3.3V*%
X109637500Y-67637500D03*
%TO.P,U1,34,GPIO22*%
%TO.N,unconnected-(U1-GPIO22-Pad34)*%
X109637500Y-67237500D03*
%TO.P,U1,35,GPIO23*%
%TO.N,unconnected-(U1-GPIO23-Pad35)*%
X109637500Y-66837500D03*
%TO.P,U1,36,GPIO24*%
%TO.N,unconnected-(U1-GPIO24-Pad36)*%
X109637500Y-66437500D03*
%TO.P,U1,37,GPIO25*%
%TO.N,unconnected-(U1-GPIO25-Pad37)*%
X109637500Y-66037500D03*
%TO.P,U1,38,GPIO26_ADC0*%
%TO.N,unconnected-(U1-GPIO26_ADC0-Pad38)*%
X109637500Y-65637500D03*
%TO.P,U1,39,GPIO27_ADC1*%
%TO.N,unconnected-(U1-GPIO27_ADC1-Pad39)*%
X109637500Y-65237500D03*
%TO.P,U1,40,GPIO28_ADC2*%
%TO.N,unconnected-(U1-GPIO28_ADC2-Pad40)*%
X109637500Y-64837500D03*
%TO.P,U1,41,GPIO29_ADC3*%
%TO.N,unconnected-(U1-GPIO29_ADC3-Pad41)*%
X109637500Y-64437500D03*
%TO.P,U1,42,IOVDD*%
%TO.N,+3.3V*%
X109637500Y-64037500D03*
D28*
%TO.P,U1,43,ADC_AVDD*%
X108800000Y-63200000D03*
%TO.P,U1,44,VREG_IN*%
X108400000Y-63200000D03*
%TO.P,U1,45,VREG_VOUT*%
%TO.N,+1V1*%
X108000000Y-63200000D03*
%TO.P,U1,46,USB_DM*%
%TO.N,Net-(U1-USB_DM)*%
X107600000Y-63200000D03*
%TO.P,U1,47,USB_DP*%
%TO.N,Net-(U1-USB_DP)*%
X107200000Y-63200000D03*
%TO.P,U1,48,USB_VDD*%
%TO.N,+3.3V*%
X106800000Y-63200000D03*
%TO.P,U1,49,IOVDD*%
X106400000Y-63200000D03*
%TO.P,U1,50,DVDD*%
%TO.N,+1V1*%
X106000000Y-63200000D03*
%TO.P,U1,51,QSPI_SD3*%
%TO.N,Net-(U1-QSPI_SD3)*%
X105600000Y-63200000D03*
%TO.P,U1,52,QSPI_SCLK*%
%TO.N,Net-(U1-QSPI_SCLK)*%
X105200000Y-63200000D03*
%TO.P,U1,53,QSPI_SD0*%
%TO.N,Net-(U1-QSPI_SD0)*%
X104800000Y-63200000D03*
%TO.P,U1,54,QSPI_SD2*%
%TO.N,Net-(U1-QSPI_SD2)*%
X104400000Y-63200000D03*
%TO.P,U1,55,QSPI_SD1*%
%TO.N,Net-(U1-QSPI_SD1)*%
X104000000Y-63200000D03*
%TO.P,U1,56,QSPI_SS*%
%TO.N,Net-(U1-QSPI_SS)*%
X103600000Y-63200000D03*
D29*
%TO.P,U1,57,GND*%
%TO.N,GND*%
X106200000Y-66637500D03*
%TD*%
D12*
%TO.P,C13,1*%
%TO.N,GND*%
X108600000Y-72280000D03*
%TO.P,C13,2*%
%TO.N,Net-(U1-XOUT)*%
X108600000Y-71320000D03*
%TD*%
D17*
%TO.P,SW4,1,A*%
%TO.N,GND*%
X95600000Y-59700000D03*
%TO.P,SW4,2,B*%
%TO.N,Net-(SW4-B)*%
X99000000Y-59700000D03*
%TD*%
D30*
%TO.N,GND*%
X123750000Y-61000000D03*
X109750000Y-61500000D03*
X106750000Y-57750000D03*
X123750000Y-61000000D03*
X106200000Y-64500000D03*
X121500000Y-59750000D03*
%TO.N,Net-(U1-USB_DP)*%
X110750000Y-65250000D03*
X108670500Y-65250000D03*
%TO.N,Net-(U1-USB_DM)*%
X110750000Y-64000000D03*
X108464450Y-64343624D03*
%TD*%
D31*
%TO.N,+1V1*%
X107630000Y-61880000D02*
X108000000Y-62250000D01*
X108000000Y-62250000D02*
X108000000Y-63200000D01*
X106500000Y-61750000D02*
X106000000Y-62250000D01*
X106500000Y-61730000D02*
X106500000Y-61750000D01*
X105500000Y-61750000D02*
X106000000Y-62250000D01*
X106000000Y-62250000D02*
X106000000Y-63200000D01*
X105500000Y-61730000D02*
X105500000Y-61750000D01*
X107600000Y-61880000D02*
X107630000Y-61880000D01*
%TO.N,GND*%
X106750000Y-57750000D02*
X105560000Y-57750000D01*
X111495000Y-75005000D02*
X109455000Y-75005000D01*
X112000000Y-71500000D02*
X113040000Y-71500000D01*
X104405000Y-58905000D02*
X103200000Y-58905000D01*
D32*
X124200000Y-56950000D02*
X125250000Y-58000000D01*
D31*
X94500000Y-74250000D02*
X95250000Y-75000000D01*
X112000000Y-74500000D02*
X112000000Y-73500000D01*
X103500000Y-74750000D02*
X102495000Y-73745000D01*
X103180000Y-71320000D02*
X103750000Y-70750000D01*
X105200000Y-70458982D02*
X105200000Y-70075000D01*
D32*
X125250000Y-58000000D02*
X125250000Y-59500000D01*
D31*
X105500000Y-60770000D02*
X106500000Y-60770000D01*
X95600000Y-64050000D02*
X95450000Y-64050000D01*
X106200000Y-64500000D02*
X105200000Y-65500000D01*
X94500000Y-65250000D02*
X94500000Y-69500000D01*
X94500000Y-51500000D02*
X94500000Y-56500000D01*
X113040000Y-73500000D02*
X113040000Y-72500000D01*
X94500000Y-60750000D02*
X94500000Y-65000000D01*
X116000000Y-72750000D02*
X115500000Y-73250000D01*
X94500000Y-73750000D02*
X94500000Y-74250000D01*
D32*
X122200000Y-72600000D02*
X125250000Y-69550000D01*
X121250000Y-59500000D02*
X121500000Y-59750000D01*
D31*
X95600000Y-68400000D02*
X94500000Y-69500000D01*
D32*
X119000000Y-74500000D02*
X117250000Y-72750000D01*
D31*
X95425000Y-72750000D02*
X94500000Y-73675000D01*
X108600000Y-74150000D02*
X108000000Y-74750000D01*
X112000000Y-72500000D02*
X112000000Y-71500000D01*
X117250000Y-72750000D02*
X116000000Y-72750000D01*
X115500000Y-73250000D02*
X115500000Y-74000000D01*
D32*
X124200000Y-55680000D02*
X124200000Y-56950000D01*
D31*
X95600000Y-49900000D02*
X95600000Y-51000000D01*
X108000000Y-74750000D02*
X103500000Y-74750000D01*
X107450000Y-60770000D02*
X107600000Y-60920000D01*
X95450000Y-64050000D02*
X94500000Y-65000000D01*
X113040000Y-72500000D02*
X113040000Y-71500000D01*
X107600000Y-60920000D02*
X106650000Y-60920000D01*
X102495000Y-71825000D02*
X103000000Y-71320000D01*
D32*
X121750000Y-74500000D02*
X119000000Y-74500000D01*
D31*
X95600000Y-59700000D02*
X94550000Y-60750000D01*
X94500000Y-56500000D02*
X94500000Y-60750000D01*
X112000000Y-74500000D02*
X111495000Y-75005000D01*
X95000000Y-51000000D02*
X94500000Y-51500000D01*
X96250000Y-49250000D02*
X95600000Y-49900000D01*
X106750000Y-57750000D02*
X106750000Y-54450000D01*
X103000000Y-71320000D02*
X103180000Y-71320000D01*
X109750000Y-61500000D02*
X109180000Y-61500000D01*
X112250000Y-74750000D02*
X112000000Y-74500000D01*
X94550000Y-60750000D02*
X94500000Y-60750000D01*
X103750000Y-70750000D02*
X104908982Y-70750000D01*
D32*
X122200000Y-72600000D02*
X122200000Y-74050000D01*
D31*
X104908982Y-70750000D02*
X105200000Y-70458982D01*
X112000000Y-73500000D02*
X112000000Y-72500000D01*
X95600000Y-55350000D02*
X94500000Y-56450000D01*
D32*
X123250000Y-61500000D02*
X123250000Y-62750000D01*
D31*
X109455000Y-75005000D02*
X108600000Y-74150000D01*
X109180000Y-61500000D02*
X108600000Y-60920000D01*
D32*
X125250000Y-59500000D02*
X123750000Y-61000000D01*
D31*
X94500000Y-56450000D02*
X94500000Y-56500000D01*
X101240000Y-75000000D02*
X102495000Y-73745000D01*
X95600000Y-51000000D02*
X95000000Y-51000000D01*
X95600000Y-72750000D02*
X95425000Y-72750000D01*
D32*
X121250000Y-59010000D02*
X121250000Y-59500000D01*
D31*
X108600000Y-60920000D02*
X107600000Y-60920000D01*
X108050000Y-49250000D02*
X96250000Y-49250000D01*
X115500000Y-74000000D02*
X114750000Y-74750000D01*
X110000000Y-51200000D02*
X108050000Y-49250000D01*
X105200000Y-65500000D02*
X105200000Y-70075000D01*
X94500000Y-69500000D02*
X94500000Y-73750000D01*
D32*
X122200000Y-74050000D02*
X121750000Y-74500000D01*
D31*
X114750000Y-74750000D02*
X112250000Y-74750000D01*
X105560000Y-57750000D02*
X104405000Y-58905000D01*
D32*
X125250000Y-69550000D02*
X125250000Y-59500000D01*
D31*
X94500000Y-65000000D02*
X94500000Y-65250000D01*
X106750000Y-54450000D02*
X110000000Y-51200000D01*
X94500000Y-73675000D02*
X94500000Y-73750000D01*
X95250000Y-75000000D02*
X101240000Y-75000000D01*
X112000000Y-53200000D02*
X110000000Y-51200000D01*
X112000000Y-53540000D02*
X112000000Y-53200000D01*
X102495000Y-73745000D02*
X102495000Y-71825000D01*
D32*
X123750000Y-61000000D02*
X123250000Y-61500000D01*
D31*
X108600000Y-72280000D02*
X108600000Y-74150000D01*
X106650000Y-60920000D02*
X106500000Y-60770000D01*
D32*
%TO.N,+3.3V*%
X120500000Y-72400000D02*
X120300000Y-72600000D01*
X120950000Y-69050000D02*
X120950000Y-70550000D01*
D31*
X111250000Y-70500000D02*
X111000000Y-70250000D01*
X111040000Y-70790000D02*
X111040000Y-71500000D01*
X111000000Y-70750000D02*
X111040000Y-70790000D01*
X108600000Y-61880000D02*
X108600000Y-62150000D01*
X113750000Y-70500000D02*
X111250000Y-70500000D01*
X111250000Y-70500000D02*
X111000000Y-70750000D01*
X114000000Y-70750000D02*
X113750000Y-70500000D01*
X111040000Y-74500000D02*
X111040000Y-73500000D01*
X111040000Y-72500000D02*
X111040000Y-71500000D01*
D32*
X120500000Y-71000000D02*
X120500000Y-72400000D01*
X120950000Y-70550000D02*
X120500000Y-71000000D01*
X117250000Y-72000000D02*
X116500000Y-72000000D01*
D31*
X108600000Y-62150000D02*
X108400000Y-62350000D01*
X110050000Y-63200000D02*
X112270000Y-60980000D01*
X110637500Y-67637500D02*
X109637500Y-67637500D01*
X114000000Y-71500000D02*
X114000000Y-70750000D01*
X116500000Y-72000000D02*
X116250000Y-72000000D01*
X111405000Y-55095000D02*
X112000000Y-54500000D01*
X108800000Y-63200000D02*
X110050000Y-63200000D01*
X116250000Y-72000000D02*
X114750000Y-73500000D01*
X112270000Y-56402304D02*
X110962696Y-55095000D01*
X110962696Y-55095000D02*
X110400000Y-55095000D01*
D32*
X117850000Y-72600000D02*
X117250000Y-72000000D01*
D31*
X114000000Y-72500000D02*
X114000000Y-71500000D01*
D32*
X120300000Y-72600000D02*
X117850000Y-72600000D01*
D31*
X110400000Y-55095000D02*
X111405000Y-55095000D01*
X111000000Y-70250000D02*
X111000000Y-68000000D01*
X108400000Y-62350000D02*
X108400000Y-63200000D01*
X111000000Y-68000000D02*
X110637500Y-67637500D01*
X112270000Y-60980000D02*
X112270000Y-56402304D01*
X114750000Y-73500000D02*
X114000000Y-73500000D01*
X111040000Y-73500000D02*
X111040000Y-72500000D01*
X114000000Y-73500000D02*
X114000000Y-72500000D01*
%TO.N,Net-(U1-XIN)*%
X105600000Y-70850000D02*
X104700000Y-71750000D01*
X103530000Y-71750000D02*
X104700000Y-71750000D01*
X105600000Y-70075000D02*
X105600000Y-70850000D01*
X103000000Y-72280000D02*
X103530000Y-71750000D01*
%TO.N,Net-(U1-XOUT)*%
X108170000Y-71750000D02*
X108600000Y-71320000D01*
X106900000Y-71750000D02*
X108170000Y-71750000D01*
X106000000Y-70075000D02*
X106000000Y-70850000D01*
X106000000Y-70850000D02*
X106900000Y-71750000D01*
D32*
%TO.N,VBUS*%
X119500000Y-61000000D02*
X118650000Y-61850000D01*
X123400000Y-55680000D02*
X123400000Y-59450000D01*
X123350000Y-59500000D02*
X121850000Y-61000000D01*
X121850000Y-61000000D02*
X119500000Y-61000000D01*
X123400000Y-59450000D02*
X123350000Y-59500000D01*
X118650000Y-61850000D02*
X118650000Y-62750000D01*
%TO.N,Net-(P1-CC)*%
X122250000Y-55680000D02*
X122250000Y-57000000D01*
X122250000Y-57000000D02*
X121250000Y-58000000D01*
D31*
%TO.N,Net-(U1-USB_DP)*%
X111730000Y-65250000D02*
X110750000Y-65250000D01*
X108402500Y-65250000D02*
X107200000Y-64047500D01*
X108670500Y-65250000D02*
X108402500Y-65250000D01*
X107200000Y-64047500D02*
X107200000Y-63200000D01*
D33*
%TO.N,USB_D+*%
X121250000Y-55680000D02*
X121250000Y-57000000D01*
X117000000Y-64000000D02*
X115750000Y-65250000D01*
X115750000Y-65250000D02*
X112750000Y-65250000D01*
X121250000Y-57000000D02*
X117000000Y-61250000D01*
X117000000Y-61250000D02*
X117000000Y-64000000D01*
D31*
%TO.N,Net-(U1-USB_DM)*%
X107600000Y-63583982D02*
X107600000Y-63200000D01*
X108359642Y-64343624D02*
X107600000Y-63583982D01*
X111730000Y-64000000D02*
X110750000Y-64000000D01*
X108464450Y-64343624D02*
X108359642Y-64343624D01*
D33*
%TO.N,USB_D-*%
X120750000Y-55680000D02*
X120750000Y-56934314D01*
X115750000Y-64000000D02*
X116500000Y-63250000D01*
X120750000Y-56934314D02*
X116500000Y-61184314D01*
X112750000Y-64000000D02*
X115750000Y-64000000D01*
X116500000Y-63250000D02*
X116500000Y-61184314D01*
D31*
%TO.N,Net-(SW1-B)*%
X101250000Y-53490000D02*
X101250000Y-53220000D01*
X101250000Y-53220000D02*
X103270000Y-51200000D01*
%TO.N,Net-(U1-QSPI_SS)*%
X101250000Y-54510000D02*
X102615000Y-54510000D01*
X101685000Y-60685000D02*
X103600000Y-62600000D01*
X103600000Y-62600000D02*
X103600000Y-63200000D01*
X101685000Y-56592096D02*
X101685000Y-60685000D01*
X102615000Y-54510000D02*
X103200000Y-55095000D01*
X103182096Y-55095000D02*
X101685000Y-56592096D01*
X103200000Y-55095000D02*
X103182096Y-55095000D01*
%TO.N,Net-(SW2-B)*%
X102187500Y-64437500D02*
X102762500Y-64437500D01*
X99000000Y-51000000D02*
X99000000Y-53046690D01*
X100260000Y-62510000D02*
X102187500Y-64437500D01*
X100260000Y-54306690D02*
X100260000Y-62510000D01*
X99000000Y-53046690D02*
X100260000Y-54306690D01*
%TO.N,Net-(SW3-B)*%
X100000000Y-62617696D02*
X102219804Y-64837500D01*
X99000000Y-55350000D02*
X100000000Y-56350000D01*
X100000000Y-56350000D02*
X100000000Y-62617696D01*
X102219804Y-64837500D02*
X102762500Y-64837500D01*
%TO.N,Net-(SW4-B)*%
X99000000Y-61985392D02*
X102252108Y-65237500D01*
X102252108Y-65237500D02*
X102762500Y-65237500D01*
X99000000Y-59700000D02*
X99000000Y-61985392D01*
%TO.N,Net-(SW5-B)*%
X99000000Y-64050000D02*
X100587500Y-65637500D01*
X100587500Y-65637500D02*
X102762500Y-65637500D01*
%TO.N,Net-(SW6-B)*%
X99000000Y-68400000D02*
X101362500Y-66037500D01*
X101362500Y-66037500D02*
X102762500Y-66037500D01*
%TO.N,Net-(SW7-B)*%
X99000000Y-72750000D02*
X100000000Y-71750000D01*
X100000000Y-67767696D02*
X101330196Y-66437500D01*
X100000000Y-71750000D02*
X100000000Y-67767696D01*
X101330196Y-66437500D02*
X102762500Y-66437500D01*
%TO.N,Net-(U1-QSPI_SD3)*%
X111607696Y-60260000D02*
X105226238Y-60260000D01*
X110400000Y-56365000D02*
X110732696Y-56365000D01*
X105600000Y-62613762D02*
X105600000Y-63200000D01*
X112010000Y-59857696D02*
X111607696Y-60260000D01*
X112010000Y-57642304D02*
X112010000Y-59857696D01*
X104995000Y-60491238D02*
X104995000Y-62008762D01*
X110732696Y-56365000D02*
X112010000Y-57642304D01*
X104995000Y-62008762D02*
X105600000Y-62613762D01*
X105226238Y-60260000D02*
X104995000Y-60491238D01*
%TO.N,Net-(U1-QSPI_SCLK)*%
X111750000Y-57750000D02*
X111635000Y-57635000D01*
X111635000Y-57635000D02*
X110400000Y-57635000D01*
X104735000Y-60383542D02*
X105118542Y-60000000D01*
X104735000Y-62116458D02*
X104735000Y-60383542D01*
X105118542Y-60000000D02*
X111500000Y-60000000D01*
X105200000Y-62581458D02*
X104735000Y-62116458D01*
X105200000Y-63200000D02*
X105200000Y-62581458D01*
X111750000Y-59750000D02*
X111750000Y-57750000D01*
X111500000Y-60000000D02*
X111750000Y-59750000D01*
%TO.N,Net-(U1-QSPI_SD0)*%
X104433848Y-62316152D02*
X104800000Y-62682304D01*
X104800000Y-62682304D02*
X104800000Y-63200000D01*
X110400000Y-58905000D02*
X105845846Y-58905000D01*
X105845846Y-58905000D02*
X104433848Y-60316998D01*
X104433848Y-60316998D02*
X104433848Y-62316152D01*
%TO.N,Net-(U1-QSPI_SD2)*%
X102205000Y-60455000D02*
X104400000Y-62650000D01*
X102205000Y-58612096D02*
X102205000Y-60455000D01*
X104400000Y-62650000D02*
X104400000Y-63200000D01*
X103182096Y-57635000D02*
X102205000Y-58612096D01*
X103200000Y-57635000D02*
X103182096Y-57635000D01*
%TO.N,Net-(U1-QSPI_SD1)*%
X103200000Y-56365000D02*
X103182096Y-56365000D01*
X101945000Y-60562696D02*
X104000000Y-62617696D01*
X103182096Y-56365000D02*
X101945000Y-57602096D01*
X101945000Y-57602096D02*
X101945000Y-60562696D01*
X104000000Y-62617696D02*
X104000000Y-63200000D01*
%TD*%
M02*
