%TF.GenerationSoftware,KiCad,Pcbnew,7.0.5*%
%TF.CreationDate,2023-09-22T01:01:30+09:00*%
%TF.ProjectId,scratch-rp2040,73637261-7463-4682-9d72-70323034302e,rev?*%
%TF.SameCoordinates,Original*%
%TF.FileFunction,Copper,L2,Bot*%
%TF.FilePolarity,Positive*%
%FSLAX46Y46*%
G04 Gerber Fmt 4.6, Leading zero omitted, Abs format (unit mm)*
G04 Created by KiCad (PCBNEW 7.0.5) date 2023-09-22 01:01:30*
%MOMM*%
%LPD*%
G01*
G04 APERTURE LIST*
%TA.AperFunction,ComponentPad*%
%ADD10O,1.000000X2.100000*%
%TD*%
%TA.AperFunction,ComponentPad*%
%ADD11O,1.000000X1.800000*%
%TD*%
%TA.AperFunction,ViaPad*%
%ADD12C,0.800000*%
%TD*%
%TA.AperFunction,ViaPad*%
%ADD13C,0.350000*%
%TD*%
%TA.AperFunction,Conductor*%
%ADD14C,0.130000*%
%TD*%
%TA.AperFunction,Conductor*%
%ADD15C,0.200000*%
%TD*%
G04 APERTURE END LIST*
D10*
%TO.P,P1,S1,SHIELD*%
%TO.N,GND*%
X53280000Y-44375000D03*
D11*
X53280000Y-48575000D03*
D10*
X61920000Y-44375000D03*
D11*
X61920000Y-48575000D03*
%TD*%
D12*
%TO.N,unconnected-(U1-GPIO24-Pad36)*%
X51200000Y-41000000D03*
%TO.N,unconnected-(U1-GPIO22-Pad34)*%
X51200000Y-38400000D03*
%TO.N,unconnected-(U1-GPIO21-Pad32)*%
X51200000Y-35800000D03*
%TO.N,unconnected-(U1-GPIO23-Pad35)*%
X51200000Y-33200000D03*
%TO.N,unconnected-(U1-GPIO25-Pad37)*%
X52800000Y-23600000D03*
%TO.N,unconnected-(U1-GPIO20-Pad31)*%
X55300000Y-23475000D03*
%TO.N,unconnected-(U1-GPIO19-Pad30)*%
X57800000Y-23400000D03*
%TO.N,+1V1*%
X55400000Y-28600000D03*
%TO.N,unconnected-(U1-GPIO26_ADC0-Pad38)*%
X60325000Y-28600000D03*
%TO.N,unconnected-(U1-GPIO18-Pad29)*%
X60380000Y-23475000D03*
%TO.N,unconnected-(U1-GPIO17-Pad28)*%
X62865000Y-28600000D03*
%TO.N,unconnected-(U1-SWCLK-Pad24)*%
X63000000Y-23400000D03*
%TO.N,unconnected-(U1-SWD-Pad25)*%
X65400000Y-28600000D03*
%TO.N,unconnected-(U1-RUN-Pad26)*%
X65400000Y-23400000D03*
%TO.N,unconnected-(U1-GPIO16-Pad27)*%
X67930000Y-28600000D03*
%TO.N,unconnected-(U1-GPIO27_ADC1-Pad39)*%
X68000000Y-23475000D03*
%TO.N,unconnected-(U1-GPIO28_ADC2-Pad40)*%
X70540000Y-28525000D03*
%TO.N,unconnected-(U1-GPIO29_ADC3-Pad41)*%
X70540000Y-23475000D03*
D13*
X70000000Y-42600000D03*
X65800000Y-43000000D03*
X68200421Y-42598783D03*
%TO.N,unconnected-(U1-GPIO28_ADC2-Pad40)*%
X65800000Y-42200000D03*
%TO.N,unconnected-(U1-GPIO27_ADC1-Pad39)*%
X65800000Y-41600000D03*
%TO.N,unconnected-(U1-GPIO26_ADC0-Pad38)*%
X63200000Y-34188133D03*
X62800000Y-35600000D03*
X65800000Y-41000000D03*
%TO.N,unconnected-(U1-GPIO25-Pad37)*%
X60200000Y-38600000D03*
X60400000Y-40200000D03*
X65800000Y-40400000D03*
%TO.N,unconnected-(U1-GPIO24-Pad36)*%
X57200000Y-41400000D03*
X57600000Y-40000000D03*
X63800000Y-41000000D03*
%TO.N,unconnected-(U1-GPIO23-Pad35)*%
X58600000Y-38600000D03*
X59854502Y-39800000D03*
X65800000Y-39800000D03*
%TO.N,unconnected-(U1-GPIO22-Pad34)*%
X65800000Y-39200000D03*
%TO.N,unconnected-(U1-GPIO21-Pad32)*%
X65800000Y-38700497D03*
%TO.N,unconnected-(U1-GPIO20-Pad31)*%
X63600000Y-38400000D03*
%TO.N,unconnected-(U1-GPIO19-Pad30)*%
X63600000Y-37800000D03*
D12*
%TO.N,GND*%
X63200000Y-44400000D03*
X63200000Y-42200000D03*
X54400000Y-42200000D03*
X67200000Y-48000000D03*
D13*
%TO.N,unconnected-(U1-GPIO18-Pad29)*%
X63400000Y-36399500D03*
%TO.N,unconnected-(U1-GPIO16-Pad27)*%
X72000000Y-36000000D03*
X69175500Y-38000000D03*
X65800000Y-37800000D03*
%TO.N,unconnected-(U1-GPIO17-Pad28)*%
X64198118Y-37202822D03*
%TO.N,unconnected-(U1-RUN-Pad26)*%
X70400000Y-37800000D03*
X68681417Y-38081083D03*
X66265651Y-37980753D03*
%TO.N,unconnected-(U1-SWD-Pad25)*%
X66800000Y-37600000D03*
%TO.N,unconnected-(U1-SWCLK-Pad24)*%
X65400000Y-36000000D03*
D12*
%TO.N,+3.3V*%
X73200000Y-50000000D03*
%TO.N,GND*%
X64600000Y-36600000D03*
X69000000Y-39600000D03*
X74034432Y-39720499D03*
%TO.N,+1V1*%
X63000959Y-34903926D03*
%TO.N,Net-(SW3-B)*%
X79900000Y-42400000D03*
X73800000Y-42400000D03*
%TO.N,Net-(SW2-B)*%
X73862998Y-43600000D03*
X76800000Y-42400000D03*
%TO.N,+3.3V*%
X68000000Y-45000000D03*
X70600000Y-41200000D03*
%TO.N,GND*%
X67000000Y-33200000D03*
X75100000Y-34400000D03*
X69200000Y-34900000D03*
%TO.N,USB_D+*%
X60000000Y-47040000D03*
X57120000Y-45120000D03*
%TO.N,USB_D-*%
X60000000Y-46080499D03*
X58080000Y-45120000D03*
%TO.N,+3.3V*%
X56480000Y-39950000D03*
X62400000Y-37000000D03*
X62400000Y-41400000D03*
X56480000Y-33650000D03*
%TO.N,Net-(U1-QSPI_SS)*%
X73200000Y-44400000D03*
X69000000Y-45600000D03*
%TO.N,Net-(U1-QSPI_SD2)*%
X77600000Y-46200000D03*
X82800000Y-48200000D03*
%TO.N,Net-(U1-QSPI_SD1)*%
X75600000Y-45200000D03*
X82800000Y-49435000D03*
%TD*%
D14*
%TO.N,unconnected-(U1-GPIO24-Pad36)*%
X56800000Y-41000000D02*
X57200000Y-41400000D01*
X51200000Y-41000000D02*
X56800000Y-41000000D01*
%TO.N,unconnected-(U1-GPIO22-Pad34)*%
X51200000Y-38400000D02*
X52400000Y-38400000D01*
X52400000Y-38400000D02*
X53335000Y-39335000D01*
%TO.N,unconnected-(U1-GPIO21-Pad32)*%
X65438456Y-38810000D02*
X65690497Y-38810000D01*
X65308456Y-38940000D02*
X65438456Y-38810000D01*
X65010760Y-38940000D02*
X65308456Y-38940000D01*
X64950760Y-39000000D02*
X65010760Y-38940000D01*
X65690497Y-38810000D02*
X65800000Y-38700497D01*
X55000000Y-39000000D02*
X64950760Y-39000000D01*
X51200000Y-35800000D02*
X51800000Y-35800000D01*
X51800000Y-35800000D02*
X55000000Y-39000000D01*
%TO.N,unconnected-(U1-GPIO23-Pad35)*%
X55400000Y-38600000D02*
X58600000Y-38600000D01*
X51200000Y-33200000D02*
X51200000Y-34400000D01*
X51200000Y-34400000D02*
X55400000Y-38600000D01*
%TO.N,unconnected-(U1-GPIO25-Pad37)*%
X52800000Y-31575134D02*
X52800000Y-23600000D01*
X56544866Y-35320000D02*
X52800000Y-31575134D01*
X60184608Y-35320000D02*
X56544866Y-35320000D01*
X60200000Y-35335392D02*
X60184608Y-35320000D01*
X60200000Y-38600000D02*
X60200000Y-35335392D01*
%TO.N,unconnected-(U1-GPIO20-Pad31)*%
X55300000Y-25300000D02*
X55300000Y-23475000D01*
X54000000Y-26600000D02*
X55300000Y-25300000D01*
X54000000Y-32407438D02*
X54000000Y-26600000D01*
X61525000Y-36292696D02*
X60292304Y-35060000D01*
X60292304Y-35060000D02*
X56652562Y-35060000D01*
X61525000Y-37362438D02*
X61525000Y-36292696D01*
X62222562Y-38060000D02*
X61525000Y-37362438D01*
X63600000Y-38400000D02*
X63260000Y-38060000D01*
X63260000Y-38060000D02*
X62222562Y-38060000D01*
X56652562Y-35060000D02*
X54000000Y-32407438D01*
%TO.N,unconnected-(U1-GPIO19-Pad30)*%
X54400000Y-26800000D02*
X57800000Y-23400000D01*
X56760258Y-34800000D02*
X54400000Y-32439742D01*
X54400000Y-32439742D02*
X54400000Y-26800000D01*
X61785000Y-36215000D02*
X61800000Y-36200000D01*
X61800000Y-36200000D02*
X60400000Y-34800000D01*
X60400000Y-34800000D02*
X56760258Y-34800000D01*
X62330258Y-37800000D02*
X61785000Y-37254742D01*
X61785000Y-37254742D02*
X61785000Y-36215000D01*
X63600000Y-37800000D02*
X62330258Y-37800000D01*
D15*
%TO.N,+1V1*%
X55400000Y-30000000D02*
X57150000Y-31750000D01*
X55400000Y-28600000D02*
X55400000Y-30000000D01*
X58844974Y-31750000D02*
X57150000Y-31750000D01*
X61998900Y-34903926D02*
X58844974Y-31750000D01*
X63000959Y-34903926D02*
X61998900Y-34903926D01*
D14*
%TO.N,unconnected-(U1-GPIO26_ADC0-Pad38)*%
X60325000Y-31325000D02*
X63188133Y-34188133D01*
X60325000Y-28600000D02*
X60325000Y-31325000D01*
%TO.N,unconnected-(U1-GPIO18-Pad29)*%
X60875000Y-23475000D02*
X60380000Y-23475000D01*
X61800000Y-24400000D02*
X60875000Y-23475000D01*
X61800000Y-30200000D02*
X61800000Y-24400000D01*
X63615959Y-35158668D02*
X63615959Y-32015959D01*
X63615959Y-32015959D02*
X61800000Y-30200000D01*
X63400000Y-36399500D02*
X63400000Y-35374627D01*
X63400000Y-35374627D02*
X63615959Y-35158668D01*
%TO.N,unconnected-(U1-GPIO17-Pad28)*%
X62865000Y-30865000D02*
X63985000Y-31985000D01*
X62865000Y-28600000D02*
X62865000Y-30865000D01*
X63985000Y-36989704D02*
X63985000Y-31985000D01*
X64198118Y-37202822D02*
X63985000Y-36989704D01*
%TO.N,unconnected-(U1-SWCLK-Pad24)*%
X63400000Y-23400000D02*
X64200000Y-24200000D01*
X63000000Y-23400000D02*
X63400000Y-23400000D01*
X64200000Y-29800000D02*
X64200000Y-24200000D01*
X65400000Y-31000000D02*
X64200000Y-29800000D01*
X65400000Y-36000000D02*
X65400000Y-31000000D01*
%TO.N,unconnected-(U1-SWD-Pad25)*%
X65535000Y-28600000D02*
X66385000Y-29450000D01*
X65400000Y-28600000D02*
X65535000Y-28600000D01*
X65400000Y-28465000D02*
X65400000Y-28600000D01*
%TO.N,unconnected-(U1-RUN-Pad26)*%
X64600000Y-29600000D02*
X64600000Y-24200000D01*
X66000000Y-33437438D02*
X66000000Y-31000000D01*
X68337563Y-35775001D02*
X66000000Y-33437438D01*
X66000000Y-31000000D02*
X64600000Y-29600000D01*
X70400000Y-37800000D02*
X70400000Y-37754522D01*
X70400000Y-37754522D02*
X68420479Y-35775001D01*
X68420479Y-35775001D02*
X68337563Y-35775001D01*
X64600000Y-24200000D02*
X65400000Y-23400000D01*
%TO.N,unconnected-(U1-SWD-Pad25)*%
X67015000Y-37385000D02*
X66800000Y-37600000D01*
X68215000Y-37745258D02*
X67854742Y-37385000D01*
X68385000Y-39645000D02*
X68215000Y-39815000D01*
X67854742Y-37385000D02*
X67015000Y-37385000D01*
X68385000Y-39854742D02*
X68385000Y-39645000D01*
X68745258Y-40215000D02*
X68385000Y-39854742D01*
X69254742Y-40215000D02*
X68745258Y-40215000D01*
X68215000Y-39815000D02*
X68215000Y-37745258D01*
X69434243Y-40035499D02*
X69254742Y-40215000D01*
X73479690Y-40035499D02*
X69434243Y-40035499D01*
X74289174Y-40335499D02*
X73779690Y-40335499D01*
X74649432Y-39975241D02*
X74289174Y-40335499D01*
X70698675Y-35515000D02*
X74649432Y-39465757D01*
X68445258Y-35515000D02*
X70698675Y-35515000D01*
X73779690Y-40335499D02*
X73479690Y-40035499D01*
X66385000Y-33454742D02*
X68445258Y-35515000D01*
X66385000Y-29450000D02*
X66385000Y-33454742D01*
X74649432Y-39465757D02*
X74649432Y-39975241D01*
X65460000Y-28525000D02*
X65400000Y-28465000D01*
%TO.N,unconnected-(U1-GPIO16-Pad27)*%
X75715000Y-34654742D02*
X74369742Y-36000000D01*
X74369742Y-36000000D02*
X72000000Y-36000000D01*
X75715000Y-32082696D02*
X75715000Y-34654742D01*
X69730000Y-30400000D02*
X74032304Y-30400000D01*
X74032304Y-30400000D02*
X75715000Y-32082696D01*
X67930000Y-28600000D02*
X69730000Y-30400000D01*
%TO.N,unconnected-(U1-GPIO27_ADC1-Pad39)*%
X68875000Y-23475000D02*
X68000000Y-23475000D01*
X69600000Y-28426458D02*
X69600000Y-24200000D01*
X71173542Y-30000000D02*
X69600000Y-28426458D01*
X74000000Y-30000000D02*
X71173542Y-30000000D01*
X69600000Y-24200000D02*
X68875000Y-23475000D01*
%TO.N,unconnected-(U1-GPIO28_ADC2-Pad40)*%
X70600000Y-28585000D02*
X70540000Y-28525000D01*
X70600000Y-28600000D02*
X70600000Y-28585000D01*
X76232304Y-28600000D02*
X70600000Y-28600000D01*
X77740000Y-37620065D02*
X77740000Y-30107696D01*
X77740000Y-30107696D02*
X76232304Y-28600000D01*
X74360065Y-41000000D02*
X77740000Y-37620065D01*
X70374759Y-40555499D02*
X73264298Y-40555499D01*
X65800000Y-42200000D02*
X68730258Y-42200000D01*
X73264298Y-40555499D02*
X73708799Y-41000000D01*
X68730258Y-42200000D02*
X70374759Y-40555499D01*
X73708799Y-41000000D02*
X74360065Y-41000000D01*
%TO.N,unconnected-(U1-GPIO29_ADC3-Pad41)*%
X71475000Y-23475000D02*
X70540000Y-23475000D01*
X78000000Y-30000000D02*
X71475000Y-23475000D01*
%TO.N,unconnected-(U1-GPIO26_ADC0-Pad38)*%
X63200000Y-34188133D02*
X63188133Y-34188133D01*
%TO.N,unconnected-(U1-GPIO29_ADC3-Pad41)*%
X78000000Y-37800000D02*
X78000000Y-30000000D01*
X73995000Y-41805000D02*
X78000000Y-37800000D01*
X70795000Y-41805000D02*
X73995000Y-41805000D01*
X70000000Y-42600000D02*
X70795000Y-41805000D01*
X65800000Y-43000000D02*
X67799204Y-43000000D01*
X67799204Y-43000000D02*
X68200421Y-42598783D01*
D15*
%TO.N,+3.3V*%
X63319239Y-41400000D02*
X62400000Y-41400000D01*
X65719239Y-43800000D02*
X63319239Y-41400000D01*
X68000000Y-43800000D02*
X65719239Y-43800000D01*
X69200000Y-42600000D02*
X68000000Y-43800000D01*
D14*
%TO.N,unconnected-(U1-GPIO27_ADC1-Pad39)*%
X75975000Y-31975000D02*
X74000000Y-30000000D01*
X75975000Y-39017369D02*
X75975000Y-31975000D01*
X74392369Y-40600000D02*
X75975000Y-39017369D01*
X69541939Y-40295499D02*
X73371994Y-40295499D01*
X73676495Y-40600000D02*
X74392369Y-40600000D01*
X68507304Y-40475000D02*
X69362438Y-40475000D01*
X73371994Y-40295499D02*
X73676495Y-40600000D01*
X68032304Y-40000000D02*
X68507304Y-40475000D01*
X67400000Y-40000000D02*
X68032304Y-40000000D01*
X69362438Y-40475000D02*
X69541939Y-40295499D01*
X65800000Y-41600000D02*
X67400000Y-40000000D01*
%TO.N,unconnected-(U1-GPIO26_ADC0-Pad38)*%
X62800000Y-36351044D02*
X62800000Y-35600000D01*
X63200000Y-36751044D02*
X62800000Y-36351044D01*
X63200000Y-37200000D02*
X63200000Y-36751044D01*
X66190000Y-40610000D02*
X65800000Y-41000000D01*
X66190000Y-38538953D02*
X66190000Y-40610000D01*
X64551544Y-38200000D02*
X65851047Y-38200000D01*
X63551544Y-37200000D02*
X64551544Y-38200000D01*
X63200000Y-37200000D02*
X63551544Y-37200000D01*
X65851047Y-38200000D02*
X66190000Y-38538953D01*
%TO.N,unconnected-(U1-GPIO22-Pad34)*%
X65800000Y-39200000D02*
X65118456Y-39200000D01*
X65118456Y-39200000D02*
X64983456Y-39335000D01*
X64983456Y-39335000D02*
X53335000Y-39335000D01*
%TO.N,unconnected-(U1-GPIO25-Pad37)*%
X65800000Y-40400000D02*
X60600000Y-40400000D01*
X60600000Y-40400000D02*
X60400000Y-40200000D01*
%TO.N,unconnected-(U1-GPIO24-Pad36)*%
X63800000Y-41000000D02*
X63585000Y-40785000D01*
X63585000Y-40785000D02*
X58385000Y-40785000D01*
X58385000Y-40785000D02*
X57600000Y-40000000D01*
%TO.N,unconnected-(U1-GPIO23-Pad35)*%
X60054502Y-39600000D02*
X59854502Y-39800000D01*
X65600000Y-39600000D02*
X60054502Y-39600000D01*
D15*
%TO.N,+3.3V*%
X57930000Y-41400000D02*
X62400000Y-41400000D01*
X56480000Y-39950000D02*
X57930000Y-41400000D01*
D14*
%TO.N,unconnected-(U1-GPIO23-Pad35)*%
X65800000Y-39800000D02*
X65600000Y-39600000D01*
%TO.N,unconnected-(U1-RUN-Pad26)*%
X68475000Y-37637562D02*
X68475000Y-37874666D01*
X68475000Y-37874666D02*
X68681417Y-38081083D01*
X67962437Y-37124999D02*
X68475000Y-37637562D01*
X66265651Y-37582805D02*
X66723456Y-37125000D01*
X66723456Y-37125000D02*
X67962437Y-37124999D01*
X66265651Y-37980753D02*
X66265651Y-37582805D01*
D15*
%TO.N,+3.3V*%
X62400000Y-35800000D02*
X60250000Y-33650000D01*
X62400000Y-37000000D02*
X62400000Y-35800000D01*
X60250000Y-33650000D02*
X56480000Y-33650000D01*
X69200000Y-42600000D02*
X70600000Y-41200000D01*
X68050000Y-43750000D02*
X69200000Y-42600000D01*
%TO.N,GND*%
X63600000Y-44400000D02*
X67200000Y-48000000D01*
X54400000Y-42200000D02*
X63200000Y-42200000D01*
X63200000Y-44400000D02*
X63600000Y-44400000D01*
D14*
%TO.N,unconnected-(U1-GPIO16-Pad27)*%
X65800000Y-37680760D02*
X66615762Y-36864998D01*
X66615762Y-36864998D02*
X68070133Y-36864999D01*
X68070133Y-36864999D02*
X69175500Y-37970366D01*
X65800000Y-37800000D02*
X65800000Y-37680760D01*
X69175500Y-37970366D02*
X69175500Y-38000000D01*
D15*
%TO.N,GND*%
X69600000Y-39000000D02*
X69000000Y-39600000D01*
X68400000Y-36200000D02*
X69600000Y-37400000D01*
X65576041Y-36425000D02*
X65801041Y-36200000D01*
X65801041Y-36200000D02*
X68400000Y-36200000D01*
X64775000Y-36425000D02*
X65576041Y-36425000D01*
X69600000Y-37400000D02*
X69600000Y-39000000D01*
X64600000Y-36600000D02*
X64775000Y-36425000D01*
%TO.N,+3.3V*%
X72480761Y-50000000D02*
X73200000Y-50000000D01*
X68000000Y-45519239D02*
X72480761Y-50000000D01*
X68000000Y-45000000D02*
X68000000Y-45519239D01*
%TO.N,GND*%
X69000000Y-39600000D02*
X69120499Y-39720499D01*
X69120499Y-39720499D02*
X74034432Y-39720499D01*
D14*
%TO.N,Net-(SW3-B)*%
X74395000Y-41805000D02*
X79305000Y-41805000D01*
X79305000Y-41805000D02*
X79900000Y-42400000D01*
X73800000Y-42400000D02*
X74395000Y-41805000D01*
%TO.N,Net-(SW2-B)*%
X75062998Y-42400000D02*
X76800000Y-42400000D01*
X73862998Y-43600000D02*
X75062998Y-42400000D01*
D15*
%TO.N,+3.3V*%
X68050000Y-44950000D02*
X68050000Y-43750000D01*
X68000000Y-45000000D02*
X68050000Y-44950000D01*
%TO.N,GND*%
X69700000Y-34400000D02*
X75100000Y-34400000D01*
X69200000Y-34900000D02*
X69700000Y-34400000D01*
X69200000Y-34900000D02*
X68700000Y-34900000D01*
X68700000Y-34900000D02*
X67000000Y-33200000D01*
D14*
%TO.N,USB_D+*%
X59040000Y-47040000D02*
X60000000Y-47040000D01*
X57120000Y-45120000D02*
X59040000Y-47040000D01*
%TO.N,USB_D-*%
X59040499Y-46080499D02*
X60000000Y-46080499D01*
X58080000Y-45120000D02*
X59040499Y-46080499D01*
%TO.N,Net-(U1-QSPI_SS)*%
X72000000Y-45600000D02*
X69000000Y-45600000D01*
X73200000Y-44400000D02*
X72000000Y-45600000D01*
%TO.N,Net-(U1-QSPI_SD2)*%
X79600000Y-48200000D02*
X82800000Y-48200000D01*
X77600000Y-46200000D02*
X79600000Y-48200000D01*
%TO.N,Net-(U1-QSPI_SD1)*%
X75600000Y-45200000D02*
X79835000Y-49435000D01*
X79835000Y-49435000D02*
X82800000Y-49435000D01*
%TD*%
%TA.AperFunction,Conductor*%
%TO.N,unconnected-(U1-GPIO24-Pad36)*%
G36*
X57005985Y-41110236D02*
G01*
X57173723Y-41192558D01*
X57257165Y-41233509D01*
X57263082Y-41240230D01*
X57262843Y-41248432D01*
X57202565Y-41396152D01*
X57196266Y-41402518D01*
X57196152Y-41402565D01*
X57048432Y-41462843D01*
X57039478Y-41462796D01*
X57033509Y-41457165D01*
X57003565Y-41396152D01*
X56910236Y-41205985D01*
X56909668Y-41197049D01*
X56912465Y-41192560D01*
X56992559Y-41112466D01*
X57000831Y-41109040D01*
X57005985Y-41110236D01*
G37*
%TD.AperFunction*%
%TD*%
%TA.AperFunction,Conductor*%
%TO.N,unconnected-(U1-GPIO24-Pad36)*%
G36*
X51363664Y-40635447D02*
G01*
X51364133Y-40635654D01*
X51993284Y-40931838D01*
X51999309Y-40938462D01*
X52000000Y-40942423D01*
X52000000Y-41057576D01*
X51996573Y-41065849D01*
X51993283Y-41068162D01*
X51364145Y-41364339D01*
X51355201Y-41364762D01*
X51348576Y-41358736D01*
X51348363Y-41358255D01*
X51227418Y-41068162D01*
X51200875Y-41004499D01*
X51200855Y-40995550D01*
X51348363Y-40641743D01*
X51354710Y-40635426D01*
X51363664Y-40635447D01*
G37*
%TD.AperFunction*%
%TD*%
%TA.AperFunction,Conductor*%
%TO.N,unconnected-(U1-GPIO22-Pad34)*%
G36*
X51363664Y-38035447D02*
G01*
X51364133Y-38035654D01*
X51993284Y-38331838D01*
X51999309Y-38338462D01*
X52000000Y-38342423D01*
X52000000Y-38457576D01*
X51996573Y-38465849D01*
X51993283Y-38468162D01*
X51364145Y-38764339D01*
X51355201Y-38764762D01*
X51348576Y-38758736D01*
X51348363Y-38758255D01*
X51200875Y-38404499D01*
X51200855Y-38395550D01*
X51348363Y-38041743D01*
X51354710Y-38035426D01*
X51363664Y-38035447D01*
G37*
%TD.AperFunction*%
%TD*%
%TA.AperFunction,Conductor*%
%TO.N,unconnected-(U1-GPIO21-Pad32)*%
G36*
X65684154Y-38584588D02*
G01*
X65792543Y-38692108D01*
X65797511Y-38697036D01*
X65800971Y-38705295D01*
X65800971Y-38705409D01*
X65800072Y-38862867D01*
X65796598Y-38871120D01*
X65788372Y-38874500D01*
X65742604Y-38874500D01*
X65742069Y-38874694D01*
X65738059Y-38875396D01*
X65503422Y-38875018D01*
X65495155Y-38871578D01*
X65491741Y-38863318D01*
X65491741Y-38862867D01*
X65491741Y-38750161D01*
X65495167Y-38741891D01*
X65495522Y-38741551D01*
X65668034Y-38584249D01*
X65676455Y-38581207D01*
X65684154Y-38584588D01*
G37*
%TD.AperFunction*%
%TD*%
%TA.AperFunction,Conductor*%
%TO.N,unconnected-(U1-GPIO21-Pad32)*%
G36*
X51490940Y-35523228D02*
G01*
X51976588Y-35887365D01*
X51981151Y-35895070D01*
X51978930Y-35903745D01*
X51977842Y-35904999D01*
X51897402Y-35985439D01*
X51892854Y-35988257D01*
X51363417Y-36166077D01*
X51354483Y-36165463D01*
X51348887Y-36159474D01*
X51202301Y-35806537D01*
X51202293Y-35797584D01*
X51204851Y-35793762D01*
X51475669Y-35524294D01*
X51483950Y-35520889D01*
X51490940Y-35523228D01*
G37*
%TD.AperFunction*%
%TD*%
%TA.AperFunction,Conductor*%
%TO.N,unconnected-(U1-GPIO23-Pad35)*%
G36*
X58531631Y-38442420D02*
G01*
X58537262Y-38448389D01*
X58599093Y-38595465D01*
X58599140Y-38604419D01*
X58599093Y-38604533D01*
X58537262Y-38751610D01*
X58530896Y-38757909D01*
X58522694Y-38758148D01*
X58257918Y-38667704D01*
X58251197Y-38661787D01*
X58250000Y-38656632D01*
X58250000Y-38543367D01*
X58253427Y-38535094D01*
X58257916Y-38532295D01*
X58522695Y-38441851D01*
X58531631Y-38442420D01*
G37*
%TD.AperFunction*%
%TD*%
%TA.AperFunction,Conductor*%
%TO.N,unconnected-(U1-GPIO23-Pad35)*%
G36*
X51558255Y-33348363D02*
G01*
X51564573Y-33354710D01*
X51564552Y-33363664D01*
X51564339Y-33364145D01*
X51268162Y-33993283D01*
X51261537Y-33999309D01*
X51257576Y-34000000D01*
X51142424Y-34000000D01*
X51134151Y-33996573D01*
X51131838Y-33993283D01*
X50835660Y-33364145D01*
X50835237Y-33355201D01*
X50841263Y-33348576D01*
X50841725Y-33348371D01*
X51195500Y-33200875D01*
X51204449Y-33200855D01*
X51558255Y-33348363D01*
G37*
%TD.AperFunction*%
%TD*%
%TA.AperFunction,Conductor*%
%TO.N,unconnected-(U1-GPIO25-Pad37)*%
G36*
X53158255Y-23748363D02*
G01*
X53164573Y-23754710D01*
X53164552Y-23763664D01*
X53164339Y-23764145D01*
X52868162Y-24393283D01*
X52861537Y-24399309D01*
X52857576Y-24400000D01*
X52742424Y-24400000D01*
X52734151Y-24396573D01*
X52731838Y-24393283D01*
X52435660Y-23764145D01*
X52435237Y-23755201D01*
X52441263Y-23748576D01*
X52441725Y-23748371D01*
X52795500Y-23600875D01*
X52804449Y-23600855D01*
X53158255Y-23748363D01*
G37*
%TD.AperFunction*%
%TD*%
%TA.AperFunction,Conductor*%
%TO.N,unconnected-(U1-GPIO25-Pad37)*%
G36*
X60264906Y-38253427D02*
G01*
X60267705Y-38257918D01*
X60358148Y-38522694D01*
X60357579Y-38531631D01*
X60351610Y-38537262D01*
X60204533Y-38599093D01*
X60195579Y-38599140D01*
X60195465Y-38599093D01*
X60048389Y-38537262D01*
X60042090Y-38530896D01*
X60041851Y-38522695D01*
X60132295Y-38257917D01*
X60138212Y-38251197D01*
X60143367Y-38250000D01*
X60256633Y-38250000D01*
X60264906Y-38253427D01*
G37*
%TD.AperFunction*%
%TD*%
%TA.AperFunction,Conductor*%
%TO.N,unconnected-(U1-GPIO20-Pad31)*%
G36*
X55658255Y-23623363D02*
G01*
X55664573Y-23629710D01*
X55664552Y-23638664D01*
X55664339Y-23639145D01*
X55368162Y-24268283D01*
X55361537Y-24274309D01*
X55357576Y-24275000D01*
X55242424Y-24275000D01*
X55234151Y-24271573D01*
X55231838Y-24268283D01*
X54935660Y-23639145D01*
X54935237Y-23630201D01*
X54941263Y-23623576D01*
X54941725Y-23623371D01*
X55295500Y-23475875D01*
X55304449Y-23475855D01*
X55658255Y-23623363D01*
G37*
%TD.AperFunction*%
%TD*%
%TA.AperFunction,Conductor*%
%TO.N,unconnected-(U1-GPIO20-Pad31)*%
G36*
X63405985Y-38110236D02*
G01*
X63573723Y-38192558D01*
X63657165Y-38233509D01*
X63663082Y-38240230D01*
X63662843Y-38248432D01*
X63602565Y-38396152D01*
X63596266Y-38402518D01*
X63596152Y-38402565D01*
X63448432Y-38462843D01*
X63439478Y-38462796D01*
X63433509Y-38457165D01*
X63403565Y-38396152D01*
X63310236Y-38205985D01*
X63309668Y-38197049D01*
X63312465Y-38192560D01*
X63392559Y-38112466D01*
X63400831Y-38109040D01*
X63405985Y-38110236D01*
G37*
%TD.AperFunction*%
%TD*%
%TA.AperFunction,Conductor*%
%TO.N,unconnected-(U1-GPIO19-Pad30)*%
G36*
X57441761Y-23251582D02*
G01*
X57796195Y-23397436D01*
X57802542Y-23403754D01*
X57802563Y-23403804D01*
X57948415Y-23758234D01*
X57948394Y-23767188D01*
X57942047Y-23773506D01*
X57941556Y-23773695D01*
X57287261Y-24009133D01*
X57278317Y-24008710D01*
X57275027Y-24006397D01*
X57193602Y-23924972D01*
X57190175Y-23916699D01*
X57190866Y-23912738D01*
X57240899Y-23773695D01*
X57426304Y-23258442D01*
X57432330Y-23251818D01*
X57441274Y-23251395D01*
X57441761Y-23251582D01*
G37*
%TD.AperFunction*%
%TD*%
%TA.AperFunction,Conductor*%
%TO.N,unconnected-(U1-GPIO19-Pad30)*%
G36*
X63531631Y-37642420D02*
G01*
X63537262Y-37648389D01*
X63599093Y-37795466D01*
X63599140Y-37804420D01*
X63599093Y-37804534D01*
X63537262Y-37951610D01*
X63530896Y-37957909D01*
X63522694Y-37958148D01*
X63391507Y-37913336D01*
X63387016Y-37910537D01*
X63382664Y-37906185D01*
X63382663Y-37906184D01*
X63373583Y-37900479D01*
X63373048Y-37900099D01*
X63347006Y-37879331D01*
X63347004Y-37879330D01*
X63337823Y-37877234D01*
X63334203Y-37875735D01*
X63326228Y-37870724D01*
X63307444Y-37868608D01*
X63293120Y-37866994D01*
X63292484Y-37866886D01*
X63282031Y-37864500D01*
X63282029Y-37864500D01*
X63271306Y-37864500D01*
X63270655Y-37864463D01*
X63267137Y-37864066D01*
X63260389Y-37863306D01*
X63252552Y-37858974D01*
X63250000Y-37851680D01*
X63250000Y-37743367D01*
X63253427Y-37735094D01*
X63257916Y-37732295D01*
X63522695Y-37641851D01*
X63531631Y-37642420D01*
G37*
%TD.AperFunction*%
%TD*%
%TA.AperFunction,Conductor*%
%TO.N,+1V1*%
G36*
X55758755Y-28748571D02*
G01*
X55765073Y-28754918D01*
X55765053Y-28763870D01*
X55503000Y-29392800D01*
X55496655Y-29399119D01*
X55492200Y-29400000D01*
X55307800Y-29400000D01*
X55299527Y-29396573D01*
X55297000Y-29392800D01*
X55034945Y-28763868D01*
X55034927Y-28754915D01*
X55041242Y-28748572D01*
X55395500Y-28600875D01*
X55404449Y-28600855D01*
X55758755Y-28748571D01*
G37*
%TD.AperFunction*%
%TD*%
%TA.AperFunction,Conductor*%
%TO.N,+1V1*%
G36*
X62852387Y-34545170D02*
G01*
X63000082Y-34899424D01*
X63000103Y-34908378D01*
X63000082Y-34908428D01*
X62852387Y-35262681D01*
X62846040Y-35268999D01*
X62837088Y-35268979D01*
X62208159Y-35006925D01*
X62201840Y-35000580D01*
X62200959Y-34996125D01*
X62200959Y-34811726D01*
X62204386Y-34803453D01*
X62208159Y-34800926D01*
X62837090Y-34538871D01*
X62846043Y-34538853D01*
X62852387Y-34545170D01*
G37*
%TD.AperFunction*%
%TD*%
%TA.AperFunction,Conductor*%
%TO.N,unconnected-(U1-GPIO26_ADC0-Pad38)*%
G36*
X63001104Y-33905166D02*
G01*
X63256749Y-34021791D01*
X63262853Y-34028342D01*
X63262725Y-34036855D01*
X63202565Y-34184285D01*
X63196266Y-34190651D01*
X63196152Y-34190698D01*
X63048181Y-34251079D01*
X63039227Y-34251032D01*
X63033390Y-34245663D01*
X62905775Y-34001336D01*
X62904983Y-33992416D01*
X62907871Y-33987648D01*
X62987981Y-33907538D01*
X62996253Y-33904112D01*
X63001104Y-33905166D01*
G37*
%TD.AperFunction*%
%TD*%
%TA.AperFunction,Conductor*%
%TO.N,unconnected-(U1-GPIO26_ADC0-Pad38)*%
G36*
X60683255Y-28748363D02*
G01*
X60689573Y-28754710D01*
X60689552Y-28763664D01*
X60689339Y-28764145D01*
X60393162Y-29393283D01*
X60386537Y-29399309D01*
X60382576Y-29400000D01*
X60267424Y-29400000D01*
X60259151Y-29396573D01*
X60256838Y-29393283D01*
X59960660Y-28764145D01*
X59960237Y-28755201D01*
X59966263Y-28748576D01*
X59966725Y-28748371D01*
X60320500Y-28600875D01*
X60329449Y-28600855D01*
X60683255Y-28748363D01*
G37*
%TD.AperFunction*%
%TD*%
%TA.AperFunction,Conductor*%
%TO.N,unconnected-(U1-GPIO18-Pad29)*%
G36*
X60671090Y-23200034D02*
G01*
X61127971Y-23636436D01*
X61131587Y-23644629D01*
X61128351Y-23652978D01*
X61128163Y-23653170D01*
X61047162Y-23734171D01*
X61041304Y-23737346D01*
X60542570Y-23842548D01*
X60533768Y-23840903D01*
X60529350Y-23835588D01*
X60382302Y-23481539D01*
X60382293Y-23472584D01*
X60384851Y-23468762D01*
X60654759Y-23200199D01*
X60663038Y-23196795D01*
X60671090Y-23200034D01*
G37*
%TD.AperFunction*%
%TD*%
%TA.AperFunction,Conductor*%
%TO.N,unconnected-(U1-GPIO18-Pad29)*%
G36*
X63464906Y-36052927D02*
G01*
X63467705Y-36057418D01*
X63558148Y-36322194D01*
X63557579Y-36331131D01*
X63551610Y-36336762D01*
X63404534Y-36398593D01*
X63395580Y-36398640D01*
X63395466Y-36398593D01*
X63248389Y-36336762D01*
X63242090Y-36330396D01*
X63241851Y-36322195D01*
X63332295Y-36057417D01*
X63338212Y-36050697D01*
X63343367Y-36049500D01*
X63456633Y-36049500D01*
X63464906Y-36052927D01*
G37*
%TD.AperFunction*%
%TD*%
%TA.AperFunction,Conductor*%
%TO.N,unconnected-(U1-GPIO17-Pad28)*%
G36*
X63223255Y-28748363D02*
G01*
X63229573Y-28754710D01*
X63229552Y-28763664D01*
X63229339Y-28764145D01*
X62933162Y-29393283D01*
X62926537Y-29399309D01*
X62922576Y-29400000D01*
X62807424Y-29400000D01*
X62799151Y-29396573D01*
X62796838Y-29393283D01*
X62500660Y-28764145D01*
X62500237Y-28755201D01*
X62506263Y-28748576D01*
X62506725Y-28748371D01*
X62860500Y-28600875D01*
X62869449Y-28600855D01*
X63223255Y-28748363D01*
G37*
%TD.AperFunction*%
%TD*%
%TA.AperFunction,Conductor*%
%TO.N,unconnected-(U1-GPIO17-Pad28)*%
G36*
X64052345Y-36942187D02*
G01*
X64254944Y-37036425D01*
X64261001Y-37043021D01*
X64260829Y-37051487D01*
X64199982Y-37199293D01*
X64193664Y-37205639D01*
X64193583Y-37205672D01*
X64047792Y-37265159D01*
X64038837Y-37265112D01*
X64032539Y-37258746D01*
X64032344Y-37258233D01*
X63925529Y-36956704D01*
X63925996Y-36947761D01*
X63932650Y-36941769D01*
X63936557Y-36941097D01*
X64047412Y-36941097D01*
X64052345Y-36942187D01*
G37*
%TD.AperFunction*%
%TD*%
%TA.AperFunction,Conductor*%
%TO.N,unconnected-(U1-SWCLK-Pad24)*%
G36*
X63290460Y-23126083D02*
G01*
X63291045Y-23126716D01*
X63721744Y-23628653D01*
X63724531Y-23637163D01*
X63721138Y-23644545D01*
X63639779Y-23725904D01*
X63632806Y-23729259D01*
X63012976Y-23798549D01*
X63004373Y-23796062D01*
X63000048Y-23788221D01*
X62999976Y-23786959D01*
X62999301Y-23404166D01*
X63002711Y-23395891D01*
X63273914Y-23126040D01*
X63282195Y-23122635D01*
X63290460Y-23126083D01*
G37*
%TD.AperFunction*%
%TD*%
%TA.AperFunction,Conductor*%
%TO.N,unconnected-(U1-SWCLK-Pad24)*%
G36*
X65464906Y-35653427D02*
G01*
X65467705Y-35657918D01*
X65558148Y-35922694D01*
X65557579Y-35931631D01*
X65551610Y-35937262D01*
X65404534Y-35999093D01*
X65395580Y-35999140D01*
X65395466Y-35999093D01*
X65248389Y-35937262D01*
X65242090Y-35930896D01*
X65241851Y-35922695D01*
X65332295Y-35657917D01*
X65338212Y-35651197D01*
X65343367Y-35650000D01*
X65456633Y-35650000D01*
X65464906Y-35653427D01*
G37*
%TD.AperFunction*%
%TD*%
%TA.AperFunction,Conductor*%
%TO.N,unconnected-(U1-SWD-Pad25)*%
G36*
X65768454Y-28451084D02*
G01*
X65774415Y-28456647D01*
X65844876Y-28597457D01*
X66032577Y-28972563D01*
X66061945Y-29031251D01*
X66062583Y-29040183D01*
X66059755Y-29044760D01*
X65978335Y-29126180D01*
X65970062Y-29129607D01*
X65967529Y-29129330D01*
X65260507Y-28972563D01*
X65253172Y-28967426D01*
X65251617Y-28958607D01*
X65252217Y-28956695D01*
X65397437Y-28603802D01*
X65403753Y-28597457D01*
X65759501Y-28451063D01*
X65768454Y-28451084D01*
G37*
%TD.AperFunction*%
%TD*%
%TA.AperFunction,Conductor*%
%TO.N,unconnected-(U1-RUN-Pad26)*%
G36*
X70233620Y-37493236D02*
G01*
X70370463Y-37578318D01*
X70458584Y-37633107D01*
X70463800Y-37640385D01*
X70463239Y-37647463D01*
X70402565Y-37796152D01*
X70396266Y-37802518D01*
X70396152Y-37802565D01*
X70249572Y-37862378D01*
X70240618Y-37862331D01*
X70234319Y-37855965D01*
X70234160Y-37855552D01*
X70136367Y-37587265D01*
X70136753Y-37578318D01*
X70139083Y-37574988D01*
X70219172Y-37494899D01*
X70227444Y-37491473D01*
X70233620Y-37493236D01*
G37*
%TD.AperFunction*%
%TD*%
%TA.AperFunction,Conductor*%
%TO.N,unconnected-(U1-RUN-Pad26)*%
G36*
X65041761Y-23251582D02*
G01*
X65396195Y-23397436D01*
X65402542Y-23403754D01*
X65402563Y-23403804D01*
X65548415Y-23758234D01*
X65548394Y-23767188D01*
X65542047Y-23773506D01*
X65541556Y-23773695D01*
X64887261Y-24009133D01*
X64878317Y-24008710D01*
X64875027Y-24006397D01*
X64793602Y-23924972D01*
X64790175Y-23916699D01*
X64790866Y-23912738D01*
X64840899Y-23773695D01*
X65026304Y-23258442D01*
X65032330Y-23251818D01*
X65041274Y-23251395D01*
X65041761Y-23251582D01*
G37*
%TD.AperFunction*%
%TD*%
%TA.AperFunction,Conductor*%
%TO.N,unconnected-(U1-SWD-Pad25)*%
G36*
X67054219Y-37326069D02*
G01*
X67060250Y-37332688D01*
X67060945Y-37336659D01*
X67060945Y-37447451D01*
X67059884Y-37452319D01*
X66966362Y-37656733D01*
X66959804Y-37662830D01*
X66951269Y-37662684D01*
X66803528Y-37601864D01*
X66797183Y-37595547D01*
X66737635Y-37449606D01*
X66737682Y-37440653D01*
X66744048Y-37434355D01*
X66744479Y-37434189D01*
X67045275Y-37325654D01*
X67054219Y-37326069D01*
G37*
%TD.AperFunction*%
%TD*%
%TA.AperFunction,Conductor*%
%TO.N,unconnected-(U1-GPIO16-Pad27)*%
G36*
X72342082Y-35932295D02*
G01*
X72348803Y-35938212D01*
X72350000Y-35943367D01*
X72350000Y-36056632D01*
X72346573Y-36064905D01*
X72342082Y-36067704D01*
X72077305Y-36158148D01*
X72068368Y-36157579D01*
X72062737Y-36151610D01*
X72000906Y-36004534D01*
X72000859Y-35995580D01*
X72000906Y-35995466D01*
X72062737Y-35848388D01*
X72069103Y-35842090D01*
X72077304Y-35841851D01*
X72342082Y-35932295D01*
G37*
%TD.AperFunction*%
%TD*%
%TA.AperFunction,Conductor*%
%TO.N,unconnected-(U1-GPIO16-Pad27)*%
G36*
X68297188Y-28451605D02*
G01*
X68303506Y-28457952D01*
X68303695Y-28458443D01*
X68539133Y-29112738D01*
X68538710Y-29121682D01*
X68536397Y-29124972D01*
X68454972Y-29206397D01*
X68446699Y-29209824D01*
X68442738Y-29209133D01*
X67788443Y-28973695D01*
X67781818Y-28967669D01*
X67781395Y-28958725D01*
X67781584Y-28958234D01*
X67927437Y-28603802D01*
X67933753Y-28597457D01*
X68288235Y-28451584D01*
X68297188Y-28451605D01*
G37*
%TD.AperFunction*%
%TD*%
%TA.AperFunction,Conductor*%
%TO.N,unconnected-(U1-GPIO27_ADC1-Pad39)*%
G36*
X68163664Y-23110447D02*
G01*
X68164133Y-23110654D01*
X68793284Y-23406838D01*
X68799309Y-23413462D01*
X68800000Y-23417423D01*
X68800000Y-23532576D01*
X68796573Y-23540849D01*
X68793283Y-23543162D01*
X68164145Y-23839339D01*
X68155201Y-23839762D01*
X68148576Y-23833736D01*
X68148363Y-23833255D01*
X68027418Y-23543162D01*
X68000875Y-23479499D01*
X68000855Y-23470550D01*
X68148363Y-23116743D01*
X68154710Y-23110426D01*
X68163664Y-23110447D01*
G37*
%TD.AperFunction*%
%TD*%
%TA.AperFunction,Conductor*%
%TO.N,unconnected-(U1-GPIO28_ADC2-Pad40)*%
G36*
X70703162Y-28161652D02*
G01*
X70704684Y-28162421D01*
X71315925Y-28529501D01*
X71319406Y-28531591D01*
X71324734Y-28538788D01*
X71325082Y-28541621D01*
X71325082Y-28656801D01*
X71321655Y-28665074D01*
X71317376Y-28667798D01*
X70703568Y-28890739D01*
X70694622Y-28890342D01*
X70688775Y-28884244D01*
X70597399Y-28665074D01*
X70540875Y-28529499D01*
X70540855Y-28520550D01*
X70687861Y-28167948D01*
X70694208Y-28161631D01*
X70703162Y-28161652D01*
G37*
%TD.AperFunction*%
%TD*%
%TA.AperFunction,Conductor*%
%TO.N,unconnected-(U1-GPIO28_ADC2-Pad40)*%
G36*
X66142082Y-42132295D02*
G01*
X66148803Y-42138212D01*
X66150000Y-42143367D01*
X66150000Y-42256632D01*
X66146573Y-42264905D01*
X66142082Y-42267704D01*
X65877305Y-42358148D01*
X65868368Y-42357579D01*
X65862737Y-42351610D01*
X65800906Y-42204534D01*
X65800859Y-42195580D01*
X65800906Y-42195466D01*
X65862737Y-42048388D01*
X65869103Y-42042090D01*
X65877304Y-42041851D01*
X66142082Y-42132295D01*
G37*
%TD.AperFunction*%
%TD*%
%TA.AperFunction,Conductor*%
%TO.N,unconnected-(U1-GPIO29_ADC3-Pad41)*%
G36*
X70703664Y-23110447D02*
G01*
X70704133Y-23110654D01*
X71333284Y-23406838D01*
X71339309Y-23413462D01*
X71340000Y-23417423D01*
X71340000Y-23532576D01*
X71336573Y-23540849D01*
X71333283Y-23543162D01*
X70704145Y-23839339D01*
X70695201Y-23839762D01*
X70688576Y-23833736D01*
X70688363Y-23833255D01*
X70567418Y-23543162D01*
X70540875Y-23479499D01*
X70540855Y-23470550D01*
X70688363Y-23116743D01*
X70694710Y-23110426D01*
X70703664Y-23110447D01*
G37*
%TD.AperFunction*%
%TD*%
%TA.AperFunction,Conductor*%
%TO.N,unconnected-(U1-GPIO29_ADC3-Pad41)*%
G36*
X70207441Y-42312467D02*
G01*
X70287532Y-42392558D01*
X70290959Y-42400831D01*
X70289762Y-42405986D01*
X70166490Y-42657165D01*
X70159769Y-42663082D01*
X70151567Y-42662843D01*
X70003847Y-42602565D01*
X69997481Y-42596266D01*
X69997434Y-42596152D01*
X69937156Y-42448432D01*
X69937203Y-42439478D01*
X69942833Y-42433509D01*
X70194014Y-42310236D01*
X70202950Y-42309668D01*
X70207441Y-42312467D01*
G37*
%TD.AperFunction*%
%TD*%
%TA.AperFunction,Conductor*%
%TO.N,unconnected-(U1-GPIO29_ADC3-Pad41)*%
G36*
X66142082Y-42932295D02*
G01*
X66148803Y-42938212D01*
X66150000Y-42943367D01*
X66150000Y-43056632D01*
X66146573Y-43064905D01*
X66142082Y-43067704D01*
X65877305Y-43158148D01*
X65868368Y-43157579D01*
X65862737Y-43151610D01*
X65800906Y-43004534D01*
X65800859Y-42995580D01*
X65800906Y-42995466D01*
X65862737Y-42848388D01*
X65869103Y-42842090D01*
X65877304Y-42841851D01*
X66142082Y-42932295D01*
G37*
%TD.AperFunction*%
%TD*%
%TA.AperFunction,Conductor*%
%TO.N,unconnected-(U1-GPIO29_ADC3-Pad41)*%
G36*
X68048853Y-42535939D02*
G01*
X68196573Y-42596217D01*
X68202939Y-42602516D01*
X68202986Y-42602630D01*
X68263264Y-42750350D01*
X68263217Y-42759304D01*
X68257586Y-42765273D01*
X68006407Y-42888545D01*
X67997470Y-42889114D01*
X67992979Y-42886315D01*
X67912888Y-42806224D01*
X67909461Y-42797951D01*
X67910657Y-42792798D01*
X68033930Y-42541616D01*
X68040651Y-42535700D01*
X68048853Y-42535939D01*
G37*
%TD.AperFunction*%
%TD*%
%TA.AperFunction,Conductor*%
%TO.N,+3.3V*%
G36*
X62563868Y-41034945D02*
G01*
X63192800Y-41297000D01*
X63199119Y-41303345D01*
X63200000Y-41307800D01*
X63200000Y-41492199D01*
X63196573Y-41500472D01*
X63192800Y-41502999D01*
X62563870Y-41765053D01*
X62554915Y-41765072D01*
X62548571Y-41758755D01*
X62400875Y-41404499D01*
X62400855Y-41395550D01*
X62548572Y-41041242D01*
X62554918Y-41034926D01*
X62563868Y-41034945D01*
G37*
%TD.AperFunction*%
%TD*%
%TA.AperFunction,Conductor*%
%TO.N,unconnected-(U1-GPIO27_ADC1-Pad39)*%
G36*
X66007441Y-41312467D02*
G01*
X66087532Y-41392558D01*
X66090959Y-41400831D01*
X66089762Y-41405986D01*
X65966490Y-41657165D01*
X65959769Y-41663082D01*
X65951567Y-41662843D01*
X65803847Y-41602565D01*
X65797481Y-41596266D01*
X65797434Y-41596152D01*
X65737156Y-41448432D01*
X65737203Y-41439478D01*
X65742833Y-41433509D01*
X65994014Y-41310236D01*
X66002950Y-41309668D01*
X66007441Y-41312467D01*
G37*
%TD.AperFunction*%
%TD*%
%TA.AperFunction,Conductor*%
%TO.N,unconnected-(U1-GPIO26_ADC0-Pad38)*%
G36*
X62804534Y-35600906D02*
G01*
X62951610Y-35662737D01*
X62957909Y-35669103D01*
X62958148Y-35677305D01*
X62867705Y-35942082D01*
X62861788Y-35948803D01*
X62856633Y-35950000D01*
X62743367Y-35950000D01*
X62735094Y-35946573D01*
X62732295Y-35942082D01*
X62641851Y-35677305D01*
X62642420Y-35668368D01*
X62648388Y-35662737D01*
X62795466Y-35600905D01*
X62804420Y-35600859D01*
X62804534Y-35600906D01*
G37*
%TD.AperFunction*%
%TD*%
%TA.AperFunction,Conductor*%
%TO.N,unconnected-(U1-GPIO26_ADC0-Pad38)*%
G36*
X66007441Y-40712467D02*
G01*
X66087532Y-40792558D01*
X66090959Y-40800831D01*
X66089762Y-40805986D01*
X65966490Y-41057165D01*
X65959769Y-41063082D01*
X65951567Y-41062843D01*
X65803847Y-41002565D01*
X65797481Y-40996266D01*
X65797434Y-40996152D01*
X65737156Y-40848432D01*
X65737203Y-40839478D01*
X65742833Y-40833509D01*
X65994014Y-40710236D01*
X66002950Y-40709668D01*
X66007441Y-40712467D01*
G37*
%TD.AperFunction*%
%TD*%
%TA.AperFunction,Conductor*%
%TO.N,unconnected-(U1-GPIO22-Pad34)*%
G36*
X65731631Y-39042420D02*
G01*
X65737262Y-39048389D01*
X65799093Y-39195466D01*
X65799140Y-39204420D01*
X65799093Y-39204534D01*
X65737262Y-39351610D01*
X65730896Y-39357909D01*
X65722694Y-39358148D01*
X65457918Y-39267704D01*
X65451197Y-39261787D01*
X65450000Y-39256632D01*
X65450000Y-39143367D01*
X65453427Y-39135094D01*
X65457916Y-39132295D01*
X65722695Y-39041851D01*
X65731631Y-39042420D01*
G37*
%TD.AperFunction*%
%TD*%
%TA.AperFunction,Conductor*%
%TO.N,unconnected-(U1-GPIO25-Pad37)*%
G36*
X65731631Y-40242420D02*
G01*
X65737262Y-40248389D01*
X65799093Y-40395466D01*
X65799140Y-40404420D01*
X65799093Y-40404534D01*
X65737262Y-40551610D01*
X65730896Y-40557909D01*
X65722694Y-40558148D01*
X65457918Y-40467704D01*
X65451197Y-40461787D01*
X65450000Y-40456632D01*
X65450000Y-40343367D01*
X65453427Y-40335094D01*
X65457916Y-40332295D01*
X65722695Y-40241851D01*
X65731631Y-40242420D01*
G37*
%TD.AperFunction*%
%TD*%
%TA.AperFunction,Conductor*%
%TO.N,unconnected-(U1-GPIO25-Pad37)*%
G36*
X60560754Y-40137116D02*
G01*
X60566624Y-40142500D01*
X60665829Y-40332455D01*
X60667158Y-40337871D01*
X60667158Y-40449135D01*
X60663731Y-40457408D01*
X60655458Y-40460835D01*
X60652002Y-40460313D01*
X60345231Y-40365452D01*
X60338339Y-40359734D01*
X60337509Y-40350818D01*
X60337847Y-40349873D01*
X60397150Y-40204532D01*
X60403444Y-40198170D01*
X60551799Y-40137097D01*
X60560754Y-40137116D01*
G37*
%TD.AperFunction*%
%TD*%
%TA.AperFunction,Conductor*%
%TO.N,unconnected-(U1-GPIO24-Pad36)*%
G36*
X63554723Y-40725653D02*
G01*
X63855502Y-40834183D01*
X63862121Y-40840214D01*
X63862536Y-40849159D01*
X63862364Y-40849608D01*
X63802850Y-40995465D01*
X63796552Y-41001831D01*
X63796471Y-41001864D01*
X63648730Y-41062684D01*
X63639775Y-41062665D01*
X63633637Y-41056733D01*
X63607681Y-41000000D01*
X63540116Y-40852319D01*
X63539055Y-40847451D01*
X63539055Y-40736659D01*
X63542482Y-40728386D01*
X63550755Y-40724959D01*
X63554723Y-40725653D01*
G37*
%TD.AperFunction*%
%TD*%
%TA.AperFunction,Conductor*%
%TO.N,unconnected-(U1-GPIO24-Pad36)*%
G36*
X57760521Y-39937203D02*
G01*
X57766490Y-39942834D01*
X57889762Y-40194013D01*
X57890331Y-40202950D01*
X57887532Y-40207441D01*
X57807441Y-40287532D01*
X57799168Y-40290959D01*
X57794013Y-40289762D01*
X57542834Y-40166490D01*
X57536917Y-40159769D01*
X57537156Y-40151567D01*
X57597435Y-40003845D01*
X57603732Y-39997481D01*
X57751567Y-39937156D01*
X57760521Y-39937203D01*
G37*
%TD.AperFunction*%
%TD*%
%TA.AperFunction,Conductor*%
%TO.N,unconnected-(U1-GPIO23-Pad35)*%
G36*
X60115420Y-39540516D02*
G01*
X60121138Y-39547408D01*
X60121660Y-39550864D01*
X60121660Y-39662128D01*
X60120331Y-39667544D01*
X60021126Y-39857499D01*
X60014258Y-39863246D01*
X60006301Y-39862902D01*
X59858030Y-39801864D01*
X59851685Y-39795547D01*
X59792356Y-39650143D01*
X59792403Y-39641190D01*
X59798769Y-39634892D01*
X59799709Y-39634555D01*
X60106505Y-39539686D01*
X60115420Y-39540516D01*
G37*
%TD.AperFunction*%
%TD*%
%TA.AperFunction,Conductor*%
%TO.N,+3.3V*%
G36*
X62251428Y-41041244D02*
G01*
X62399123Y-41395498D01*
X62399144Y-41404452D01*
X62399123Y-41404502D01*
X62251428Y-41758755D01*
X62245081Y-41765073D01*
X62236129Y-41765053D01*
X61607200Y-41502999D01*
X61600881Y-41496654D01*
X61600000Y-41492199D01*
X61600000Y-41307800D01*
X61603427Y-41299527D01*
X61607200Y-41297000D01*
X62236131Y-41034945D01*
X62245084Y-41034927D01*
X62251428Y-41041244D01*
G37*
%TD.AperFunction*%
%TD*%
%TA.AperFunction,Conductor*%
%TO.N,+3.3V*%
G36*
X56847688Y-39801399D02*
G01*
X56854005Y-39807743D01*
X57113426Y-40437762D01*
X57113407Y-40446717D01*
X57110880Y-40450490D01*
X56980490Y-40580880D01*
X56972217Y-40584307D01*
X56967762Y-40583426D01*
X56337743Y-40324005D01*
X56331398Y-40317686D01*
X56331378Y-40308735D01*
X56477437Y-39953802D01*
X56483753Y-39947457D01*
X56838735Y-39801378D01*
X56847688Y-39801399D01*
G37*
%TD.AperFunction*%
%TD*%
%TA.AperFunction,Conductor*%
%TO.N,unconnected-(U1-GPIO23-Pad35)*%
G36*
X65547994Y-39539685D02*
G01*
X65854769Y-39634548D01*
X65861660Y-39640265D01*
X65862490Y-39649181D01*
X65862145Y-39650145D01*
X65802850Y-39795465D01*
X65796552Y-39801831D01*
X65796471Y-39801864D01*
X65648200Y-39862902D01*
X65639245Y-39862883D01*
X65633375Y-39857499D01*
X65534171Y-39667544D01*
X65532842Y-39662128D01*
X65532842Y-39550864D01*
X65536269Y-39542591D01*
X65544542Y-39539164D01*
X65547994Y-39539685D01*
G37*
%TD.AperFunction*%
%TD*%
%TA.AperFunction,Conductor*%
%TO.N,unconnected-(U1-RUN-Pad26)*%
G36*
X68542448Y-37817791D02*
G01*
X68577216Y-37834946D01*
X68738583Y-37914567D01*
X68744486Y-37921300D01*
X68744225Y-37929512D01*
X68683281Y-38077554D01*
X68676963Y-38083900D01*
X68676882Y-38083933D01*
X68531330Y-38143323D01*
X68522376Y-38143276D01*
X68516077Y-38136910D01*
X68515803Y-38136167D01*
X68415091Y-37831960D01*
X68415744Y-37823029D01*
X68422521Y-37817176D01*
X68426198Y-37816583D01*
X68537271Y-37816583D01*
X68542448Y-37817791D01*
G37*
%TD.AperFunction*%
%TD*%
%TA.AperFunction,Conductor*%
%TO.N,unconnected-(U1-RUN-Pad26)*%
G36*
X66330557Y-37634180D02*
G01*
X66333356Y-37638671D01*
X66423799Y-37903447D01*
X66423230Y-37912384D01*
X66417261Y-37918015D01*
X66270185Y-37979846D01*
X66261231Y-37979893D01*
X66261117Y-37979846D01*
X66118620Y-37919940D01*
X66112321Y-37913574D01*
X66111632Y-37907122D01*
X66115314Y-37886240D01*
X66117222Y-37875419D01*
X66117667Y-37873690D01*
X66197946Y-37638670D01*
X66203863Y-37631950D01*
X66209018Y-37630753D01*
X66322284Y-37630753D01*
X66330557Y-37634180D01*
G37*
%TD.AperFunction*%
%TD*%
%TA.AperFunction,Conductor*%
%TO.N,+3.3V*%
G36*
X62500473Y-36203427D02*
G01*
X62503000Y-36207200D01*
X62596712Y-36432110D01*
X62597356Y-36434178D01*
X62598732Y-36440653D01*
X62598732Y-36440655D01*
X62601533Y-36444509D01*
X62602868Y-36446886D01*
X62765053Y-36836129D01*
X62765072Y-36845084D01*
X62758755Y-36851428D01*
X62404502Y-36999123D01*
X62395548Y-36999144D01*
X62395498Y-36999123D01*
X62041244Y-36851428D01*
X62034926Y-36845081D01*
X62034945Y-36836131D01*
X62297000Y-36207199D01*
X62303345Y-36200881D01*
X62307800Y-36200000D01*
X62492200Y-36200000D01*
X62500473Y-36203427D01*
G37*
%TD.AperFunction*%
%TD*%
%TA.AperFunction,Conductor*%
%TO.N,+3.3V*%
G36*
X56643868Y-33284945D02*
G01*
X57272800Y-33547000D01*
X57279119Y-33553345D01*
X57280000Y-33557800D01*
X57280000Y-33742199D01*
X57276573Y-33750472D01*
X57272800Y-33752999D01*
X56643870Y-34015053D01*
X56634915Y-34015072D01*
X56628571Y-34008755D01*
X56480875Y-33654499D01*
X56480855Y-33645550D01*
X56628572Y-33291242D01*
X56634918Y-33284926D01*
X56643868Y-33284945D01*
G37*
%TD.AperFunction*%
%TD*%
%TA.AperFunction,Conductor*%
%TO.N,+3.3V*%
G36*
X70596195Y-41197436D02*
G01*
X70602542Y-41203754D01*
X70602563Y-41203804D01*
X70748621Y-41558734D01*
X70748600Y-41567688D01*
X70742256Y-41574005D01*
X70112237Y-41833426D01*
X70103282Y-41833407D01*
X70099509Y-41830880D01*
X69969119Y-41700490D01*
X69965692Y-41692217D01*
X69966572Y-41687766D01*
X70225994Y-41057742D01*
X70232313Y-41051398D01*
X70241264Y-41051378D01*
X70596195Y-41197436D01*
G37*
%TD.AperFunction*%
%TD*%
%TA.AperFunction,Conductor*%
%TO.N,GND*%
G36*
X63490905Y-44125639D02*
G01*
X63491085Y-44125824D01*
X63945690Y-44603864D01*
X63948908Y-44612220D01*
X63945485Y-44620199D01*
X63815196Y-44750488D01*
X63807808Y-44753881D01*
X63212562Y-44799046D01*
X63204053Y-44796255D01*
X63200011Y-44788265D01*
X63199977Y-44787421D01*
X63199301Y-44404166D01*
X63202711Y-44395891D01*
X63474361Y-44125595D01*
X63482640Y-44122191D01*
X63490905Y-44125639D01*
G37*
%TD.AperFunction*%
%TD*%
%TA.AperFunction,Conductor*%
%TO.N,GND*%
G36*
X66712233Y-47366572D02*
G01*
X67280944Y-47600747D01*
X67342256Y-47625994D01*
X67348601Y-47632313D01*
X67348621Y-47641265D01*
X67202563Y-47996195D01*
X67196245Y-48002542D01*
X67196195Y-48002563D01*
X66841265Y-48148621D01*
X66832311Y-48148600D01*
X66825994Y-48142256D01*
X66765851Y-47996195D01*
X66566573Y-47512235D01*
X66566592Y-47503282D01*
X66569116Y-47499512D01*
X66699510Y-47369118D01*
X66707782Y-47365692D01*
X66712233Y-47366572D01*
G37*
%TD.AperFunction*%
%TD*%
%TA.AperFunction,Conductor*%
%TO.N,GND*%
G36*
X63051428Y-41841244D02*
G01*
X63199123Y-42195498D01*
X63199144Y-42204452D01*
X63199123Y-42204502D01*
X63051428Y-42558755D01*
X63045081Y-42565073D01*
X63036129Y-42565053D01*
X62407200Y-42302999D01*
X62400881Y-42296654D01*
X62400000Y-42292199D01*
X62400000Y-42107800D01*
X62403427Y-42099527D01*
X62407200Y-42097000D01*
X63036131Y-41834945D01*
X63045084Y-41834927D01*
X63051428Y-41841244D01*
G37*
%TD.AperFunction*%
%TD*%
%TA.AperFunction,Conductor*%
%TO.N,GND*%
G36*
X54563868Y-41834945D02*
G01*
X55192800Y-42097000D01*
X55199119Y-42103345D01*
X55200000Y-42107800D01*
X55200000Y-42292199D01*
X55196573Y-42300472D01*
X55192800Y-42302999D01*
X54563870Y-42565053D01*
X54554915Y-42565072D01*
X54548571Y-42558755D01*
X54400875Y-42204499D01*
X54400855Y-42195550D01*
X54548572Y-41841242D01*
X54554918Y-41834926D01*
X54563868Y-41834945D01*
G37*
%TD.AperFunction*%
%TD*%
%TA.AperFunction,Conductor*%
%TO.N,unconnected-(U1-GPIO16-Pad27)*%
G36*
X65931935Y-37472191D02*
G01*
X66011943Y-37552199D01*
X66015370Y-37560472D01*
X66015206Y-37562424D01*
X65976643Y-37790291D01*
X65971884Y-37797877D01*
X65965154Y-37800039D01*
X65804205Y-37800687D01*
X65795918Y-37797293D01*
X65795899Y-37797274D01*
X65685105Y-37685207D01*
X65681726Y-37676915D01*
X65685200Y-37668662D01*
X65685813Y-37668098D01*
X65916067Y-37471564D01*
X65924584Y-37468800D01*
X65931935Y-37472191D01*
G37*
%TD.AperFunction*%
%TD*%
%TA.AperFunction,Conductor*%
%TO.N,unconnected-(U1-GPIO16-Pad27)*%
G36*
X68999501Y-37699128D02*
G01*
X69233584Y-37833230D01*
X69239059Y-37840316D01*
X69238601Y-37847802D01*
X69178065Y-37996152D01*
X69171766Y-38002518D01*
X69171652Y-38002565D01*
X69024666Y-38062544D01*
X69015712Y-38062497D01*
X69009413Y-38056131D01*
X69009408Y-38056118D01*
X69006570Y-38049139D01*
X69005887Y-38046769D01*
X68992005Y-37968038D01*
X68934611Y-37868628D01*
X68934607Y-37868625D01*
X68933954Y-37867846D01*
X68934015Y-37867794D01*
X68931327Y-37864100D01*
X68902739Y-37793795D01*
X68902797Y-37784841D01*
X68905301Y-37781118D01*
X68985413Y-37701006D01*
X68993685Y-37697580D01*
X68999501Y-37699128D01*
G37*
%TD.AperFunction*%
%TD*%
%TA.AperFunction,Conductor*%
%TO.N,GND*%
G36*
X69496717Y-38966592D02*
G01*
X69500490Y-38969119D01*
X69630880Y-39099509D01*
X69634307Y-39107782D01*
X69633426Y-39112237D01*
X69374005Y-39742256D01*
X69367686Y-39748601D01*
X69358734Y-39748621D01*
X69003804Y-39602563D01*
X68997457Y-39596245D01*
X68997436Y-39596195D01*
X68851378Y-39241265D01*
X68851399Y-39232311D01*
X68857742Y-39225994D01*
X69487764Y-38966573D01*
X69496717Y-38966592D01*
G37*
%TD.AperFunction*%
%TD*%
%TA.AperFunction,Conductor*%
%TO.N,GND*%
G36*
X64613576Y-36202248D02*
G01*
X65328766Y-36320672D01*
X65330833Y-36321215D01*
X65342606Y-36325500D01*
X65342609Y-36325500D01*
X65343201Y-36325500D01*
X65351474Y-36328927D01*
X65354901Y-36337200D01*
X65354901Y-36519187D01*
X65351474Y-36527460D01*
X65350269Y-36528511D01*
X64890957Y-36876691D01*
X64882294Y-36878958D01*
X64875630Y-36875655D01*
X64602453Y-36603441D01*
X64599012Y-36595174D01*
X64599012Y-36595124D01*
X64599965Y-36213760D01*
X64603413Y-36205497D01*
X64611694Y-36202091D01*
X64613576Y-36202248D01*
G37*
%TD.AperFunction*%
%TD*%
%TA.AperFunction,Conductor*%
%TO.N,+3.3V*%
G36*
X73051413Y-49641255D02*
G01*
X73051499Y-49641456D01*
X73198839Y-49996210D01*
X73198848Y-50005165D01*
X73198833Y-50005200D01*
X73051799Y-50357864D01*
X73045452Y-50364182D01*
X73036498Y-50364161D01*
X73035660Y-50363773D01*
X72367232Y-50020932D01*
X72361435Y-50014107D01*
X72362161Y-50005181D01*
X72364296Y-50002251D01*
X72492807Y-49873740D01*
X72496384Y-49871299D01*
X73036007Y-49635224D01*
X73044958Y-49635049D01*
X73051413Y-49641255D01*
G37*
%TD.AperFunction*%
%TD*%
%TA.AperFunction,Conductor*%
%TO.N,+3.3V*%
G36*
X68006536Y-45002301D02*
G01*
X68360658Y-45149379D01*
X68366983Y-45155716D01*
X68367635Y-45162511D01*
X68269939Y-45643602D01*
X68266746Y-45649547D01*
X68136991Y-45779302D01*
X68128718Y-45782729D01*
X68120445Y-45779302D01*
X68119644Y-45778414D01*
X67723791Y-45291011D01*
X67721235Y-45282429D01*
X67724578Y-45275384D01*
X67993759Y-45004853D01*
X68002022Y-45001407D01*
X68006536Y-45002301D01*
G37*
%TD.AperFunction*%
%TD*%
%TA.AperFunction,Conductor*%
%TO.N,GND*%
G36*
X69163062Y-39236889D02*
G01*
X69164767Y-39237770D01*
X69770541Y-39617061D01*
X69775734Y-39624355D01*
X69776031Y-39626977D01*
X69776031Y-39808299D01*
X69772604Y-39816572D01*
X69764331Y-39819999D01*
X69440037Y-39819999D01*
X69439731Y-39819991D01*
X69430095Y-39819486D01*
X69399778Y-39817897D01*
X69399777Y-39817897D01*
X69399776Y-39817897D01*
X69373703Y-39827905D01*
X69371943Y-39828426D01*
X69344634Y-39834231D01*
X69331772Y-39843574D01*
X69329090Y-39845031D01*
X69314248Y-39850729D01*
X69294502Y-39870475D01*
X69293106Y-39871667D01*
X69270519Y-39888077D01*
X69262571Y-39901843D01*
X69260712Y-39904265D01*
X69211084Y-39953892D01*
X69205534Y-39956998D01*
X69162761Y-39967233D01*
X69153917Y-39965825D01*
X69149239Y-39960356D01*
X69146544Y-39953892D01*
X69000875Y-39604499D01*
X69000855Y-39595550D01*
X69147763Y-39243183D01*
X69154108Y-39236868D01*
X69163062Y-39236889D01*
G37*
%TD.AperFunction*%
%TD*%
%TA.AperFunction,Conductor*%
%TO.N,GND*%
G36*
X73885860Y-39361743D02*
G01*
X73992489Y-39617499D01*
X74033555Y-39715996D01*
X74033576Y-39724950D01*
X74033555Y-39725000D01*
X73885860Y-40079254D01*
X73879513Y-40085572D01*
X73870561Y-40085552D01*
X73810888Y-40060688D01*
X73807115Y-40058161D01*
X73636173Y-39887219D01*
X73635962Y-39886997D01*
X73609187Y-39857261D01*
X73609186Y-39857260D01*
X73583673Y-39845901D01*
X73582060Y-39845025D01*
X73558645Y-39829818D01*
X73548770Y-39828253D01*
X73542942Y-39827330D01*
X73540021Y-39826465D01*
X73525496Y-39819999D01*
X73525495Y-39819999D01*
X73497569Y-39819999D01*
X73495739Y-39819855D01*
X73493329Y-39819473D01*
X73468160Y-39815487D01*
X73468159Y-39815487D01*
X73468158Y-39815487D01*
X73457620Y-39818310D01*
X73452809Y-39819600D01*
X73449782Y-39819999D01*
X73246132Y-39819999D01*
X73237859Y-39816572D01*
X73234432Y-39808299D01*
X73234432Y-39628299D01*
X73237859Y-39620026D01*
X73241632Y-39617499D01*
X73870563Y-39355444D01*
X73879516Y-39355426D01*
X73885860Y-39361743D01*
G37*
%TD.AperFunction*%
%TD*%
%TA.AperFunction,Conductor*%
%TO.N,Net-(SW3-B)*%
G36*
X79387261Y-41790866D02*
G01*
X80041556Y-42026304D01*
X80048181Y-42032330D01*
X80048604Y-42041274D01*
X80048415Y-42041765D01*
X79902563Y-42396195D01*
X79896245Y-42402542D01*
X79896195Y-42402563D01*
X79541765Y-42548415D01*
X79532811Y-42548394D01*
X79526493Y-42542047D01*
X79526304Y-42541556D01*
X79342390Y-42030448D01*
X79290866Y-41887260D01*
X79291289Y-41878317D01*
X79293599Y-41875030D01*
X79375028Y-41793601D01*
X79383300Y-41790175D01*
X79387261Y-41790866D01*
G37*
%TD.AperFunction*%
%TD*%
%TA.AperFunction,Conductor*%
%TO.N,Net-(SW3-B)*%
G36*
X74321682Y-41791289D02*
G01*
X74324972Y-41793602D01*
X74406397Y-41875027D01*
X74409824Y-41883300D01*
X74409133Y-41887261D01*
X74173695Y-42541556D01*
X74167669Y-42548181D01*
X74158725Y-42548604D01*
X74158234Y-42548415D01*
X73803804Y-42402563D01*
X73797457Y-42396245D01*
X73797436Y-42396195D01*
X73651584Y-42041765D01*
X73651605Y-42032811D01*
X73657952Y-42026493D01*
X73658443Y-42026304D01*
X73728234Y-42001191D01*
X73732195Y-42000500D01*
X73959795Y-42000500D01*
X73963659Y-42001156D01*
X73972548Y-42004267D01*
X74005655Y-42000536D01*
X74006306Y-42000500D01*
X74017027Y-42000500D01*
X74017029Y-42000500D01*
X74027489Y-41998111D01*
X74028103Y-41998006D01*
X74061230Y-41994275D01*
X74069206Y-41989262D01*
X74072822Y-41987764D01*
X74082006Y-41985669D01*
X74108064Y-41964886D01*
X74108567Y-41964529D01*
X74114149Y-41961023D01*
X74117658Y-41958820D01*
X74117666Y-41958813D01*
X74117668Y-41958810D01*
X74125251Y-41951226D01*
X74125723Y-41950804D01*
X74151779Y-41930027D01*
X74155865Y-41921540D01*
X74158131Y-41918346D01*
X74268517Y-41807960D01*
X74272820Y-41805229D01*
X74312739Y-41790866D01*
X74321682Y-41791289D01*
G37*
%TD.AperFunction*%
%TD*%
%TA.AperFunction,Conductor*%
%TO.N,Net-(SW2-B)*%
G36*
X76651423Y-42041263D02*
G01*
X76651636Y-42041744D01*
X76799123Y-42395498D01*
X76799144Y-42404452D01*
X76799123Y-42404502D01*
X76651636Y-42758255D01*
X76645289Y-42764573D01*
X76636335Y-42764552D01*
X76635854Y-42764339D01*
X76006717Y-42468162D01*
X76000691Y-42461537D01*
X76000000Y-42457576D01*
X76000000Y-42342423D01*
X76003427Y-42334150D01*
X76006713Y-42331839D01*
X76635855Y-42035659D01*
X76644798Y-42035237D01*
X76651423Y-42041263D01*
G37*
%TD.AperFunction*%
%TD*%
%TA.AperFunction,Conductor*%
%TO.N,Net-(SW2-B)*%
G36*
X74384680Y-42991289D02*
G01*
X74387970Y-42993602D01*
X74469395Y-43075027D01*
X74472822Y-43083300D01*
X74472131Y-43087261D01*
X74236693Y-43741556D01*
X74230667Y-43748181D01*
X74221723Y-43748604D01*
X74221232Y-43748415D01*
X73866802Y-43602563D01*
X73860455Y-43596245D01*
X73860434Y-43596195D01*
X73714582Y-43241765D01*
X73714603Y-43232811D01*
X73720950Y-43226493D01*
X73721441Y-43226304D01*
X74375737Y-42990866D01*
X74384680Y-42991289D01*
G37*
%TD.AperFunction*%
%TD*%
%TA.AperFunction,Conductor*%
%TO.N,+3.3V*%
G36*
X68149930Y-44213373D02*
G01*
X68152718Y-44217833D01*
X68365972Y-44836541D01*
X68365428Y-44845480D01*
X68359413Y-44851153D01*
X68004502Y-44999123D01*
X67995548Y-44999144D01*
X67995498Y-44999123D01*
X67953790Y-44981734D01*
X67642029Y-44851755D01*
X67635712Y-44845409D01*
X67635733Y-44836455D01*
X67636066Y-44835726D01*
X67946762Y-44216399D01*
X67953535Y-44210541D01*
X67957220Y-44209946D01*
X68141657Y-44209946D01*
X68149930Y-44213373D01*
G37*
%TD.AperFunction*%
%TD*%
%TA.AperFunction,Conductor*%
%TO.N,GND*%
G36*
X74951428Y-34041244D02*
G01*
X75099123Y-34395498D01*
X75099144Y-34404452D01*
X75099123Y-34404502D01*
X74951428Y-34758755D01*
X74945081Y-34765073D01*
X74936129Y-34765053D01*
X74307200Y-34502999D01*
X74300881Y-34496654D01*
X74300000Y-34492199D01*
X74300000Y-34307800D01*
X74303427Y-34299527D01*
X74307200Y-34297000D01*
X74936131Y-34034945D01*
X74945084Y-34034927D01*
X74951428Y-34041244D01*
G37*
%TD.AperFunction*%
%TD*%
%TA.AperFunction,Conductor*%
%TO.N,GND*%
G36*
X69786657Y-34305514D02*
G01*
X69792373Y-34312407D01*
X69792894Y-34315860D01*
X69792894Y-34497726D01*
X69792043Y-34502107D01*
X69573968Y-35042137D01*
X69567692Y-35048525D01*
X69558738Y-35048605D01*
X69558652Y-35048570D01*
X69203499Y-34901858D01*
X69197161Y-34895532D01*
X69051802Y-34542294D01*
X69051823Y-34533342D01*
X69058170Y-34527024D01*
X69059146Y-34526673D01*
X69777741Y-34304681D01*
X69786657Y-34305514D01*
G37*
%TD.AperFunction*%
%TD*%
%TA.AperFunction,Conductor*%
%TO.N,GND*%
G36*
X69194976Y-34504401D02*
G01*
X69199834Y-34511924D01*
X69200024Y-34514005D01*
X69200698Y-34895831D01*
X69197286Y-34904111D01*
X69197250Y-34904146D01*
X68924779Y-35175258D01*
X68916498Y-35178664D01*
X68908957Y-35175885D01*
X68584657Y-34900707D01*
X68426838Y-34766793D01*
X68422748Y-34758829D01*
X68425488Y-34750303D01*
X68426124Y-34749612D01*
X68555999Y-34619737D01*
X68562166Y-34616502D01*
X69186223Y-34502516D01*
X69194976Y-34504401D01*
G37*
%TD.AperFunction*%
%TD*%
%TA.AperFunction,Conductor*%
%TO.N,GND*%
G36*
X67367688Y-33051399D02*
G01*
X67374005Y-33057743D01*
X67633426Y-33687762D01*
X67633407Y-33696717D01*
X67630880Y-33700490D01*
X67500490Y-33830880D01*
X67492217Y-33834307D01*
X67487762Y-33833426D01*
X66857743Y-33574005D01*
X66851398Y-33567686D01*
X66851378Y-33558735D01*
X66997437Y-33203802D01*
X67003753Y-33197457D01*
X67358735Y-33051378D01*
X67367688Y-33051399D01*
G37*
%TD.AperFunction*%
%TD*%
%TA.AperFunction,Conductor*%
%TO.N,USB_D+*%
G36*
X59851423Y-46681263D02*
G01*
X59851636Y-46681744D01*
X59999123Y-47035498D01*
X59999144Y-47044452D01*
X59999123Y-47044502D01*
X59851636Y-47398255D01*
X59845289Y-47404573D01*
X59836335Y-47404552D01*
X59835854Y-47404339D01*
X59601102Y-47293825D01*
X59206715Y-47108161D01*
X59200690Y-47101537D01*
X59200000Y-47097581D01*
X59200000Y-46982420D01*
X59203426Y-46974150D01*
X59206710Y-46971841D01*
X59835855Y-46675659D01*
X59844798Y-46675237D01*
X59851423Y-46681263D01*
G37*
%TD.AperFunction*%
%TD*%
%TA.AperFunction,Conductor*%
%TO.N,USB_D+*%
G36*
X57487188Y-44971605D02*
G01*
X57493506Y-44977952D01*
X57493695Y-44978443D01*
X57544661Y-45120080D01*
X57545252Y-45122514D01*
X57563153Y-45258485D01*
X57563156Y-45258494D01*
X57616604Y-45387530D01*
X57616607Y-45387535D01*
X57616609Y-45387539D01*
X57616613Y-45387544D01*
X57661244Y-45445710D01*
X57662971Y-45448871D01*
X57729133Y-45632738D01*
X57728710Y-45641682D01*
X57726397Y-45644972D01*
X57644972Y-45726397D01*
X57636699Y-45729824D01*
X57632738Y-45729133D01*
X56978443Y-45493695D01*
X56971818Y-45487669D01*
X56971395Y-45478725D01*
X56971584Y-45478234D01*
X57117437Y-45123802D01*
X57123753Y-45117457D01*
X57478235Y-44971584D01*
X57487188Y-44971605D01*
G37*
%TD.AperFunction*%
%TD*%
%TA.AperFunction,Conductor*%
%TO.N,USB_D-*%
G36*
X59851423Y-45721762D02*
G01*
X59851636Y-45722243D01*
X59999123Y-46075997D01*
X59999144Y-46084951D01*
X59999123Y-46085001D01*
X59851636Y-46438754D01*
X59845289Y-46445072D01*
X59836335Y-46445051D01*
X59835854Y-46444838D01*
X59601102Y-46334324D01*
X59206715Y-46148660D01*
X59200690Y-46142036D01*
X59200000Y-46138080D01*
X59200000Y-46022919D01*
X59203426Y-46014649D01*
X59206710Y-46012340D01*
X59835855Y-45716158D01*
X59844798Y-45715736D01*
X59851423Y-45721762D01*
G37*
%TD.AperFunction*%
%TD*%
%TA.AperFunction,Conductor*%
%TO.N,USB_D-*%
G36*
X58447188Y-44971605D02*
G01*
X58453506Y-44977952D01*
X58453695Y-44978443D01*
X58689133Y-45632738D01*
X58688710Y-45641682D01*
X58686397Y-45644972D01*
X58604972Y-45726397D01*
X58596699Y-45729824D01*
X58592738Y-45729133D01*
X57938443Y-45493695D01*
X57931818Y-45487669D01*
X57931395Y-45478725D01*
X57931584Y-45478234D01*
X58077437Y-45123802D01*
X58083753Y-45117457D01*
X58438235Y-44971584D01*
X58447188Y-44971605D01*
G37*
%TD.AperFunction*%
%TD*%
%TA.AperFunction,Conductor*%
%TO.N,Net-(U1-QSPI_SS)*%
G36*
X69163664Y-45235447D02*
G01*
X69164133Y-45235654D01*
X69793284Y-45531838D01*
X69799309Y-45538462D01*
X69800000Y-45542423D01*
X69800000Y-45657576D01*
X69796573Y-45665849D01*
X69793283Y-45668162D01*
X69164145Y-45964339D01*
X69155201Y-45964762D01*
X69148576Y-45958736D01*
X69148363Y-45958255D01*
X69000875Y-45604499D01*
X69000855Y-45595550D01*
X69148363Y-45241743D01*
X69154710Y-45235426D01*
X69163664Y-45235447D01*
G37*
%TD.AperFunction*%
%TD*%
%TA.AperFunction,Conductor*%
%TO.N,Net-(U1-QSPI_SS)*%
G36*
X72841761Y-44251582D02*
G01*
X73196195Y-44397436D01*
X73202542Y-44403754D01*
X73202563Y-44403804D01*
X73348415Y-44758234D01*
X73348394Y-44767188D01*
X73342047Y-44773506D01*
X73341556Y-44773695D01*
X72687261Y-45009133D01*
X72678317Y-45008710D01*
X72675027Y-45006397D01*
X72593602Y-44924972D01*
X72590175Y-44916699D01*
X72590866Y-44912738D01*
X72640899Y-44773695D01*
X72826304Y-44258442D01*
X72832330Y-44251818D01*
X72841274Y-44251395D01*
X72841761Y-44251582D01*
G37*
%TD.AperFunction*%
%TD*%
%TA.AperFunction,Conductor*%
%TO.N,Net-(U1-QSPI_SD2)*%
G36*
X82651423Y-47841263D02*
G01*
X82651636Y-47841744D01*
X82799123Y-48195498D01*
X82799144Y-48204452D01*
X82799123Y-48204502D01*
X82651636Y-48558255D01*
X82645289Y-48564573D01*
X82636335Y-48564552D01*
X82635854Y-48564339D01*
X82006717Y-48268162D01*
X82000691Y-48261537D01*
X82000000Y-48257576D01*
X82000000Y-48142423D01*
X82003427Y-48134150D01*
X82006713Y-48131839D01*
X82635855Y-47835659D01*
X82644798Y-47835237D01*
X82651423Y-47841263D01*
G37*
%TD.AperFunction*%
%TD*%
%TA.AperFunction,Conductor*%
%TO.N,Net-(U1-QSPI_SD2)*%
G36*
X77967188Y-46051605D02*
G01*
X77973506Y-46057952D01*
X77973695Y-46058443D01*
X78209133Y-46712738D01*
X78208710Y-46721682D01*
X78206397Y-46724972D01*
X78124972Y-46806397D01*
X78116699Y-46809824D01*
X78112738Y-46809133D01*
X77458443Y-46573695D01*
X77451818Y-46567669D01*
X77451395Y-46558725D01*
X77451584Y-46558234D01*
X77597437Y-46203802D01*
X77603753Y-46197457D01*
X77958235Y-46051584D01*
X77967188Y-46051605D01*
G37*
%TD.AperFunction*%
%TD*%
%TA.AperFunction,Conductor*%
%TO.N,Net-(U1-QSPI_SD1)*%
G36*
X75967188Y-45051605D02*
G01*
X75973506Y-45057952D01*
X75973695Y-45058443D01*
X76209133Y-45712738D01*
X76208710Y-45721682D01*
X76206397Y-45724972D01*
X76124972Y-45806397D01*
X76116699Y-45809824D01*
X76112738Y-45809133D01*
X75458443Y-45573695D01*
X75451818Y-45567669D01*
X75451395Y-45558725D01*
X75451584Y-45558234D01*
X75597437Y-45203802D01*
X75603753Y-45197457D01*
X75958235Y-45051584D01*
X75967188Y-45051605D01*
G37*
%TD.AperFunction*%
%TD*%
%TA.AperFunction,Conductor*%
%TO.N,Net-(U1-QSPI_SD1)*%
G36*
X82651423Y-49076263D02*
G01*
X82651636Y-49076744D01*
X82735803Y-49278621D01*
X82773900Y-49370000D01*
X82799123Y-49430497D01*
X82799144Y-49439451D01*
X82799123Y-49439501D01*
X82651636Y-49793255D01*
X82645289Y-49799573D01*
X82636335Y-49799552D01*
X82635854Y-49799339D01*
X82006717Y-49503162D01*
X82000691Y-49496537D01*
X82000000Y-49492576D01*
X82000000Y-49377423D01*
X82003427Y-49369150D01*
X82006713Y-49366839D01*
X82635855Y-49070659D01*
X82644798Y-49070237D01*
X82651423Y-49076263D01*
G37*
%TD.AperFunction*%
%TD*%
M02*
