%TF.GenerationSoftware,KiCad,Pcbnew,7.0.6-0*%
%TF.CreationDate,2023-09-19T06:41:03+09:00*%
%TF.ProjectId,scratch-rp2040,73637261-7463-4682-9d72-70323034302e,rev?*%
%TF.SameCoordinates,Original*%
%TF.FileFunction,Legend,Top*%
%TF.FilePolarity,Positive*%
%FSLAX46Y46*%
G04 Gerber Fmt 4.6, Leading zero omitted, Abs format (unit mm)*
G04 Created by KiCad (PCBNEW 7.0.6-0) date 2023-09-19 06:41:03*
%MOMM*%
%LPD*%
G01*
G04 APERTURE LIST*
%ADD10C,0.150000*%
%ADD11C,0.120000*%
G04 APERTURE END LIST*
D10*
X113353333Y-75019580D02*
X113305714Y-75067200D01*
X113305714Y-75067200D02*
X113162857Y-75114819D01*
X113162857Y-75114819D02*
X113067619Y-75114819D01*
X113067619Y-75114819D02*
X112924762Y-75067200D01*
X112924762Y-75067200D02*
X112829524Y-74971961D01*
X112829524Y-74971961D02*
X112781905Y-74876723D01*
X112781905Y-74876723D02*
X112734286Y-74686247D01*
X112734286Y-74686247D02*
X112734286Y-74543390D01*
X112734286Y-74543390D02*
X112781905Y-74352914D01*
X112781905Y-74352914D02*
X112829524Y-74257676D01*
X112829524Y-74257676D02*
X112924762Y-74162438D01*
X112924762Y-74162438D02*
X113067619Y-74114819D01*
X113067619Y-74114819D02*
X113162857Y-74114819D01*
X113162857Y-74114819D02*
X113305714Y-74162438D01*
X113305714Y-74162438D02*
X113353333Y-74210057D01*
X113924762Y-74543390D02*
X113829524Y-74495771D01*
X113829524Y-74495771D02*
X113781905Y-74448152D01*
X113781905Y-74448152D02*
X113734286Y-74352914D01*
X113734286Y-74352914D02*
X113734286Y-74305295D01*
X113734286Y-74305295D02*
X113781905Y-74210057D01*
X113781905Y-74210057D02*
X113829524Y-74162438D01*
X113829524Y-74162438D02*
X113924762Y-74114819D01*
X113924762Y-74114819D02*
X114115238Y-74114819D01*
X114115238Y-74114819D02*
X114210476Y-74162438D01*
X114210476Y-74162438D02*
X114258095Y-74210057D01*
X114258095Y-74210057D02*
X114305714Y-74305295D01*
X114305714Y-74305295D02*
X114305714Y-74352914D01*
X114305714Y-74352914D02*
X114258095Y-74448152D01*
X114258095Y-74448152D02*
X114210476Y-74495771D01*
X114210476Y-74495771D02*
X114115238Y-74543390D01*
X114115238Y-74543390D02*
X113924762Y-74543390D01*
X113924762Y-74543390D02*
X113829524Y-74591009D01*
X113829524Y-74591009D02*
X113781905Y-74638628D01*
X113781905Y-74638628D02*
X113734286Y-74733866D01*
X113734286Y-74733866D02*
X113734286Y-74924342D01*
X113734286Y-74924342D02*
X113781905Y-75019580D01*
X113781905Y-75019580D02*
X113829524Y-75067200D01*
X113829524Y-75067200D02*
X113924762Y-75114819D01*
X113924762Y-75114819D02*
X114115238Y-75114819D01*
X114115238Y-75114819D02*
X114210476Y-75067200D01*
X114210476Y-75067200D02*
X114258095Y-75019580D01*
X114258095Y-75019580D02*
X114305714Y-74924342D01*
X114305714Y-74924342D02*
X114305714Y-74733866D01*
X114305714Y-74733866D02*
X114258095Y-74638628D01*
X114258095Y-74638628D02*
X114210476Y-74591009D01*
X114210476Y-74591009D02*
X114115238Y-74543390D01*
X104519580Y-72442857D02*
X104567200Y-72490476D01*
X104567200Y-72490476D02*
X104614819Y-72633333D01*
X104614819Y-72633333D02*
X104614819Y-72728571D01*
X104614819Y-72728571D02*
X104567200Y-72871428D01*
X104567200Y-72871428D02*
X104471961Y-72966666D01*
X104471961Y-72966666D02*
X104376723Y-73014285D01*
X104376723Y-73014285D02*
X104186247Y-73061904D01*
X104186247Y-73061904D02*
X104043390Y-73061904D01*
X104043390Y-73061904D02*
X103852914Y-73014285D01*
X103852914Y-73014285D02*
X103757676Y-72966666D01*
X103757676Y-72966666D02*
X103662438Y-72871428D01*
X103662438Y-72871428D02*
X103614819Y-72728571D01*
X103614819Y-72728571D02*
X103614819Y-72633333D01*
X103614819Y-72633333D02*
X103662438Y-72490476D01*
X103662438Y-72490476D02*
X103710057Y-72442857D01*
X104614819Y-71490476D02*
X104614819Y-72061904D01*
X104614819Y-71776190D02*
X103614819Y-71776190D01*
X103614819Y-71776190D02*
X103757676Y-71871428D01*
X103757676Y-71871428D02*
X103852914Y-71966666D01*
X103852914Y-71966666D02*
X103900533Y-72061904D01*
X103710057Y-71109523D02*
X103662438Y-71061904D01*
X103662438Y-71061904D02*
X103614819Y-70966666D01*
X103614819Y-70966666D02*
X103614819Y-70728571D01*
X103614819Y-70728571D02*
X103662438Y-70633333D01*
X103662438Y-70633333D02*
X103710057Y-70585714D01*
X103710057Y-70585714D02*
X103805295Y-70538095D01*
X103805295Y-70538095D02*
X103900533Y-70538095D01*
X103900533Y-70538095D02*
X104043390Y-70585714D01*
X104043390Y-70585714D02*
X104614819Y-71157142D01*
X104614819Y-71157142D02*
X104614819Y-70538095D01*
X107799580Y-62042857D02*
X107847200Y-62090476D01*
X107847200Y-62090476D02*
X107894819Y-62233333D01*
X107894819Y-62233333D02*
X107894819Y-62328571D01*
X107894819Y-62328571D02*
X107847200Y-62471428D01*
X107847200Y-62471428D02*
X107751961Y-62566666D01*
X107751961Y-62566666D02*
X107656723Y-62614285D01*
X107656723Y-62614285D02*
X107466247Y-62661904D01*
X107466247Y-62661904D02*
X107323390Y-62661904D01*
X107323390Y-62661904D02*
X107132914Y-62614285D01*
X107132914Y-62614285D02*
X107037676Y-62566666D01*
X107037676Y-62566666D02*
X106942438Y-62471428D01*
X106942438Y-62471428D02*
X106894819Y-62328571D01*
X106894819Y-62328571D02*
X106894819Y-62233333D01*
X106894819Y-62233333D02*
X106942438Y-62090476D01*
X106942438Y-62090476D02*
X106990057Y-62042857D01*
X107894819Y-61090476D02*
X107894819Y-61661904D01*
X107894819Y-61376190D02*
X106894819Y-61376190D01*
X106894819Y-61376190D02*
X107037676Y-61471428D01*
X107037676Y-61471428D02*
X107132914Y-61566666D01*
X107132914Y-61566666D02*
X107180533Y-61661904D01*
X106894819Y-60471428D02*
X106894819Y-60376190D01*
X106894819Y-60376190D02*
X106942438Y-60280952D01*
X106942438Y-60280952D02*
X106990057Y-60233333D01*
X106990057Y-60233333D02*
X107085295Y-60185714D01*
X107085295Y-60185714D02*
X107275771Y-60138095D01*
X107275771Y-60138095D02*
X107513866Y-60138095D01*
X107513866Y-60138095D02*
X107704342Y-60185714D01*
X107704342Y-60185714D02*
X107799580Y-60233333D01*
X107799580Y-60233333D02*
X107847200Y-60280952D01*
X107847200Y-60280952D02*
X107894819Y-60376190D01*
X107894819Y-60376190D02*
X107894819Y-60471428D01*
X107894819Y-60471428D02*
X107847200Y-60566666D01*
X107847200Y-60566666D02*
X107799580Y-60614285D01*
X107799580Y-60614285D02*
X107704342Y-60661904D01*
X107704342Y-60661904D02*
X107513866Y-60709523D01*
X107513866Y-60709523D02*
X107275771Y-60709523D01*
X107275771Y-60709523D02*
X107085295Y-60661904D01*
X107085295Y-60661904D02*
X106990057Y-60614285D01*
X106990057Y-60614285D02*
X106942438Y-60566666D01*
X106942438Y-60566666D02*
X106894819Y-60471428D01*
X113353333Y-73019580D02*
X113305714Y-73067200D01*
X113305714Y-73067200D02*
X113162857Y-73114819D01*
X113162857Y-73114819D02*
X113067619Y-73114819D01*
X113067619Y-73114819D02*
X112924762Y-73067200D01*
X112924762Y-73067200D02*
X112829524Y-72971961D01*
X112829524Y-72971961D02*
X112781905Y-72876723D01*
X112781905Y-72876723D02*
X112734286Y-72686247D01*
X112734286Y-72686247D02*
X112734286Y-72543390D01*
X112734286Y-72543390D02*
X112781905Y-72352914D01*
X112781905Y-72352914D02*
X112829524Y-72257676D01*
X112829524Y-72257676D02*
X112924762Y-72162438D01*
X112924762Y-72162438D02*
X113067619Y-72114819D01*
X113067619Y-72114819D02*
X113162857Y-72114819D01*
X113162857Y-72114819D02*
X113305714Y-72162438D01*
X113305714Y-72162438D02*
X113353333Y-72210057D01*
X114210476Y-72114819D02*
X114020000Y-72114819D01*
X114020000Y-72114819D02*
X113924762Y-72162438D01*
X113924762Y-72162438D02*
X113877143Y-72210057D01*
X113877143Y-72210057D02*
X113781905Y-72352914D01*
X113781905Y-72352914D02*
X113734286Y-72543390D01*
X113734286Y-72543390D02*
X113734286Y-72924342D01*
X113734286Y-72924342D02*
X113781905Y-73019580D01*
X113781905Y-73019580D02*
X113829524Y-73067200D01*
X113829524Y-73067200D02*
X113924762Y-73114819D01*
X113924762Y-73114819D02*
X114115238Y-73114819D01*
X114115238Y-73114819D02*
X114210476Y-73067200D01*
X114210476Y-73067200D02*
X114258095Y-73019580D01*
X114258095Y-73019580D02*
X114305714Y-72924342D01*
X114305714Y-72924342D02*
X114305714Y-72686247D01*
X114305714Y-72686247D02*
X114258095Y-72591009D01*
X114258095Y-72591009D02*
X114210476Y-72543390D01*
X114210476Y-72543390D02*
X114115238Y-72495771D01*
X114115238Y-72495771D02*
X113924762Y-72495771D01*
X113924762Y-72495771D02*
X113829524Y-72543390D01*
X113829524Y-72543390D02*
X113781905Y-72591009D01*
X113781905Y-72591009D02*
X113734286Y-72686247D01*
X120607142Y-71279580D02*
X120559523Y-71327200D01*
X120559523Y-71327200D02*
X120416666Y-71374819D01*
X120416666Y-71374819D02*
X120321428Y-71374819D01*
X120321428Y-71374819D02*
X120178571Y-71327200D01*
X120178571Y-71327200D02*
X120083333Y-71231961D01*
X120083333Y-71231961D02*
X120035714Y-71136723D01*
X120035714Y-71136723D02*
X119988095Y-70946247D01*
X119988095Y-70946247D02*
X119988095Y-70803390D01*
X119988095Y-70803390D02*
X120035714Y-70612914D01*
X120035714Y-70612914D02*
X120083333Y-70517676D01*
X120083333Y-70517676D02*
X120178571Y-70422438D01*
X120178571Y-70422438D02*
X120321428Y-70374819D01*
X120321428Y-70374819D02*
X120416666Y-70374819D01*
X120416666Y-70374819D02*
X120559523Y-70422438D01*
X120559523Y-70422438D02*
X120607142Y-70470057D01*
X121559523Y-71374819D02*
X120988095Y-71374819D01*
X121273809Y-71374819D02*
X121273809Y-70374819D01*
X121273809Y-70374819D02*
X121178571Y-70517676D01*
X121178571Y-70517676D02*
X121083333Y-70612914D01*
X121083333Y-70612914D02*
X120988095Y-70660533D01*
X122416666Y-70708152D02*
X122416666Y-71374819D01*
X122178571Y-70327200D02*
X121940476Y-71041485D01*
X121940476Y-71041485D02*
X122559523Y-71041485D01*
X122874819Y-58666666D02*
X122398628Y-58999999D01*
X122874819Y-59238094D02*
X121874819Y-59238094D01*
X121874819Y-59238094D02*
X121874819Y-58857142D01*
X121874819Y-58857142D02*
X121922438Y-58761904D01*
X121922438Y-58761904D02*
X121970057Y-58714285D01*
X121970057Y-58714285D02*
X122065295Y-58666666D01*
X122065295Y-58666666D02*
X122208152Y-58666666D01*
X122208152Y-58666666D02*
X122303390Y-58714285D01*
X122303390Y-58714285D02*
X122351009Y-58761904D01*
X122351009Y-58761904D02*
X122398628Y-58857142D01*
X122398628Y-58857142D02*
X122398628Y-59238094D01*
X121874819Y-58333332D02*
X121874819Y-57714285D01*
X121874819Y-57714285D02*
X122255771Y-58047618D01*
X122255771Y-58047618D02*
X122255771Y-57904761D01*
X122255771Y-57904761D02*
X122303390Y-57809523D01*
X122303390Y-57809523D02*
X122351009Y-57761904D01*
X122351009Y-57761904D02*
X122446247Y-57714285D01*
X122446247Y-57714285D02*
X122684342Y-57714285D01*
X122684342Y-57714285D02*
X122779580Y-57761904D01*
X122779580Y-57761904D02*
X122827200Y-57809523D01*
X122827200Y-57809523D02*
X122874819Y-57904761D01*
X122874819Y-57904761D02*
X122874819Y-58190475D01*
X122874819Y-58190475D02*
X122827200Y-58285713D01*
X122827200Y-58285713D02*
X122779580Y-58333332D01*
X112848069Y-67977311D02*
X113657592Y-67977311D01*
X113657592Y-67977311D02*
X113752830Y-67929692D01*
X113752830Y-67929692D02*
X113800450Y-67882073D01*
X113800450Y-67882073D02*
X113848069Y-67786835D01*
X113848069Y-67786835D02*
X113848069Y-67596359D01*
X113848069Y-67596359D02*
X113800450Y-67501121D01*
X113800450Y-67501121D02*
X113752830Y-67453502D01*
X113752830Y-67453502D02*
X113657592Y-67405883D01*
X113657592Y-67405883D02*
X112848069Y-67405883D01*
X112943307Y-66977311D02*
X112895688Y-66929692D01*
X112895688Y-66929692D02*
X112848069Y-66834454D01*
X112848069Y-66834454D02*
X112848069Y-66596359D01*
X112848069Y-66596359D02*
X112895688Y-66501121D01*
X112895688Y-66501121D02*
X112943307Y-66453502D01*
X112943307Y-66453502D02*
X113038545Y-66405883D01*
X113038545Y-66405883D02*
X113133783Y-66405883D01*
X113133783Y-66405883D02*
X113276640Y-66453502D01*
X113276640Y-66453502D02*
X113848069Y-67024930D01*
X113848069Y-67024930D02*
X113848069Y-66405883D01*
X95966667Y-66307200D02*
X96109524Y-66354819D01*
X96109524Y-66354819D02*
X96347619Y-66354819D01*
X96347619Y-66354819D02*
X96442857Y-66307200D01*
X96442857Y-66307200D02*
X96490476Y-66259580D01*
X96490476Y-66259580D02*
X96538095Y-66164342D01*
X96538095Y-66164342D02*
X96538095Y-66069104D01*
X96538095Y-66069104D02*
X96490476Y-65973866D01*
X96490476Y-65973866D02*
X96442857Y-65926247D01*
X96442857Y-65926247D02*
X96347619Y-65878628D01*
X96347619Y-65878628D02*
X96157143Y-65831009D01*
X96157143Y-65831009D02*
X96061905Y-65783390D01*
X96061905Y-65783390D02*
X96014286Y-65735771D01*
X96014286Y-65735771D02*
X95966667Y-65640533D01*
X95966667Y-65640533D02*
X95966667Y-65545295D01*
X95966667Y-65545295D02*
X96014286Y-65450057D01*
X96014286Y-65450057D02*
X96061905Y-65402438D01*
X96061905Y-65402438D02*
X96157143Y-65354819D01*
X96157143Y-65354819D02*
X96395238Y-65354819D01*
X96395238Y-65354819D02*
X96538095Y-65402438D01*
X96871429Y-65354819D02*
X97109524Y-66354819D01*
X97109524Y-66354819D02*
X97300000Y-65640533D01*
X97300000Y-65640533D02*
X97490476Y-66354819D01*
X97490476Y-66354819D02*
X97728572Y-65354819D01*
X98538095Y-65354819D02*
X98347619Y-65354819D01*
X98347619Y-65354819D02*
X98252381Y-65402438D01*
X98252381Y-65402438D02*
X98204762Y-65450057D01*
X98204762Y-65450057D02*
X98109524Y-65592914D01*
X98109524Y-65592914D02*
X98061905Y-65783390D01*
X98061905Y-65783390D02*
X98061905Y-66164342D01*
X98061905Y-66164342D02*
X98109524Y-66259580D01*
X98109524Y-66259580D02*
X98157143Y-66307200D01*
X98157143Y-66307200D02*
X98252381Y-66354819D01*
X98252381Y-66354819D02*
X98442857Y-66354819D01*
X98442857Y-66354819D02*
X98538095Y-66307200D01*
X98538095Y-66307200D02*
X98585714Y-66259580D01*
X98585714Y-66259580D02*
X98633333Y-66164342D01*
X98633333Y-66164342D02*
X98633333Y-65926247D01*
X98633333Y-65926247D02*
X98585714Y-65831009D01*
X98585714Y-65831009D02*
X98538095Y-65783390D01*
X98538095Y-65783390D02*
X98442857Y-65735771D01*
X98442857Y-65735771D02*
X98252381Y-65735771D01*
X98252381Y-65735771D02*
X98157143Y-65783390D01*
X98157143Y-65783390D02*
X98109524Y-65831009D01*
X98109524Y-65831009D02*
X98061905Y-65926247D01*
X106038095Y-52894819D02*
X106038095Y-53704342D01*
X106038095Y-53704342D02*
X106085714Y-53799580D01*
X106085714Y-53799580D02*
X106133333Y-53847200D01*
X106133333Y-53847200D02*
X106228571Y-53894819D01*
X106228571Y-53894819D02*
X106419047Y-53894819D01*
X106419047Y-53894819D02*
X106514285Y-53847200D01*
X106514285Y-53847200D02*
X106561904Y-53799580D01*
X106561904Y-53799580D02*
X106609523Y-53704342D01*
X106609523Y-53704342D02*
X106609523Y-52894819D01*
X106990476Y-52894819D02*
X107609523Y-52894819D01*
X107609523Y-52894819D02*
X107276190Y-53275771D01*
X107276190Y-53275771D02*
X107419047Y-53275771D01*
X107419047Y-53275771D02*
X107514285Y-53323390D01*
X107514285Y-53323390D02*
X107561904Y-53371009D01*
X107561904Y-53371009D02*
X107609523Y-53466247D01*
X107609523Y-53466247D02*
X107609523Y-53704342D01*
X107609523Y-53704342D02*
X107561904Y-53799580D01*
X107561904Y-53799580D02*
X107514285Y-53847200D01*
X107514285Y-53847200D02*
X107419047Y-53894819D01*
X107419047Y-53894819D02*
X107133333Y-53894819D01*
X107133333Y-53894819D02*
X107038095Y-53847200D01*
X107038095Y-53847200D02*
X106990476Y-53799580D01*
X105301667Y-54717200D02*
X105444524Y-54764819D01*
X105444524Y-54764819D02*
X105682619Y-54764819D01*
X105682619Y-54764819D02*
X105777857Y-54717200D01*
X105777857Y-54717200D02*
X105825476Y-54669580D01*
X105825476Y-54669580D02*
X105873095Y-54574342D01*
X105873095Y-54574342D02*
X105873095Y-54479104D01*
X105873095Y-54479104D02*
X105825476Y-54383866D01*
X105825476Y-54383866D02*
X105777857Y-54336247D01*
X105777857Y-54336247D02*
X105682619Y-54288628D01*
X105682619Y-54288628D02*
X105492143Y-54241009D01*
X105492143Y-54241009D02*
X105396905Y-54193390D01*
X105396905Y-54193390D02*
X105349286Y-54145771D01*
X105349286Y-54145771D02*
X105301667Y-54050533D01*
X105301667Y-54050533D02*
X105301667Y-53955295D01*
X105301667Y-53955295D02*
X105349286Y-53860057D01*
X105349286Y-53860057D02*
X105396905Y-53812438D01*
X105396905Y-53812438D02*
X105492143Y-53764819D01*
X105492143Y-53764819D02*
X105730238Y-53764819D01*
X105730238Y-53764819D02*
X105873095Y-53812438D01*
X106206429Y-53764819D02*
X106444524Y-54764819D01*
X106444524Y-54764819D02*
X106635000Y-54050533D01*
X106635000Y-54050533D02*
X106825476Y-54764819D01*
X106825476Y-54764819D02*
X107063572Y-53764819D01*
X107968333Y-54764819D02*
X107396905Y-54764819D01*
X107682619Y-54764819D02*
X107682619Y-53764819D01*
X107682619Y-53764819D02*
X107587381Y-53907676D01*
X107587381Y-53907676D02*
X107492143Y-54002914D01*
X107492143Y-54002914D02*
X107396905Y-54050533D01*
X121738094Y-57045180D02*
X121738094Y-58045180D01*
X121738094Y-58045180D02*
X121357142Y-58045180D01*
X121357142Y-58045180D02*
X121261904Y-57997561D01*
X121261904Y-57997561D02*
X121214285Y-57949942D01*
X121214285Y-57949942D02*
X121166666Y-57854704D01*
X121166666Y-57854704D02*
X121166666Y-57711847D01*
X121166666Y-57711847D02*
X121214285Y-57616609D01*
X121214285Y-57616609D02*
X121261904Y-57568990D01*
X121261904Y-57568990D02*
X121357142Y-57521371D01*
X121357142Y-57521371D02*
X121738094Y-57521371D01*
X120214285Y-57045180D02*
X120785713Y-57045180D01*
X120499999Y-57045180D02*
X120499999Y-58045180D01*
X120499999Y-58045180D02*
X120595237Y-57902323D01*
X120595237Y-57902323D02*
X120690475Y-57807085D01*
X120690475Y-57807085D02*
X120785713Y-57759466D01*
X111353333Y-73699580D02*
X111305714Y-73747200D01*
X111305714Y-73747200D02*
X111162857Y-73794819D01*
X111162857Y-73794819D02*
X111067619Y-73794819D01*
X111067619Y-73794819D02*
X110924762Y-73747200D01*
X110924762Y-73747200D02*
X110829524Y-73651961D01*
X110829524Y-73651961D02*
X110781905Y-73556723D01*
X110781905Y-73556723D02*
X110734286Y-73366247D01*
X110734286Y-73366247D02*
X110734286Y-73223390D01*
X110734286Y-73223390D02*
X110781905Y-73032914D01*
X110781905Y-73032914D02*
X110829524Y-72937676D01*
X110829524Y-72937676D02*
X110924762Y-72842438D01*
X110924762Y-72842438D02*
X111067619Y-72794819D01*
X111067619Y-72794819D02*
X111162857Y-72794819D01*
X111162857Y-72794819D02*
X111305714Y-72842438D01*
X111305714Y-72842438D02*
X111353333Y-72890057D01*
X112258095Y-72794819D02*
X111781905Y-72794819D01*
X111781905Y-72794819D02*
X111734286Y-73271009D01*
X111734286Y-73271009D02*
X111781905Y-73223390D01*
X111781905Y-73223390D02*
X111877143Y-73175771D01*
X111877143Y-73175771D02*
X112115238Y-73175771D01*
X112115238Y-73175771D02*
X112210476Y-73223390D01*
X112210476Y-73223390D02*
X112258095Y-73271009D01*
X112258095Y-73271009D02*
X112305714Y-73366247D01*
X112305714Y-73366247D02*
X112305714Y-73604342D01*
X112305714Y-73604342D02*
X112258095Y-73699580D01*
X112258095Y-73699580D02*
X112210476Y-73747200D01*
X112210476Y-73747200D02*
X112115238Y-73794819D01*
X112115238Y-73794819D02*
X111877143Y-73794819D01*
X111877143Y-73794819D02*
X111781905Y-73747200D01*
X111781905Y-73747200D02*
X111734286Y-73699580D01*
X102874819Y-54166666D02*
X102398628Y-54499999D01*
X102874819Y-54738094D02*
X101874819Y-54738094D01*
X101874819Y-54738094D02*
X101874819Y-54357142D01*
X101874819Y-54357142D02*
X101922438Y-54261904D01*
X101922438Y-54261904D02*
X101970057Y-54214285D01*
X101970057Y-54214285D02*
X102065295Y-54166666D01*
X102065295Y-54166666D02*
X102208152Y-54166666D01*
X102208152Y-54166666D02*
X102303390Y-54214285D01*
X102303390Y-54214285D02*
X102351009Y-54261904D01*
X102351009Y-54261904D02*
X102398628Y-54357142D01*
X102398628Y-54357142D02*
X102398628Y-54738094D01*
X102208152Y-53309523D02*
X102874819Y-53309523D01*
X101827200Y-53547618D02*
X102541485Y-53785713D01*
X102541485Y-53785713D02*
X102541485Y-53166666D01*
X111353333Y-72699580D02*
X111305714Y-72747200D01*
X111305714Y-72747200D02*
X111162857Y-72794819D01*
X111162857Y-72794819D02*
X111067619Y-72794819D01*
X111067619Y-72794819D02*
X110924762Y-72747200D01*
X110924762Y-72747200D02*
X110829524Y-72651961D01*
X110829524Y-72651961D02*
X110781905Y-72556723D01*
X110781905Y-72556723D02*
X110734286Y-72366247D01*
X110734286Y-72366247D02*
X110734286Y-72223390D01*
X110734286Y-72223390D02*
X110781905Y-72032914D01*
X110781905Y-72032914D02*
X110829524Y-71937676D01*
X110829524Y-71937676D02*
X110924762Y-71842438D01*
X110924762Y-71842438D02*
X111067619Y-71794819D01*
X111067619Y-71794819D02*
X111162857Y-71794819D01*
X111162857Y-71794819D02*
X111305714Y-71842438D01*
X111305714Y-71842438D02*
X111353333Y-71890057D01*
X112210476Y-72128152D02*
X112210476Y-72794819D01*
X111972381Y-71747200D02*
X111734286Y-72461485D01*
X111734286Y-72461485D02*
X112353333Y-72461485D01*
X106799580Y-62042857D02*
X106847200Y-62090476D01*
X106847200Y-62090476D02*
X106894819Y-62233333D01*
X106894819Y-62233333D02*
X106894819Y-62328571D01*
X106894819Y-62328571D02*
X106847200Y-62471428D01*
X106847200Y-62471428D02*
X106751961Y-62566666D01*
X106751961Y-62566666D02*
X106656723Y-62614285D01*
X106656723Y-62614285D02*
X106466247Y-62661904D01*
X106466247Y-62661904D02*
X106323390Y-62661904D01*
X106323390Y-62661904D02*
X106132914Y-62614285D01*
X106132914Y-62614285D02*
X106037676Y-62566666D01*
X106037676Y-62566666D02*
X105942438Y-62471428D01*
X105942438Y-62471428D02*
X105894819Y-62328571D01*
X105894819Y-62328571D02*
X105894819Y-62233333D01*
X105894819Y-62233333D02*
X105942438Y-62090476D01*
X105942438Y-62090476D02*
X105990057Y-62042857D01*
X106894819Y-61090476D02*
X106894819Y-61661904D01*
X106894819Y-61376190D02*
X105894819Y-61376190D01*
X105894819Y-61376190D02*
X106037676Y-61471428D01*
X106037676Y-61471428D02*
X106132914Y-61566666D01*
X106132914Y-61566666D02*
X106180533Y-61661904D01*
X106894819Y-60138095D02*
X106894819Y-60709523D01*
X106894819Y-60423809D02*
X105894819Y-60423809D01*
X105894819Y-60423809D02*
X106037676Y-60519047D01*
X106037676Y-60519047D02*
X106132914Y-60614285D01*
X106132914Y-60614285D02*
X106180533Y-60709523D01*
X113353333Y-74019580D02*
X113305714Y-74067200D01*
X113305714Y-74067200D02*
X113162857Y-74114819D01*
X113162857Y-74114819D02*
X113067619Y-74114819D01*
X113067619Y-74114819D02*
X112924762Y-74067200D01*
X112924762Y-74067200D02*
X112829524Y-73971961D01*
X112829524Y-73971961D02*
X112781905Y-73876723D01*
X112781905Y-73876723D02*
X112734286Y-73686247D01*
X112734286Y-73686247D02*
X112734286Y-73543390D01*
X112734286Y-73543390D02*
X112781905Y-73352914D01*
X112781905Y-73352914D02*
X112829524Y-73257676D01*
X112829524Y-73257676D02*
X112924762Y-73162438D01*
X112924762Y-73162438D02*
X113067619Y-73114819D01*
X113067619Y-73114819D02*
X113162857Y-73114819D01*
X113162857Y-73114819D02*
X113305714Y-73162438D01*
X113305714Y-73162438D02*
X113353333Y-73210057D01*
X113686667Y-73114819D02*
X114353333Y-73114819D01*
X114353333Y-73114819D02*
X113924762Y-74114819D01*
X95966667Y-48907200D02*
X96109524Y-48954819D01*
X96109524Y-48954819D02*
X96347619Y-48954819D01*
X96347619Y-48954819D02*
X96442857Y-48907200D01*
X96442857Y-48907200D02*
X96490476Y-48859580D01*
X96490476Y-48859580D02*
X96538095Y-48764342D01*
X96538095Y-48764342D02*
X96538095Y-48669104D01*
X96538095Y-48669104D02*
X96490476Y-48573866D01*
X96490476Y-48573866D02*
X96442857Y-48526247D01*
X96442857Y-48526247D02*
X96347619Y-48478628D01*
X96347619Y-48478628D02*
X96157143Y-48431009D01*
X96157143Y-48431009D02*
X96061905Y-48383390D01*
X96061905Y-48383390D02*
X96014286Y-48335771D01*
X96014286Y-48335771D02*
X95966667Y-48240533D01*
X95966667Y-48240533D02*
X95966667Y-48145295D01*
X95966667Y-48145295D02*
X96014286Y-48050057D01*
X96014286Y-48050057D02*
X96061905Y-48002438D01*
X96061905Y-48002438D02*
X96157143Y-47954819D01*
X96157143Y-47954819D02*
X96395238Y-47954819D01*
X96395238Y-47954819D02*
X96538095Y-48002438D01*
X96871429Y-47954819D02*
X97109524Y-48954819D01*
X97109524Y-48954819D02*
X97300000Y-48240533D01*
X97300000Y-48240533D02*
X97490476Y-48954819D01*
X97490476Y-48954819D02*
X97728572Y-47954819D01*
X98061905Y-48050057D02*
X98109524Y-48002438D01*
X98109524Y-48002438D02*
X98204762Y-47954819D01*
X98204762Y-47954819D02*
X98442857Y-47954819D01*
X98442857Y-47954819D02*
X98538095Y-48002438D01*
X98538095Y-48002438D02*
X98585714Y-48050057D01*
X98585714Y-48050057D02*
X98633333Y-48145295D01*
X98633333Y-48145295D02*
X98633333Y-48240533D01*
X98633333Y-48240533D02*
X98585714Y-48383390D01*
X98585714Y-48383390D02*
X98014286Y-48954819D01*
X98014286Y-48954819D02*
X98633333Y-48954819D01*
X105323809Y-75028628D02*
X105323809Y-75504819D01*
X104990476Y-74504819D02*
X105323809Y-75028628D01*
X105323809Y-75028628D02*
X105657142Y-74504819D01*
X106514285Y-75504819D02*
X105942857Y-75504819D01*
X106228571Y-75504819D02*
X106228571Y-74504819D01*
X106228571Y-74504819D02*
X106133333Y-74647676D01*
X106133333Y-74647676D02*
X106038095Y-74742914D01*
X106038095Y-74742914D02*
X105942857Y-74790533D01*
X123657142Y-58179580D02*
X123609523Y-58227200D01*
X123609523Y-58227200D02*
X123466666Y-58274819D01*
X123466666Y-58274819D02*
X123371428Y-58274819D01*
X123371428Y-58274819D02*
X123228571Y-58227200D01*
X123228571Y-58227200D02*
X123133333Y-58131961D01*
X123133333Y-58131961D02*
X123085714Y-58036723D01*
X123085714Y-58036723D02*
X123038095Y-57846247D01*
X123038095Y-57846247D02*
X123038095Y-57703390D01*
X123038095Y-57703390D02*
X123085714Y-57512914D01*
X123085714Y-57512914D02*
X123133333Y-57417676D01*
X123133333Y-57417676D02*
X123228571Y-57322438D01*
X123228571Y-57322438D02*
X123371428Y-57274819D01*
X123371428Y-57274819D02*
X123466666Y-57274819D01*
X123466666Y-57274819D02*
X123609523Y-57322438D01*
X123609523Y-57322438D02*
X123657142Y-57370057D01*
X124609523Y-58274819D02*
X124038095Y-58274819D01*
X124323809Y-58274819D02*
X124323809Y-57274819D01*
X124323809Y-57274819D02*
X124228571Y-57417676D01*
X124228571Y-57417676D02*
X124133333Y-57512914D01*
X124133333Y-57512914D02*
X124038095Y-57560533D01*
X125514285Y-57274819D02*
X125038095Y-57274819D01*
X125038095Y-57274819D02*
X124990476Y-57751009D01*
X124990476Y-57751009D02*
X125038095Y-57703390D01*
X125038095Y-57703390D02*
X125133333Y-57655771D01*
X125133333Y-57655771D02*
X125371428Y-57655771D01*
X125371428Y-57655771D02*
X125466666Y-57703390D01*
X125466666Y-57703390D02*
X125514285Y-57751009D01*
X125514285Y-57751009D02*
X125561904Y-57846247D01*
X125561904Y-57846247D02*
X125561904Y-58084342D01*
X125561904Y-58084342D02*
X125514285Y-58179580D01*
X125514285Y-58179580D02*
X125466666Y-58227200D01*
X125466666Y-58227200D02*
X125371428Y-58274819D01*
X125371428Y-58274819D02*
X125133333Y-58274819D01*
X125133333Y-58274819D02*
X125038095Y-58227200D01*
X125038095Y-58227200D02*
X124990476Y-58179580D01*
X105699580Y-61416666D02*
X105747200Y-61464285D01*
X105747200Y-61464285D02*
X105794819Y-61607142D01*
X105794819Y-61607142D02*
X105794819Y-61702380D01*
X105794819Y-61702380D02*
X105747200Y-61845237D01*
X105747200Y-61845237D02*
X105651961Y-61940475D01*
X105651961Y-61940475D02*
X105556723Y-61988094D01*
X105556723Y-61988094D02*
X105366247Y-62035713D01*
X105366247Y-62035713D02*
X105223390Y-62035713D01*
X105223390Y-62035713D02*
X105032914Y-61988094D01*
X105032914Y-61988094D02*
X104937676Y-61940475D01*
X104937676Y-61940475D02*
X104842438Y-61845237D01*
X104842438Y-61845237D02*
X104794819Y-61702380D01*
X104794819Y-61702380D02*
X104794819Y-61607142D01*
X104794819Y-61607142D02*
X104842438Y-61464285D01*
X104842438Y-61464285D02*
X104890057Y-61416666D01*
X104890057Y-61035713D02*
X104842438Y-60988094D01*
X104842438Y-60988094D02*
X104794819Y-60892856D01*
X104794819Y-60892856D02*
X104794819Y-60654761D01*
X104794819Y-60654761D02*
X104842438Y-60559523D01*
X104842438Y-60559523D02*
X104890057Y-60511904D01*
X104890057Y-60511904D02*
X104985295Y-60464285D01*
X104985295Y-60464285D02*
X105080533Y-60464285D01*
X105080533Y-60464285D02*
X105223390Y-60511904D01*
X105223390Y-60511904D02*
X105794819Y-61083332D01*
X105794819Y-61083332D02*
X105794819Y-60464285D01*
X111199580Y-54662857D02*
X111247200Y-54710476D01*
X111247200Y-54710476D02*
X111294819Y-54853333D01*
X111294819Y-54853333D02*
X111294819Y-54948571D01*
X111294819Y-54948571D02*
X111247200Y-55091428D01*
X111247200Y-55091428D02*
X111151961Y-55186666D01*
X111151961Y-55186666D02*
X111056723Y-55234285D01*
X111056723Y-55234285D02*
X110866247Y-55281904D01*
X110866247Y-55281904D02*
X110723390Y-55281904D01*
X110723390Y-55281904D02*
X110532914Y-55234285D01*
X110532914Y-55234285D02*
X110437676Y-55186666D01*
X110437676Y-55186666D02*
X110342438Y-55091428D01*
X110342438Y-55091428D02*
X110294819Y-54948571D01*
X110294819Y-54948571D02*
X110294819Y-54853333D01*
X110294819Y-54853333D02*
X110342438Y-54710476D01*
X110342438Y-54710476D02*
X110390057Y-54662857D01*
X111294819Y-53710476D02*
X111294819Y-54281904D01*
X111294819Y-53996190D02*
X110294819Y-53996190D01*
X110294819Y-53996190D02*
X110437676Y-54091428D01*
X110437676Y-54091428D02*
X110532914Y-54186666D01*
X110532914Y-54186666D02*
X110580533Y-54281904D01*
X110294819Y-52853333D02*
X110294819Y-53043809D01*
X110294819Y-53043809D02*
X110342438Y-53139047D01*
X110342438Y-53139047D02*
X110390057Y-53186666D01*
X110390057Y-53186666D02*
X110532914Y-53281904D01*
X110532914Y-53281904D02*
X110723390Y-53329523D01*
X110723390Y-53329523D02*
X111104342Y-53329523D01*
X111104342Y-53329523D02*
X111199580Y-53281904D01*
X111199580Y-53281904D02*
X111247200Y-53234285D01*
X111247200Y-53234285D02*
X111294819Y-53139047D01*
X111294819Y-53139047D02*
X111294819Y-52948571D01*
X111294819Y-52948571D02*
X111247200Y-52853333D01*
X111247200Y-52853333D02*
X111199580Y-52805714D01*
X111199580Y-52805714D02*
X111104342Y-52758095D01*
X111104342Y-52758095D02*
X110866247Y-52758095D01*
X110866247Y-52758095D02*
X110771009Y-52805714D01*
X110771009Y-52805714D02*
X110723390Y-52853333D01*
X110723390Y-52853333D02*
X110675771Y-52948571D01*
X110675771Y-52948571D02*
X110675771Y-53139047D01*
X110675771Y-53139047D02*
X110723390Y-53234285D01*
X110723390Y-53234285D02*
X110771009Y-53281904D01*
X110771009Y-53281904D02*
X110866247Y-53329523D01*
X95966667Y-53257200D02*
X96109524Y-53304819D01*
X96109524Y-53304819D02*
X96347619Y-53304819D01*
X96347619Y-53304819D02*
X96442857Y-53257200D01*
X96442857Y-53257200D02*
X96490476Y-53209580D01*
X96490476Y-53209580D02*
X96538095Y-53114342D01*
X96538095Y-53114342D02*
X96538095Y-53019104D01*
X96538095Y-53019104D02*
X96490476Y-52923866D01*
X96490476Y-52923866D02*
X96442857Y-52876247D01*
X96442857Y-52876247D02*
X96347619Y-52828628D01*
X96347619Y-52828628D02*
X96157143Y-52781009D01*
X96157143Y-52781009D02*
X96061905Y-52733390D01*
X96061905Y-52733390D02*
X96014286Y-52685771D01*
X96014286Y-52685771D02*
X95966667Y-52590533D01*
X95966667Y-52590533D02*
X95966667Y-52495295D01*
X95966667Y-52495295D02*
X96014286Y-52400057D01*
X96014286Y-52400057D02*
X96061905Y-52352438D01*
X96061905Y-52352438D02*
X96157143Y-52304819D01*
X96157143Y-52304819D02*
X96395238Y-52304819D01*
X96395238Y-52304819D02*
X96538095Y-52352438D01*
X96871429Y-52304819D02*
X97109524Y-53304819D01*
X97109524Y-53304819D02*
X97300000Y-52590533D01*
X97300000Y-52590533D02*
X97490476Y-53304819D01*
X97490476Y-53304819D02*
X97728572Y-52304819D01*
X98014286Y-52304819D02*
X98633333Y-52304819D01*
X98633333Y-52304819D02*
X98300000Y-52685771D01*
X98300000Y-52685771D02*
X98442857Y-52685771D01*
X98442857Y-52685771D02*
X98538095Y-52733390D01*
X98538095Y-52733390D02*
X98585714Y-52781009D01*
X98585714Y-52781009D02*
X98633333Y-52876247D01*
X98633333Y-52876247D02*
X98633333Y-53114342D01*
X98633333Y-53114342D02*
X98585714Y-53209580D01*
X98585714Y-53209580D02*
X98538095Y-53257200D01*
X98538095Y-53257200D02*
X98442857Y-53304819D01*
X98442857Y-53304819D02*
X98157143Y-53304819D01*
X98157143Y-53304819D02*
X98061905Y-53257200D01*
X98061905Y-53257200D02*
X98014286Y-53209580D01*
X111353333Y-70699580D02*
X111305714Y-70747200D01*
X111305714Y-70747200D02*
X111162857Y-70794819D01*
X111162857Y-70794819D02*
X111067619Y-70794819D01*
X111067619Y-70794819D02*
X110924762Y-70747200D01*
X110924762Y-70747200D02*
X110829524Y-70651961D01*
X110829524Y-70651961D02*
X110781905Y-70556723D01*
X110781905Y-70556723D02*
X110734286Y-70366247D01*
X110734286Y-70366247D02*
X110734286Y-70223390D01*
X110734286Y-70223390D02*
X110781905Y-70032914D01*
X110781905Y-70032914D02*
X110829524Y-69937676D01*
X110829524Y-69937676D02*
X110924762Y-69842438D01*
X110924762Y-69842438D02*
X111067619Y-69794819D01*
X111067619Y-69794819D02*
X111162857Y-69794819D01*
X111162857Y-69794819D02*
X111305714Y-69842438D01*
X111305714Y-69842438D02*
X111353333Y-69890057D01*
X111829524Y-70794819D02*
X112020000Y-70794819D01*
X112020000Y-70794819D02*
X112115238Y-70747200D01*
X112115238Y-70747200D02*
X112162857Y-70699580D01*
X112162857Y-70699580D02*
X112258095Y-70556723D01*
X112258095Y-70556723D02*
X112305714Y-70366247D01*
X112305714Y-70366247D02*
X112305714Y-69985295D01*
X112305714Y-69985295D02*
X112258095Y-69890057D01*
X112258095Y-69890057D02*
X112210476Y-69842438D01*
X112210476Y-69842438D02*
X112115238Y-69794819D01*
X112115238Y-69794819D02*
X111924762Y-69794819D01*
X111924762Y-69794819D02*
X111829524Y-69842438D01*
X111829524Y-69842438D02*
X111781905Y-69890057D01*
X111781905Y-69890057D02*
X111734286Y-69985295D01*
X111734286Y-69985295D02*
X111734286Y-70223390D01*
X111734286Y-70223390D02*
X111781905Y-70318628D01*
X111781905Y-70318628D02*
X111829524Y-70366247D01*
X111829524Y-70366247D02*
X111924762Y-70413866D01*
X111924762Y-70413866D02*
X112115238Y-70413866D01*
X112115238Y-70413866D02*
X112210476Y-70366247D01*
X112210476Y-70366247D02*
X112258095Y-70318628D01*
X112258095Y-70318628D02*
X112305714Y-70223390D01*
X112073333Y-63284819D02*
X111740000Y-62808628D01*
X111501905Y-63284819D02*
X111501905Y-62284819D01*
X111501905Y-62284819D02*
X111882857Y-62284819D01*
X111882857Y-62284819D02*
X111978095Y-62332438D01*
X111978095Y-62332438D02*
X112025714Y-62380057D01*
X112025714Y-62380057D02*
X112073333Y-62475295D01*
X112073333Y-62475295D02*
X112073333Y-62618152D01*
X112073333Y-62618152D02*
X112025714Y-62713390D01*
X112025714Y-62713390D02*
X111978095Y-62761009D01*
X111978095Y-62761009D02*
X111882857Y-62808628D01*
X111882857Y-62808628D02*
X111501905Y-62808628D01*
X112454286Y-62380057D02*
X112501905Y-62332438D01*
X112501905Y-62332438D02*
X112597143Y-62284819D01*
X112597143Y-62284819D02*
X112835238Y-62284819D01*
X112835238Y-62284819D02*
X112930476Y-62332438D01*
X112930476Y-62332438D02*
X112978095Y-62380057D01*
X112978095Y-62380057D02*
X113025714Y-62475295D01*
X113025714Y-62475295D02*
X113025714Y-62570533D01*
X113025714Y-62570533D02*
X112978095Y-62713390D01*
X112978095Y-62713390D02*
X112406667Y-63284819D01*
X112406667Y-63284819D02*
X113025714Y-63284819D01*
X95966667Y-61957200D02*
X96109524Y-62004819D01*
X96109524Y-62004819D02*
X96347619Y-62004819D01*
X96347619Y-62004819D02*
X96442857Y-61957200D01*
X96442857Y-61957200D02*
X96490476Y-61909580D01*
X96490476Y-61909580D02*
X96538095Y-61814342D01*
X96538095Y-61814342D02*
X96538095Y-61719104D01*
X96538095Y-61719104D02*
X96490476Y-61623866D01*
X96490476Y-61623866D02*
X96442857Y-61576247D01*
X96442857Y-61576247D02*
X96347619Y-61528628D01*
X96347619Y-61528628D02*
X96157143Y-61481009D01*
X96157143Y-61481009D02*
X96061905Y-61433390D01*
X96061905Y-61433390D02*
X96014286Y-61385771D01*
X96014286Y-61385771D02*
X95966667Y-61290533D01*
X95966667Y-61290533D02*
X95966667Y-61195295D01*
X95966667Y-61195295D02*
X96014286Y-61100057D01*
X96014286Y-61100057D02*
X96061905Y-61052438D01*
X96061905Y-61052438D02*
X96157143Y-61004819D01*
X96157143Y-61004819D02*
X96395238Y-61004819D01*
X96395238Y-61004819D02*
X96538095Y-61052438D01*
X96871429Y-61004819D02*
X97109524Y-62004819D01*
X97109524Y-62004819D02*
X97300000Y-61290533D01*
X97300000Y-61290533D02*
X97490476Y-62004819D01*
X97490476Y-62004819D02*
X97728572Y-61004819D01*
X98585714Y-61004819D02*
X98109524Y-61004819D01*
X98109524Y-61004819D02*
X98061905Y-61481009D01*
X98061905Y-61481009D02*
X98109524Y-61433390D01*
X98109524Y-61433390D02*
X98204762Y-61385771D01*
X98204762Y-61385771D02*
X98442857Y-61385771D01*
X98442857Y-61385771D02*
X98538095Y-61433390D01*
X98538095Y-61433390D02*
X98585714Y-61481009D01*
X98585714Y-61481009D02*
X98633333Y-61576247D01*
X98633333Y-61576247D02*
X98633333Y-61814342D01*
X98633333Y-61814342D02*
X98585714Y-61909580D01*
X98585714Y-61909580D02*
X98538095Y-61957200D01*
X98538095Y-61957200D02*
X98442857Y-62004819D01*
X98442857Y-62004819D02*
X98204762Y-62004819D01*
X98204762Y-62004819D02*
X98109524Y-61957200D01*
X98109524Y-61957200D02*
X98061905Y-61909580D01*
X112073333Y-64534819D02*
X111740000Y-64058628D01*
X111501905Y-64534819D02*
X111501905Y-63534819D01*
X111501905Y-63534819D02*
X111882857Y-63534819D01*
X111882857Y-63534819D02*
X111978095Y-63582438D01*
X111978095Y-63582438D02*
X112025714Y-63630057D01*
X112025714Y-63630057D02*
X112073333Y-63725295D01*
X112073333Y-63725295D02*
X112073333Y-63868152D01*
X112073333Y-63868152D02*
X112025714Y-63963390D01*
X112025714Y-63963390D02*
X111978095Y-64011009D01*
X111978095Y-64011009D02*
X111882857Y-64058628D01*
X111882857Y-64058628D02*
X111501905Y-64058628D01*
X113025714Y-64534819D02*
X112454286Y-64534819D01*
X112740000Y-64534819D02*
X112740000Y-63534819D01*
X112740000Y-63534819D02*
X112644762Y-63677676D01*
X112644762Y-63677676D02*
X112549524Y-63772914D01*
X112549524Y-63772914D02*
X112454286Y-63820533D01*
X95966667Y-70657200D02*
X96109524Y-70704819D01*
X96109524Y-70704819D02*
X96347619Y-70704819D01*
X96347619Y-70704819D02*
X96442857Y-70657200D01*
X96442857Y-70657200D02*
X96490476Y-70609580D01*
X96490476Y-70609580D02*
X96538095Y-70514342D01*
X96538095Y-70514342D02*
X96538095Y-70419104D01*
X96538095Y-70419104D02*
X96490476Y-70323866D01*
X96490476Y-70323866D02*
X96442857Y-70276247D01*
X96442857Y-70276247D02*
X96347619Y-70228628D01*
X96347619Y-70228628D02*
X96157143Y-70181009D01*
X96157143Y-70181009D02*
X96061905Y-70133390D01*
X96061905Y-70133390D02*
X96014286Y-70085771D01*
X96014286Y-70085771D02*
X95966667Y-69990533D01*
X95966667Y-69990533D02*
X95966667Y-69895295D01*
X95966667Y-69895295D02*
X96014286Y-69800057D01*
X96014286Y-69800057D02*
X96061905Y-69752438D01*
X96061905Y-69752438D02*
X96157143Y-69704819D01*
X96157143Y-69704819D02*
X96395238Y-69704819D01*
X96395238Y-69704819D02*
X96538095Y-69752438D01*
X96871429Y-69704819D02*
X97109524Y-70704819D01*
X97109524Y-70704819D02*
X97300000Y-69990533D01*
X97300000Y-69990533D02*
X97490476Y-70704819D01*
X97490476Y-70704819D02*
X97728572Y-69704819D01*
X98014286Y-69704819D02*
X98680952Y-69704819D01*
X98680952Y-69704819D02*
X98252381Y-70704819D01*
X111353333Y-71699580D02*
X111305714Y-71747200D01*
X111305714Y-71747200D02*
X111162857Y-71794819D01*
X111162857Y-71794819D02*
X111067619Y-71794819D01*
X111067619Y-71794819D02*
X110924762Y-71747200D01*
X110924762Y-71747200D02*
X110829524Y-71651961D01*
X110829524Y-71651961D02*
X110781905Y-71556723D01*
X110781905Y-71556723D02*
X110734286Y-71366247D01*
X110734286Y-71366247D02*
X110734286Y-71223390D01*
X110734286Y-71223390D02*
X110781905Y-71032914D01*
X110781905Y-71032914D02*
X110829524Y-70937676D01*
X110829524Y-70937676D02*
X110924762Y-70842438D01*
X110924762Y-70842438D02*
X111067619Y-70794819D01*
X111067619Y-70794819D02*
X111162857Y-70794819D01*
X111162857Y-70794819D02*
X111305714Y-70842438D01*
X111305714Y-70842438D02*
X111353333Y-70890057D01*
X111686667Y-70794819D02*
X112305714Y-70794819D01*
X112305714Y-70794819D02*
X111972381Y-71175771D01*
X111972381Y-71175771D02*
X112115238Y-71175771D01*
X112115238Y-71175771D02*
X112210476Y-71223390D01*
X112210476Y-71223390D02*
X112258095Y-71271009D01*
X112258095Y-71271009D02*
X112305714Y-71366247D01*
X112305714Y-71366247D02*
X112305714Y-71604342D01*
X112305714Y-71604342D02*
X112258095Y-71699580D01*
X112258095Y-71699580D02*
X112210476Y-71747200D01*
X112210476Y-71747200D02*
X112115238Y-71794819D01*
X112115238Y-71794819D02*
X111829524Y-71794819D01*
X111829524Y-71794819D02*
X111734286Y-71747200D01*
X111734286Y-71747200D02*
X111686667Y-71699580D01*
X105438095Y-61272319D02*
X105438095Y-62081842D01*
X105438095Y-62081842D02*
X105485714Y-62177080D01*
X105485714Y-62177080D02*
X105533333Y-62224700D01*
X105533333Y-62224700D02*
X105628571Y-62272319D01*
X105628571Y-62272319D02*
X105819047Y-62272319D01*
X105819047Y-62272319D02*
X105914285Y-62224700D01*
X105914285Y-62224700D02*
X105961904Y-62177080D01*
X105961904Y-62177080D02*
X106009523Y-62081842D01*
X106009523Y-62081842D02*
X106009523Y-61272319D01*
X107009523Y-62272319D02*
X106438095Y-62272319D01*
X106723809Y-62272319D02*
X106723809Y-61272319D01*
X106723809Y-61272319D02*
X106628571Y-61415176D01*
X106628571Y-61415176D02*
X106533333Y-61510414D01*
X106533333Y-61510414D02*
X106438095Y-61558033D01*
X107799580Y-72442857D02*
X107847200Y-72490476D01*
X107847200Y-72490476D02*
X107894819Y-72633333D01*
X107894819Y-72633333D02*
X107894819Y-72728571D01*
X107894819Y-72728571D02*
X107847200Y-72871428D01*
X107847200Y-72871428D02*
X107751961Y-72966666D01*
X107751961Y-72966666D02*
X107656723Y-73014285D01*
X107656723Y-73014285D02*
X107466247Y-73061904D01*
X107466247Y-73061904D02*
X107323390Y-73061904D01*
X107323390Y-73061904D02*
X107132914Y-73014285D01*
X107132914Y-73014285D02*
X107037676Y-72966666D01*
X107037676Y-72966666D02*
X106942438Y-72871428D01*
X106942438Y-72871428D02*
X106894819Y-72728571D01*
X106894819Y-72728571D02*
X106894819Y-72633333D01*
X106894819Y-72633333D02*
X106942438Y-72490476D01*
X106942438Y-72490476D02*
X106990057Y-72442857D01*
X107894819Y-71490476D02*
X107894819Y-72061904D01*
X107894819Y-71776190D02*
X106894819Y-71776190D01*
X106894819Y-71776190D02*
X107037676Y-71871428D01*
X107037676Y-71871428D02*
X107132914Y-71966666D01*
X107132914Y-71966666D02*
X107180533Y-72061904D01*
X106894819Y-71157142D02*
X106894819Y-70538095D01*
X106894819Y-70538095D02*
X107275771Y-70871428D01*
X107275771Y-70871428D02*
X107275771Y-70728571D01*
X107275771Y-70728571D02*
X107323390Y-70633333D01*
X107323390Y-70633333D02*
X107371009Y-70585714D01*
X107371009Y-70585714D02*
X107466247Y-70538095D01*
X107466247Y-70538095D02*
X107704342Y-70538095D01*
X107704342Y-70538095D02*
X107799580Y-70585714D01*
X107799580Y-70585714D02*
X107847200Y-70633333D01*
X107847200Y-70633333D02*
X107894819Y-70728571D01*
X107894819Y-70728571D02*
X107894819Y-71014285D01*
X107894819Y-71014285D02*
X107847200Y-71109523D01*
X107847200Y-71109523D02*
X107799580Y-71157142D01*
X95966667Y-57607200D02*
X96109524Y-57654819D01*
X96109524Y-57654819D02*
X96347619Y-57654819D01*
X96347619Y-57654819D02*
X96442857Y-57607200D01*
X96442857Y-57607200D02*
X96490476Y-57559580D01*
X96490476Y-57559580D02*
X96538095Y-57464342D01*
X96538095Y-57464342D02*
X96538095Y-57369104D01*
X96538095Y-57369104D02*
X96490476Y-57273866D01*
X96490476Y-57273866D02*
X96442857Y-57226247D01*
X96442857Y-57226247D02*
X96347619Y-57178628D01*
X96347619Y-57178628D02*
X96157143Y-57131009D01*
X96157143Y-57131009D02*
X96061905Y-57083390D01*
X96061905Y-57083390D02*
X96014286Y-57035771D01*
X96014286Y-57035771D02*
X95966667Y-56940533D01*
X95966667Y-56940533D02*
X95966667Y-56845295D01*
X95966667Y-56845295D02*
X96014286Y-56750057D01*
X96014286Y-56750057D02*
X96061905Y-56702438D01*
X96061905Y-56702438D02*
X96157143Y-56654819D01*
X96157143Y-56654819D02*
X96395238Y-56654819D01*
X96395238Y-56654819D02*
X96538095Y-56702438D01*
X96871429Y-56654819D02*
X97109524Y-57654819D01*
X97109524Y-57654819D02*
X97300000Y-56940533D01*
X97300000Y-56940533D02*
X97490476Y-57654819D01*
X97490476Y-57654819D02*
X97728572Y-56654819D01*
X98538095Y-56988152D02*
X98538095Y-57654819D01*
X98300000Y-56607200D02*
X98061905Y-57321485D01*
X98061905Y-57321485D02*
X98680952Y-57321485D01*
D11*
%TO.C,C8*%
X113627836Y-73860000D02*
X113412164Y-73860000D01*
X113627836Y-73140000D02*
X113412164Y-73140000D01*
%TO.C,C12*%
X103360000Y-71692164D02*
X103360000Y-71907836D01*
X102640000Y-71692164D02*
X102640000Y-71907836D01*
%TO.C,C10*%
X108240000Y-61507836D02*
X108240000Y-61292164D01*
X108960000Y-61507836D02*
X108960000Y-61292164D01*
%TO.C,C6*%
X113627836Y-71860000D02*
X113412164Y-71860000D01*
X113627836Y-71140000D02*
X113412164Y-71140000D01*
%TO.C,C14*%
X120988748Y-71865000D02*
X121511252Y-71865000D01*
X120988748Y-73335000D02*
X121511252Y-73335000D01*
%TO.C,R3*%
X121630000Y-58346359D02*
X121630000Y-58653641D01*
X120870000Y-58346359D02*
X120870000Y-58653641D01*
%TO.C,U2*%
X124360000Y-61800000D02*
X124360000Y-67810000D01*
X117540000Y-64050000D02*
X117540000Y-67810000D01*
X124360000Y-67810000D02*
X123100000Y-67810000D01*
X117540000Y-67810000D02*
X118800000Y-67810000D01*
%TO.C,SW6*%
X95650000Y-67000000D02*
X98950000Y-67000000D01*
X95650000Y-67300000D02*
X95650000Y-67000000D01*
X95650000Y-69500000D02*
X95650000Y-69800000D01*
X95650000Y-69800000D02*
X98950000Y-69800000D01*
X98950000Y-67000000D02*
X98950000Y-67300000D01*
X98950000Y-69800000D02*
X98950000Y-69500000D01*
%TO.C,U3*%
X104075000Y-54275000D02*
X104075000Y-54535000D01*
X104075000Y-54535000D02*
X102400000Y-54535000D01*
X104075000Y-59725000D02*
X104075000Y-59465000D01*
X106800000Y-54275000D02*
X104075000Y-54275000D01*
X106800000Y-54275000D02*
X109525000Y-54275000D01*
X106800000Y-59725000D02*
X104075000Y-59725000D01*
X106800000Y-59725000D02*
X109525000Y-59725000D01*
X109525000Y-54275000D02*
X109525000Y-54535000D01*
X109525000Y-59725000D02*
X109525000Y-59465000D01*
%TO.C,SW1*%
X110285000Y-53550000D02*
X110285000Y-52167000D01*
X110285000Y-53550000D02*
X108902000Y-53550000D01*
X110045000Y-53310000D02*
X110045000Y-52000000D01*
X110045000Y-53310000D02*
X103225000Y-53310000D01*
X110045000Y-50400000D02*
X110045000Y-49090000D01*
X110045000Y-49090000D02*
X103225000Y-49090000D01*
X108445000Y-51835000D02*
X108445000Y-50565000D01*
X108445000Y-51715000D02*
X107238333Y-51715000D01*
X108445000Y-51595000D02*
X107238333Y-51595000D01*
X108445000Y-51475000D02*
X107238333Y-51475000D01*
X108445000Y-51355000D02*
X107238333Y-51355000D01*
X108445000Y-51235000D02*
X107238333Y-51235000D01*
X108445000Y-51115000D02*
X107238333Y-51115000D01*
X108445000Y-50995000D02*
X107238333Y-50995000D01*
X108445000Y-50875000D02*
X107238333Y-50875000D01*
X108445000Y-50755000D02*
X107238333Y-50755000D01*
X108445000Y-50635000D02*
X107238333Y-50635000D01*
X108445000Y-50565000D02*
X104825000Y-50565000D01*
X107238333Y-51835000D02*
X107238333Y-50565000D01*
X104825000Y-51835000D02*
X108445000Y-51835000D01*
X104825000Y-50565000D02*
X104825000Y-51835000D01*
X103225000Y-53310000D02*
X103225000Y-52000000D01*
X103225000Y-50400000D02*
X103225000Y-49090000D01*
%TO.C,P1*%
X125670000Y-52000000D02*
X125670000Y-53800000D01*
X125670000Y-49900000D02*
X125670000Y-48750000D01*
X116330000Y-52000000D02*
X116330000Y-53800000D01*
X116330000Y-49900000D02*
X116330000Y-48750000D01*
%TO.C,C5*%
X111412164Y-74140000D02*
X111627836Y-74140000D01*
X111412164Y-74860000D02*
X111627836Y-74860000D01*
%TO.C,R4*%
X101630000Y-53846359D02*
X101630000Y-54153641D01*
X100870000Y-53846359D02*
X100870000Y-54153641D01*
%TO.C,C4*%
X111412164Y-73140000D02*
X111627836Y-73140000D01*
X111412164Y-73860000D02*
X111627836Y-73860000D01*
%TO.C,C11*%
X107240000Y-61507836D02*
X107240000Y-61292164D01*
X107960000Y-61507836D02*
X107960000Y-61292164D01*
%TO.C,C7*%
X113627836Y-72860000D02*
X113412164Y-72860000D01*
X113627836Y-72140000D02*
X113412164Y-72140000D01*
%TO.C,SW2*%
X95650000Y-49600000D02*
X98950000Y-49600000D01*
X95650000Y-49900000D02*
X95650000Y-49600000D01*
X95650000Y-52100000D02*
X95650000Y-52400000D01*
X95650000Y-52400000D02*
X98950000Y-52400000D01*
X98950000Y-49600000D02*
X98950000Y-49900000D01*
X98950000Y-52400000D02*
X98950000Y-52100000D01*
%TO.C,Y1*%
X107800000Y-74250000D02*
X107800000Y-70950000D01*
X107800000Y-70950000D02*
X103800000Y-70950000D01*
%TO.C,C15*%
X124038748Y-58765000D02*
X124561252Y-58765000D01*
X124038748Y-60235000D02*
X124561252Y-60235000D01*
%TO.C,C2*%
X106140000Y-61357836D02*
X106140000Y-61142164D01*
X106860000Y-61357836D02*
X106860000Y-61142164D01*
%TO.C,C16*%
X111640000Y-54127836D02*
X111640000Y-53912164D01*
X112360000Y-54127836D02*
X112360000Y-53912164D01*
%TO.C,SW3*%
X95650000Y-53950000D02*
X98950000Y-53950000D01*
X95650000Y-54250000D02*
X95650000Y-53950000D01*
X95650000Y-56450000D02*
X95650000Y-56750000D01*
X95650000Y-56750000D02*
X98950000Y-56750000D01*
X98950000Y-53950000D02*
X98950000Y-54250000D01*
X98950000Y-56750000D02*
X98950000Y-56450000D01*
%TO.C,C9*%
X111412164Y-71140000D02*
X111627836Y-71140000D01*
X111412164Y-71860000D02*
X111627836Y-71860000D01*
%TO.C,R2*%
X112086359Y-63620000D02*
X112393641Y-63620000D01*
X112086359Y-64380000D02*
X112393641Y-64380000D01*
%TO.C,SW5*%
X95650000Y-62650000D02*
X98950000Y-62650000D01*
X95650000Y-62950000D02*
X95650000Y-62650000D01*
X95650000Y-65150000D02*
X95650000Y-65450000D01*
X95650000Y-65450000D02*
X98950000Y-65450000D01*
X98950000Y-62650000D02*
X98950000Y-62950000D01*
X98950000Y-65450000D02*
X98950000Y-65150000D01*
%TO.C,R1*%
X112086359Y-64870000D02*
X112393641Y-64870000D01*
X112086359Y-65630000D02*
X112393641Y-65630000D01*
%TO.C,SW7*%
X95650000Y-71350000D02*
X98950000Y-71350000D01*
X95650000Y-71650000D02*
X95650000Y-71350000D01*
X95650000Y-73850000D02*
X95650000Y-74150000D01*
X95650000Y-74150000D02*
X98950000Y-74150000D01*
X98950000Y-71350000D02*
X98950000Y-71650000D01*
X98950000Y-74150000D02*
X98950000Y-73850000D01*
%TO.C,C3*%
X111412164Y-72140000D02*
X111627836Y-72140000D01*
X111412164Y-72860000D02*
X111627836Y-72860000D01*
%TO.C,C1*%
X105140000Y-61357836D02*
X105140000Y-61142164D01*
X105860000Y-61357836D02*
X105860000Y-61142164D01*
%TO.C,U1*%
X102590000Y-70247500D02*
X102590000Y-69597500D01*
X103240000Y-63027500D02*
X102590000Y-63027500D01*
X103240000Y-70247500D02*
X102590000Y-70247500D01*
X109160000Y-63027500D02*
X109810000Y-63027500D01*
X109160000Y-70247500D02*
X109810000Y-70247500D01*
X109810000Y-63027500D02*
X109810000Y-63677500D01*
X109810000Y-70247500D02*
X109810000Y-69597500D01*
%TO.C,C13*%
X108240000Y-71907836D02*
X108240000Y-71692164D01*
X108960000Y-71907836D02*
X108960000Y-71692164D01*
%TO.C,SW4*%
X95650000Y-58300000D02*
X98950000Y-58300000D01*
X95650000Y-58600000D02*
X95650000Y-58300000D01*
X95650000Y-60800000D02*
X95650000Y-61100000D01*
X95650000Y-61100000D02*
X98950000Y-61100000D01*
X98950000Y-58300000D02*
X98950000Y-58600000D01*
X98950000Y-61100000D02*
X98950000Y-60800000D01*
%TD*%
M02*
