%TF.GenerationSoftware,KiCad,Pcbnew,7.0.6-0*%
%TF.CreationDate,2023-09-19T06:41:03+09:00*%
%TF.ProjectId,scratch-rp2040,73637261-7463-4682-9d72-70323034302e,rev?*%
%TF.SameCoordinates,Original*%
%TF.FileFunction,Paste,Top*%
%TF.FilePolarity,Positive*%
%FSLAX46Y46*%
G04 Gerber Fmt 4.6, Leading zero omitted, Abs format (unit mm)*
G04 Created by KiCad (PCBNEW 7.0.6-0) date 2023-09-19 06:41:03*
%MOMM*%
%LPD*%
G01*
G04 APERTURE LIST*
G04 Aperture macros list*
%AMRoundRect*
0 Rectangle with rounded corners*
0 $1 Rounding radius*
0 $2 $3 $4 $5 $6 $7 $8 $9 X,Y pos of 4 corners*
0 Add a 4 corners polygon primitive as box body*
4,1,4,$2,$3,$4,$5,$6,$7,$8,$9,$2,$3,0*
0 Add four circle primitives for the rounded corners*
1,1,$1+$1,$2,$3*
1,1,$1+$1,$4,$5*
1,1,$1+$1,$6,$7*
1,1,$1+$1,$8,$9*
0 Add four rect primitives between the rounded corners*
20,1,$1+$1,$2,$3,$4,$5,0*
20,1,$1+$1,$4,$5,$6,$7,0*
20,1,$1+$1,$6,$7,$8,$9,0*
20,1,$1+$1,$8,$9,$2,$3,0*%
G04 Aperture macros list end*
%ADD10RoundRect,0.140000X0.140000X0.170000X-0.140000X0.170000X-0.140000X-0.170000X0.140000X-0.170000X0*%
%ADD11RoundRect,0.140000X-0.170000X0.140000X-0.170000X-0.140000X0.170000X-0.140000X0.170000X0.140000X0*%
%ADD12RoundRect,0.140000X0.170000X-0.140000X0.170000X0.140000X-0.170000X0.140000X-0.170000X-0.140000X0*%
%ADD13RoundRect,0.250000X-0.250000X-0.475000X0.250000X-0.475000X0.250000X0.475000X-0.250000X0.475000X0*%
%ADD14RoundRect,0.135000X-0.185000X0.135000X-0.185000X-0.135000X0.185000X-0.135000X0.185000X0.135000X0*%
%ADD15R,1.500000X2.000000*%
%ADD16R,3.800000X2.000000*%
%ADD17R,0.900000X1.700000*%
%ADD18RoundRect,0.150000X-0.650000X-0.150000X0.650000X-0.150000X0.650000X0.150000X-0.650000X0.150000X0*%
%ADD19R,2.160000X1.120000*%
%ADD20R,0.600000X1.150000*%
%ADD21R,0.300000X1.150000*%
%ADD22O,1.000000X2.100000*%
%ADD23O,1.000000X1.800000*%
%ADD24RoundRect,0.140000X-0.140000X-0.170000X0.140000X-0.170000X0.140000X0.170000X-0.140000X0.170000X0*%
%ADD25R,1.400000X1.200000*%
%ADD26RoundRect,0.135000X-0.135000X-0.185000X0.135000X-0.185000X0.135000X0.185000X-0.135000X0.185000X0*%
%ADD27RoundRect,0.249999X-0.395001X-0.395001X0.395001X-0.395001X0.395001X0.395001X-0.395001X0.395001X0*%
%ADD28RoundRect,0.050000X-0.387500X-0.050000X0.387500X-0.050000X0.387500X0.050000X-0.387500X0.050000X0*%
%ADD29RoundRect,0.050000X-0.050000X-0.387500X0.050000X-0.387500X0.050000X0.387500X-0.050000X0.387500X0*%
G04 APERTURE END LIST*
D10*
%TO.C,C8*%
X114000000Y-73500000D03*
X113040000Y-73500000D03*
%TD*%
D11*
%TO.C,C12*%
X103000000Y-71320000D03*
X103000000Y-72280000D03*
%TD*%
D12*
%TO.C,C10*%
X108600000Y-61880000D03*
X108600000Y-60920000D03*
%TD*%
D10*
%TO.C,C6*%
X114000000Y-71500000D03*
X113040000Y-71500000D03*
%TD*%
D13*
%TO.C,C14*%
X120300000Y-72600000D03*
X122200000Y-72600000D03*
%TD*%
D14*
%TO.C,R3*%
X121250000Y-57990000D03*
X121250000Y-59010000D03*
%TD*%
D15*
%TO.C,U2*%
X123250000Y-62750000D03*
X120950000Y-62750000D03*
D16*
X120950000Y-69050000D03*
D15*
X118650000Y-62750000D03*
%TD*%
D17*
%TO.C,SW6*%
X95600000Y-68400000D03*
X99000000Y-68400000D03*
%TD*%
D18*
%TO.C,U3*%
X103200000Y-55095000D03*
X103200000Y-56365000D03*
X103200000Y-57635000D03*
X103200000Y-58905000D03*
X110400000Y-58905000D03*
X110400000Y-57635000D03*
X110400000Y-56365000D03*
X110400000Y-55095000D03*
%TD*%
D19*
%TO.C,SW1*%
X110000000Y-51200000D03*
X103270000Y-51200000D03*
%TD*%
D20*
%TO.C,P1*%
X124200000Y-55680000D03*
X123400000Y-55680000D03*
D21*
X122250000Y-55680000D03*
X121250000Y-55680000D03*
X120750000Y-55680000D03*
X119750000Y-55680000D03*
D20*
X118600000Y-55680000D03*
X117800000Y-55680000D03*
X117800000Y-55680000D03*
X118600000Y-55680000D03*
D21*
X119250000Y-55680000D03*
X120250000Y-55680000D03*
X121750000Y-55680000D03*
X122750000Y-55680000D03*
D20*
X123400000Y-55680000D03*
X124200000Y-55680000D03*
D22*
X125320000Y-55105000D03*
D23*
X125320000Y-50925000D03*
D22*
X116680000Y-55105000D03*
D23*
X116680000Y-50925000D03*
%TD*%
D24*
%TO.C,C5*%
X111040000Y-74500000D03*
X112000000Y-74500000D03*
%TD*%
D14*
%TO.C,R4*%
X101250000Y-53490000D03*
X101250000Y-54510000D03*
%TD*%
D24*
%TO.C,C4*%
X111040000Y-73500000D03*
X112000000Y-73500000D03*
%TD*%
D12*
%TO.C,C11*%
X107600000Y-61880000D03*
X107600000Y-60920000D03*
%TD*%
D10*
%TO.C,C7*%
X114000000Y-72500000D03*
X113040000Y-72500000D03*
%TD*%
D17*
%TO.C,SW2*%
X95600000Y-51000000D03*
X99000000Y-51000000D03*
%TD*%
D25*
%TO.C,Y1*%
X106900000Y-71750000D03*
X104700000Y-71750000D03*
X104700000Y-73450000D03*
X106900000Y-73450000D03*
%TD*%
D13*
%TO.C,C15*%
X123350000Y-59500000D03*
X125250000Y-59500000D03*
%TD*%
D12*
%TO.C,C2*%
X106500000Y-61730000D03*
X106500000Y-60770000D03*
%TD*%
%TO.C,C16*%
X112000000Y-54500000D03*
X112000000Y-53540000D03*
%TD*%
D17*
%TO.C,SW3*%
X95600000Y-55350000D03*
X99000000Y-55350000D03*
%TD*%
D24*
%TO.C,C9*%
X111040000Y-71500000D03*
X112000000Y-71500000D03*
%TD*%
D26*
%TO.C,R2*%
X111730000Y-64000000D03*
X112750000Y-64000000D03*
%TD*%
D17*
%TO.C,SW5*%
X95600000Y-64050000D03*
X99000000Y-64050000D03*
%TD*%
D26*
%TO.C,R1*%
X111730000Y-65250000D03*
X112750000Y-65250000D03*
%TD*%
D17*
%TO.C,SW7*%
X95600000Y-72750000D03*
X99000000Y-72750000D03*
%TD*%
D24*
%TO.C,C3*%
X111040000Y-72500000D03*
X112000000Y-72500000D03*
%TD*%
D12*
%TO.C,C1*%
X105500000Y-61730000D03*
X105500000Y-60770000D03*
%TD*%
D27*
%TO.C,U1*%
X105400000Y-65837500D03*
X105400000Y-67437500D03*
X107000000Y-65837500D03*
X107000000Y-67437500D03*
D28*
X102762500Y-64037500D03*
X102762500Y-64437500D03*
X102762500Y-64837500D03*
X102762500Y-65237500D03*
X102762500Y-65637500D03*
X102762500Y-66037500D03*
X102762500Y-66437500D03*
X102762500Y-66837500D03*
X102762500Y-67237500D03*
X102762500Y-67637500D03*
X102762500Y-68037500D03*
X102762500Y-68437500D03*
X102762500Y-68837500D03*
X102762500Y-69237500D03*
D29*
X103600000Y-70075000D03*
X104000000Y-70075000D03*
X104400000Y-70075000D03*
X104800000Y-70075000D03*
X105200000Y-70075000D03*
X105600000Y-70075000D03*
X106000000Y-70075000D03*
X106400000Y-70075000D03*
X106800000Y-70075000D03*
X107200000Y-70075000D03*
X107600000Y-70075000D03*
X108000000Y-70075000D03*
X108400000Y-70075000D03*
X108800000Y-70075000D03*
D28*
X109637500Y-69237500D03*
X109637500Y-68837500D03*
X109637500Y-68437500D03*
X109637500Y-68037500D03*
X109637500Y-67637500D03*
X109637500Y-67237500D03*
X109637500Y-66837500D03*
X109637500Y-66437500D03*
X109637500Y-66037500D03*
X109637500Y-65637500D03*
X109637500Y-65237500D03*
X109637500Y-64837500D03*
X109637500Y-64437500D03*
X109637500Y-64037500D03*
D29*
X108800000Y-63200000D03*
X108400000Y-63200000D03*
X108000000Y-63200000D03*
X107600000Y-63200000D03*
X107200000Y-63200000D03*
X106800000Y-63200000D03*
X106400000Y-63200000D03*
X106000000Y-63200000D03*
X105600000Y-63200000D03*
X105200000Y-63200000D03*
X104800000Y-63200000D03*
X104400000Y-63200000D03*
X104000000Y-63200000D03*
X103600000Y-63200000D03*
%TD*%
D12*
%TO.C,C13*%
X108600000Y-72280000D03*
X108600000Y-71320000D03*
%TD*%
D17*
%TO.C,SW4*%
X95600000Y-59700000D03*
X99000000Y-59700000D03*
%TD*%
M02*
