%TF.GenerationSoftware,KiCad,Pcbnew,7.0.5*%
%TF.CreationDate,2023-09-22T01:01:30+09:00*%
%TF.ProjectId,scratch-rp2040,73637261-7463-4682-9d72-70323034302e,rev?*%
%TF.SameCoordinates,Original*%
%TF.FileFunction,Copper,L1,Top*%
%TF.FilePolarity,Positive*%
%FSLAX46Y46*%
G04 Gerber Fmt 4.6, Leading zero omitted, Abs format (unit mm)*
G04 Created by KiCad (PCBNEW 7.0.5) date 2023-09-22 01:01:30*
%MOMM*%
%LPD*%
G01*
G04 APERTURE LIST*
G04 Aperture macros list*
%AMRoundRect*
0 Rectangle with rounded corners*
0 $1 Rounding radius*
0 $2 $3 $4 $5 $6 $7 $8 $9 X,Y pos of 4 corners*
0 Add a 4 corners polygon primitive as box body*
4,1,4,$2,$3,$4,$5,$6,$7,$8,$9,$2,$3,0*
0 Add four circle primitives for the rounded corners*
1,1,$1+$1,$2,$3*
1,1,$1+$1,$4,$5*
1,1,$1+$1,$6,$7*
1,1,$1+$1,$8,$9*
0 Add four rect primitives between the rounded corners*
20,1,$1+$1,$2,$3,$4,$5,0*
20,1,$1+$1,$4,$5,$6,$7,0*
20,1,$1+$1,$6,$7,$8,$9,0*
20,1,$1+$1,$8,$9,$2,$3,0*%
G04 Aperture macros list end*
%TA.AperFunction,SMDPad,CuDef*%
%ADD10RoundRect,0.250000X-0.250000X-0.750000X0.250000X-0.750000X0.250000X0.750000X-0.250000X0.750000X0*%
%TD*%
%TA.AperFunction,SMDPad,CuDef*%
%ADD11R,1.000000X3.150000*%
%TD*%
%TA.AperFunction,SMDPad,CuDef*%
%ADD12RoundRect,0.050000X0.387500X0.050000X-0.387500X0.050000X-0.387500X-0.050000X0.387500X-0.050000X0*%
%TD*%
%TA.AperFunction,SMDPad,CuDef*%
%ADD13RoundRect,0.050000X0.050000X0.387500X-0.050000X0.387500X-0.050000X-0.387500X0.050000X-0.387500X0*%
%TD*%
%TA.AperFunction,SMDPad,CuDef*%
%ADD14R,3.200000X3.200000*%
%TD*%
%TA.AperFunction,SMDPad,CuDef*%
%ADD15RoundRect,0.100000X-0.100000X0.130000X-0.100000X-0.130000X0.100000X-0.130000X0.100000X0.130000X0*%
%TD*%
%TA.AperFunction,SMDPad,CuDef*%
%ADD16RoundRect,0.100000X-0.130000X-0.100000X0.130000X-0.100000X0.130000X0.100000X-0.130000X0.100000X0*%
%TD*%
%TA.AperFunction,SMDPad,CuDef*%
%ADD17RoundRect,0.100000X0.100000X-0.130000X0.100000X0.130000X-0.100000X0.130000X-0.100000X-0.130000X0*%
%TD*%
%TA.AperFunction,SMDPad,CuDef*%
%ADD18R,0.900000X1.700000*%
%TD*%
%TA.AperFunction,SMDPad,CuDef*%
%ADD19R,0.600000X1.240000*%
%TD*%
%TA.AperFunction,SMDPad,CuDef*%
%ADD20R,0.300000X1.240000*%
%TD*%
%TA.AperFunction,ComponentPad*%
%ADD21O,1.000000X2.100000*%
%TD*%
%TA.AperFunction,ComponentPad*%
%ADD22O,1.000000X1.800000*%
%TD*%
%TA.AperFunction,SMDPad,CuDef*%
%ADD23RoundRect,0.100000X0.130000X0.100000X-0.130000X0.100000X-0.130000X-0.100000X0.130000X-0.100000X0*%
%TD*%
%TA.AperFunction,SMDPad,CuDef*%
%ADD24R,1.400000X1.200000*%
%TD*%
%TA.AperFunction,SMDPad,CuDef*%
%ADD25RoundRect,0.140000X-0.170000X0.140000X-0.170000X-0.140000X0.170000X-0.140000X0.170000X0.140000X0*%
%TD*%
%TA.AperFunction,SMDPad,CuDef*%
%ADD26RoundRect,0.140000X-0.140000X-0.170000X0.140000X-0.170000X0.140000X0.170000X-0.140000X0.170000X0*%
%TD*%
%TA.AperFunction,SMDPad,CuDef*%
%ADD27R,1.000000X0.800000*%
%TD*%
%TA.AperFunction,SMDPad,CuDef*%
%ADD28R,0.700000X1.500000*%
%TD*%
%TA.AperFunction,SMDPad,CuDef*%
%ADD29RoundRect,0.150000X0.650000X0.150000X-0.650000X0.150000X-0.650000X-0.150000X0.650000X-0.150000X0*%
%TD*%
%TA.AperFunction,SMDPad,CuDef*%
%ADD30R,1.500000X2.000000*%
%TD*%
%TA.AperFunction,SMDPad,CuDef*%
%ADD31R,3.800000X2.000000*%
%TD*%
%TA.AperFunction,ViaPad*%
%ADD32C,0.800000*%
%TD*%
%TA.AperFunction,ViaPad*%
%ADD33C,0.350000*%
%TD*%
%TA.AperFunction,Conductor*%
%ADD34C,0.130000*%
%TD*%
%TA.AperFunction,Conductor*%
%ADD35C,0.200000*%
%TD*%
G04 APERTURE END LIST*
D10*
%TO.P,REF\u002A\u002A,1*%
%TO.N,unconnected-(U1-GPIO24-Pad36)*%
X51200000Y-41000000D03*
%TD*%
%TO.P,REF\u002A\u002A,1*%
%TO.N,unconnected-(U1-GPIO22-Pad34)*%
X51200000Y-38400000D03*
%TD*%
%TO.P,REF\u002A\u002A,1*%
%TO.N,unconnected-(U1-GPIO21-Pad32)*%
X51200000Y-35800000D03*
%TD*%
%TO.P,REF\u002A\u002A,1*%
%TO.N,unconnected-(U1-GPIO23-Pad35)*%
X51200000Y-33200000D03*
%TD*%
D11*
%TO.P,REF\u002A\u002A,1*%
%TO.N,unconnected-(U1-GPIO6-Pad8)*%
X83240000Y-23475000D03*
%TO.P,REF\u002A\u002A,2*%
%TO.N,unconnected-(U1-GPIO7-Pad9)*%
X83240000Y-28525000D03*
%TO.P,REF\u002A\u002A,3*%
%TO.N,unconnected-(U1-GPIO8-Pad11)*%
X80700000Y-23475000D03*
%TO.P,REF\u002A\u002A,4*%
%TO.N,unconnected-(U1-GPIO9-Pad12)*%
X80700000Y-28525000D03*
%TO.P,REF\u002A\u002A,5*%
%TO.N,unconnected-(U1-GPIO10-Pad13)*%
X78160000Y-23475000D03*
%TO.P,REF\u002A\u002A,6*%
%TO.N,unconnected-(U1-GPIO11-Pad14)*%
X78160000Y-28525000D03*
%TO.P,REF\u002A\u002A,7*%
%TO.N,unconnected-(U1-GPIO12-Pad15)*%
X75620000Y-23475000D03*
%TO.P,REF\u002A\u002A,8*%
%TO.N,unconnected-(U1-GPIO13-Pad16)*%
X75620000Y-28525000D03*
%TO.P,REF\u002A\u002A,9*%
%TO.N,unconnected-(U1-GPIO14-Pad17)*%
X73080000Y-23475000D03*
%TO.P,REF\u002A\u002A,10*%
%TO.N,unconnected-(U1-GPIO15-Pad18)*%
X73080000Y-28525000D03*
%TO.P,REF\u002A\u002A,11*%
%TO.N,unconnected-(U1-GPIO29_ADC3-Pad41)*%
X70540000Y-23475000D03*
%TO.P,REF\u002A\u002A,12*%
%TO.N,unconnected-(U1-GPIO28_ADC2-Pad40)*%
X70540000Y-28525000D03*
%TO.P,REF\u002A\u002A,13*%
%TO.N,unconnected-(U1-GPIO27_ADC1-Pad39)*%
X68000000Y-23475000D03*
%TO.P,REF\u002A\u002A,14*%
%TO.N,unconnected-(U1-GPIO16-Pad27)*%
X68000000Y-28525000D03*
%TO.P,REF\u002A\u002A,15*%
%TO.N,unconnected-(U1-RUN-Pad26)*%
X65460000Y-23475000D03*
%TO.P,REF\u002A\u002A,16*%
%TO.N,unconnected-(U1-SWD-Pad25)*%
X65460000Y-28525000D03*
%TO.P,REF\u002A\u002A,17*%
%TO.N,unconnected-(U1-SWCLK-Pad24)*%
X62920000Y-23475000D03*
%TO.P,REF\u002A\u002A,18*%
%TO.N,unconnected-(U1-GPIO17-Pad28)*%
X62920000Y-28525000D03*
%TO.P,REF\u002A\u002A,19*%
%TO.N,unconnected-(U1-GPIO18-Pad29)*%
X60380000Y-23475000D03*
%TO.P,REF\u002A\u002A,20*%
%TO.N,unconnected-(U1-GPIO26_ADC0-Pad38)*%
X60380000Y-28525000D03*
%TO.P,REF\u002A\u002A,21*%
%TO.N,unconnected-(U1-GPIO19-Pad30)*%
X57840000Y-23475000D03*
%TO.P,REF\u002A\u002A,22*%
%TO.N,GND*%
X57840000Y-28525000D03*
%TO.P,REF\u002A\u002A,23*%
%TO.N,unconnected-(U1-GPIO20-Pad31)*%
X55300000Y-23475000D03*
%TO.P,REF\u002A\u002A,24*%
%TO.N,+1V1*%
X55300000Y-28525000D03*
%TO.P,REF\u002A\u002A,25*%
%TO.N,unconnected-(U1-GPIO25-Pad37)*%
X52760000Y-23475000D03*
%TO.P,REF\u002A\u002A,26*%
%TO.N,+3.3V*%
X52760000Y-28525000D03*
%TD*%
D12*
%TO.P,U1,1,IOVDD*%
%TO.N,+3.3V*%
X71637500Y-42962500D03*
%TO.P,U1,2,GPIO0*%
%TO.N,Net-(SW2-B)*%
X71637500Y-42562500D03*
%TO.P,U1,3,GPIO1*%
%TO.N,Net-(SW3-B)*%
X71637500Y-42162500D03*
%TO.P,U1,4,GPIO2*%
%TO.N,Net-(SW4-B)*%
X71637500Y-41762500D03*
%TO.P,U1,5,GPIO3*%
%TO.N,Net-(SW5-B)*%
X71637500Y-41362500D03*
%TO.P,U1,6,GPIO4*%
%TO.N,Net-(SW6-B)*%
X71637500Y-40962500D03*
%TO.P,U1,7,GPIO5*%
%TO.N,Net-(SW7-B)*%
X71637500Y-40562500D03*
%TO.P,U1,8,GPIO6*%
%TO.N,unconnected-(U1-GPIO6-Pad8)*%
X71637500Y-40162500D03*
%TO.P,U1,9,GPIO7*%
%TO.N,unconnected-(U1-GPIO7-Pad9)*%
X71637500Y-39762500D03*
%TO.P,U1,10,IOVDD*%
%TO.N,+3.3V*%
X71637500Y-39362500D03*
%TO.P,U1,11,GPIO8*%
%TO.N,unconnected-(U1-GPIO8-Pad11)*%
X71637500Y-38962500D03*
%TO.P,U1,12,GPIO9*%
%TO.N,unconnected-(U1-GPIO9-Pad12)*%
X71637500Y-38562500D03*
%TO.P,U1,13,GPIO10*%
%TO.N,unconnected-(U1-GPIO10-Pad13)*%
X71637500Y-38162500D03*
%TO.P,U1,14,GPIO11*%
%TO.N,unconnected-(U1-GPIO11-Pad14)*%
X71637500Y-37762500D03*
D13*
%TO.P,U1,15,GPIO12*%
%TO.N,unconnected-(U1-GPIO12-Pad15)*%
X70800000Y-36925000D03*
%TO.P,U1,16,GPIO13*%
%TO.N,unconnected-(U1-GPIO13-Pad16)*%
X70400000Y-36925000D03*
%TO.P,U1,17,GPIO14*%
%TO.N,unconnected-(U1-GPIO14-Pad17)*%
X70000000Y-36925000D03*
%TO.P,U1,18,GPIO15*%
%TO.N,unconnected-(U1-GPIO15-Pad18)*%
X69600000Y-36925000D03*
%TO.P,U1,19,TESTEN*%
%TO.N,GND*%
X69200000Y-36925000D03*
%TO.P,U1,20,XIN*%
%TO.N,Net-(U1-XIN)*%
X68800000Y-36925000D03*
%TO.P,U1,21,XOUT*%
%TO.N,Net-(U1-XOUT)*%
X68400000Y-36925000D03*
%TO.P,U1,22,IOVDD*%
%TO.N,+3.3V*%
X68000000Y-36925000D03*
%TO.P,U1,23,DVDD*%
%TO.N,+1V1*%
X67600000Y-36925000D03*
%TO.P,U1,24,SWCLK*%
%TO.N,unconnected-(U1-SWCLK-Pad24)*%
X67200000Y-36925000D03*
%TO.P,U1,25,SWD*%
%TO.N,unconnected-(U1-SWD-Pad25)*%
X66800000Y-36925000D03*
%TO.P,U1,26,RUN*%
%TO.N,unconnected-(U1-RUN-Pad26)*%
X66400000Y-36925000D03*
%TO.P,U1,27,GPIO16*%
%TO.N,unconnected-(U1-GPIO16-Pad27)*%
X66000000Y-36925000D03*
%TO.P,U1,28,GPIO17*%
%TO.N,unconnected-(U1-GPIO17-Pad28)*%
X65600000Y-36925000D03*
D12*
%TO.P,U1,29,GPIO18*%
%TO.N,unconnected-(U1-GPIO18-Pad29)*%
X64762500Y-37762500D03*
%TO.P,U1,30,GPIO19*%
%TO.N,unconnected-(U1-GPIO19-Pad30)*%
X64762500Y-38162500D03*
%TO.P,U1,31,GPIO20*%
%TO.N,unconnected-(U1-GPIO20-Pad31)*%
X64762500Y-38562500D03*
%TO.P,U1,32,GPIO21*%
%TO.N,unconnected-(U1-GPIO21-Pad32)*%
X64762500Y-38962500D03*
%TO.P,U1,33,IOVDD*%
%TO.N,+3.3V*%
X64762500Y-39362500D03*
%TO.P,U1,34,GPIO22*%
%TO.N,unconnected-(U1-GPIO22-Pad34)*%
X64762500Y-39762500D03*
%TO.P,U1,35,GPIO23*%
%TO.N,unconnected-(U1-GPIO23-Pad35)*%
X64762500Y-40162500D03*
%TO.P,U1,36,GPIO24*%
%TO.N,unconnected-(U1-GPIO24-Pad36)*%
X64762500Y-40562500D03*
%TO.P,U1,37,GPIO25*%
%TO.N,unconnected-(U1-GPIO25-Pad37)*%
X64762500Y-40962500D03*
%TO.P,U1,38,GPIO26_ADC0*%
%TO.N,unconnected-(U1-GPIO26_ADC0-Pad38)*%
X64762500Y-41362500D03*
%TO.P,U1,39,GPIO27_ADC1*%
%TO.N,unconnected-(U1-GPIO27_ADC1-Pad39)*%
X64762500Y-41762500D03*
%TO.P,U1,40,GPIO28_ADC2*%
%TO.N,unconnected-(U1-GPIO28_ADC2-Pad40)*%
X64762500Y-42162500D03*
%TO.P,U1,41,GPIO29_ADC3*%
%TO.N,unconnected-(U1-GPIO29_ADC3-Pad41)*%
X64762500Y-42562500D03*
%TO.P,U1,42,IOVDD*%
%TO.N,+3.3V*%
X64762500Y-42962500D03*
D13*
%TO.P,U1,43,ADC_AVDD*%
X65600000Y-43800000D03*
%TO.P,U1,44,VREG_IN*%
X66000000Y-43800000D03*
%TO.P,U1,45,VREG_VOUT*%
%TO.N,+1V1*%
X66400000Y-43800000D03*
%TO.P,U1,46,USB_DM*%
%TO.N,Net-(U1-USB_DM)*%
X66800000Y-43800000D03*
%TO.P,U1,47,USB_DP*%
%TO.N,Net-(U1-USB_DP)*%
X67200000Y-43800000D03*
%TO.P,U1,48,USB_VDD*%
%TO.N,+3.3V*%
X67600000Y-43800000D03*
%TO.P,U1,49,IOVDD*%
X68000000Y-43800000D03*
%TO.P,U1,50,DVDD*%
%TO.N,+1V1*%
X68400000Y-43800000D03*
%TO.P,U1,51,QSPI_SD3*%
%TO.N,Net-(U1-QSPI_SD3)*%
X68800000Y-43800000D03*
%TO.P,U1,52,QSPI_SCLK*%
%TO.N,Net-(U1-QSPI_SCLK)*%
X69200000Y-43800000D03*
%TO.P,U1,53,QSPI_SD0*%
%TO.N,Net-(U1-QSPI_SD0)*%
X69600000Y-43800000D03*
%TO.P,U1,54,QSPI_SD2*%
%TO.N,Net-(U1-QSPI_SD2)*%
X70000000Y-43800000D03*
%TO.P,U1,55,QSPI_SD1*%
%TO.N,Net-(U1-QSPI_SD1)*%
X70400000Y-43800000D03*
%TO.P,U1,56,QSPI_SS*%
%TO.N,Net-(U1-QSPI_SS)*%
X70800000Y-43800000D03*
D14*
%TO.P,U1,57,GND*%
%TO.N,GND*%
X68200000Y-40362500D03*
%TD*%
D15*
%TO.P,C10,1*%
%TO.N,+3.3V*%
X63840000Y-45280000D03*
%TO.P,C10,2*%
%TO.N,GND*%
X63840000Y-45920000D03*
%TD*%
D16*
%TO.P,C3,1*%
%TO.N,+3.3V*%
X60960000Y-36800000D03*
%TO.P,C3,2*%
%TO.N,GND*%
X61600000Y-36800000D03*
%TD*%
D17*
%TO.P,R4,1*%
%TO.N,Net-(SW1-B)*%
X68000000Y-46720000D03*
%TO.P,R4,2*%
%TO.N,Net-(U1-QSPI_SS)*%
X68000000Y-46080000D03*
%TD*%
%TO.P,C1,1*%
%TO.N,+1V1*%
X63756000Y-34400000D03*
%TO.P,C1,2*%
%TO.N,GND*%
X63756000Y-33760000D03*
%TD*%
D18*
%TO.P,SW4,1,A*%
%TO.N,GND*%
X83300000Y-38400000D03*
%TO.P,SW4,2,B*%
%TO.N,Net-(SW4-B)*%
X79900000Y-38400000D03*
%TD*%
D19*
%TO.P,P1,A1,GND*%
%TO.N,GND*%
X54400000Y-43775000D03*
%TO.P,P1,A4,VBUS*%
%TO.N,VBUS*%
X55200000Y-43775000D03*
D20*
%TO.P,P1,A5,CC*%
%TO.N,Net-(P1-CC)*%
X56350000Y-43775000D03*
%TO.P,P1,A6,D+*%
%TO.N,USB_D+*%
X57350000Y-43775000D03*
%TO.P,P1,A7,D-*%
%TO.N,USB_D-*%
X57850000Y-43775000D03*
%TO.P,P1,A8*%
%TO.N,N/C*%
X58850000Y-43775000D03*
D19*
%TO.P,P1,A9,VBUS*%
%TO.N,VBUS*%
X60000000Y-43775000D03*
%TO.P,P1,A12,GND*%
%TO.N,GND*%
X60800000Y-43775000D03*
%TO.P,P1,B1,GND*%
X60800000Y-43775000D03*
%TO.P,P1,B4,VBUS*%
%TO.N,VBUS*%
X60000000Y-43775000D03*
D20*
%TO.P,P1,B5,VCONN*%
%TO.N,unconnected-(P1-VCONN-PadB5)*%
X59350000Y-43775000D03*
%TO.P,P1,B6*%
%TO.N,N/C*%
X58350000Y-43775000D03*
%TO.P,P1,B7*%
X56850000Y-43775000D03*
%TO.P,P1,B8*%
X55850000Y-43775000D03*
D19*
%TO.P,P1,B9,VBUS*%
%TO.N,VBUS*%
X55200000Y-43775000D03*
%TO.P,P1,B12,GND*%
%TO.N,GND*%
X54400000Y-43775000D03*
D21*
%TO.P,P1,S1,SHIELD*%
X53280000Y-44375000D03*
D22*
X53280000Y-48575000D03*
D21*
X61920000Y-44375000D03*
D22*
X61920000Y-48575000D03*
%TD*%
D18*
%TO.P,SW6,1,A*%
%TO.N,GND*%
X83300000Y-34400000D03*
%TO.P,SW6,2,B*%
%TO.N,Net-(SW6-B)*%
X79900000Y-34400000D03*
%TD*%
D17*
%TO.P,C2,1*%
%TO.N,+1V1*%
X64518000Y-34400000D03*
%TO.P,C2,2*%
%TO.N,GND*%
X64518000Y-33760000D03*
%TD*%
D16*
%TO.P,C4,1*%
%TO.N,+3.3V*%
X60960000Y-37760000D03*
%TO.P,C4,2*%
%TO.N,GND*%
X61600000Y-37760000D03*
%TD*%
D23*
%TO.P,R3,1*%
%TO.N,Net-(P1-CC)*%
X56350000Y-42150000D03*
%TO.P,R3,2*%
%TO.N,GND*%
X55710000Y-42150000D03*
%TD*%
D17*
%TO.P,C12,1*%
%TO.N,GND*%
X71040000Y-34400000D03*
%TO.P,C12,2*%
%TO.N,Net-(U1-XIN)*%
X71040000Y-33760000D03*
%TD*%
D18*
%TO.P,SW2,1,A*%
%TO.N,GND*%
X75100000Y-42400000D03*
%TO.P,SW2,2,B*%
%TO.N,Net-(SW2-B)*%
X78500000Y-42400000D03*
%TD*%
D15*
%TO.P,C11,1*%
%TO.N,+1V1*%
X64800000Y-45280000D03*
%TO.P,C11,2*%
%TO.N,GND*%
X64800000Y-45920000D03*
%TD*%
D23*
%TO.P,C16,1*%
%TO.N,+3.3V*%
X63520000Y-40320000D03*
%TO.P,C16,2*%
%TO.N,GND*%
X62880000Y-40320000D03*
%TD*%
D16*
%TO.P,C8,1*%
%TO.N,+3.3V*%
X60960000Y-34880000D03*
%TO.P,C8,2*%
%TO.N,GND*%
X61600000Y-34880000D03*
%TD*%
%TO.P,C7,1*%
%TO.N,+3.3V*%
X60960000Y-40640000D03*
%TO.P,C7,2*%
%TO.N,GND*%
X61600000Y-40640000D03*
%TD*%
D15*
%TO.P,R2,1*%
%TO.N,Net-(U1-USB_DM)*%
X65760000Y-45280000D03*
%TO.P,R2,2*%
%TO.N,USB_D-*%
X65760000Y-45920000D03*
%TD*%
D24*
%TO.P,Y1,1,1*%
%TO.N,Net-(U1-XOUT)*%
X67060000Y-34930000D03*
%TO.P,Y1,2,2*%
%TO.N,GND*%
X69260000Y-34930000D03*
%TO.P,Y1,3,3*%
%TO.N,Net-(U1-XIN)*%
X69260000Y-33230000D03*
%TO.P,Y1,4,4*%
%TO.N,GND*%
X67060000Y-33230000D03*
%TD*%
D25*
%TO.P,C14,2*%
%TO.N,GND*%
X62600000Y-38880000D03*
%TO.P,C14,1*%
%TO.N,+3.3V*%
X62600000Y-37920000D03*
%TD*%
D15*
%TO.P,C13,1*%
%TO.N,GND*%
X65280000Y-33760000D03*
%TO.P,C13,2*%
%TO.N,Net-(U1-XOUT)*%
X65280000Y-34400000D03*
%TD*%
D26*
%TO.P,C15,1*%
%TO.N,VBUS*%
X60000000Y-42164000D03*
%TO.P,C15,2*%
%TO.N,GND*%
X60960000Y-42164000D03*
%TD*%
D16*
%TO.P,C6,1*%
%TO.N,+3.3V*%
X60960000Y-39680000D03*
%TO.P,C6,2*%
%TO.N,GND*%
X61600000Y-39680000D03*
%TD*%
D27*
%TO.P,SW1,*%
%TO.N,*%
X64350000Y-48820000D03*
X64350000Y-51030000D03*
X71650000Y-48820000D03*
X71650000Y-51030000D03*
D28*
%TO.P,SW1,1,A*%
%TO.N,GND*%
X65750000Y-48170000D03*
%TO.P,SW1,2,B*%
%TO.N,Net-(SW1-B)*%
X68750000Y-48170000D03*
%TO.P,SW1,3*%
%TO.N,N/C*%
X70250000Y-48170000D03*
%TD*%
D16*
%TO.P,C9,1*%
%TO.N,+3.3V*%
X60960000Y-35840000D03*
%TO.P,C9,2*%
%TO.N,GND*%
X61600000Y-35840000D03*
%TD*%
%TO.P,C5,1*%
%TO.N,+3.3V*%
X60960000Y-38720000D03*
%TO.P,C5,2*%
%TO.N,GND*%
X61600000Y-38720000D03*
%TD*%
D29*
%TO.P,U3,1,~{CS}*%
%TO.N,Net-(U1-QSPI_SS)*%
X82800000Y-50705000D03*
%TO.P,U3,2,DO(IO1)*%
%TO.N,Net-(U1-QSPI_SD1)*%
X82800000Y-49435000D03*
%TO.P,U3,3,IO2*%
%TO.N,Net-(U1-QSPI_SD2)*%
X82800000Y-48165000D03*
%TO.P,U3,4,GND*%
%TO.N,GND*%
X82800000Y-46895000D03*
%TO.P,U3,5,DI(IO0)*%
%TO.N,Net-(U1-QSPI_SD0)*%
X75600000Y-46895000D03*
%TO.P,U3,6,CLK*%
%TO.N,Net-(U1-QSPI_SCLK)*%
X75600000Y-48165000D03*
%TO.P,U3,7,IO3*%
%TO.N,Net-(U1-QSPI_SD3)*%
X75600000Y-49435000D03*
%TO.P,U3,8,VCC*%
%TO.N,+3.3V*%
X75600000Y-50705000D03*
%TD*%
D18*
%TO.P,SW3,1,A*%
%TO.N,GND*%
X83300000Y-42400000D03*
%TO.P,SW3,2,B*%
%TO.N,Net-(SW3-B)*%
X79900000Y-42400000D03*
%TD*%
%TO.P,SW7,1,A*%
%TO.N,GND*%
X75100000Y-34400000D03*
%TO.P,SW7,2,B*%
%TO.N,Net-(SW7-B)*%
X78500000Y-34400000D03*
%TD*%
%TO.P,SW5,1,A*%
%TO.N,GND*%
X75100000Y-38400000D03*
%TO.P,SW5,2,B*%
%TO.N,Net-(SW5-B)*%
X78500000Y-38400000D03*
%TD*%
D30*
%TO.P,U2,1,GND*%
%TO.N,GND*%
X54180000Y-39950000D03*
%TO.P,U2,2,VO*%
%TO.N,+3.3V*%
X56480000Y-39950000D03*
D31*
X56480000Y-33650000D03*
D30*
%TO.P,U2,3,VI*%
%TO.N,VBUS*%
X58780000Y-39950000D03*
%TD*%
D15*
%TO.P,R1,1*%
%TO.N,Net-(U1-USB_DP)*%
X66720000Y-45280000D03*
%TO.P,R1,2*%
%TO.N,USB_D+*%
X66720000Y-45920000D03*
%TD*%
D32*
%TO.N,unconnected-(U1-GPIO24-Pad36)*%
X51200000Y-41000000D03*
%TO.N,unconnected-(U1-GPIO22-Pad34)*%
X51200000Y-38400000D03*
%TO.N,unconnected-(U1-GPIO21-Pad32)*%
X51200000Y-35800000D03*
%TO.N,unconnected-(U1-GPIO23-Pad35)*%
X51200000Y-33200000D03*
%TO.N,unconnected-(U1-GPIO25-Pad37)*%
X52800000Y-23600000D03*
%TO.N,unconnected-(U1-GPIO20-Pad31)*%
X55300000Y-23475000D03*
%TO.N,unconnected-(U1-GPIO19-Pad30)*%
X57800000Y-23400000D03*
%TO.N,+1V1*%
X55400000Y-28600000D03*
%TO.N,unconnected-(U1-GPIO26_ADC0-Pad38)*%
X60325000Y-28600000D03*
%TO.N,unconnected-(U1-GPIO18-Pad29)*%
X60380000Y-23475000D03*
%TO.N,unconnected-(U1-GPIO17-Pad28)*%
X62865000Y-28600000D03*
%TO.N,unconnected-(U1-SWCLK-Pad24)*%
X63000000Y-23400000D03*
%TO.N,unconnected-(U1-SWD-Pad25)*%
X65400000Y-28600000D03*
%TO.N,unconnected-(U1-RUN-Pad26)*%
X65400000Y-23400000D03*
%TO.N,unconnected-(U1-GPIO16-Pad27)*%
X67930000Y-28600000D03*
%TO.N,unconnected-(U1-GPIO27_ADC1-Pad39)*%
X68000000Y-23475000D03*
%TO.N,unconnected-(U1-GPIO28_ADC2-Pad40)*%
X70540000Y-28525000D03*
%TO.N,unconnected-(U1-GPIO29_ADC3-Pad41)*%
X70540000Y-23475000D03*
D33*
X70000000Y-42600000D03*
X65800000Y-43000000D03*
X68200421Y-42598783D03*
%TO.N,unconnected-(U1-GPIO28_ADC2-Pad40)*%
X65800000Y-42200000D03*
%TO.N,unconnected-(U1-GPIO27_ADC1-Pad39)*%
X65800000Y-41600000D03*
%TO.N,unconnected-(U1-GPIO26_ADC0-Pad38)*%
X63200000Y-34188133D03*
X62800000Y-35600000D03*
X65800000Y-41000000D03*
%TO.N,unconnected-(U1-GPIO25-Pad37)*%
X60200000Y-38600000D03*
X60400000Y-40200000D03*
X65800000Y-40400000D03*
%TO.N,unconnected-(U1-GPIO24-Pad36)*%
X57200000Y-41400000D03*
X57600000Y-40000000D03*
X63800000Y-41000000D03*
%TO.N,unconnected-(U1-GPIO23-Pad35)*%
X58600000Y-38600000D03*
X59854502Y-39800000D03*
X65800000Y-39800000D03*
%TO.N,unconnected-(U1-GPIO22-Pad34)*%
X65800000Y-39200000D03*
%TO.N,unconnected-(U1-GPIO21-Pad32)*%
X65800000Y-38700497D03*
%TO.N,unconnected-(U1-GPIO20-Pad31)*%
X63600000Y-38400000D03*
%TO.N,unconnected-(U1-GPIO19-Pad30)*%
X63600000Y-37800000D03*
D32*
%TO.N,GND*%
X63200000Y-44400000D03*
X63200000Y-42200000D03*
X54400000Y-42200000D03*
X67200000Y-48000000D03*
D33*
%TO.N,unconnected-(U1-GPIO18-Pad29)*%
X63400000Y-36399500D03*
%TO.N,unconnected-(U1-GPIO16-Pad27)*%
X72000000Y-36000000D03*
X69175500Y-38000000D03*
X65800000Y-37800000D03*
%TO.N,unconnected-(U1-GPIO17-Pad28)*%
X64198118Y-37202822D03*
%TO.N,unconnected-(U1-RUN-Pad26)*%
X70400000Y-37800000D03*
X68681417Y-38081083D03*
X66265651Y-37980753D03*
%TO.N,unconnected-(U1-SWD-Pad25)*%
X66800000Y-37600000D03*
%TO.N,unconnected-(U1-SWCLK-Pad24)*%
X65400000Y-36000000D03*
D32*
%TO.N,+3.3V*%
X73200000Y-50000000D03*
%TO.N,GND*%
X64600000Y-36600000D03*
X69000000Y-39600000D03*
X74034432Y-39720499D03*
%TO.N,+1V1*%
X63000959Y-34903926D03*
%TO.N,Net-(SW3-B)*%
X79900000Y-42400000D03*
X73800000Y-42400000D03*
%TO.N,Net-(SW2-B)*%
X73862998Y-43600000D03*
X76800000Y-42400000D03*
%TO.N,+3.3V*%
X68000000Y-45000000D03*
X70600000Y-41200000D03*
%TO.N,GND*%
X67000000Y-33200000D03*
X75100000Y-34400000D03*
X69200000Y-34900000D03*
%TO.N,USB_D+*%
X60000000Y-47040000D03*
X57120000Y-45120000D03*
%TO.N,USB_D-*%
X60000000Y-46080499D03*
X58080000Y-45120000D03*
%TO.N,+3.3V*%
X56480000Y-39950000D03*
X62400000Y-37000000D03*
X62400000Y-41400000D03*
X56480000Y-33650000D03*
%TO.N,Net-(U1-QSPI_SS)*%
X73200000Y-44400000D03*
X69000000Y-45600000D03*
%TO.N,Net-(U1-QSPI_SD2)*%
X77600000Y-46200000D03*
X82800000Y-48200000D03*
%TO.N,Net-(U1-QSPI_SD1)*%
X75600000Y-45200000D03*
X82800000Y-49435000D03*
%TD*%
D34*
%TO.N,unconnected-(U1-GPIO25-Pad37)*%
X52760000Y-23560000D02*
X52800000Y-23600000D01*
X52760000Y-23475000D02*
X52760000Y-23560000D01*
D35*
%TO.N,+3.3V*%
X52760000Y-29930000D02*
X56480000Y-33650000D01*
X52760000Y-28525000D02*
X52760000Y-29930000D01*
%TO.N,+1V1*%
X55325000Y-28525000D02*
X55400000Y-28600000D01*
X55300000Y-28525000D02*
X55325000Y-28525000D01*
%TO.N,GND*%
X61600000Y-33660000D02*
X61600000Y-34880000D01*
X57840000Y-29900000D02*
X61600000Y-33660000D01*
X57840000Y-28525000D02*
X57840000Y-29900000D01*
D34*
%TO.N,unconnected-(U1-GPIO26_ADC0-Pad38)*%
X60380000Y-28545000D02*
X60325000Y-28600000D01*
X60380000Y-28525000D02*
X60380000Y-28545000D01*
%TO.N,unconnected-(U1-GPIO17-Pad28)*%
X62920000Y-28545000D02*
X62865000Y-28600000D01*
X62920000Y-28525000D02*
X62920000Y-28545000D01*
%TO.N,unconnected-(U1-GPIO16-Pad27)*%
X68000000Y-28530000D02*
X67930000Y-28600000D01*
X68000000Y-28525000D02*
X68000000Y-28530000D01*
%TO.N,unconnected-(U1-GPIO15-Pad18)*%
X71695000Y-29910000D02*
X71695000Y-34400000D01*
X71695000Y-34446018D02*
X71695000Y-34400000D01*
X73080000Y-28525000D02*
X71695000Y-29910000D01*
%TO.N,unconnected-(U1-GPIO14-Pad17)*%
X72220000Y-32644608D02*
X72220000Y-34321018D01*
X73080000Y-24550000D02*
X74800000Y-26270000D01*
X74800000Y-26270000D02*
X74800000Y-30064608D01*
X74800000Y-30064608D02*
X72220000Y-32644608D01*
X73080000Y-23475000D02*
X73080000Y-24550000D01*
%TO.N,unconnected-(U1-GPIO13-Pad16)*%
X72480000Y-32752304D02*
X72480001Y-34428713D01*
X75400000Y-30940000D02*
X74292305Y-30939999D01*
X75620000Y-30720000D02*
X75400000Y-30940000D01*
X74292305Y-30939999D02*
X72480000Y-32752304D01*
X75620000Y-28525000D02*
X75620000Y-30720000D01*
%TO.N,unconnected-(U1-GPIO12-Pad15)*%
X77400000Y-25255000D02*
X75620000Y-23475000D01*
X77000000Y-31200000D02*
X77400000Y-30800000D01*
X74400000Y-31200000D02*
X77000000Y-31200000D01*
X77400000Y-30800000D02*
X77400000Y-25255000D01*
X72740002Y-34536408D02*
X72740002Y-32859998D01*
X72740002Y-32859998D02*
X74400000Y-31200000D01*
X70908518Y-36400196D02*
X70908518Y-36367892D01*
X70908518Y-36367892D02*
X72740002Y-34536408D01*
X70800000Y-36508714D02*
X70908518Y-36400196D01*
X70800000Y-36925000D02*
X70800000Y-36508714D01*
%TO.N,unconnected-(U1-GPIO11-Pad14)*%
X74520000Y-31480000D02*
X73000000Y-33000000D01*
X78160000Y-31040000D02*
X77720000Y-31480000D01*
X78160000Y-28525000D02*
X78160000Y-31040000D01*
X77720000Y-31480000D02*
X74520000Y-31480000D01*
%TO.N,unconnected-(U1-GPIO10-Pad13)*%
X78160000Y-24920000D02*
X78160000Y-23475000D01*
X80000000Y-26760000D02*
X78160000Y-24920000D01*
X80000000Y-31200000D02*
X80000000Y-26760000D01*
X73300000Y-33100000D02*
X74660000Y-31740000D01*
X79460000Y-31740000D02*
X80000000Y-31200000D01*
X72578456Y-37621544D02*
X72578456Y-37321544D01*
X72578456Y-37321544D02*
X73300000Y-36600000D01*
X73300000Y-36600000D02*
X73300000Y-33100000D01*
X72037500Y-38162500D02*
X72578456Y-37621544D01*
X71637500Y-38162500D02*
X72037500Y-38162500D01*
X74660000Y-31740000D02*
X79460000Y-31740000D01*
%TO.N,unconnected-(U1-GPIO9-Pad12)*%
X80700000Y-31700000D02*
X80700000Y-28525000D01*
X73580000Y-36692304D02*
X73579999Y-33196913D01*
X72838456Y-37433848D02*
X73580000Y-36692304D01*
X72021482Y-38562500D02*
X72838456Y-37745526D01*
X72838456Y-37745526D02*
X72838456Y-37433848D01*
X73579999Y-33196913D02*
X74776912Y-32000000D01*
X74776912Y-32000000D02*
X80400000Y-32000000D01*
X80400000Y-32000000D02*
X80700000Y-31700000D01*
X71637500Y-38562500D02*
X72021482Y-38562500D01*
%TO.N,unconnected-(U1-GPIO8-Pad11)*%
X82347304Y-25122304D02*
X80700000Y-23475000D01*
X82347304Y-31852696D02*
X82347304Y-25122304D01*
X73840000Y-33304608D02*
X74864608Y-32280000D01*
X73098456Y-37541544D02*
X73840000Y-36800000D01*
X72734412Y-38962500D02*
X73098456Y-38598456D01*
X73840000Y-36800000D02*
X73840000Y-33304608D01*
X81920000Y-32280000D02*
X82347304Y-31852696D01*
X73098456Y-38598456D02*
X73098456Y-37541544D01*
X74864608Y-32280000D02*
X81920000Y-32280000D01*
X71637500Y-38962500D02*
X72734412Y-38962500D01*
%TO.N,unconnected-(U1-GPIO7-Pad9)*%
X83240000Y-32160000D02*
X83240000Y-28525000D01*
X82860000Y-32540000D02*
X83240000Y-32160000D01*
X74972304Y-32540000D02*
X82860000Y-32540000D01*
X73372303Y-37732305D02*
X74100000Y-37004608D01*
X73372303Y-38692305D02*
X73372303Y-37732305D01*
X72900000Y-39164608D02*
X73372303Y-38692305D01*
X72900000Y-39300000D02*
X72900000Y-39164608D01*
X72437500Y-39762500D02*
X72900000Y-39300000D01*
X74100000Y-37004608D02*
X74100000Y-33412304D01*
X74100000Y-33412304D02*
X74972304Y-32540000D01*
X71637500Y-39762500D02*
X72437500Y-39762500D01*
%TO.N,unconnected-(U1-GPIO6-Pad8)*%
X84000000Y-24235000D02*
X83240000Y-23475000D01*
X84000000Y-32400000D02*
X84000000Y-24235000D01*
X83600000Y-32800000D02*
X84000000Y-32400000D01*
X75080000Y-32800000D02*
X83600000Y-32800000D01*
X74360000Y-37112304D02*
X74360000Y-33520000D01*
X73632304Y-37840000D02*
X74360000Y-37112304D01*
X73632304Y-38800000D02*
X73632304Y-37840000D01*
X73160001Y-39407695D02*
X73160001Y-39272303D01*
X72405196Y-40162500D02*
X73160001Y-39407695D01*
X74360000Y-33520000D02*
X75080000Y-32800000D01*
X71637500Y-40162500D02*
X72405196Y-40162500D01*
X73160001Y-39272303D02*
X73632304Y-38800000D01*
%TO.N,unconnected-(U1-GPIO11-Pad14)*%
X73000000Y-36500000D02*
X73000000Y-33000000D01*
%TO.N,Net-(SW6-B)*%
X79900000Y-35310000D02*
X79900000Y-34400000D01*
X76685001Y-40314999D02*
X77200000Y-39800000D01*
X74309674Y-40314999D02*
X76685001Y-40314999D01*
X77200000Y-39800000D02*
X77200000Y-38010000D01*
X73662173Y-40962500D02*
X74309674Y-40314999D01*
X71637500Y-40962500D02*
X73662173Y-40962500D01*
X77200000Y-38010000D02*
X79900000Y-35310000D01*
%TO.N,unconnected-(U1-GPIO26_ADC0-Pad38)*%
X62811867Y-34188133D02*
X62200000Y-34800000D01*
X63200000Y-34188133D02*
X62811867Y-34188133D01*
X62200000Y-34800000D02*
X62200000Y-35000000D01*
X62200000Y-35000000D02*
X62800000Y-35600000D01*
D35*
%TO.N,+1V1*%
X63252074Y-34903926D02*
X63756000Y-34400000D01*
X63000959Y-34903926D02*
X63252074Y-34903926D01*
D34*
%TO.N,unconnected-(U1-GPIO29_ADC3-Pad41)*%
X69998783Y-42598783D02*
X70000000Y-42600000D01*
X68200421Y-42598783D02*
X69998783Y-42598783D01*
X65362500Y-42562500D02*
X65800000Y-43000000D01*
X64762500Y-42562500D02*
X65362500Y-42562500D01*
%TO.N,unconnected-(U1-GPIO28_ADC2-Pad40)*%
X65762500Y-42162500D02*
X65800000Y-42200000D01*
X64762500Y-42162500D02*
X65762500Y-42162500D01*
%TO.N,unconnected-(U1-GPIO27_ADC1-Pad39)*%
X65637500Y-41762500D02*
X65800000Y-41600000D01*
X64762500Y-41762500D02*
X65637500Y-41762500D01*
%TO.N,unconnected-(U1-GPIO18-Pad29)*%
X63400000Y-36956248D02*
X64206252Y-37762500D01*
X64206252Y-37762500D02*
X64762500Y-37762500D01*
X63400000Y-36399500D02*
X63400000Y-36956248D01*
D35*
%TO.N,GND*%
X63975000Y-35975000D02*
X64600000Y-36600000D01*
X62848959Y-36350000D02*
X63223959Y-35975000D01*
X62050000Y-36350000D02*
X62848959Y-36350000D01*
X63223959Y-35975000D02*
X63975000Y-35975000D01*
X61600000Y-36800000D02*
X62050000Y-36350000D01*
D34*
%TO.N,unconnected-(U1-GPIO21-Pad32)*%
X65438456Y-38810000D02*
X65285956Y-38962500D01*
X65800000Y-38700497D02*
X65690497Y-38810000D01*
X65690497Y-38810000D02*
X65438456Y-38810000D01*
X65285956Y-38962500D02*
X64762500Y-38962500D01*
%TO.N,unconnected-(U1-GPIO22-Pad34)*%
X65174767Y-39762500D02*
X64762500Y-39762500D01*
X65737267Y-39200000D02*
X65174767Y-39762500D01*
X65800000Y-39200000D02*
X65737267Y-39200000D01*
%TO.N,unconnected-(U1-GPIO26_ADC0-Pad38)*%
X65437500Y-41362500D02*
X65800000Y-41000000D01*
X64762500Y-41362500D02*
X65437500Y-41362500D01*
%TO.N,unconnected-(U1-GPIO25-Pad37)*%
X60400000Y-38800000D02*
X60200000Y-38600000D01*
X60400000Y-40200000D02*
X60400000Y-38800000D01*
X65237500Y-40962500D02*
X65800000Y-40400000D01*
X64762500Y-40962500D02*
X65237500Y-40962500D01*
%TO.N,unconnected-(U1-GPIO24-Pad36)*%
X57600000Y-41000000D02*
X57200000Y-41400000D01*
X57600000Y-40000000D02*
X57600000Y-41000000D01*
X64237500Y-40562500D02*
X63800000Y-41000000D01*
X64762500Y-40562500D02*
X64237500Y-40562500D01*
%TO.N,unconnected-(U1-GPIO23-Pad35)*%
X59610000Y-38600000D02*
X58600000Y-38600000D01*
X59854502Y-38844502D02*
X59610000Y-38600000D01*
X59854502Y-39800000D02*
X59854502Y-38844502D01*
X65437500Y-40162500D02*
X65800000Y-39800000D01*
X64762500Y-40162500D02*
X65437500Y-40162500D01*
D35*
%TO.N,+1V1*%
X66800000Y-38200000D02*
X67400000Y-38200000D01*
X67400000Y-38200000D02*
X67600000Y-38000000D01*
X66400000Y-42800000D02*
X66400000Y-43338236D01*
X66350000Y-42750000D02*
X66400000Y-42800000D01*
X66350000Y-38650000D02*
X66350000Y-42750000D01*
X66800000Y-38200000D02*
X66350000Y-38650000D01*
D34*
%TO.N,unconnected-(U1-RUN-Pad26)*%
X66400000Y-37846404D02*
X66265651Y-37980753D01*
X66400000Y-36925000D02*
X66400000Y-37846404D01*
%TO.N,unconnected-(U1-GPIO20-Pad31)*%
X63762500Y-38562500D02*
X63600000Y-38400000D01*
X64762500Y-38562500D02*
X63762500Y-38562500D01*
%TO.N,unconnected-(U1-GPIO19-Pad30)*%
X63962500Y-38162500D02*
X63600000Y-37800000D01*
X64762500Y-38162500D02*
X63962500Y-38162500D01*
D35*
%TO.N,+3.3V*%
X63160000Y-38480000D02*
X62600000Y-37920000D01*
X63160000Y-38945025D02*
X63160000Y-38480000D01*
X63577475Y-39362500D02*
X63160000Y-38945025D01*
X64300736Y-39362500D02*
X63577475Y-39362500D01*
X62600000Y-37920000D02*
X62400000Y-37720000D01*
X62400000Y-37720000D02*
X62400000Y-37000000D01*
%TO.N,GND*%
X62880000Y-39160000D02*
X62600000Y-38880000D01*
X62880000Y-40320000D02*
X62880000Y-39160000D01*
X63200000Y-42200000D02*
X60996000Y-42200000D01*
X60996000Y-42200000D02*
X60960000Y-42164000D01*
X54180000Y-39950000D02*
X54180000Y-41980000D01*
X54180000Y-41980000D02*
X54400000Y-42200000D01*
X54400000Y-43775000D02*
X54400000Y-42200000D01*
X63840000Y-45920000D02*
X63755025Y-45920000D01*
X63200000Y-45364975D02*
X63200000Y-44400000D01*
X63755025Y-45920000D02*
X63200000Y-45364975D01*
X65750000Y-48170000D02*
X67030000Y-48170000D01*
X67030000Y-48170000D02*
X67200000Y-48000000D01*
X63200000Y-44400000D02*
X63200000Y-42200000D01*
D34*
%TO.N,unconnected-(U1-GPIO17-Pad28)*%
X65310000Y-37215000D02*
X65600000Y-36925000D01*
X64210296Y-37215000D02*
X65310000Y-37215000D01*
X64198118Y-37202822D02*
X64210296Y-37215000D01*
%TO.N,unconnected-(U1-GPIO16-Pad27)*%
X72000000Y-36508982D02*
X72000000Y-36000000D01*
X71000000Y-37751544D02*
X71000000Y-37508982D01*
X70561544Y-38190000D02*
X71000000Y-37751544D01*
X69365500Y-38190000D02*
X70561544Y-38190000D01*
X69175500Y-38000000D02*
X69365500Y-38190000D01*
X71000000Y-37508982D02*
X72000000Y-36508982D01*
X66000000Y-37600000D02*
X65800000Y-37800000D01*
X66000000Y-36925000D02*
X66000000Y-37600000D01*
%TO.N,unconnected-(U1-RUN-Pad26)*%
X68822500Y-37577500D02*
X68681417Y-37718583D01*
X68681417Y-37718583D02*
X68681417Y-38081083D01*
X69731482Y-37577500D02*
X68822500Y-37577500D01*
X69953982Y-37800000D02*
X69731482Y-37577500D01*
X70400000Y-37800000D02*
X69953982Y-37800000D01*
D35*
%TO.N,+3.3V*%
X68512500Y-38512500D02*
X70325736Y-38512500D01*
X70325736Y-38512500D02*
X71175736Y-39362500D01*
X68250000Y-37730761D02*
X68250000Y-38250000D01*
X68000000Y-37480761D02*
X68250000Y-37730761D01*
X68250000Y-38250000D02*
X68512500Y-38512500D01*
X68000000Y-36925000D02*
X68000000Y-37480761D01*
D34*
%TO.N,unconnected-(U1-SWD-Pad25)*%
X66800000Y-36925000D02*
X66800000Y-37600000D01*
%TO.N,unconnected-(U1-SWCLK-Pad24)*%
X65515000Y-36115000D02*
X65400000Y-36000000D01*
X66806286Y-36115000D02*
X65515000Y-36115000D01*
X67200000Y-36508714D02*
X66806286Y-36115000D01*
X67200000Y-36925000D02*
X67200000Y-36508714D01*
D35*
%TO.N,+1V1*%
X66936764Y-35800000D02*
X65918000Y-35800000D01*
X65918000Y-35800000D02*
X64518000Y-34400000D01*
X67600000Y-36463236D02*
X66936764Y-35800000D01*
X67600000Y-36925000D02*
X67600000Y-36463236D01*
%TO.N,+3.3V*%
X73905000Y-50705000D02*
X75600000Y-50705000D01*
X73200000Y-50000000D02*
X73905000Y-50705000D01*
D34*
%TO.N,GND*%
X74034432Y-39465568D02*
X75100000Y-38400000D01*
X74034432Y-39720499D02*
X74034432Y-39465568D01*
D35*
%TO.N,+3.3V*%
X64075000Y-42736764D02*
X64300736Y-42962500D01*
X64075000Y-41850000D02*
X64075000Y-42736764D01*
X63625000Y-41400000D02*
X64075000Y-41850000D01*
X64300736Y-42962500D02*
X64762500Y-42962500D01*
X62400000Y-41400000D02*
X63625000Y-41400000D01*
%TO.N,+1V1*%
X67600000Y-38000000D02*
X67600000Y-36925000D01*
D34*
%TO.N,Net-(U1-XIN)*%
X68800000Y-36200000D02*
X68800000Y-36925000D01*
X68200000Y-35600000D02*
X68800000Y-36200000D01*
X68200000Y-34290000D02*
X68200000Y-35600000D01*
X69260000Y-33230000D02*
X68200000Y-34290000D01*
%TO.N,Net-(SW5-B)*%
X78500000Y-40300000D02*
X78500000Y-38400000D01*
X74622307Y-40574999D02*
X78225001Y-40574999D01*
X73834806Y-41362500D02*
X74622307Y-40574999D01*
X78225001Y-40574999D02*
X78500000Y-40300000D01*
X71637500Y-41362500D02*
X73834806Y-41362500D01*
%TO.N,Net-(SW4-B)*%
X73802502Y-41762500D02*
X71637500Y-41762500D01*
X78400002Y-40834998D02*
X74730004Y-40834998D01*
X74730004Y-40834998D02*
X73802502Y-41762500D01*
X79900000Y-39335000D02*
X78400002Y-40834998D01*
X79900000Y-38400000D02*
X79900000Y-39335000D01*
%TO.N,Net-(SW3-B)*%
X73562500Y-42162500D02*
X73800000Y-42400000D01*
X71637500Y-42162500D02*
X73562500Y-42162500D01*
%TO.N,Net-(SW2-B)*%
X72825498Y-42562500D02*
X71637500Y-42562500D01*
X73862998Y-43600000D02*
X72825498Y-42562500D01*
X78500000Y-42400000D02*
X76800000Y-42400000D01*
D35*
%TO.N,GND*%
X61600000Y-41524000D02*
X61600000Y-40400000D01*
X60960000Y-42164000D02*
X61600000Y-41524000D01*
X61600000Y-40400000D02*
X61600000Y-40640000D01*
X61600000Y-39680000D02*
X61600000Y-40400000D01*
%TO.N,+1V1*%
X68400000Y-43338236D02*
X68400000Y-43800000D01*
X68061764Y-43000000D02*
X68400000Y-43338236D01*
X66400000Y-43338236D02*
X66738236Y-43000000D01*
X66738236Y-43000000D02*
X68061764Y-43000000D01*
X66400000Y-43800000D02*
X66400000Y-43338236D01*
%TO.N,+3.3V*%
X68000000Y-43800000D02*
X68000000Y-45000000D01*
X70600000Y-41200000D02*
X70600000Y-39938236D01*
X70600000Y-42400000D02*
X70600000Y-41200000D01*
X71175736Y-39362500D02*
X71637500Y-39362500D01*
X71637500Y-42962500D02*
X71162500Y-42962500D01*
X71162500Y-42962500D02*
X70600000Y-42400000D01*
X70600000Y-39938236D02*
X71175736Y-39362500D01*
X64762500Y-42962500D02*
X65600000Y-43800000D01*
X65320000Y-43800000D02*
X63840000Y-45280000D01*
X65600000Y-43800000D02*
X65320000Y-43800000D01*
X66000000Y-43800000D02*
X65600000Y-43800000D01*
X68000000Y-43800000D02*
X67600000Y-43800000D01*
%TO.N,GND*%
X83300000Y-46395000D02*
X82800000Y-46895000D01*
X83300000Y-42400000D02*
X83300000Y-46395000D01*
X76200000Y-43500000D02*
X75100000Y-42400000D01*
X82200000Y-43500000D02*
X76200000Y-43500000D01*
X83300000Y-42400000D02*
X82200000Y-43500000D01*
X83300000Y-38400000D02*
X83300000Y-42400000D01*
X83300000Y-34400000D02*
X83300000Y-38400000D01*
X82200000Y-33300000D02*
X83300000Y-34400000D01*
X76200000Y-33300000D02*
X82200000Y-33300000D01*
X75100000Y-34400000D02*
X76200000Y-33300000D01*
X65840000Y-33200000D02*
X65810000Y-33230000D01*
X67000000Y-33200000D02*
X65840000Y-33200000D01*
X65280000Y-33760000D02*
X65810000Y-33230000D01*
X64518000Y-33760000D02*
X65280000Y-33760000D01*
X62720000Y-33760000D02*
X61600000Y-34880000D01*
X63756000Y-33760000D02*
X62720000Y-33760000D01*
X63756000Y-33760000D02*
X64518000Y-33760000D01*
%TO.N,+1V1*%
X63756000Y-34400000D02*
X64518000Y-34400000D01*
%TO.N,VBUS*%
X60000000Y-41170000D02*
X58780000Y-39950000D01*
X60000000Y-42164000D02*
X60000000Y-41170000D01*
X60000000Y-43775000D02*
X60000000Y-42164000D01*
%TO.N,GND*%
X60800000Y-42324000D02*
X60960000Y-42164000D01*
X60800000Y-43775000D02*
X60800000Y-42324000D01*
%TO.N,VBUS*%
X58660406Y-45770000D02*
X60000000Y-44430406D01*
X60000000Y-44430406D02*
X60000000Y-43775000D01*
X56575000Y-45770000D02*
X58660406Y-45770000D01*
X55200000Y-44395000D02*
X56575000Y-45770000D01*
X55200000Y-43775000D02*
X55200000Y-44395000D01*
%TO.N,GND*%
X54180000Y-40620000D02*
X55710000Y-42150000D01*
X54180000Y-39950000D02*
X54180000Y-40620000D01*
X54400000Y-42955000D02*
X55205000Y-42150000D01*
X55205000Y-42150000D02*
X55710000Y-42150000D01*
X54400000Y-43775000D02*
X54400000Y-42955000D01*
%TO.N,+3.3V*%
X63520000Y-40404975D02*
X63520000Y-40320000D01*
X62400000Y-41400000D02*
X62524975Y-41400000D01*
X62524975Y-41400000D02*
X63520000Y-40404975D01*
X63520000Y-40143236D02*
X63520000Y-40320000D01*
X64300736Y-39362500D02*
X63520000Y-40143236D01*
X64762500Y-39362500D02*
X64300736Y-39362500D01*
%TO.N,GND*%
X62560000Y-40640000D02*
X62880000Y-40320000D01*
X61600000Y-40640000D02*
X62560000Y-40640000D01*
X61600000Y-38720000D02*
X61600000Y-39680000D01*
X61600000Y-37760000D02*
X61600000Y-38720000D01*
X61600000Y-36800000D02*
X61600000Y-37760000D01*
X61600000Y-35840000D02*
X61600000Y-36800000D01*
X61600000Y-34880000D02*
X61600000Y-35840000D01*
%TO.N,+3.3V*%
X60960000Y-39680000D02*
X60960000Y-40640000D01*
X60960000Y-38720000D02*
X60960000Y-39680000D01*
X60960000Y-37760000D02*
X60960000Y-38720000D01*
X60960000Y-36800000D02*
X60960000Y-37760000D01*
X60960000Y-35840000D02*
X60960000Y-36800000D01*
X60960000Y-34880000D02*
X60960000Y-35840000D01*
X56480000Y-39950000D02*
X58670000Y-37760000D01*
X58670000Y-37760000D02*
X60960000Y-37760000D01*
X56480000Y-35570000D02*
X58670000Y-37760000D01*
X56480000Y-33650000D02*
X56480000Y-39950000D01*
%TO.N,+1V1*%
X66197500Y-44487500D02*
X65592500Y-44487500D01*
X66400000Y-44285000D02*
X66197500Y-44487500D01*
X65592500Y-44487500D02*
X64800000Y-45280000D01*
X66400000Y-43800000D02*
X66400000Y-44285000D01*
D34*
%TO.N,Net-(SW7-B)*%
X73040000Y-39960000D02*
X73420002Y-39579998D01*
X72975392Y-39960000D02*
X73040000Y-39960000D01*
X73920000Y-38880000D02*
X73420002Y-39379998D01*
X73920000Y-37920000D02*
X73920000Y-38880000D01*
X73420002Y-39379998D02*
X73420002Y-39579998D01*
X78500000Y-34400000D02*
X77440000Y-34400000D01*
X77440000Y-34400000D02*
X73920000Y-37920000D01*
X72975392Y-39960000D02*
X72372892Y-40562500D01*
X72372892Y-40562500D02*
X71637500Y-40562500D01*
D35*
%TO.N,GND*%
X69200000Y-34900000D02*
X69200000Y-36925000D01*
X69200000Y-34900000D02*
X70540000Y-34900000D01*
X70540000Y-34900000D02*
X71040000Y-34400000D01*
D34*
X67030000Y-33230000D02*
X67060000Y-33230000D01*
X67000000Y-33200000D02*
X67030000Y-33230000D01*
%TO.N,+3.3V*%
X58680000Y-37760000D02*
X56480000Y-35560000D01*
X60960000Y-37760000D02*
X58680000Y-37760000D01*
X56480000Y-35560000D02*
X56480000Y-39950000D01*
X56480000Y-33650000D02*
X56480000Y-35560000D01*
%TO.N,unconnected-(U1-GPIO11-Pad14)*%
X71737500Y-37762500D02*
X73000000Y-36500000D01*
X71637500Y-37762500D02*
X71737500Y-37762500D01*
%TO.N,unconnected-(U1-GPIO14-Pad17)*%
X70000000Y-36925000D02*
X70000000Y-36541018D01*
X70000000Y-36541018D02*
X72220000Y-34321018D01*
%TO.N,unconnected-(U1-GPIO15-Pad18)*%
X69600000Y-36541018D02*
X71695000Y-34446018D01*
X69600000Y-36925000D02*
X69600000Y-36541018D01*
%TO.N,unconnected-(U1-GPIO13-Pad16)*%
X70648518Y-36260196D02*
X72480001Y-34428713D01*
X70648518Y-36292500D02*
X70648518Y-36260196D01*
X70400000Y-36925000D02*
X70400000Y-36541018D01*
X70400000Y-36541018D02*
X70648518Y-36292500D01*
%TO.N,GND*%
X69290000Y-34900000D02*
X69260000Y-34930000D01*
X69200000Y-34900000D02*
X69290000Y-34900000D01*
%TO.N,USB_D+*%
X60330001Y-46709999D02*
X65930001Y-46709999D01*
X60000000Y-47040000D02*
X60330001Y-46709999D01*
X57350000Y-44890000D02*
X57120000Y-45120000D01*
X57350000Y-43775000D02*
X57350000Y-44890000D01*
%TO.N,USB_D-*%
X60299501Y-46380000D02*
X65300000Y-46380000D01*
X60299501Y-46380000D02*
X60000000Y-46080499D01*
X57850000Y-44890000D02*
X58080000Y-45120000D01*
X57850000Y-43775000D02*
X57850000Y-44890000D01*
%TO.N,Net-(U1-XOUT)*%
X65810000Y-34930000D02*
X65280000Y-34400000D01*
X67060000Y-34930000D02*
X65810000Y-34930000D01*
%TO.N,GND*%
X70510000Y-34930000D02*
X69260000Y-34930000D01*
X61600000Y-41524000D02*
X61600000Y-40640000D01*
X63840000Y-45920000D02*
X64800000Y-45920000D01*
X71040000Y-34400000D02*
X70510000Y-34930000D01*
%TO.N,+3.3V*%
X56480000Y-33650000D02*
X56480000Y-35570000D01*
%TO.N,Net-(U1-XIN)*%
X70510000Y-33230000D02*
X69260000Y-33230000D01*
X71040000Y-33760000D02*
X70510000Y-33230000D01*
%TO.N,Net-(U1-XOUT)*%
X68400000Y-36270000D02*
X68400000Y-36925000D01*
X67060000Y-34930000D02*
X68400000Y-36270000D01*
%TO.N,Net-(P1-CC)*%
X56350000Y-42150000D02*
X56350000Y-43775000D01*
%TO.N,Net-(U1-USB_DP)*%
X67200000Y-44800000D02*
X67200000Y-43800000D01*
X66720000Y-45280000D02*
X67200000Y-44800000D01*
%TO.N,USB_D+*%
X66720000Y-45920000D02*
X65930001Y-46709999D01*
%TO.N,Net-(U1-USB_DM)*%
X66800000Y-43800000D02*
X66800000Y-44600000D01*
X66600000Y-44800000D02*
X66240000Y-44800000D01*
X66800000Y-44600000D02*
X66600000Y-44800000D01*
X66240000Y-44800000D02*
X65760000Y-45280000D01*
%TO.N,USB_D-*%
X65760000Y-45920000D02*
X65300000Y-46380000D01*
%TO.N,Net-(SW1-B)*%
X68000000Y-46720000D02*
X68750000Y-47470000D01*
X68750000Y-47470000D02*
X68750000Y-48170000D01*
%TO.N,Net-(U1-QSPI_SS)*%
X80505000Y-50705000D02*
X82800000Y-50705000D01*
X68520000Y-46080000D02*
X69000000Y-45600000D01*
X73200000Y-44400000D02*
X77800000Y-44400000D01*
X73200000Y-44400000D02*
X71400000Y-44400000D01*
X79200000Y-49400000D02*
X80505000Y-50705000D01*
X71400000Y-44400000D02*
X70800000Y-43800000D01*
X79200000Y-45800000D02*
X79200000Y-49400000D01*
X68000000Y-46080000D02*
X68520000Y-46080000D01*
X77800000Y-44400000D02*
X79200000Y-45800000D01*
%TO.N,Net-(U1-QSPI_SD3)*%
X68800000Y-44183982D02*
X68800000Y-43800000D01*
X75600000Y-49435000D02*
X74051018Y-49435000D01*
X74051018Y-49435000D02*
X68800000Y-44183982D01*
%TO.N,Net-(U1-QSPI_SCLK)*%
X69200000Y-43800000D02*
X69200000Y-44200000D01*
X73165000Y-48165000D02*
X75600000Y-48165000D01*
X69200000Y-44200000D02*
X73165000Y-48165000D01*
%TO.N,Net-(U1-QSPI_SD0)*%
X75600000Y-46895000D02*
X72311018Y-46895000D01*
X69600000Y-44183982D02*
X69600000Y-43800000D01*
X72311018Y-46895000D02*
X69600000Y-44183982D01*
%TO.N,Net-(U1-QSPI_SD2)*%
X70000000Y-43800000D02*
X70000000Y-44200000D01*
X70000000Y-44200000D02*
X72000000Y-46200000D01*
X72000000Y-46200000D02*
X77600000Y-46200000D01*
%TO.N,Net-(U1-QSPI_SD1)*%
X70400000Y-44200000D02*
X70400000Y-43800000D01*
X75600000Y-45200000D02*
X71400000Y-45200000D01*
X71400000Y-45200000D02*
X70400000Y-44200000D01*
%TD*%
%TA.AperFunction,Conductor*%
%TO.N,+3.3V*%
G36*
X55992233Y-33016572D02*
G01*
X56560944Y-33250747D01*
X56622256Y-33275994D01*
X56628601Y-33282313D01*
X56628621Y-33291265D01*
X56482563Y-33646195D01*
X56476245Y-33652542D01*
X56476195Y-33652563D01*
X56121265Y-33798621D01*
X56112311Y-33798600D01*
X56105994Y-33792256D01*
X56045851Y-33646195D01*
X55846573Y-33162235D01*
X55846592Y-33153282D01*
X55849116Y-33149512D01*
X55979510Y-33019118D01*
X55987782Y-33015692D01*
X55992233Y-33016572D01*
G37*
%TD.AperFunction*%
%TD*%
%TA.AperFunction,Conductor*%
%TO.N,+3.3V*%
G36*
X53256088Y-28464125D02*
G01*
X53260538Y-28471896D01*
X53260619Y-28472809D01*
X53354010Y-30377662D01*
X53350992Y-30386093D01*
X53350597Y-30386508D01*
X53220158Y-30516947D01*
X53211885Y-30520374D01*
X53204686Y-30517897D01*
X52674177Y-30103771D01*
X52669764Y-30095979D01*
X52669695Y-30093881D01*
X52758739Y-28533996D01*
X52762632Y-28525932D01*
X52768933Y-28523058D01*
X53247448Y-28461777D01*
X53256088Y-28464125D01*
G37*
%TD.AperFunction*%
%TD*%
%TA.AperFunction,Conductor*%
%TO.N,+3.3V*%
G36*
X54850672Y-31874864D02*
G01*
X56871755Y-32641481D01*
X56882949Y-32645727D01*
X56889469Y-32651865D01*
X56889739Y-32660815D01*
X56889613Y-32661134D01*
X56485610Y-33638840D01*
X56479284Y-33645178D01*
X56470329Y-33645185D01*
X56469346Y-33644725D01*
X54587674Y-32654040D01*
X54581950Y-32647153D01*
X54581635Y-32641483D01*
X54701506Y-32017128D01*
X54704720Y-32011066D01*
X54838256Y-31877530D01*
X54846528Y-31874104D01*
X54850672Y-31874864D01*
G37*
%TD.AperFunction*%
%TD*%
%TA.AperFunction,Conductor*%
%TO.N,GND*%
G36*
X61700618Y-34483427D02*
G01*
X61703066Y-34487015D01*
X61796540Y-34700897D01*
X61796713Y-34709850D01*
X61793453Y-34714449D01*
X61607634Y-34874427D01*
X61599128Y-34877227D01*
X61592366Y-34874427D01*
X61406546Y-34714449D01*
X61402513Y-34706454D01*
X61403458Y-34700899D01*
X61496934Y-34487014D01*
X61503387Y-34480806D01*
X61507655Y-34480000D01*
X61692345Y-34480000D01*
X61700618Y-34483427D01*
G37*
%TD.AperFunction*%
%TD*%
%TA.AperFunction,Conductor*%
%TO.N,GND*%
G36*
X58336218Y-28460328D02*
G01*
X58340726Y-28468065D01*
X58340808Y-28468885D01*
X58463923Y-30377559D01*
X58461036Y-30386035D01*
X58460520Y-30386585D01*
X58330109Y-30516996D01*
X58321836Y-30520423D01*
X58314699Y-30517994D01*
X57776567Y-30103704D01*
X57772102Y-30095942D01*
X57772015Y-30093932D01*
X57838874Y-28534067D01*
X57842651Y-28525951D01*
X57848987Y-28522977D01*
X58327559Y-28458044D01*
X58336218Y-28460328D01*
G37*
%TD.AperFunction*%
%TD*%
%TA.AperFunction,Conductor*%
%TO.N,unconnected-(U1-GPIO15-Pad18)*%
G36*
X72590957Y-28322410D02*
G01*
X73069868Y-28519825D01*
X73076211Y-28526146D01*
X73076226Y-28535101D01*
X73076217Y-28535123D01*
X72586703Y-29715936D01*
X72580369Y-29722266D01*
X72571414Y-29722263D01*
X72567622Y-29719728D01*
X72185908Y-29338014D01*
X72182481Y-29329741D01*
X72183293Y-29325458D01*
X72575645Y-28328953D01*
X72581864Y-28322512D01*
X72590817Y-28322354D01*
X72590957Y-28322410D01*
G37*
%TD.AperFunction*%
%TD*%
%TA.AperFunction,Conductor*%
%TO.N,unconnected-(U1-GPIO14-Pad17)*%
G36*
X73577265Y-23374211D02*
G01*
X73582305Y-23381613D01*
X73582321Y-23381690D01*
X73978279Y-25351445D01*
X73976549Y-25360231D01*
X73975081Y-25362024D01*
X73894088Y-25443017D01*
X73885815Y-25446444D01*
X73879739Y-25444743D01*
X73235190Y-25053045D01*
X73229899Y-25045820D01*
X73229621Y-25044172D01*
X73080292Y-23484727D01*
X73082915Y-23476166D01*
X73089555Y-23472158D01*
X73568469Y-23372541D01*
X73577265Y-23374211D01*
G37*
%TD.AperFunction*%
%TD*%
%TA.AperFunction,Conductor*%
%TO.N,unconnected-(U1-GPIO13-Pad16)*%
G36*
X75630388Y-28557305D02*
G01*
X75631152Y-28559151D01*
X76118013Y-30093738D01*
X76117249Y-30102660D01*
X76115688Y-30104955D01*
X75688498Y-30595979D01*
X75680482Y-30599972D01*
X75679671Y-30600000D01*
X75560329Y-30600000D01*
X75552056Y-30596573D01*
X75551502Y-30595979D01*
X75124311Y-30104955D01*
X75121466Y-30096465D01*
X75121984Y-30093743D01*
X75608848Y-28559150D01*
X75614616Y-28552301D01*
X75623538Y-28551537D01*
X75630388Y-28557305D01*
G37*
%TD.AperFunction*%
%TD*%
%TA.AperFunction,Conductor*%
%TO.N,unconnected-(U1-GPIO12-Pad15)*%
G36*
X76117964Y-23272438D02*
G01*
X76124285Y-23278781D01*
X76124355Y-23278954D01*
X76516705Y-24275455D01*
X76516547Y-24284408D01*
X76514091Y-24288014D01*
X76427591Y-24374515D01*
X76132377Y-24669728D01*
X76124104Y-24673155D01*
X76115831Y-24669728D01*
X76113297Y-24665938D01*
X75623781Y-23485121D01*
X75623779Y-23476168D01*
X75630108Y-23469834D01*
X76109010Y-23272423D01*
X76117964Y-23272438D01*
G37*
%TD.AperFunction*%
%TD*%
%TA.AperFunction,Conductor*%
%TO.N,unconnected-(U1-GPIO12-Pad15)*%
G36*
X70854313Y-36379710D02*
G01*
X70856659Y-36381525D01*
X70934060Y-36458926D01*
X70937487Y-36467199D01*
X70937449Y-36468143D01*
X70900916Y-36919530D01*
X70896833Y-36927500D01*
X70888657Y-36930271D01*
X70809853Y-36926246D01*
X70801766Y-36922401D01*
X70798765Y-36915146D01*
X70777584Y-36490993D01*
X70779180Y-36484487D01*
X70838298Y-36383870D01*
X70845444Y-36378474D01*
X70854313Y-36379710D01*
G37*
%TD.AperFunction*%
%TD*%
%TA.AperFunction,Conductor*%
%TO.N,unconnected-(U1-GPIO11-Pad14)*%
G36*
X78170388Y-28557305D02*
G01*
X78171152Y-28559151D01*
X78658013Y-30093738D01*
X78657249Y-30102660D01*
X78655688Y-30104955D01*
X78228498Y-30595979D01*
X78220482Y-30599972D01*
X78219671Y-30600000D01*
X78100329Y-30600000D01*
X78092056Y-30596573D01*
X78091502Y-30595979D01*
X77664311Y-30104955D01*
X77661466Y-30096465D01*
X77661984Y-30093743D01*
X78148848Y-28559150D01*
X78154616Y-28552301D01*
X78163538Y-28551537D01*
X78170388Y-28557305D01*
G37*
%TD.AperFunction*%
%TD*%
%TA.AperFunction,Conductor*%
%TO.N,unconnected-(U1-GPIO10-Pad13)*%
G36*
X72102743Y-38011431D02*
G01*
X72103744Y-38012324D01*
X72181173Y-38089753D01*
X72184600Y-38098026D01*
X72181173Y-38106299D01*
X72179009Y-38108004D01*
X72077917Y-38169900D01*
X72071582Y-38171620D01*
X71647467Y-38163413D01*
X71639261Y-38159827D01*
X71636023Y-38152558D01*
X71632679Y-38106299D01*
X71630322Y-38073681D01*
X71633144Y-38065184D01*
X71640651Y-38061216D01*
X72094134Y-38008974D01*
X72102743Y-38011431D01*
G37*
%TD.AperFunction*%
%TD*%
%TA.AperFunction,Conductor*%
%TO.N,unconnected-(U1-GPIO9-Pad12)*%
G36*
X80710388Y-28557305D02*
G01*
X80711152Y-28559151D01*
X81198013Y-30093738D01*
X81197249Y-30102660D01*
X81195688Y-30104955D01*
X80768498Y-30595979D01*
X80760482Y-30599972D01*
X80759671Y-30600000D01*
X80640329Y-30600000D01*
X80632056Y-30596573D01*
X80631502Y-30595979D01*
X80204311Y-30104955D01*
X80201466Y-30096465D01*
X80201984Y-30093743D01*
X80688848Y-28559150D01*
X80694616Y-28552301D01*
X80703538Y-28551537D01*
X80710388Y-28557305D01*
G37*
%TD.AperFunction*%
%TD*%
%TA.AperFunction,Conductor*%
%TO.N,unconnected-(U1-GPIO9-Pad12)*%
G36*
X72102028Y-38395935D02*
G01*
X72103325Y-38397055D01*
X72180791Y-38474521D01*
X72184218Y-38482794D01*
X72180791Y-38491067D01*
X72178816Y-38492655D01*
X72077826Y-38557153D01*
X72071641Y-38558991D01*
X71647580Y-38563102D01*
X71639274Y-38559756D01*
X71635815Y-38552463D01*
X71628632Y-38473517D01*
X71631295Y-38464970D01*
X71638574Y-38460884D01*
X72093343Y-38393753D01*
X72102028Y-38395935D01*
G37*
%TD.AperFunction*%
%TD*%
%TA.AperFunction,Conductor*%
%TO.N,unconnected-(U1-GPIO8-Pad11)*%
G36*
X81197964Y-23272439D02*
G01*
X81204285Y-23278782D01*
X81204355Y-23278955D01*
X81596705Y-24275455D01*
X81596547Y-24284408D01*
X81594091Y-24288014D01*
X81507591Y-24374515D01*
X81212377Y-24669728D01*
X81204104Y-24673155D01*
X81195831Y-24669728D01*
X81193297Y-24665938D01*
X80703781Y-23485121D01*
X80703779Y-23476168D01*
X80710108Y-23469834D01*
X81189010Y-23272424D01*
X81197964Y-23272439D01*
G37*
%TD.AperFunction*%
%TD*%
%TA.AperFunction,Conductor*%
%TO.N,unconnected-(U1-GPIO8-Pad11)*%
G36*
X72046831Y-38866948D02*
G01*
X72166013Y-38895357D01*
X72173265Y-38900609D01*
X72174999Y-38906738D01*
X72174999Y-39018261D01*
X72171572Y-39026534D01*
X72166012Y-39029642D01*
X72046833Y-39058050D01*
X72041433Y-39058056D01*
X71770497Y-38994120D01*
X71684752Y-38973886D01*
X71677488Y-38968652D01*
X71676053Y-38959813D01*
X71681288Y-38952548D01*
X71684751Y-38951113D01*
X72041434Y-38866943D01*
X72046831Y-38866948D01*
G37*
%TD.AperFunction*%
%TD*%
%TA.AperFunction,Conductor*%
%TO.N,unconnected-(U1-GPIO7-Pad9)*%
G36*
X83250388Y-28557305D02*
G01*
X83251152Y-28559151D01*
X83738013Y-30093738D01*
X83737249Y-30102660D01*
X83735688Y-30104955D01*
X83308498Y-30595979D01*
X83300482Y-30599972D01*
X83299671Y-30600000D01*
X83180329Y-30600000D01*
X83172056Y-30596573D01*
X83171502Y-30595979D01*
X82744311Y-30104955D01*
X82741466Y-30096465D01*
X82741984Y-30093743D01*
X83228848Y-28559150D01*
X83234616Y-28552301D01*
X83243538Y-28551537D01*
X83250388Y-28557305D01*
G37*
%TD.AperFunction*%
%TD*%
%TA.AperFunction,Conductor*%
%TO.N,unconnected-(U1-GPIO7-Pad9)*%
G36*
X72046831Y-39666948D02*
G01*
X72166013Y-39695357D01*
X72173265Y-39700609D01*
X72174999Y-39706738D01*
X72174999Y-39818261D01*
X72171572Y-39826534D01*
X72166012Y-39829642D01*
X72046833Y-39858050D01*
X72041433Y-39858056D01*
X71770497Y-39794120D01*
X71684752Y-39773886D01*
X71677488Y-39768652D01*
X71676053Y-39759813D01*
X71681288Y-39752548D01*
X71684751Y-39751113D01*
X72041434Y-39666943D01*
X72046831Y-39666948D01*
G37*
%TD.AperFunction*%
%TD*%
%TA.AperFunction,Conductor*%
%TO.N,unconnected-(U1-GPIO6-Pad8)*%
G36*
X83737293Y-23294730D02*
G01*
X83743366Y-23301312D01*
X83743586Y-23301972D01*
X84060451Y-24352226D01*
X84059560Y-24361136D01*
X84052629Y-24366806D01*
X84049250Y-24367305D01*
X83934999Y-24367305D01*
X83632884Y-24677236D01*
X83624655Y-24680768D01*
X83616339Y-24677447D01*
X83613335Y-24672549D01*
X83518099Y-24366806D01*
X83243308Y-23484619D01*
X83244120Y-23475702D01*
X83250438Y-23470160D01*
X83728347Y-23294370D01*
X83737293Y-23294730D01*
G37*
%TD.AperFunction*%
%TD*%
%TA.AperFunction,Conductor*%
%TO.N,unconnected-(U1-GPIO6-Pad8)*%
G36*
X72046831Y-40066948D02*
G01*
X72166013Y-40095357D01*
X72173265Y-40100609D01*
X72174999Y-40106738D01*
X72174999Y-40218261D01*
X72171572Y-40226534D01*
X72166012Y-40229642D01*
X72046833Y-40258050D01*
X72041433Y-40258056D01*
X71770497Y-40194120D01*
X71684752Y-40173886D01*
X71677488Y-40168652D01*
X71676053Y-40159813D01*
X71681288Y-40152548D01*
X71684751Y-40151113D01*
X72041434Y-40066943D01*
X72046831Y-40066948D01*
G37*
%TD.AperFunction*%
%TD*%
%TA.AperFunction,Conductor*%
%TO.N,Net-(SW6-B)*%
G36*
X79903345Y-34419302D02*
G01*
X79909043Y-34426175D01*
X80162121Y-35242239D01*
X80161298Y-35251156D01*
X80158097Y-35254965D01*
X79678337Y-35625442D01*
X79669694Y-35627787D01*
X79662913Y-35624455D01*
X79579810Y-35541352D01*
X79577384Y-35537814D01*
X79452298Y-35255193D01*
X79452083Y-35246241D01*
X79452651Y-35244995D01*
X79887531Y-34424162D01*
X79894431Y-34418457D01*
X79903345Y-34419302D01*
G37*
%TD.AperFunction*%
%TD*%
%TA.AperFunction,Conductor*%
%TO.N,Net-(SW6-B)*%
G36*
X72046831Y-40866948D02*
G01*
X72166013Y-40895357D01*
X72173265Y-40900609D01*
X72174999Y-40906738D01*
X72174999Y-41018261D01*
X72171572Y-41026534D01*
X72166012Y-41029642D01*
X72046833Y-41058050D01*
X72041433Y-41058056D01*
X71770497Y-40994120D01*
X71684752Y-40973886D01*
X71677488Y-40968652D01*
X71676053Y-40959813D01*
X71681288Y-40952548D01*
X71684751Y-40951113D01*
X72041434Y-40866943D01*
X72046831Y-40866948D01*
G37*
%TD.AperFunction*%
%TD*%
%TA.AperFunction,Conductor*%
%TO.N,unconnected-(U1-GPIO26_ADC0-Pad38)*%
G36*
X63131631Y-34030553D02*
G01*
X63137262Y-34036522D01*
X63199093Y-34183599D01*
X63199140Y-34192553D01*
X63199093Y-34192667D01*
X63137262Y-34339743D01*
X63130896Y-34346042D01*
X63122694Y-34346281D01*
X62857918Y-34255837D01*
X62851197Y-34249920D01*
X62850000Y-34244765D01*
X62850000Y-34131500D01*
X62853427Y-34123227D01*
X62857916Y-34120428D01*
X63122695Y-34029984D01*
X63131631Y-34030553D01*
G37*
%TD.AperFunction*%
%TD*%
%TA.AperFunction,Conductor*%
%TO.N,unconnected-(U1-GPIO26_ADC0-Pad38)*%
G36*
X62605985Y-35310236D02*
G01*
X62635744Y-35324841D01*
X62660970Y-35337222D01*
X62662936Y-35338441D01*
X62723334Y-35384787D01*
X62723338Y-35384788D01*
X62723342Y-35384791D01*
X62854135Y-35438966D01*
X62860467Y-35445298D01*
X62860491Y-35454195D01*
X62802565Y-35596152D01*
X62796266Y-35602518D01*
X62796152Y-35602565D01*
X62648432Y-35662843D01*
X62639478Y-35662796D01*
X62633509Y-35657165D01*
X62510237Y-35405986D01*
X62509668Y-35397049D01*
X62512465Y-35392560D01*
X62592559Y-35312466D01*
X62600831Y-35309040D01*
X62605985Y-35310236D01*
G37*
%TD.AperFunction*%
%TD*%
%TA.AperFunction,Conductor*%
%TO.N,+1V1*%
G36*
X63591315Y-34429259D02*
G01*
X63592472Y-34430273D01*
X63722773Y-34560574D01*
X63726200Y-34568847D01*
X63723993Y-34575686D01*
X63291821Y-35175636D01*
X63284205Y-35180345D01*
X63275489Y-35178290D01*
X63274076Y-35177091D01*
X63003708Y-34908072D01*
X63000260Y-34899808D01*
X63000940Y-34514158D01*
X63004381Y-34505894D01*
X63011104Y-34502583D01*
X63074447Y-34494201D01*
X63077707Y-34494230D01*
X63096386Y-34497054D01*
X63098624Y-34497625D01*
X63112246Y-34502583D01*
X63142601Y-34513632D01*
X63142606Y-34513633D01*
X63257394Y-34513633D01*
X63257398Y-34513632D01*
X63310783Y-34494201D01*
X63365261Y-34474373D01*
X63365262Y-34474372D01*
X63365263Y-34474372D01*
X63389047Y-34454414D01*
X63395032Y-34451777D01*
X63582665Y-34426947D01*
X63591315Y-34429259D01*
G37*
%TD.AperFunction*%
%TD*%
%TA.AperFunction,Conductor*%
%TO.N,+1V1*%
G36*
X63565439Y-34321019D02*
G01*
X63751068Y-34396985D01*
X63757427Y-34403290D01*
X63758049Y-34405234D01*
X63806884Y-34621331D01*
X63805365Y-34630156D01*
X63801017Y-34634212D01*
X63510226Y-34790733D01*
X63501317Y-34791637D01*
X63496408Y-34788704D01*
X63367499Y-34659795D01*
X63364072Y-34651522D01*
X63365648Y-34645658D01*
X63550886Y-34325981D01*
X63557999Y-34320542D01*
X63565439Y-34321019D01*
G37*
%TD.AperFunction*%
%TD*%
%TA.AperFunction,Conductor*%
%TO.N,unconnected-(U1-GPIO29_ADC3-Pad41)*%
G36*
X69931653Y-42442401D02*
G01*
X69937247Y-42448352D01*
X69999093Y-42595466D01*
X69999140Y-42604420D01*
X69999093Y-42604534D01*
X69937280Y-42751569D01*
X69930914Y-42757868D01*
X69922667Y-42758091D01*
X69658115Y-42666508D01*
X69651418Y-42660564D01*
X69650242Y-42655452D01*
X69650242Y-42542181D01*
X69653669Y-42533908D01*
X69658197Y-42531097D01*
X69922720Y-42441801D01*
X69931653Y-42442401D01*
G37*
%TD.AperFunction*%
%TD*%
%TA.AperFunction,Conductor*%
%TO.N,unconnected-(U1-GPIO29_ADC3-Pad41)*%
G36*
X68542503Y-42531078D02*
G01*
X68549224Y-42536995D01*
X68550421Y-42542150D01*
X68550421Y-42655415D01*
X68546994Y-42663688D01*
X68542503Y-42666487D01*
X68277726Y-42756931D01*
X68268789Y-42756362D01*
X68263158Y-42750393D01*
X68201327Y-42603317D01*
X68201280Y-42594363D01*
X68201327Y-42594249D01*
X68263158Y-42447171D01*
X68269524Y-42440873D01*
X68277725Y-42440634D01*
X68542503Y-42531078D01*
G37*
%TD.AperFunction*%
%TD*%
%TA.AperFunction,Conductor*%
%TO.N,unconnected-(U1-GPIO29_ADC3-Pad41)*%
G36*
X65605985Y-42710236D02*
G01*
X65773723Y-42792558D01*
X65857165Y-42833509D01*
X65863082Y-42840230D01*
X65862843Y-42848432D01*
X65802565Y-42996152D01*
X65796266Y-43002518D01*
X65796152Y-43002565D01*
X65648432Y-43062843D01*
X65639478Y-43062796D01*
X65633509Y-43057165D01*
X65603565Y-42996152D01*
X65510236Y-42805985D01*
X65509668Y-42797049D01*
X65512465Y-42792560D01*
X65592559Y-42712466D01*
X65600831Y-42709040D01*
X65605985Y-42710236D01*
G37*
%TD.AperFunction*%
%TD*%
%TA.AperFunction,Conductor*%
%TO.N,unconnected-(U1-GPIO29_ADC3-Pad41)*%
G36*
X65171831Y-42466948D02*
G01*
X65291014Y-42495358D01*
X65298266Y-42500609D01*
X65300000Y-42506738D01*
X65300000Y-42618261D01*
X65296573Y-42626534D01*
X65291013Y-42629642D01*
X65171833Y-42658050D01*
X65166433Y-42658056D01*
X64895497Y-42594120D01*
X64809752Y-42573886D01*
X64802488Y-42568652D01*
X64801053Y-42559813D01*
X64806288Y-42552548D01*
X64809751Y-42551113D01*
X65166434Y-42466943D01*
X65171831Y-42466948D01*
G37*
%TD.AperFunction*%
%TD*%
%TA.AperFunction,Conductor*%
%TO.N,unconnected-(U1-GPIO28_ADC2-Pad40)*%
G36*
X65732355Y-42041970D02*
G01*
X65736789Y-42047262D01*
X65799093Y-42195466D01*
X65799140Y-42204420D01*
X65799093Y-42204534D01*
X65737821Y-42350281D01*
X65731455Y-42356580D01*
X65722501Y-42356533D01*
X65721913Y-42356266D01*
X65464037Y-42230702D01*
X65458099Y-42223999D01*
X65457459Y-42220183D01*
X65457459Y-42106954D01*
X65460886Y-42098681D01*
X65466702Y-42095515D01*
X65723547Y-42040357D01*
X65732355Y-42041970D01*
G37*
%TD.AperFunction*%
%TD*%
%TA.AperFunction,Conductor*%
%TO.N,unconnected-(U1-GPIO28_ADC2-Pad40)*%
G36*
X65171831Y-42066948D02*
G01*
X65291014Y-42095358D01*
X65298266Y-42100609D01*
X65300000Y-42106738D01*
X65300000Y-42218261D01*
X65296573Y-42226534D01*
X65291013Y-42229642D01*
X65171833Y-42258050D01*
X65166433Y-42258056D01*
X64895497Y-42194120D01*
X64809752Y-42173886D01*
X64802488Y-42168652D01*
X64801053Y-42159813D01*
X64806288Y-42152548D01*
X64809751Y-42151113D01*
X65166434Y-42066943D01*
X65171831Y-42066948D01*
G37*
%TD.AperFunction*%
%TD*%
%TA.AperFunction,Conductor*%
%TO.N,unconnected-(U1-GPIO27_ADC1-Pad39)*%
G36*
X65684581Y-41484720D02*
G01*
X65685994Y-41485916D01*
X65797511Y-41596539D01*
X65800971Y-41604798D01*
X65800971Y-41604912D01*
X65800055Y-41765329D01*
X65796581Y-41773582D01*
X65790491Y-41776765D01*
X65531145Y-41824930D01*
X65522386Y-41823072D01*
X65517506Y-41815563D01*
X65517309Y-41813427D01*
X65517309Y-41765329D01*
X65517309Y-41701262D01*
X65519504Y-41694444D01*
X65668254Y-41487393D01*
X65675862Y-41482676D01*
X65684581Y-41484720D01*
G37*
%TD.AperFunction*%
%TD*%
%TA.AperFunction,Conductor*%
%TO.N,unconnected-(U1-GPIO27_ADC1-Pad39)*%
G36*
X65171831Y-41666948D02*
G01*
X65291014Y-41695358D01*
X65298266Y-41700609D01*
X65300000Y-41706738D01*
X65300000Y-41818261D01*
X65296573Y-41826534D01*
X65291013Y-41829642D01*
X65171833Y-41858050D01*
X65166433Y-41858056D01*
X64895497Y-41794120D01*
X64809752Y-41773886D01*
X64802488Y-41768652D01*
X64801053Y-41759813D01*
X64806288Y-41752548D01*
X64809751Y-41751113D01*
X65166434Y-41666943D01*
X65171831Y-41666948D01*
G37*
%TD.AperFunction*%
%TD*%
%TA.AperFunction,Conductor*%
%TO.N,unconnected-(U1-GPIO18-Pad29)*%
G36*
X64492144Y-37698465D02*
G01*
X64715246Y-37751113D01*
X64722511Y-37756348D01*
X64723946Y-37765187D01*
X64718711Y-37772452D01*
X64715246Y-37773887D01*
X64358566Y-37858056D01*
X64353166Y-37858050D01*
X64233987Y-37829642D01*
X64226734Y-37824390D01*
X64225000Y-37818261D01*
X64225000Y-37706738D01*
X64228427Y-37698465D01*
X64233984Y-37695358D01*
X64353168Y-37666948D01*
X64358565Y-37666943D01*
X64492144Y-37698465D01*
G37*
%TD.AperFunction*%
%TD*%
%TA.AperFunction,Conductor*%
%TO.N,unconnected-(U1-GPIO18-Pad29)*%
G36*
X63404534Y-36400406D02*
G01*
X63551610Y-36462237D01*
X63557909Y-36468603D01*
X63558148Y-36476805D01*
X63467705Y-36741582D01*
X63461788Y-36748303D01*
X63456633Y-36749500D01*
X63343367Y-36749500D01*
X63335094Y-36746073D01*
X63332295Y-36741582D01*
X63241851Y-36476805D01*
X63242420Y-36467868D01*
X63248388Y-36462237D01*
X63395466Y-36400405D01*
X63404420Y-36400359D01*
X63404534Y-36400406D01*
G37*
%TD.AperFunction*%
%TD*%
%TA.AperFunction,Conductor*%
%TO.N,GND*%
G36*
X64112233Y-35966572D02*
G01*
X64680944Y-36200747D01*
X64742256Y-36225994D01*
X64748601Y-36232313D01*
X64748621Y-36241265D01*
X64602563Y-36596195D01*
X64596245Y-36602542D01*
X64596195Y-36602563D01*
X64241265Y-36748621D01*
X64232311Y-36748600D01*
X64225994Y-36742256D01*
X64165851Y-36596195D01*
X63966573Y-36112235D01*
X63966592Y-36103282D01*
X63969116Y-36099512D01*
X64099510Y-35969118D01*
X64107782Y-35965692D01*
X64112233Y-35966572D01*
G37*
%TD.AperFunction*%
%TD*%
%TA.AperFunction,Conductor*%
%TO.N,GND*%
G36*
X61859795Y-36411499D02*
G01*
X61988704Y-36540408D01*
X61992131Y-36548681D01*
X61990733Y-36554226D01*
X61834212Y-36845016D01*
X61827274Y-36850677D01*
X61821331Y-36850883D01*
X61605234Y-36802049D01*
X61597920Y-36796883D01*
X61596985Y-36795068D01*
X61521020Y-36609440D01*
X61521058Y-36600486D01*
X61525981Y-36594886D01*
X61845657Y-36409648D01*
X61854532Y-36408466D01*
X61859795Y-36411499D01*
G37*
%TD.AperFunction*%
%TD*%
%TA.AperFunction,Conductor*%
%TO.N,unconnected-(U1-GPIO21-Pad32)*%
G36*
X65684154Y-38584588D02*
G01*
X65792543Y-38692108D01*
X65797511Y-38697036D01*
X65800971Y-38705295D01*
X65800971Y-38705409D01*
X65800072Y-38862867D01*
X65796598Y-38871120D01*
X65788372Y-38874500D01*
X65742604Y-38874500D01*
X65742069Y-38874694D01*
X65738059Y-38875396D01*
X65503422Y-38875018D01*
X65495155Y-38871578D01*
X65491741Y-38863318D01*
X65491741Y-38862867D01*
X65491741Y-38750161D01*
X65495167Y-38741891D01*
X65495522Y-38741551D01*
X65668034Y-38584249D01*
X65676455Y-38581207D01*
X65684154Y-38584588D01*
G37*
%TD.AperFunction*%
%TD*%
%TA.AperFunction,Conductor*%
%TO.N,unconnected-(U1-GPIO21-Pad32)*%
G36*
X65172930Y-38868199D02*
G01*
X65248224Y-38905759D01*
X65251272Y-38907955D01*
X65328521Y-38985204D01*
X65331948Y-38993477D01*
X65328521Y-39001750D01*
X65323992Y-39004562D01*
X65177749Y-39053958D01*
X65171466Y-39054294D01*
X64811427Y-38974242D01*
X64804094Y-38969101D01*
X64802545Y-38960282D01*
X64807686Y-38952949D01*
X64811252Y-38951441D01*
X65165004Y-38867288D01*
X65172930Y-38868199D01*
G37*
%TD.AperFunction*%
%TD*%
%TA.AperFunction,Conductor*%
%TO.N,unconnected-(U1-GPIO22-Pad34)*%
G36*
X65684606Y-39084790D02*
G01*
X65686271Y-39086157D01*
X65799004Y-39197610D01*
X65801611Y-39201510D01*
X65862195Y-39349977D01*
X65862148Y-39358931D01*
X65855782Y-39365230D01*
X65854935Y-39365538D01*
X65580145Y-39453662D01*
X65571220Y-39452925D01*
X65568299Y-39450794D01*
X65488257Y-39370752D01*
X65484830Y-39362479D01*
X65486843Y-39355918D01*
X65592924Y-39199293D01*
X65668359Y-39087915D01*
X65675834Y-39082988D01*
X65684606Y-39084790D01*
G37*
%TD.AperFunction*%
%TD*%
%TA.AperFunction,Conductor*%
%TO.N,unconnected-(U1-GPIO26_ADC0-Pad38)*%
G36*
X65648432Y-40937156D02*
G01*
X65796152Y-40997434D01*
X65802518Y-41003733D01*
X65802565Y-41003847D01*
X65862843Y-41151567D01*
X65862796Y-41160521D01*
X65857165Y-41166490D01*
X65605986Y-41289762D01*
X65597049Y-41290331D01*
X65592558Y-41287532D01*
X65512467Y-41207441D01*
X65509040Y-41199168D01*
X65510236Y-41194015D01*
X65633509Y-40942833D01*
X65640230Y-40936917D01*
X65648432Y-40937156D01*
G37*
%TD.AperFunction*%
%TD*%
%TA.AperFunction,Conductor*%
%TO.N,unconnected-(U1-GPIO26_ADC0-Pad38)*%
G36*
X65171831Y-41266948D02*
G01*
X65291014Y-41295358D01*
X65298266Y-41300609D01*
X65300000Y-41306738D01*
X65300000Y-41418261D01*
X65296573Y-41426534D01*
X65291013Y-41429642D01*
X65171833Y-41458050D01*
X65166433Y-41458056D01*
X64895497Y-41394120D01*
X64809752Y-41373886D01*
X64802488Y-41368652D01*
X64801053Y-41359813D01*
X64806288Y-41352548D01*
X64809751Y-41351113D01*
X65166434Y-41266943D01*
X65171831Y-41266948D01*
G37*
%TD.AperFunction*%
%TD*%
%TA.AperFunction,Conductor*%
%TO.N,unconnected-(U1-GPIO25-Pad37)*%
G36*
X60358809Y-38537901D02*
G01*
X60365107Y-38544267D01*
X60365451Y-38545228D01*
X60382079Y-38599000D01*
X60460313Y-38852002D01*
X60459483Y-38860918D01*
X60452591Y-38866636D01*
X60449135Y-38867158D01*
X60337871Y-38867158D01*
X60332455Y-38865829D01*
X60142500Y-38766624D01*
X60136753Y-38759756D01*
X60137097Y-38751799D01*
X60198136Y-38603526D01*
X60204451Y-38597183D01*
X60349856Y-38537854D01*
X60358809Y-38537901D01*
G37*
%TD.AperFunction*%
%TD*%
%TA.AperFunction,Conductor*%
%TO.N,unconnected-(U1-GPIO25-Pad37)*%
G36*
X60464906Y-39853427D02*
G01*
X60467705Y-39857918D01*
X60558148Y-40122694D01*
X60557579Y-40131631D01*
X60551610Y-40137262D01*
X60404534Y-40199093D01*
X60395580Y-40199140D01*
X60395466Y-40199093D01*
X60248389Y-40137262D01*
X60242090Y-40130896D01*
X60241851Y-40122695D01*
X60332295Y-39857917D01*
X60338212Y-39851197D01*
X60343367Y-39850000D01*
X60456633Y-39850000D01*
X60464906Y-39853427D01*
G37*
%TD.AperFunction*%
%TD*%
%TA.AperFunction,Conductor*%
%TO.N,unconnected-(U1-GPIO25-Pad37)*%
G36*
X65648432Y-40337156D02*
G01*
X65796152Y-40397434D01*
X65802518Y-40403733D01*
X65802565Y-40403847D01*
X65862843Y-40551567D01*
X65862796Y-40560521D01*
X65857165Y-40566490D01*
X65605986Y-40689762D01*
X65597049Y-40690331D01*
X65592558Y-40687532D01*
X65512467Y-40607441D01*
X65509040Y-40599168D01*
X65510236Y-40594015D01*
X65633509Y-40342833D01*
X65640230Y-40336917D01*
X65648432Y-40337156D01*
G37*
%TD.AperFunction*%
%TD*%
%TA.AperFunction,Conductor*%
%TO.N,unconnected-(U1-GPIO25-Pad37)*%
G36*
X65231681Y-40871878D02*
G01*
X65238618Y-40875229D01*
X65315913Y-40952524D01*
X65319340Y-40960797D01*
X65315913Y-40969070D01*
X65312646Y-40971372D01*
X65200506Y-41024456D01*
X65193831Y-41025461D01*
X64819373Y-40971503D01*
X64811673Y-40966932D01*
X64809462Y-40958254D01*
X64814033Y-40950554D01*
X64818099Y-40948600D01*
X65147891Y-40863046D01*
X65152161Y-40862748D01*
X65231681Y-40871878D01*
G37*
%TD.AperFunction*%
%TD*%
%TA.AperFunction,Conductor*%
%TO.N,unconnected-(U1-GPIO24-Pad36)*%
G36*
X57407441Y-41112467D02*
G01*
X57487532Y-41192558D01*
X57490959Y-41200831D01*
X57489762Y-41205986D01*
X57366490Y-41457165D01*
X57359769Y-41463082D01*
X57351567Y-41462843D01*
X57203847Y-41402565D01*
X57197481Y-41396266D01*
X57197434Y-41396152D01*
X57137156Y-41248432D01*
X57137203Y-41239478D01*
X57142833Y-41233509D01*
X57394014Y-41110236D01*
X57402950Y-41109668D01*
X57407441Y-41112467D01*
G37*
%TD.AperFunction*%
%TD*%
%TA.AperFunction,Conductor*%
%TO.N,unconnected-(U1-GPIO24-Pad36)*%
G36*
X57604534Y-40000906D02*
G01*
X57751610Y-40062737D01*
X57757909Y-40069103D01*
X57758148Y-40077305D01*
X57667705Y-40342082D01*
X57661788Y-40348803D01*
X57656633Y-40350000D01*
X57543367Y-40350000D01*
X57535094Y-40346573D01*
X57532295Y-40342082D01*
X57441851Y-40077305D01*
X57442420Y-40068368D01*
X57448388Y-40062737D01*
X57595466Y-40000905D01*
X57604420Y-40000859D01*
X57604534Y-40000906D01*
G37*
%TD.AperFunction*%
%TD*%
%TA.AperFunction,Conductor*%
%TO.N,unconnected-(U1-GPIO24-Pad36)*%
G36*
X64007441Y-40712467D02*
G01*
X64087532Y-40792558D01*
X64090959Y-40800831D01*
X64089762Y-40805986D01*
X63966490Y-41057165D01*
X63959769Y-41063082D01*
X63951567Y-41062843D01*
X63803847Y-41002565D01*
X63797481Y-40996266D01*
X63797434Y-40996152D01*
X63737156Y-40848432D01*
X63737203Y-40839478D01*
X63742833Y-40833509D01*
X63994014Y-40710236D01*
X64002950Y-40709668D01*
X64007441Y-40712467D01*
G37*
%TD.AperFunction*%
%TD*%
%TA.AperFunction,Conductor*%
%TO.N,unconnected-(U1-GPIO24-Pad36)*%
G36*
X64713905Y-40550692D02*
G01*
X64721223Y-40555852D01*
X64722749Y-40564676D01*
X64717589Y-40571994D01*
X64714043Y-40573488D01*
X64360052Y-40657697D01*
X64352032Y-40656740D01*
X64276272Y-40618140D01*
X64273311Y-40615988D01*
X64196091Y-40538768D01*
X64192664Y-40530495D01*
X64196091Y-40522222D01*
X64200666Y-40519394D01*
X64348556Y-40470153D01*
X64354819Y-40469841D01*
X64713905Y-40550692D01*
G37*
%TD.AperFunction*%
%TD*%
%TA.AperFunction,Conductor*%
%TO.N,unconnected-(U1-GPIO23-Pad35)*%
G36*
X58942082Y-38532295D02*
G01*
X58948803Y-38538212D01*
X58950000Y-38543367D01*
X58950000Y-38656632D01*
X58946573Y-38664905D01*
X58942082Y-38667704D01*
X58677305Y-38758148D01*
X58668368Y-38757579D01*
X58662737Y-38751610D01*
X58600906Y-38604534D01*
X58600859Y-38595580D01*
X58600906Y-38595466D01*
X58662737Y-38448388D01*
X58669103Y-38442090D01*
X58677304Y-38441851D01*
X58942082Y-38532295D01*
G37*
%TD.AperFunction*%
%TD*%
%TA.AperFunction,Conductor*%
%TO.N,unconnected-(U1-GPIO23-Pad35)*%
G36*
X59919408Y-39453427D02*
G01*
X59922207Y-39457918D01*
X60012650Y-39722694D01*
X60012081Y-39731631D01*
X60006112Y-39737262D01*
X59859036Y-39799093D01*
X59850082Y-39799140D01*
X59849968Y-39799093D01*
X59702891Y-39737262D01*
X59696592Y-39730896D01*
X59696353Y-39722695D01*
X59786797Y-39457917D01*
X59792714Y-39451197D01*
X59797869Y-39450000D01*
X59911135Y-39450000D01*
X59919408Y-39453427D01*
G37*
%TD.AperFunction*%
%TD*%
%TA.AperFunction,Conductor*%
%TO.N,unconnected-(U1-GPIO23-Pad35)*%
G36*
X65648432Y-39737156D02*
G01*
X65796152Y-39797434D01*
X65802518Y-39803733D01*
X65802565Y-39803847D01*
X65862843Y-39951567D01*
X65862796Y-39960521D01*
X65857165Y-39966490D01*
X65605986Y-40089762D01*
X65597049Y-40090331D01*
X65592558Y-40087532D01*
X65512467Y-40007441D01*
X65509040Y-39999168D01*
X65510236Y-39994015D01*
X65633509Y-39742833D01*
X65640230Y-39736917D01*
X65648432Y-39737156D01*
G37*
%TD.AperFunction*%
%TD*%
%TA.AperFunction,Conductor*%
%TO.N,unconnected-(U1-GPIO23-Pad35)*%
G36*
X65171831Y-40066948D02*
G01*
X65291014Y-40095358D01*
X65298266Y-40100609D01*
X65300000Y-40106738D01*
X65300000Y-40218261D01*
X65296573Y-40226534D01*
X65291013Y-40229642D01*
X65171833Y-40258050D01*
X65166433Y-40258056D01*
X64895497Y-40194120D01*
X64809752Y-40173886D01*
X64802488Y-40168652D01*
X64801053Y-40159813D01*
X64806288Y-40152548D01*
X64809751Y-40151113D01*
X65166434Y-40066943D01*
X65171831Y-40066948D01*
G37*
%TD.AperFunction*%
%TD*%
%TA.AperFunction,Conductor*%
%TO.N,unconnected-(U1-RUN-Pad26)*%
G36*
X66460565Y-37689828D02*
G01*
X66463992Y-37698101D01*
X66463952Y-37699066D01*
X66441533Y-37970079D01*
X66437436Y-37978041D01*
X66429940Y-37980814D01*
X66270563Y-37981724D01*
X66262270Y-37978344D01*
X66262190Y-37978264D01*
X66150637Y-37865809D01*
X66147243Y-37857522D01*
X66150703Y-37849263D01*
X66151183Y-37848812D01*
X66321758Y-37698101D01*
X66331682Y-37689333D01*
X66339429Y-37686401D01*
X66452292Y-37686401D01*
X66460565Y-37689828D01*
G37*
%TD.AperFunction*%
%TD*%
%TA.AperFunction,Conductor*%
%TO.N,unconnected-(U1-RUN-Pad26)*%
G36*
X66409952Y-36968788D02*
G01*
X66411387Y-36972253D01*
X66495556Y-37328933D01*
X66495550Y-37334333D01*
X66467142Y-37453513D01*
X66461890Y-37460766D01*
X66455761Y-37462500D01*
X66344239Y-37462500D01*
X66335966Y-37459073D01*
X66332858Y-37453513D01*
X66304449Y-37334333D01*
X66304443Y-37328933D01*
X66388613Y-36972253D01*
X66393848Y-36964988D01*
X66402687Y-36963553D01*
X66409952Y-36968788D01*
G37*
%TD.AperFunction*%
%TD*%
%TA.AperFunction,Conductor*%
%TO.N,unconnected-(U1-GPIO20-Pad31)*%
G36*
X63730551Y-38285982D02*
G01*
X63731743Y-38287391D01*
X63880493Y-38494441D01*
X63882691Y-38501266D01*
X63882691Y-38613427D01*
X63879264Y-38621700D01*
X63870991Y-38625127D01*
X63868855Y-38624930D01*
X63609508Y-38576765D01*
X63601999Y-38571885D01*
X63599944Y-38565331D01*
X63599028Y-38404911D01*
X63602408Y-38396619D01*
X63714006Y-38285915D01*
X63722292Y-38282522D01*
X63730551Y-38285982D01*
G37*
%TD.AperFunction*%
%TD*%
%TA.AperFunction,Conductor*%
%TO.N,unconnected-(U1-GPIO20-Pad31)*%
G36*
X64492144Y-38498465D02*
G01*
X64715246Y-38551113D01*
X64722511Y-38556348D01*
X64723946Y-38565187D01*
X64718711Y-38572452D01*
X64715246Y-38573887D01*
X64358566Y-38658056D01*
X64353166Y-38658050D01*
X64233987Y-38629642D01*
X64226734Y-38624390D01*
X64225000Y-38618261D01*
X64225000Y-38506738D01*
X64228427Y-38498465D01*
X64233984Y-38495358D01*
X64353168Y-38466948D01*
X64358565Y-38466943D01*
X64492144Y-38498465D01*
G37*
%TD.AperFunction*%
%TD*%
%TA.AperFunction,Conductor*%
%TO.N,unconnected-(U1-GPIO19-Pad30)*%
G36*
X63760521Y-37737203D02*
G01*
X63766490Y-37742834D01*
X63889762Y-37994013D01*
X63890331Y-38002950D01*
X63887532Y-38007441D01*
X63807441Y-38087532D01*
X63799168Y-38090959D01*
X63794013Y-38089762D01*
X63542834Y-37966490D01*
X63536917Y-37959769D01*
X63537156Y-37951567D01*
X63597435Y-37803845D01*
X63603732Y-37797481D01*
X63751567Y-37737156D01*
X63760521Y-37737203D01*
G37*
%TD.AperFunction*%
%TD*%
%TA.AperFunction,Conductor*%
%TO.N,unconnected-(U1-GPIO19-Pad30)*%
G36*
X64492144Y-38098465D02*
G01*
X64715246Y-38151113D01*
X64722511Y-38156348D01*
X64723946Y-38165187D01*
X64718711Y-38172452D01*
X64715246Y-38173887D01*
X64358566Y-38258056D01*
X64353166Y-38258050D01*
X64233987Y-38229642D01*
X64226734Y-38224390D01*
X64225000Y-38218261D01*
X64225000Y-38106738D01*
X64228427Y-38098465D01*
X64233984Y-38095358D01*
X64353168Y-38066948D01*
X64358565Y-38066943D01*
X64492144Y-38098465D01*
G37*
%TD.AperFunction*%
%TD*%
%TA.AperFunction,Conductor*%
%TO.N,+3.3V*%
G36*
X62909242Y-37837781D02*
G01*
X62914116Y-37843133D01*
X63116381Y-38290920D01*
X63116663Y-38299870D01*
X63113991Y-38304009D01*
X62984177Y-38433823D01*
X62975904Y-38437250D01*
X62970798Y-38436077D01*
X62493914Y-38204798D01*
X62487966Y-38198105D01*
X62488196Y-38189828D01*
X62597109Y-37924609D01*
X62603422Y-37918258D01*
X62604820Y-37917775D01*
X62900357Y-37836666D01*
X62909242Y-37837781D01*
G37*
%TD.AperFunction*%
%TD*%
%TA.AperFunction,Conductor*%
%TO.N,+3.3V*%
G36*
X62758535Y-37148497D02*
G01*
X62764861Y-37154835D01*
X62764852Y-37163790D01*
X62764763Y-37163999D01*
X62528163Y-37703840D01*
X62525720Y-37707416D01*
X62397221Y-37835915D01*
X62388948Y-37839342D01*
X62380675Y-37835915D01*
X62378534Y-37832974D01*
X62036212Y-37164333D01*
X62035493Y-37155409D01*
X62041295Y-37148589D01*
X62042112Y-37148209D01*
X62394800Y-37001165D01*
X62403752Y-37001145D01*
X62758535Y-37148497D01*
G37*
%TD.AperFunction*%
%TD*%
%TA.AperFunction,Conductor*%
%TO.N,+3.3V*%
G36*
X62503375Y-37369130D02*
G01*
X62790900Y-37638617D01*
X62794593Y-37646775D01*
X62792391Y-37653994D01*
X62605606Y-37913219D01*
X62597990Y-37917928D01*
X62591270Y-37917029D01*
X62297039Y-37783201D01*
X62290927Y-37776656D01*
X62290186Y-37772271D01*
X62299724Y-37377383D01*
X62303350Y-37369196D01*
X62311421Y-37365967D01*
X62495374Y-37365967D01*
X62503375Y-37369130D01*
G37*
%TD.AperFunction*%
%TD*%
%TA.AperFunction,Conductor*%
%TO.N,GND*%
G36*
X62905667Y-38867759D02*
G01*
X62909487Y-38875858D01*
X62909500Y-38876419D01*
X62909500Y-38919199D01*
X62909275Y-38921482D01*
X62904592Y-38945024D01*
X62904592Y-38945025D01*
X62924034Y-39042766D01*
X62924035Y-39042769D01*
X62934136Y-39057886D01*
X62936009Y-39062868D01*
X62978270Y-39385786D01*
X62975946Y-39394434D01*
X62968187Y-39398905D01*
X62966669Y-39399004D01*
X62783643Y-39399004D01*
X62777002Y-39396937D01*
X62442293Y-39166202D01*
X62437427Y-39158685D01*
X62438871Y-39150601D01*
X62596787Y-38884414D01*
X62603955Y-38879049D01*
X62606286Y-38878698D01*
X62897242Y-38864733D01*
X62905667Y-38867759D01*
G37*
%TD.AperFunction*%
%TD*%
%TA.AperFunction,Conductor*%
%TO.N,GND*%
G36*
X62980618Y-39923427D02*
G01*
X62983066Y-39927015D01*
X63076540Y-40140897D01*
X63076713Y-40149850D01*
X63073453Y-40154449D01*
X62887634Y-40314427D01*
X62879128Y-40317227D01*
X62872366Y-40314427D01*
X62686546Y-40154449D01*
X62682513Y-40146454D01*
X62683458Y-40140899D01*
X62776934Y-39927014D01*
X62783387Y-39920806D01*
X62787655Y-39920000D01*
X62972345Y-39920000D01*
X62980618Y-39923427D01*
G37*
%TD.AperFunction*%
%TD*%
%TA.AperFunction,Conductor*%
%TO.N,GND*%
G36*
X63051428Y-41841244D02*
G01*
X63199123Y-42195498D01*
X63199144Y-42204452D01*
X63199123Y-42204502D01*
X63051428Y-42558755D01*
X63045081Y-42565073D01*
X63036129Y-42565053D01*
X62407200Y-42302999D01*
X62400881Y-42296654D01*
X62400000Y-42292199D01*
X62400000Y-42107800D01*
X62403427Y-42099527D01*
X62407200Y-42097000D01*
X63036131Y-41834945D01*
X63045084Y-41834927D01*
X63051428Y-41841244D01*
G37*
%TD.AperFunction*%
%TD*%
%TA.AperFunction,Conductor*%
%TO.N,GND*%
G36*
X61209928Y-41904216D02*
G01*
X61514546Y-42096556D01*
X61519711Y-42103871D01*
X61519999Y-42106449D01*
X61520000Y-42292369D01*
X61516573Y-42300642D01*
X61513016Y-42303076D01*
X61170992Y-42453718D01*
X61162039Y-42453917D01*
X61156655Y-42449668D01*
X61055227Y-42303076D01*
X60964309Y-42171674D01*
X60962420Y-42162922D01*
X60965301Y-42157118D01*
X61195056Y-41906208D01*
X61203170Y-41902421D01*
X61209928Y-41904216D01*
G37*
%TD.AperFunction*%
%TD*%
%TA.AperFunction,Conductor*%
%TO.N,GND*%
G36*
X54283107Y-41478594D02*
G01*
X54283475Y-41478980D01*
X54675331Y-41908915D01*
X54678371Y-41917338D01*
X54674972Y-41925055D01*
X54403441Y-42197546D01*
X54395174Y-42200987D01*
X54395124Y-42200987D01*
X54013029Y-42200032D01*
X54004764Y-42196584D01*
X54001358Y-42188303D01*
X54001428Y-42187057D01*
X54078850Y-41485582D01*
X54083163Y-41477736D01*
X54090479Y-41475167D01*
X54274834Y-41475167D01*
X54283107Y-41478594D01*
G37*
%TD.AperFunction*%
%TD*%
%TA.AperFunction,Conductor*%
%TO.N,GND*%
G36*
X54187016Y-39959149D02*
G01*
X54189363Y-39961496D01*
X54924342Y-40942449D01*
X54926561Y-40951125D01*
X54923821Y-40957128D01*
X54283499Y-41695963D01*
X54275491Y-41699970D01*
X54274657Y-41700000D01*
X54085343Y-41700000D01*
X54077070Y-41696573D01*
X54076501Y-41695963D01*
X53436178Y-40957128D01*
X53433350Y-40948631D01*
X53435656Y-40942450D01*
X54170637Y-39961495D01*
X54178340Y-39956930D01*
X54187016Y-39959149D01*
G37*
%TD.AperFunction*%
%TD*%
%TA.AperFunction,Conductor*%
%TO.N,GND*%
G36*
X54758755Y-42348571D02*
G01*
X54765073Y-42354918D01*
X54765053Y-42363870D01*
X54503000Y-42992800D01*
X54496655Y-42999119D01*
X54492200Y-43000000D01*
X54307800Y-43000000D01*
X54299527Y-42996573D01*
X54297000Y-42992800D01*
X54034945Y-42363868D01*
X54034927Y-42354915D01*
X54041242Y-42348572D01*
X54395500Y-42200875D01*
X54404449Y-42200855D01*
X54758755Y-42348571D01*
G37*
%TD.AperFunction*%
%TD*%
%TA.AperFunction,Conductor*%
%TO.N,GND*%
G36*
X54502011Y-42858427D02*
G01*
X54503473Y-42860210D01*
X54696292Y-43149439D01*
X54698030Y-43158224D01*
X54697092Y-43161018D01*
X54410535Y-43754192D01*
X54403851Y-43760151D01*
X54394911Y-43759638D01*
X54389465Y-43754192D01*
X54102907Y-43161018D01*
X54102394Y-43152078D01*
X54103707Y-43149439D01*
X54296527Y-42860210D01*
X54303967Y-42855227D01*
X54306262Y-42855000D01*
X54493738Y-42855000D01*
X54502011Y-42858427D01*
G37*
%TD.AperFunction*%
%TD*%
%TA.AperFunction,Conductor*%
%TO.N,GND*%
G36*
X54502011Y-42858427D02*
G01*
X54503473Y-42860210D01*
X54696292Y-43149439D01*
X54698030Y-43158224D01*
X54697092Y-43161018D01*
X54410535Y-43754192D01*
X54403851Y-43760151D01*
X54394911Y-43759638D01*
X54389465Y-43754192D01*
X54102907Y-43161018D01*
X54102394Y-43152078D01*
X54103707Y-43149439D01*
X54296527Y-42860210D01*
X54303967Y-42855227D01*
X54306262Y-42855000D01*
X54493738Y-42855000D01*
X54502011Y-42858427D01*
G37*
%TD.AperFunction*%
%TD*%
%TA.AperFunction,Conductor*%
%TO.N,GND*%
G36*
X63558755Y-44548571D02*
G01*
X63565073Y-44554918D01*
X63565053Y-44563870D01*
X63303000Y-45192800D01*
X63296655Y-45199119D01*
X63292200Y-45200000D01*
X63107800Y-45200000D01*
X63099527Y-45196573D01*
X63097000Y-45192800D01*
X62834945Y-44563868D01*
X62834927Y-44554915D01*
X62841242Y-44548572D01*
X63195500Y-44400875D01*
X63204449Y-44400855D01*
X63558755Y-44548571D01*
G37*
%TD.AperFunction*%
%TD*%
%TA.AperFunction,Conductor*%
%TO.N,GND*%
G36*
X63574653Y-45600793D02*
G01*
X63642260Y-45645966D01*
X63715326Y-45660500D01*
X63715327Y-45660500D01*
X63774489Y-45660500D01*
X63778123Y-45661079D01*
X63857577Y-45687040D01*
X63864377Y-45692866D01*
X63865570Y-45699468D01*
X63841420Y-45914360D01*
X63837090Y-45922198D01*
X63834983Y-45923539D01*
X63648759Y-46015709D01*
X63639824Y-46016308D01*
X63634174Y-46012197D01*
X63568364Y-45923539D01*
X63433884Y-45742370D01*
X63431706Y-45733686D01*
X63435005Y-45727127D01*
X63559885Y-45602247D01*
X63568155Y-45598822D01*
X63574653Y-45600793D01*
G37*
%TD.AperFunction*%
%TD*%
%TA.AperFunction,Conductor*%
%TO.N,GND*%
G36*
X66924295Y-47724270D02*
G01*
X67197546Y-47996558D01*
X67200987Y-48004825D01*
X67200987Y-48004875D01*
X67200034Y-48386158D01*
X67196586Y-48394423D01*
X67188305Y-48397829D01*
X67186357Y-48397661D01*
X67119264Y-48386158D01*
X66451481Y-48271667D01*
X66443906Y-48266891D01*
X66441758Y-48260135D01*
X66441758Y-48075883D01*
X66445184Y-48067613D01*
X66446472Y-48066500D01*
X66909065Y-47723162D01*
X66917749Y-47720984D01*
X66924295Y-47724270D01*
G37*
%TD.AperFunction*%
%TD*%
%TA.AperFunction,Conductor*%
%TO.N,GND*%
G36*
X66108052Y-47825752D02*
G01*
X66445100Y-48066500D01*
X66449841Y-48074098D01*
X66450000Y-48076021D01*
X66450000Y-48263979D01*
X66446573Y-48272252D01*
X66445100Y-48273500D01*
X66108052Y-48514247D01*
X66099328Y-48516267D01*
X66092991Y-48513011D01*
X65757307Y-48178283D01*
X65753869Y-48170017D01*
X65757283Y-48161740D01*
X66092992Y-47826987D01*
X66101269Y-47823573D01*
X66108052Y-47825752D01*
G37*
%TD.AperFunction*%
%TD*%
%TA.AperFunction,Conductor*%
%TO.N,GND*%
G36*
X63300473Y-43603427D02*
G01*
X63303000Y-43607200D01*
X63565053Y-44236129D01*
X63565072Y-44245084D01*
X63558755Y-44251428D01*
X63204502Y-44399123D01*
X63195548Y-44399144D01*
X63195498Y-44399123D01*
X62841244Y-44251428D01*
X62834926Y-44245081D01*
X62834945Y-44236131D01*
X63097000Y-43607199D01*
X63103345Y-43600881D01*
X63107800Y-43600000D01*
X63292200Y-43600000D01*
X63300473Y-43603427D01*
G37*
%TD.AperFunction*%
%TD*%
%TA.AperFunction,Conductor*%
%TO.N,GND*%
G36*
X63558755Y-42348571D02*
G01*
X63565073Y-42354918D01*
X63565053Y-42363870D01*
X63303000Y-42992800D01*
X63296655Y-42999119D01*
X63292200Y-43000000D01*
X63107800Y-43000000D01*
X63099527Y-42996573D01*
X63097000Y-42992800D01*
X62834945Y-42363868D01*
X62834927Y-42354915D01*
X62841242Y-42348572D01*
X63195500Y-42200875D01*
X63204449Y-42200855D01*
X63558755Y-42348571D01*
G37*
%TD.AperFunction*%
%TD*%
%TA.AperFunction,Conductor*%
%TO.N,unconnected-(U1-GPIO17-Pad28)*%
G36*
X65508617Y-36887061D02*
G01*
X65589752Y-36919863D01*
X65596137Y-36926141D01*
X65596213Y-36935095D01*
X65596169Y-36935203D01*
X65506714Y-37150278D01*
X65500373Y-37156601D01*
X65491418Y-37156588D01*
X65487638Y-37154058D01*
X65390278Y-37056698D01*
X65386851Y-37048425D01*
X65388974Y-37041705D01*
X65494658Y-36891185D01*
X65502216Y-36886384D01*
X65508617Y-36887061D01*
G37*
%TD.AperFunction*%
%TD*%
%TA.AperFunction,Conductor*%
%TO.N,unconnected-(U1-GPIO17-Pad28)*%
G36*
X64275878Y-37045665D02*
G01*
X64278466Y-37047169D01*
X64307044Y-37069097D01*
X64322375Y-37080861D01*
X64322379Y-37080863D01*
X64322383Y-37080865D01*
X64439174Y-37129240D01*
X64456291Y-37136330D01*
X64535525Y-37146761D01*
X64543278Y-37151237D01*
X64545696Y-37158360D01*
X64545696Y-37271304D01*
X64542269Y-37279577D01*
X64537370Y-37282507D01*
X64275168Y-37361465D01*
X64266258Y-37360569D01*
X64261008Y-37354796D01*
X64199024Y-37207355D01*
X64198977Y-37198401D01*
X64198997Y-37198350D01*
X64260559Y-37051915D01*
X64266924Y-37045618D01*
X64275878Y-37045665D01*
G37*
%TD.AperFunction*%
%TD*%
%TA.AperFunction,Conductor*%
%TO.N,unconnected-(U1-GPIO16-Pad27)*%
G36*
X72004534Y-36000906D02*
G01*
X72151610Y-36062737D01*
X72157909Y-36069103D01*
X72158148Y-36077305D01*
X72067705Y-36342082D01*
X72061788Y-36348803D01*
X72056633Y-36350000D01*
X71943367Y-36350000D01*
X71935094Y-36346573D01*
X71932295Y-36342082D01*
X71841851Y-36077305D01*
X71842420Y-36068368D01*
X71848388Y-36062737D01*
X71995466Y-36000905D01*
X72004420Y-36000859D01*
X72004534Y-36000906D01*
G37*
%TD.AperFunction*%
%TD*%
%TA.AperFunction,Conductor*%
%TO.N,unconnected-(U1-GPIO16-Pad27)*%
G36*
X69336621Y-37936965D02*
G01*
X69342280Y-37941963D01*
X69445260Y-38122303D01*
X69446800Y-38128105D01*
X69446800Y-38239634D01*
X69443373Y-38247907D01*
X69435100Y-38251334D01*
X69431988Y-38250913D01*
X69121227Y-38165181D01*
X69114164Y-38159677D01*
X69113060Y-38150790D01*
X69113502Y-38149493D01*
X69172650Y-38004532D01*
X69178944Y-37998170D01*
X69327666Y-37936946D01*
X69336621Y-37936965D01*
G37*
%TD.AperFunction*%
%TD*%
%TA.AperFunction,Conductor*%
%TO.N,unconnected-(U1-GPIO16-Pad27)*%
G36*
X66057408Y-37536269D02*
G01*
X66060835Y-37544542D01*
X66060313Y-37547999D01*
X65969205Y-37842626D01*
X65968160Y-37845019D01*
X65961771Y-37856086D01*
X65954667Y-37861537D01*
X65947218Y-37861069D01*
X65804534Y-37802850D01*
X65798169Y-37796553D01*
X65737096Y-37648200D01*
X65737116Y-37639245D01*
X65742499Y-37633375D01*
X65932455Y-37534170D01*
X65937871Y-37532842D01*
X66049135Y-37532842D01*
X66057408Y-37536269D01*
G37*
%TD.AperFunction*%
%TD*%
%TA.AperFunction,Conductor*%
%TO.N,unconnected-(U1-GPIO16-Pad27)*%
G36*
X66009952Y-36968788D02*
G01*
X66011387Y-36972253D01*
X66095556Y-37328933D01*
X66095550Y-37334333D01*
X66067142Y-37453513D01*
X66061890Y-37460766D01*
X66055761Y-37462500D01*
X65944239Y-37462500D01*
X65935966Y-37459073D01*
X65932858Y-37453513D01*
X65904449Y-37334333D01*
X65904443Y-37328933D01*
X65988613Y-36972253D01*
X65993848Y-36964988D01*
X66002687Y-36963553D01*
X66009952Y-36968788D01*
G37*
%TD.AperFunction*%
%TD*%
%TA.AperFunction,Conductor*%
%TO.N,unconnected-(U1-RUN-Pad26)*%
G36*
X68746323Y-37734510D02*
G01*
X68749122Y-37739001D01*
X68839565Y-38003777D01*
X68838996Y-38012714D01*
X68833027Y-38018345D01*
X68685951Y-38080176D01*
X68676997Y-38080223D01*
X68676883Y-38080176D01*
X68529806Y-38018345D01*
X68523507Y-38011979D01*
X68523268Y-38003778D01*
X68613712Y-37739000D01*
X68619629Y-37732280D01*
X68624784Y-37731083D01*
X68738050Y-37731083D01*
X68746323Y-37734510D01*
G37*
%TD.AperFunction*%
%TD*%
%TA.AperFunction,Conductor*%
%TO.N,unconnected-(U1-RUN-Pad26)*%
G36*
X70331631Y-37642420D02*
G01*
X70337262Y-37648389D01*
X70399093Y-37795466D01*
X70399140Y-37804420D01*
X70399093Y-37804534D01*
X70337262Y-37951610D01*
X70330896Y-37957909D01*
X70322694Y-37958148D01*
X70057918Y-37867704D01*
X70051197Y-37861787D01*
X70050000Y-37856632D01*
X70050000Y-37743367D01*
X70053427Y-37735094D01*
X70057916Y-37732295D01*
X70322695Y-37641851D01*
X70331631Y-37642420D01*
G37*
%TD.AperFunction*%
%TD*%
%TA.AperFunction,Conductor*%
%TO.N,unconnected-(U1-SWD-Pad25)*%
G36*
X66864906Y-37253427D02*
G01*
X66867705Y-37257918D01*
X66958148Y-37522694D01*
X66957579Y-37531631D01*
X66951610Y-37537262D01*
X66804534Y-37599093D01*
X66795580Y-37599140D01*
X66795466Y-37599093D01*
X66648389Y-37537262D01*
X66642090Y-37530896D01*
X66641851Y-37522695D01*
X66732295Y-37257917D01*
X66738212Y-37251197D01*
X66743367Y-37250000D01*
X66856633Y-37250000D01*
X66864906Y-37253427D01*
G37*
%TD.AperFunction*%
%TD*%
%TA.AperFunction,Conductor*%
%TO.N,unconnected-(U1-SWD-Pad25)*%
G36*
X66809952Y-36968788D02*
G01*
X66811387Y-36972253D01*
X66895556Y-37328933D01*
X66895550Y-37334333D01*
X66867142Y-37453513D01*
X66861890Y-37460766D01*
X66855761Y-37462500D01*
X66744239Y-37462500D01*
X66735966Y-37459073D01*
X66732858Y-37453513D01*
X66704449Y-37334333D01*
X66704443Y-37328933D01*
X66788613Y-36972253D01*
X66793848Y-36964988D01*
X66802687Y-36963553D01*
X66809952Y-36968788D01*
G37*
%TD.AperFunction*%
%TD*%
%TA.AperFunction,Conductor*%
%TO.N,unconnected-(U1-SWCLK-Pad24)*%
G36*
X65531980Y-35884169D02*
G01*
X65700993Y-36046547D01*
X65704585Y-36054750D01*
X65704587Y-36054984D01*
X65704587Y-36168106D01*
X65701160Y-36176379D01*
X65692887Y-36179806D01*
X65692695Y-36179804D01*
X65411442Y-36175187D01*
X65403226Y-36171625D01*
X65399934Y-36163557D01*
X65399028Y-36004911D01*
X65402408Y-35996619D01*
X65515635Y-35884299D01*
X65523921Y-35880906D01*
X65531980Y-35884169D01*
G37*
%TD.AperFunction*%
%TD*%
%TA.AperFunction,Conductor*%
%TO.N,unconnected-(U1-SWCLK-Pad24)*%
G36*
X67159886Y-36381525D02*
G01*
X67161701Y-36383871D01*
X67220818Y-36484484D01*
X67222415Y-36490995D01*
X67201234Y-36915145D01*
X67197399Y-36923236D01*
X67190146Y-36926246D01*
X67111342Y-36930271D01*
X67102905Y-36927270D01*
X67099083Y-36919531D01*
X67062550Y-36468142D01*
X67065298Y-36459620D01*
X67065926Y-36458939D01*
X67143341Y-36381524D01*
X67151613Y-36378098D01*
X67159886Y-36381525D01*
G37*
%TD.AperFunction*%
%TD*%
%TA.AperFunction,Conductor*%
%TO.N,+1V1*%
G36*
X64717513Y-34321058D02*
G01*
X64723113Y-34325982D01*
X64908350Y-34645656D01*
X64909533Y-34654532D01*
X64906500Y-34659795D01*
X64777591Y-34788704D01*
X64769318Y-34792131D01*
X64763773Y-34790733D01*
X64472982Y-34634212D01*
X64467321Y-34627274D01*
X64467115Y-34621335D01*
X64515950Y-34405233D01*
X64521116Y-34397920D01*
X64522923Y-34396988D01*
X64708560Y-34321020D01*
X64717513Y-34321058D01*
G37*
%TD.AperFunction*%
%TD*%
%TA.AperFunction,Conductor*%
%TO.N,+3.3V*%
G36*
X74897401Y-50418375D02*
G01*
X75574402Y-50694165D01*
X75580771Y-50700459D01*
X75580823Y-50709414D01*
X75574529Y-50715783D01*
X75574402Y-50715835D01*
X74897401Y-50991624D01*
X74888446Y-50991572D01*
X74887921Y-50991335D01*
X74506634Y-50808186D01*
X74500660Y-50801515D01*
X74500000Y-50797640D01*
X74500000Y-50612359D01*
X74503427Y-50604086D01*
X74506632Y-50601814D01*
X74887921Y-50418663D01*
X74896862Y-50418170D01*
X74897401Y-50418375D01*
G37*
%TD.AperFunction*%
%TD*%
%TA.AperFunction,Conductor*%
%TO.N,+3.3V*%
G36*
X73567688Y-49851399D02*
G01*
X73574005Y-49857743D01*
X73833426Y-50487762D01*
X73833407Y-50496717D01*
X73830880Y-50500490D01*
X73700490Y-50630880D01*
X73692217Y-50634307D01*
X73687762Y-50633426D01*
X73057743Y-50374005D01*
X73051398Y-50367686D01*
X73051378Y-50358735D01*
X73197437Y-50003802D01*
X73203753Y-49997457D01*
X73558735Y-49851378D01*
X73567688Y-49851399D01*
G37*
%TD.AperFunction*%
%TD*%
%TA.AperFunction,Conductor*%
%TO.N,GND*%
G36*
X74399044Y-39022494D02*
G01*
X74480409Y-39103859D01*
X74483836Y-39112132D01*
X74483798Y-39113080D01*
X74435304Y-39709766D01*
X74431218Y-39717734D01*
X74423663Y-39720518D01*
X74041577Y-39721192D01*
X74033297Y-39717780D01*
X74030737Y-39713946D01*
X73885035Y-39359879D01*
X73885056Y-39350928D01*
X73889435Y-39345648D01*
X74384354Y-39020983D01*
X74393151Y-39019312D01*
X74399044Y-39022494D01*
G37*
%TD.AperFunction*%
%TD*%
%TA.AperFunction,Conductor*%
%TO.N,GND*%
G36*
X74660922Y-38218104D02*
G01*
X75088792Y-38394384D01*
X75095136Y-38400704D01*
X75095153Y-38409659D01*
X75094674Y-38410679D01*
X74653806Y-39242815D01*
X74646904Y-39248522D01*
X74641940Y-39248938D01*
X74381701Y-39214677D01*
X74374955Y-39211350D01*
X74291300Y-39127695D01*
X74287873Y-39119422D01*
X74288713Y-39115069D01*
X74645605Y-38224568D01*
X74651863Y-38218165D01*
X74660818Y-38218062D01*
X74660922Y-38218104D01*
G37*
%TD.AperFunction*%
%TD*%
%TA.AperFunction,Conductor*%
%TO.N,+3.3V*%
G36*
X62563868Y-41034945D02*
G01*
X63192800Y-41297000D01*
X63199119Y-41303345D01*
X63200000Y-41307800D01*
X63200000Y-41492199D01*
X63196573Y-41500472D01*
X63192800Y-41502999D01*
X62563870Y-41765053D01*
X62554915Y-41765072D01*
X62548571Y-41758755D01*
X62400875Y-41404499D01*
X62400855Y-41395550D01*
X62548572Y-41041242D01*
X62554918Y-41034926D01*
X62563868Y-41034945D01*
G37*
%TD.AperFunction*%
%TD*%
%TA.AperFunction,Conductor*%
%TO.N,Net-(U1-XIN)*%
G36*
X68864034Y-36390927D02*
G01*
X68867142Y-36396487D01*
X68895550Y-36515666D01*
X68895556Y-36521066D01*
X68811387Y-36877746D01*
X68806152Y-36885011D01*
X68797313Y-36886446D01*
X68790048Y-36881211D01*
X68788613Y-36877746D01*
X68704443Y-36521066D01*
X68704448Y-36515668D01*
X68732857Y-36396487D01*
X68738110Y-36389234D01*
X68744239Y-36387500D01*
X68855761Y-36387500D01*
X68864034Y-36390927D01*
G37*
%TD.AperFunction*%
%TD*%
%TA.AperFunction,Conductor*%
%TO.N,Net-(U1-XIN)*%
G36*
X69254662Y-33228017D02*
G01*
X69262049Y-33233078D01*
X69263062Y-33235003D01*
X69503951Y-33818907D01*
X69503938Y-33827862D01*
X69497597Y-33834185D01*
X69497322Y-33834294D01*
X68598697Y-34178725D01*
X68594510Y-34179500D01*
X68545180Y-34179500D01*
X68523228Y-34183866D01*
X68501277Y-34188233D01*
X68451497Y-34221494D01*
X68451494Y-34221498D01*
X68441302Y-34236750D01*
X68435761Y-34241174D01*
X68288788Y-34297508D01*
X68279837Y-34297269D01*
X68276328Y-34294856D01*
X68194862Y-34213390D01*
X68191435Y-34205117D01*
X68192020Y-34201465D01*
X68556728Y-33091429D01*
X68562565Y-33084641D01*
X68570254Y-33083635D01*
X69254662Y-33228017D01*
G37*
%TD.AperFunction*%
%TD*%
%TA.AperFunction,Conductor*%
%TO.N,Net-(SW5-B)*%
G36*
X78505469Y-38413685D02*
G01*
X78510343Y-38418559D01*
X78946282Y-39242968D01*
X78947120Y-39251883D01*
X78944829Y-39256043D01*
X78568503Y-39695906D01*
X78560521Y-39699965D01*
X78559613Y-39700000D01*
X78440387Y-39700000D01*
X78432114Y-39696573D01*
X78431497Y-39695906D01*
X78055170Y-39256043D01*
X78052395Y-39247529D01*
X78053715Y-39242974D01*
X78489657Y-38418558D01*
X78496554Y-38412847D01*
X78505469Y-38413685D01*
G37*
%TD.AperFunction*%
%TD*%
%TA.AperFunction,Conductor*%
%TO.N,Net-(SW5-B)*%
G36*
X72046831Y-41266948D02*
G01*
X72166013Y-41295357D01*
X72173265Y-41300609D01*
X72174999Y-41306738D01*
X72174999Y-41418261D01*
X72171572Y-41426534D01*
X72166012Y-41429642D01*
X72046833Y-41458050D01*
X72041433Y-41458056D01*
X71770497Y-41394120D01*
X71684752Y-41373886D01*
X71677488Y-41368652D01*
X71676053Y-41359813D01*
X71681288Y-41352548D01*
X71684751Y-41351113D01*
X72041434Y-41266943D01*
X72046831Y-41266948D01*
G37*
%TD.AperFunction*%
%TD*%
%TA.AperFunction,Conductor*%
%TO.N,Net-(SW4-B)*%
G36*
X72046831Y-41666948D02*
G01*
X72166013Y-41695357D01*
X72173265Y-41700609D01*
X72174999Y-41706738D01*
X72174999Y-41818261D01*
X72171572Y-41826534D01*
X72166012Y-41829642D01*
X72046833Y-41858050D01*
X72041433Y-41858056D01*
X71770497Y-41794120D01*
X71684752Y-41773886D01*
X71677488Y-41768652D01*
X71676053Y-41759813D01*
X71681288Y-41752548D01*
X71684751Y-41751113D01*
X72041434Y-41666943D01*
X72046831Y-41666948D01*
G37*
%TD.AperFunction*%
%TD*%
%TA.AperFunction,Conductor*%
%TO.N,Net-(SW4-B)*%
G36*
X79903584Y-38418852D02*
G01*
X79909236Y-38425580D01*
X80174233Y-39242284D01*
X80173527Y-39251211D01*
X80170390Y-39255050D01*
X79696040Y-39632550D01*
X79687432Y-39635020D01*
X79680481Y-39631668D01*
X79597318Y-39548505D01*
X79595089Y-39545390D01*
X79452632Y-39255359D01*
X79452061Y-39246423D01*
X79452795Y-39244724D01*
X79454088Y-39242284D01*
X79887769Y-38423712D01*
X79894670Y-38418007D01*
X79903584Y-38418852D01*
G37*
%TD.AperFunction*%
%TD*%
%TA.AperFunction,Conductor*%
%TO.N,Net-(SW3-B)*%
G36*
X73795409Y-42004085D02*
G01*
X73799925Y-42011818D01*
X73800033Y-42013374D01*
X73800987Y-42395124D01*
X73797581Y-42403405D01*
X73797546Y-42403441D01*
X73525667Y-42674362D01*
X73517387Y-42677774D01*
X73509120Y-42674333D01*
X73508904Y-42674110D01*
X73090056Y-42230882D01*
X73086860Y-42222846D01*
X73086860Y-42107709D01*
X73090287Y-42099436D01*
X73096974Y-42096117D01*
X73786750Y-42001811D01*
X73795409Y-42004085D01*
G37*
%TD.AperFunction*%
%TD*%
%TA.AperFunction,Conductor*%
%TO.N,Net-(SW3-B)*%
G36*
X72046831Y-42066948D02*
G01*
X72166013Y-42095357D01*
X72173265Y-42100609D01*
X72174999Y-42106738D01*
X72174999Y-42218261D01*
X72171572Y-42226534D01*
X72166012Y-42229642D01*
X72046833Y-42258050D01*
X72041433Y-42258056D01*
X71770497Y-42194120D01*
X71684752Y-42173886D01*
X71677488Y-42168652D01*
X71676053Y-42159813D01*
X71681288Y-42152548D01*
X71684751Y-42151113D01*
X72041434Y-42066943D01*
X72046831Y-42066948D01*
G37*
%TD.AperFunction*%
%TD*%
%TA.AperFunction,Conductor*%
%TO.N,Net-(SW2-B)*%
G36*
X72046831Y-42466948D02*
G01*
X72166013Y-42495357D01*
X72173265Y-42500609D01*
X72174999Y-42506738D01*
X72174999Y-42618261D01*
X72171572Y-42626534D01*
X72166012Y-42629642D01*
X72046833Y-42658050D01*
X72041433Y-42658056D01*
X71770497Y-42594120D01*
X71684752Y-42573886D01*
X71677488Y-42568652D01*
X71676053Y-42559813D01*
X71681288Y-42552548D01*
X71684751Y-42551113D01*
X72041434Y-42466943D01*
X72046831Y-42466948D01*
G37*
%TD.AperFunction*%
%TD*%
%TA.AperFunction,Conductor*%
%TO.N,Net-(SW2-B)*%
G36*
X73350259Y-42990866D02*
G01*
X74004554Y-43226304D01*
X74011179Y-43232330D01*
X74011602Y-43241274D01*
X74011413Y-43241765D01*
X73865561Y-43596195D01*
X73859243Y-43602542D01*
X73859193Y-43602563D01*
X73504763Y-43748415D01*
X73495809Y-43748394D01*
X73489491Y-43742047D01*
X73489302Y-43741556D01*
X73305388Y-43230448D01*
X73253864Y-43087260D01*
X73254287Y-43078317D01*
X73256597Y-43075030D01*
X73338026Y-42993601D01*
X73346298Y-42990175D01*
X73350259Y-42990866D01*
G37*
%TD.AperFunction*%
%TD*%
%TA.AperFunction,Conductor*%
%TO.N,Net-(SW2-B)*%
G36*
X76963664Y-42035447D02*
G01*
X76964133Y-42035654D01*
X77593284Y-42331838D01*
X77599309Y-42338462D01*
X77600000Y-42342423D01*
X77600000Y-42457576D01*
X77596573Y-42465849D01*
X77593283Y-42468162D01*
X76964145Y-42764339D01*
X76955201Y-42764762D01*
X76948576Y-42758736D01*
X76948363Y-42758255D01*
X76800875Y-42404499D01*
X76800855Y-42395550D01*
X76948363Y-42041743D01*
X76954710Y-42035426D01*
X76963664Y-42035447D01*
G37*
%TD.AperFunction*%
%TD*%
%TA.AperFunction,Conductor*%
%TO.N,Net-(SW2-B)*%
G36*
X78057654Y-41957637D02*
G01*
X78492699Y-42391718D01*
X78496135Y-42399987D01*
X78492717Y-42408264D01*
X78492699Y-42408282D01*
X78057654Y-42842362D01*
X78049377Y-42845780D01*
X78041784Y-42842970D01*
X77604094Y-42468502D01*
X77600035Y-42460520D01*
X77600000Y-42459612D01*
X77600000Y-42340387D01*
X77603427Y-42332114D01*
X77604094Y-42331497D01*
X78041074Y-41957637D01*
X78041784Y-41957028D01*
X78050298Y-41954254D01*
X78057654Y-41957637D01*
G37*
%TD.AperFunction*%
%TD*%
%TA.AperFunction,Conductor*%
%TO.N,GND*%
G36*
X61344009Y-41650008D02*
G01*
X61473823Y-41779822D01*
X61477250Y-41788095D01*
X61476077Y-41793201D01*
X61244798Y-42270085D01*
X61238105Y-42276033D01*
X61229827Y-42275802D01*
X60964610Y-42166890D01*
X60958258Y-42160577D01*
X60957771Y-42159163D01*
X60876667Y-41863642D01*
X60877782Y-41854757D01*
X60883132Y-41849884D01*
X61330920Y-41647617D01*
X61339870Y-41647336D01*
X61344009Y-41650008D01*
G37*
%TD.AperFunction*%
%TD*%
%TA.AperFunction,Conductor*%
%TO.N,GND*%
G36*
X61607633Y-39685571D02*
G01*
X61793453Y-39845549D01*
X61797486Y-39853544D01*
X61796540Y-39859101D01*
X61703066Y-40072985D01*
X61696613Y-40079194D01*
X61692345Y-40080000D01*
X61507655Y-40080000D01*
X61499382Y-40076573D01*
X61496934Y-40072985D01*
X61403459Y-39859101D01*
X61403286Y-39850148D01*
X61406543Y-39845552D01*
X61592366Y-39685571D01*
X61600872Y-39682772D01*
X61607633Y-39685571D01*
G37*
%TD.AperFunction*%
%TD*%
%TA.AperFunction,Conductor*%
%TO.N,+3.3V*%
G36*
X68100473Y-44203427D02*
G01*
X68103000Y-44207200D01*
X68365053Y-44836129D01*
X68365072Y-44845084D01*
X68358755Y-44851428D01*
X68004502Y-44999123D01*
X67995548Y-44999144D01*
X67995498Y-44999123D01*
X67641244Y-44851428D01*
X67634926Y-44845081D01*
X67634945Y-44836131D01*
X67897000Y-44207199D01*
X67903345Y-44200881D01*
X67907800Y-44200000D01*
X68092200Y-44200000D01*
X68100473Y-44203427D01*
G37*
%TD.AperFunction*%
%TD*%
%TA.AperFunction,Conductor*%
%TO.N,+3.3V*%
G36*
X70700473Y-40403427D02*
G01*
X70703000Y-40407200D01*
X70965053Y-41036129D01*
X70965072Y-41045084D01*
X70958755Y-41051428D01*
X70604502Y-41199123D01*
X70595548Y-41199144D01*
X70595498Y-41199123D01*
X70241244Y-41051428D01*
X70234926Y-41045081D01*
X70234945Y-41036131D01*
X70497000Y-40407199D01*
X70503345Y-40400881D01*
X70507800Y-40400000D01*
X70692200Y-40400000D01*
X70700473Y-40403427D01*
G37*
%TD.AperFunction*%
%TD*%
%TA.AperFunction,Conductor*%
%TO.N,+3.3V*%
G36*
X70958755Y-41348571D02*
G01*
X70965073Y-41354918D01*
X70965053Y-41363870D01*
X70703000Y-41992800D01*
X70696655Y-41999119D01*
X70692200Y-42000000D01*
X70507800Y-42000000D01*
X70499527Y-41996573D01*
X70497000Y-41992800D01*
X70234945Y-41363868D01*
X70234927Y-41354915D01*
X70241242Y-41348572D01*
X70595500Y-41200875D01*
X70604449Y-41200855D01*
X70958755Y-41348571D01*
G37*
%TD.AperFunction*%
%TD*%
%TA.AperFunction,Conductor*%
%TO.N,+3.3V*%
G36*
X64099591Y-44891295D02*
G01*
X64228500Y-45020204D01*
X64231927Y-45028477D01*
X64230350Y-45034343D01*
X64045113Y-45354016D01*
X64038000Y-45359456D01*
X64030559Y-45358978D01*
X63844931Y-45283014D01*
X63838572Y-45276709D01*
X63837950Y-45274765D01*
X63789115Y-45058665D01*
X63790634Y-45049843D01*
X63794979Y-45045789D01*
X64085773Y-44889265D01*
X64094682Y-44888362D01*
X64099591Y-44891295D01*
G37*
%TD.AperFunction*%
%TD*%
%TA.AperFunction,Conductor*%
%TO.N,GND*%
G36*
X83400587Y-46381269D02*
G01*
X83403052Y-46384895D01*
X83493405Y-46593692D01*
X83493545Y-46602646D01*
X83487314Y-46609077D01*
X83487174Y-46609136D01*
X82810772Y-46891502D01*
X82801817Y-46891527D01*
X82795478Y-46885236D01*
X82678116Y-46605856D01*
X82678071Y-46596902D01*
X82684371Y-46590538D01*
X83197856Y-46378726D01*
X83202319Y-46377842D01*
X83392314Y-46377842D01*
X83400587Y-46381269D01*
G37*
%TD.AperFunction*%
%TD*%
%TA.AperFunction,Conductor*%
%TO.N,GND*%
G36*
X83305469Y-42413685D02*
G01*
X83310343Y-42418559D01*
X83746465Y-43243316D01*
X83747303Y-43252231D01*
X83745357Y-43255968D01*
X83403513Y-43695483D01*
X83395729Y-43699910D01*
X83394278Y-43700000D01*
X83205722Y-43700000D01*
X83197449Y-43696573D01*
X83196487Y-43695483D01*
X82854642Y-43255968D01*
X82852267Y-43247334D01*
X82853534Y-43243316D01*
X83289657Y-42418559D01*
X83296554Y-42412847D01*
X83305469Y-42413685D01*
G37*
%TD.AperFunction*%
%TD*%
%TA.AperFunction,Conductor*%
%TO.N,GND*%
G36*
X75548390Y-42217973D02*
G01*
X75554601Y-42224062D01*
X75935684Y-43090161D01*
X75935879Y-43099114D01*
X75933248Y-43103146D01*
X75800698Y-43235696D01*
X75792949Y-43239111D01*
X75557396Y-43249668D01*
X75548978Y-43246615D01*
X75546533Y-43243457D01*
X75544230Y-43239111D01*
X75105324Y-42410678D01*
X75104480Y-42401765D01*
X75110187Y-42394863D01*
X75111198Y-42394388D01*
X75539436Y-42217956D01*
X75548390Y-42217973D01*
G37*
%TD.AperFunction*%
%TD*%
%TA.AperFunction,Conductor*%
%TO.N,GND*%
G36*
X82860563Y-42217955D02*
G01*
X83288792Y-42394384D01*
X83295136Y-42400704D01*
X83295153Y-42409659D01*
X83294674Y-42410679D01*
X82853466Y-43243457D01*
X82846564Y-43249164D01*
X82842603Y-43249668D01*
X82607050Y-43239111D01*
X82599301Y-43235696D01*
X82466751Y-43103146D01*
X82463324Y-43094873D01*
X82464315Y-43090161D01*
X82763287Y-42410679D01*
X82845398Y-42224061D01*
X82851866Y-42217870D01*
X82860563Y-42217955D01*
G37*
%TD.AperFunction*%
%TD*%
%TA.AperFunction,Conductor*%
%TO.N,GND*%
G36*
X83305469Y-38413685D02*
G01*
X83310343Y-38418559D01*
X83746465Y-39243316D01*
X83747303Y-39252231D01*
X83745357Y-39255968D01*
X83403513Y-39695483D01*
X83395729Y-39699910D01*
X83394278Y-39700000D01*
X83205722Y-39700000D01*
X83197449Y-39696573D01*
X83196487Y-39695483D01*
X82854642Y-39255968D01*
X82852267Y-39247334D01*
X82853534Y-39243316D01*
X83289657Y-38418559D01*
X83296554Y-38412847D01*
X83305469Y-38413685D01*
G37*
%TD.AperFunction*%
%TD*%
%TA.AperFunction,Conductor*%
%TO.N,GND*%
G36*
X83402551Y-41103427D02*
G01*
X83403513Y-41104517D01*
X83745357Y-41544031D01*
X83747732Y-41552665D01*
X83746465Y-41556683D01*
X83310343Y-42381440D01*
X83303446Y-42387152D01*
X83294531Y-42386314D01*
X83289657Y-42381440D01*
X82853534Y-41556683D01*
X82852696Y-41547768D01*
X82854640Y-41544033D01*
X83196486Y-41104517D01*
X83204271Y-41100090D01*
X83205722Y-41100000D01*
X83394278Y-41100000D01*
X83402551Y-41103427D01*
G37*
%TD.AperFunction*%
%TD*%
%TA.AperFunction,Conductor*%
%TO.N,GND*%
G36*
X83402551Y-37103427D02*
G01*
X83403513Y-37104517D01*
X83745357Y-37544031D01*
X83747732Y-37552665D01*
X83746465Y-37556683D01*
X83310343Y-38381440D01*
X83303446Y-38387152D01*
X83294531Y-38386314D01*
X83289657Y-38381440D01*
X82853534Y-37556683D01*
X82852696Y-37547768D01*
X82854640Y-37544033D01*
X83196486Y-37104517D01*
X83204271Y-37100090D01*
X83205722Y-37100000D01*
X83394278Y-37100000D01*
X83402551Y-37103427D01*
G37*
%TD.AperFunction*%
%TD*%
%TA.AperFunction,Conductor*%
%TO.N,GND*%
G36*
X83305469Y-34413685D02*
G01*
X83310343Y-34418559D01*
X83746465Y-35243316D01*
X83747303Y-35252231D01*
X83745357Y-35255968D01*
X83403513Y-35695483D01*
X83395729Y-35699910D01*
X83394278Y-35700000D01*
X83205722Y-35700000D01*
X83197449Y-35696573D01*
X83196487Y-35695483D01*
X82854642Y-35255968D01*
X82852267Y-35247334D01*
X82853534Y-35243316D01*
X83289657Y-34418559D01*
X83296554Y-34412847D01*
X83305469Y-34413685D01*
G37*
%TD.AperFunction*%
%TD*%
%TA.AperFunction,Conductor*%
%TO.N,GND*%
G36*
X82851021Y-33553384D02*
G01*
X82853465Y-33556541D01*
X82855877Y-33561092D01*
X83294674Y-34389320D01*
X83295519Y-34398234D01*
X83289812Y-34405136D01*
X83288792Y-34405615D01*
X82860564Y-34582043D01*
X82851609Y-34582026D01*
X82845398Y-34575937D01*
X82464315Y-33709838D01*
X82464120Y-33700885D01*
X82466749Y-33696855D01*
X82599302Y-33564302D01*
X82607048Y-33560888D01*
X82842604Y-33550331D01*
X82851021Y-33553384D01*
G37*
%TD.AperFunction*%
%TD*%
%TA.AperFunction,Conductor*%
%TO.N,GND*%
G36*
X75596717Y-33766592D02*
G01*
X75600490Y-33769119D01*
X75730880Y-33899509D01*
X75734307Y-33907782D01*
X75733426Y-33912237D01*
X75474005Y-34542256D01*
X75467686Y-34548601D01*
X75458734Y-34548621D01*
X75103804Y-34402563D01*
X75097457Y-34396245D01*
X75097436Y-34396195D01*
X74951378Y-34041265D01*
X74951399Y-34032311D01*
X74957742Y-34025994D01*
X75587764Y-33766573D01*
X75596717Y-33766592D01*
G37*
%TD.AperFunction*%
%TD*%
%TA.AperFunction,Conductor*%
%TO.N,GND*%
G36*
X75792950Y-33560888D02*
G01*
X75800698Y-33564303D01*
X75933248Y-33696853D01*
X75936675Y-33705126D01*
X75935684Y-33709838D01*
X75554601Y-34575937D01*
X75548133Y-34582129D01*
X75539435Y-34582043D01*
X75111207Y-34405615D01*
X75104863Y-34399295D01*
X75104846Y-34390340D01*
X75105318Y-34389334D01*
X75546534Y-33556540D01*
X75553435Y-33550835D01*
X75557393Y-33550331D01*
X75792950Y-33560888D01*
G37*
%TD.AperFunction*%
%TD*%
%TA.AperFunction,Conductor*%
%TO.N,GND*%
G36*
X66851428Y-32841244D02*
G01*
X66999123Y-33195498D01*
X66999144Y-33204452D01*
X66999123Y-33204502D01*
X66851428Y-33558755D01*
X66845081Y-33565073D01*
X66836129Y-33565053D01*
X66207200Y-33302999D01*
X66200881Y-33296654D01*
X66200000Y-33292199D01*
X66200000Y-33107800D01*
X66203427Y-33099527D01*
X66207200Y-33097000D01*
X66836131Y-32834945D01*
X66845084Y-32834927D01*
X66851428Y-32841244D01*
G37*
%TD.AperFunction*%
%TD*%
%TA.AperFunction,Conductor*%
%TO.N,GND*%
G36*
X66367593Y-32636494D02*
G01*
X67050319Y-33220409D01*
X67054379Y-33228391D01*
X67051606Y-33236906D01*
X67050327Y-33238186D01*
X66368641Y-33822284D01*
X66360129Y-33825064D01*
X66352358Y-33821255D01*
X65880720Y-33300720D01*
X65748247Y-33168247D01*
X65744820Y-33159974D01*
X65748247Y-33151701D01*
X65748920Y-33151077D01*
X66352398Y-32636482D01*
X66360915Y-32633723D01*
X66367593Y-32636494D01*
G37*
%TD.AperFunction*%
%TD*%
%TA.AperFunction,Conductor*%
%TO.N,GND*%
G36*
X65539591Y-33371295D02*
G01*
X65668500Y-33500204D01*
X65671927Y-33508477D01*
X65670350Y-33514343D01*
X65485113Y-33834016D01*
X65478000Y-33839456D01*
X65470559Y-33838978D01*
X65284931Y-33763014D01*
X65278572Y-33756709D01*
X65277950Y-33754765D01*
X65229115Y-33538665D01*
X65230634Y-33529843D01*
X65234979Y-33525789D01*
X65525773Y-33369265D01*
X65534682Y-33368362D01*
X65539591Y-33371295D01*
G37*
%TD.AperFunction*%
%TD*%
%TA.AperFunction,Conductor*%
%TO.N,GND*%
G36*
X64697101Y-33563459D02*
G01*
X64910985Y-33656934D01*
X64917194Y-33663387D01*
X64918000Y-33667655D01*
X64918000Y-33852344D01*
X64914573Y-33860617D01*
X64910985Y-33863065D01*
X64697101Y-33956540D01*
X64688148Y-33956713D01*
X64683549Y-33953453D01*
X64605731Y-33863065D01*
X64523571Y-33767633D01*
X64520772Y-33759128D01*
X64523572Y-33752366D01*
X64683551Y-33566544D01*
X64691544Y-33562513D01*
X64697101Y-33563459D01*
G37*
%TD.AperFunction*%
%TD*%
%TA.AperFunction,Conductor*%
%TO.N,GND*%
G36*
X65114450Y-33566546D02*
G01*
X65274427Y-33752366D01*
X65277227Y-33760872D01*
X65274427Y-33767634D01*
X65114450Y-33953453D01*
X65106455Y-33957486D01*
X65100898Y-33956540D01*
X64887015Y-33863065D01*
X64880806Y-33856612D01*
X64880000Y-33852344D01*
X64880000Y-33667655D01*
X64883427Y-33659382D01*
X64887015Y-33656934D01*
X65100899Y-33563458D01*
X65109851Y-33563286D01*
X65114450Y-33566546D01*
G37*
%TD.AperFunction*%
%TD*%
%TA.AperFunction,Conductor*%
%TO.N,GND*%
G36*
X61859795Y-34491499D02*
G01*
X61988704Y-34620408D01*
X61992131Y-34628681D01*
X61990733Y-34634226D01*
X61834212Y-34925016D01*
X61827274Y-34930677D01*
X61821331Y-34930883D01*
X61605234Y-34882049D01*
X61597920Y-34876883D01*
X61596985Y-34875068D01*
X61521020Y-34689440D01*
X61521058Y-34680486D01*
X61525981Y-34674886D01*
X61845657Y-34489648D01*
X61854532Y-34488466D01*
X61859795Y-34491499D01*
G37*
%TD.AperFunction*%
%TD*%
%TA.AperFunction,Conductor*%
%TO.N,GND*%
G36*
X63590450Y-33566546D02*
G01*
X63750427Y-33752366D01*
X63753227Y-33760872D01*
X63750427Y-33767634D01*
X63590450Y-33953453D01*
X63582455Y-33957486D01*
X63576898Y-33956540D01*
X63363015Y-33863065D01*
X63356806Y-33856612D01*
X63356000Y-33852344D01*
X63356000Y-33667655D01*
X63359427Y-33659382D01*
X63363015Y-33656934D01*
X63576899Y-33563458D01*
X63585851Y-33563286D01*
X63590450Y-33566546D01*
G37*
%TD.AperFunction*%
%TD*%
%TA.AperFunction,Conductor*%
%TO.N,GND*%
G36*
X63935101Y-33563459D02*
G01*
X64148985Y-33656934D01*
X64155194Y-33663387D01*
X64156000Y-33667655D01*
X64156000Y-33852344D01*
X64152573Y-33860617D01*
X64148985Y-33863065D01*
X63935101Y-33956540D01*
X63926148Y-33956713D01*
X63921549Y-33953453D01*
X63843731Y-33863065D01*
X63761571Y-33767633D01*
X63758772Y-33759128D01*
X63761572Y-33752366D01*
X63921551Y-33566544D01*
X63929544Y-33562513D01*
X63935101Y-33563459D01*
G37*
%TD.AperFunction*%
%TD*%
%TA.AperFunction,Conductor*%
%TO.N,GND*%
G36*
X64352450Y-33566546D02*
G01*
X64512427Y-33752366D01*
X64515227Y-33760872D01*
X64512427Y-33767634D01*
X64352450Y-33953453D01*
X64344455Y-33957486D01*
X64338898Y-33956540D01*
X64125015Y-33863065D01*
X64118806Y-33856612D01*
X64118000Y-33852344D01*
X64118000Y-33667655D01*
X64121427Y-33659382D01*
X64125015Y-33656934D01*
X64338899Y-33563458D01*
X64347851Y-33563286D01*
X64352450Y-33566546D01*
G37*
%TD.AperFunction*%
%TD*%
%TA.AperFunction,Conductor*%
%TO.N,+1V1*%
G36*
X63935101Y-34203459D02*
G01*
X64148985Y-34296934D01*
X64155194Y-34303387D01*
X64156000Y-34307655D01*
X64156000Y-34492344D01*
X64152573Y-34500617D01*
X64148985Y-34503065D01*
X63935101Y-34596540D01*
X63926148Y-34596713D01*
X63921549Y-34593453D01*
X63843731Y-34503065D01*
X63761571Y-34407633D01*
X63758772Y-34399128D01*
X63761572Y-34392366D01*
X63921551Y-34206544D01*
X63929544Y-34202513D01*
X63935101Y-34203459D01*
G37*
%TD.AperFunction*%
%TD*%
%TA.AperFunction,Conductor*%
%TO.N,+1V1*%
G36*
X64352450Y-34206546D02*
G01*
X64512427Y-34392366D01*
X64515227Y-34400872D01*
X64512427Y-34407634D01*
X64352450Y-34593453D01*
X64344455Y-34597486D01*
X64338898Y-34596540D01*
X64125015Y-34503065D01*
X64118806Y-34496612D01*
X64118000Y-34492344D01*
X64118000Y-34307655D01*
X64121427Y-34299382D01*
X64125015Y-34296934D01*
X64338899Y-34203458D01*
X64347851Y-34203286D01*
X64352450Y-34206546D01*
G37*
%TD.AperFunction*%
%TD*%
%TA.AperFunction,Conductor*%
%TO.N,VBUS*%
G36*
X59527694Y-39657833D02*
G01*
X59533917Y-39664272D01*
X59534056Y-39664642D01*
X59542242Y-39687650D01*
X59542741Y-39693604D01*
X59523981Y-39799998D01*
X59523981Y-39800001D01*
X59543912Y-39913041D01*
X59543913Y-39913044D01*
X59543914Y-39913045D01*
X59565250Y-39950000D01*
X59601308Y-40012455D01*
X59679412Y-40077993D01*
X59682914Y-40083034D01*
X60094442Y-41239698D01*
X60093987Y-41248641D01*
X60087341Y-41254643D01*
X60083419Y-41255320D01*
X59901452Y-41255320D01*
X59898592Y-41254965D01*
X58698341Y-40952445D01*
X58691157Y-40947100D01*
X58689549Y-40940037D01*
X58779345Y-39956173D01*
X58783509Y-39948248D01*
X58786697Y-39946358D01*
X59518743Y-39657680D01*
X59527694Y-39657833D01*
G37*
%TD.AperFunction*%
%TD*%
%TA.AperFunction,Conductor*%
%TO.N,VBUS*%
G36*
X60100791Y-41577427D02*
G01*
X60103139Y-41580792D01*
X60265578Y-41932277D01*
X60265938Y-41941224D01*
X60262450Y-41946171D01*
X60007493Y-42158752D01*
X59998944Y-42161418D01*
X59992507Y-42158752D01*
X59880383Y-42065264D01*
X59737548Y-41946170D01*
X59733390Y-41938241D01*
X59734420Y-41932280D01*
X59896861Y-41580791D01*
X59903443Y-41574719D01*
X59907482Y-41574000D01*
X60092518Y-41574000D01*
X60100791Y-41577427D01*
G37*
%TD.AperFunction*%
%TD*%
%TA.AperFunction,Conductor*%
%TO.N,VBUS*%
G36*
X60102011Y-42858427D02*
G01*
X60103473Y-42860210D01*
X60296292Y-43149439D01*
X60298030Y-43158224D01*
X60297092Y-43161018D01*
X60010535Y-43754192D01*
X60003851Y-43760151D01*
X59994911Y-43759638D01*
X59989465Y-43754192D01*
X59702907Y-43161018D01*
X59702394Y-43152078D01*
X59703707Y-43149439D01*
X59896527Y-42860210D01*
X59903967Y-42855227D01*
X59906262Y-42855000D01*
X60093738Y-42855000D01*
X60102011Y-42858427D01*
G37*
%TD.AperFunction*%
%TD*%
%TA.AperFunction,Conductor*%
%TO.N,VBUS*%
G36*
X60102011Y-42858427D02*
G01*
X60103473Y-42860210D01*
X60296292Y-43149439D01*
X60298030Y-43158224D01*
X60297092Y-43161018D01*
X60010535Y-43754192D01*
X60003851Y-43760151D01*
X59994911Y-43759638D01*
X59989465Y-43754192D01*
X59702907Y-43161018D01*
X59702394Y-43152078D01*
X59703707Y-43149439D01*
X59896527Y-42860210D01*
X59903967Y-42855227D01*
X59906262Y-42855000D01*
X60093738Y-42855000D01*
X60102011Y-42858427D01*
G37*
%TD.AperFunction*%
%TD*%
%TA.AperFunction,Conductor*%
%TO.N,VBUS*%
G36*
X60007491Y-42169246D02*
G01*
X60262450Y-42381829D01*
X60266609Y-42389758D01*
X60265578Y-42395722D01*
X60103139Y-42747208D01*
X60096557Y-42753281D01*
X60092518Y-42754000D01*
X59907482Y-42754000D01*
X59899209Y-42750573D01*
X59896861Y-42747208D01*
X59734420Y-42395720D01*
X59734061Y-42386775D01*
X59737546Y-42381831D01*
X59992508Y-42169246D01*
X60001056Y-42166581D01*
X60007491Y-42169246D01*
G37*
%TD.AperFunction*%
%TD*%
%TA.AperFunction,Conductor*%
%TO.N,GND*%
G36*
X60902011Y-42858427D02*
G01*
X60903473Y-42860210D01*
X61096292Y-43149439D01*
X61098030Y-43158224D01*
X61097092Y-43161018D01*
X60810535Y-43754192D01*
X60803851Y-43760151D01*
X60794911Y-43759638D01*
X60789465Y-43754192D01*
X60502907Y-43161018D01*
X60502394Y-43152078D01*
X60503707Y-43149439D01*
X60696527Y-42860210D01*
X60703967Y-42855227D01*
X60706262Y-42855000D01*
X60893738Y-42855000D01*
X60902011Y-42858427D01*
G37*
%TD.AperFunction*%
%TD*%
%TA.AperFunction,Conductor*%
%TO.N,GND*%
G36*
X60902011Y-42858427D02*
G01*
X60903473Y-42860210D01*
X61096292Y-43149439D01*
X61098030Y-43158224D01*
X61097092Y-43161018D01*
X60810535Y-43754192D01*
X60803851Y-43760151D01*
X60794911Y-43759638D01*
X60789465Y-43754192D01*
X60502907Y-43161018D01*
X60502394Y-43152078D01*
X60503707Y-43149439D01*
X60696527Y-42860210D01*
X60703967Y-42855227D01*
X60706262Y-42855000D01*
X60893738Y-42855000D01*
X60902011Y-42858427D01*
G37*
%TD.AperFunction*%
%TD*%
%TA.AperFunction,Conductor*%
%TO.N,GND*%
G36*
X60966358Y-42171661D02*
G01*
X61165978Y-42443556D01*
X61168112Y-42452253D01*
X61165204Y-42458351D01*
X60910128Y-42738884D01*
X60903482Y-42746193D01*
X60895380Y-42750009D01*
X60894825Y-42750022D01*
X60711152Y-42750022D01*
X60702879Y-42746595D01*
X60699465Y-42738884D01*
X60680333Y-42340930D01*
X60683359Y-42332502D01*
X60685920Y-42330384D01*
X60950830Y-42168599D01*
X60959676Y-42167212D01*
X60966358Y-42171661D01*
G37*
%TD.AperFunction*%
%TD*%
%TA.AperFunction,Conductor*%
%TO.N,VBUS*%
G36*
X60002725Y-43796961D02*
G01*
X60008676Y-43803652D01*
X60008913Y-43804415D01*
X60168052Y-44388542D01*
X60166920Y-44397425D01*
X60165136Y-44399789D01*
X60091513Y-44475216D01*
X60090264Y-44476325D01*
X60079549Y-44484549D01*
X60069258Y-44497957D01*
X60068803Y-44498482D01*
X59891887Y-44679737D01*
X59883656Y-44683264D01*
X59875342Y-44679938D01*
X59875241Y-44679838D01*
X59744370Y-44548967D01*
X59741370Y-44543827D01*
X59701183Y-44399256D01*
X59701927Y-44391022D01*
X59987096Y-43802387D01*
X59993786Y-43796438D01*
X60002725Y-43796961D01*
G37*
%TD.AperFunction*%
%TD*%
%TA.AperFunction,Conductor*%
%TO.N,VBUS*%
G36*
X60002725Y-43796961D02*
G01*
X60008676Y-43803652D01*
X60008913Y-43804415D01*
X60168052Y-44388542D01*
X60166920Y-44397425D01*
X60165136Y-44399789D01*
X60091513Y-44475216D01*
X60090264Y-44476325D01*
X60079549Y-44484549D01*
X60069258Y-44497957D01*
X60068803Y-44498482D01*
X59891887Y-44679737D01*
X59883656Y-44683264D01*
X59875342Y-44679938D01*
X59875241Y-44679838D01*
X59744370Y-44548967D01*
X59741370Y-44543827D01*
X59701183Y-44399256D01*
X59701927Y-44391022D01*
X59987096Y-43802387D01*
X59993786Y-43796438D01*
X60002725Y-43796961D01*
G37*
%TD.AperFunction*%
%TD*%
%TA.AperFunction,Conductor*%
%TO.N,VBUS*%
G36*
X55212956Y-43802618D02*
G01*
X55213491Y-43803600D01*
X55498499Y-44391903D01*
X55499585Y-44398413D01*
X55483328Y-44532412D01*
X55479986Y-44539276D01*
X55349547Y-44669715D01*
X55341274Y-44673142D01*
X55333150Y-44669862D01*
X55053109Y-44399661D01*
X55049535Y-44391450D01*
X55049864Y-44388478D01*
X55191594Y-43805933D01*
X55196879Y-43798707D01*
X55205728Y-43797333D01*
X55212956Y-43802618D01*
G37*
%TD.AperFunction*%
%TD*%
%TA.AperFunction,Conductor*%
%TO.N,VBUS*%
G36*
X55212956Y-43802618D02*
G01*
X55213491Y-43803600D01*
X55498499Y-44391903D01*
X55499585Y-44398413D01*
X55483328Y-44532412D01*
X55479986Y-44539276D01*
X55349547Y-44669715D01*
X55341274Y-44673142D01*
X55333150Y-44669862D01*
X55053109Y-44399661D01*
X55049535Y-44391450D01*
X55049864Y-44388478D01*
X55191594Y-43805933D01*
X55196879Y-43798707D01*
X55205728Y-43797333D01*
X55212956Y-43802618D01*
G37*
%TD.AperFunction*%
%TD*%
%TA.AperFunction,Conductor*%
%TO.N,GND*%
G36*
X55464342Y-41759648D02*
G01*
X55582833Y-41828309D01*
X55784017Y-41944886D01*
X55789457Y-41951999D01*
X55788979Y-41959440D01*
X55713014Y-42145068D01*
X55706709Y-42151427D01*
X55704765Y-42152049D01*
X55488668Y-42200883D01*
X55479843Y-42199364D01*
X55475788Y-42195017D01*
X55372639Y-42003384D01*
X55319266Y-41904226D01*
X55318362Y-41895317D01*
X55321293Y-41890410D01*
X55450205Y-41761498D01*
X55458477Y-41758072D01*
X55464342Y-41759648D01*
G37*
%TD.AperFunction*%
%TD*%
%TA.AperFunction,Conductor*%
%TO.N,GND*%
G36*
X54925765Y-39758762D02*
G01*
X54931164Y-39765907D01*
X54931471Y-39767579D01*
X55110430Y-41404041D01*
X55107922Y-41412638D01*
X55107072Y-41413586D01*
X54975843Y-41544815D01*
X54967570Y-41548242D01*
X54961913Y-41546783D01*
X53889850Y-40954552D01*
X53884265Y-40947552D01*
X53884292Y-40940977D01*
X54177411Y-39955618D01*
X54183053Y-39948667D01*
X54185676Y-39947633D01*
X54916898Y-39757527D01*
X54925765Y-39758762D01*
G37*
%TD.AperFunction*%
%TD*%
%TA.AperFunction,Conductor*%
%TO.N,GND*%
G36*
X55543219Y-41960721D02*
G01*
X55546955Y-41963548D01*
X55704200Y-42142272D01*
X55707092Y-42150746D01*
X55704200Y-42157728D01*
X55546955Y-42336451D01*
X55538917Y-42340399D01*
X55534277Y-42339756D01*
X55287806Y-42252755D01*
X55281145Y-42246770D01*
X55280000Y-42241722D01*
X55280000Y-42058277D01*
X55283427Y-42050004D01*
X55287803Y-42047245D01*
X55534278Y-41960243D01*
X55543219Y-41960721D01*
G37*
%TD.AperFunction*%
%TD*%
%TA.AperFunction,Conductor*%
%TO.N,GND*%
G36*
X54408288Y-42822052D02*
G01*
X54409614Y-42823193D01*
X54541181Y-42954760D01*
X54541629Y-42955262D01*
X54695435Y-43149242D01*
X54697890Y-43157854D01*
X54696796Y-43161612D01*
X54410781Y-43751993D01*
X54404090Y-43757944D01*
X54395151Y-43757421D01*
X54389407Y-43751282D01*
X54150517Y-43161068D01*
X54150589Y-43152113D01*
X54151944Y-43149737D01*
X54391927Y-42824518D01*
X54399596Y-42819897D01*
X54408288Y-42822052D01*
G37*
%TD.AperFunction*%
%TD*%
%TA.AperFunction,Conductor*%
%TO.N,GND*%
G36*
X54408288Y-42822052D02*
G01*
X54409614Y-42823193D01*
X54541181Y-42954760D01*
X54541629Y-42955262D01*
X54695435Y-43149242D01*
X54697890Y-43157854D01*
X54696796Y-43161612D01*
X54410781Y-43751993D01*
X54404090Y-43757944D01*
X54395151Y-43757421D01*
X54389407Y-43751282D01*
X54150517Y-43161068D01*
X54150589Y-43152113D01*
X54151944Y-43149737D01*
X54391927Y-42824518D01*
X54399596Y-42819897D01*
X54408288Y-42822052D01*
G37*
%TD.AperFunction*%
%TD*%
%TA.AperFunction,Conductor*%
%TO.N,+3.3V*%
G36*
X62947356Y-40841436D02*
G01*
X62949845Y-40843333D01*
X63080226Y-40973714D01*
X63083653Y-40981987D01*
X63082192Y-40987648D01*
X62774598Y-41543945D01*
X62767596Y-41549527D01*
X62759907Y-41549104D01*
X62403804Y-41402563D01*
X62397457Y-41396245D01*
X62397436Y-41396195D01*
X62251958Y-41042673D01*
X62251979Y-41033721D01*
X62258326Y-41027403D01*
X62259661Y-41026947D01*
X62938470Y-40840325D01*
X62947356Y-40841436D01*
G37*
%TD.AperFunction*%
%TD*%
%TA.AperFunction,Conductor*%
%TO.N,+3.3V*%
G36*
X63514361Y-40318579D02*
G01*
X63522198Y-40322909D01*
X63523539Y-40325016D01*
X63615710Y-40511240D01*
X63616309Y-40520175D01*
X63612198Y-40525825D01*
X63342372Y-40726114D01*
X63333686Y-40728293D01*
X63327125Y-40724992D01*
X63202249Y-40600116D01*
X63198822Y-40591843D01*
X63200792Y-40585348D01*
X63245966Y-40517740D01*
X63260500Y-40444674D01*
X63260500Y-40385509D01*
X63261079Y-40381875D01*
X63287041Y-40302419D01*
X63292866Y-40295621D01*
X63299467Y-40294428D01*
X63514361Y-40318579D01*
G37*
%TD.AperFunction*%
%TD*%
%TA.AperFunction,Conductor*%
%TO.N,+3.3V*%
G36*
X63622073Y-39915995D02*
G01*
X63751838Y-40045760D01*
X63755265Y-40054033D01*
X63755262Y-40054281D01*
X63750224Y-40292369D01*
X63746623Y-40300567D01*
X63739424Y-40303787D01*
X63526366Y-40320163D01*
X63517854Y-40317380D01*
X63515540Y-40314687D01*
X63399174Y-40128033D01*
X63397706Y-40119199D01*
X63400978Y-40113425D01*
X63467425Y-40049290D01*
X63605677Y-39915849D01*
X63614007Y-39912570D01*
X63622073Y-39915995D01*
G37*
%TD.AperFunction*%
%TD*%
%TA.AperFunction,Conductor*%
%TO.N,GND*%
G36*
X62875104Y-40318628D02*
G01*
X62882386Y-40323841D01*
X62883286Y-40325604D01*
X62958629Y-40510264D01*
X62958581Y-40519219D01*
X62953344Y-40524985D01*
X62571381Y-40730710D01*
X62562472Y-40731616D01*
X62555532Y-40725957D01*
X62554133Y-40720409D01*
X62554133Y-40541988D01*
X62554791Y-40538121D01*
X62564547Y-40510264D01*
X62646530Y-40276165D01*
X62652498Y-40269490D01*
X62660222Y-40268637D01*
X62875104Y-40318628D01*
G37*
%TD.AperFunction*%
%TD*%
%TA.AperFunction,Conductor*%
%TO.N,GND*%
G36*
X61775721Y-40450242D02*
G01*
X62022195Y-40537244D01*
X62028855Y-40543229D01*
X62030000Y-40548277D01*
X62030000Y-40731722D01*
X62026573Y-40739995D01*
X62022194Y-40742755D01*
X61775722Y-40829756D01*
X61766780Y-40829278D01*
X61763044Y-40826451D01*
X61689406Y-40742755D01*
X61605798Y-40647727D01*
X61602907Y-40639254D01*
X61605799Y-40632272D01*
X61679700Y-40548277D01*
X61763046Y-40453546D01*
X61771082Y-40449600D01*
X61775721Y-40450242D01*
G37*
%TD.AperFunction*%
%TD*%
%TA.AperFunction,Conductor*%
%TO.N,GND*%
G36*
X61700618Y-39283427D02*
G01*
X61703066Y-39287015D01*
X61796540Y-39500897D01*
X61796713Y-39509850D01*
X61793453Y-39514449D01*
X61607634Y-39674427D01*
X61599128Y-39677227D01*
X61592366Y-39674427D01*
X61406546Y-39514449D01*
X61402513Y-39506454D01*
X61403458Y-39500899D01*
X61496934Y-39287014D01*
X61503387Y-39280806D01*
X61507655Y-39280000D01*
X61692345Y-39280000D01*
X61700618Y-39283427D01*
G37*
%TD.AperFunction*%
%TD*%
%TA.AperFunction,Conductor*%
%TO.N,GND*%
G36*
X61607633Y-38725571D02*
G01*
X61793453Y-38885549D01*
X61797486Y-38893544D01*
X61796540Y-38899101D01*
X61703066Y-39112985D01*
X61696613Y-39119194D01*
X61692345Y-39120000D01*
X61507655Y-39120000D01*
X61499382Y-39116573D01*
X61496934Y-39112985D01*
X61403459Y-38899101D01*
X61403286Y-38890148D01*
X61406543Y-38885552D01*
X61592366Y-38725571D01*
X61600872Y-38722772D01*
X61607633Y-38725571D01*
G37*
%TD.AperFunction*%
%TD*%
%TA.AperFunction,Conductor*%
%TO.N,GND*%
G36*
X61607633Y-37765571D02*
G01*
X61793453Y-37925549D01*
X61797486Y-37933544D01*
X61796540Y-37939101D01*
X61703066Y-38152985D01*
X61696613Y-38159194D01*
X61692345Y-38160000D01*
X61507655Y-38160000D01*
X61499382Y-38156573D01*
X61496934Y-38152985D01*
X61403459Y-37939101D01*
X61403286Y-37930148D01*
X61406543Y-37925552D01*
X61592366Y-37765571D01*
X61600872Y-37762772D01*
X61607633Y-37765571D01*
G37*
%TD.AperFunction*%
%TD*%
%TA.AperFunction,Conductor*%
%TO.N,GND*%
G36*
X61700618Y-38323427D02*
G01*
X61703066Y-38327015D01*
X61796540Y-38540897D01*
X61796713Y-38549850D01*
X61793453Y-38554449D01*
X61607634Y-38714427D01*
X61599128Y-38717227D01*
X61592366Y-38714427D01*
X61406546Y-38554449D01*
X61402513Y-38546454D01*
X61403458Y-38540899D01*
X61496934Y-38327014D01*
X61503387Y-38320806D01*
X61507655Y-38320000D01*
X61692345Y-38320000D01*
X61700618Y-38323427D01*
G37*
%TD.AperFunction*%
%TD*%
%TA.AperFunction,Conductor*%
%TO.N,GND*%
G36*
X61607633Y-36805571D02*
G01*
X61793453Y-36965549D01*
X61797486Y-36973544D01*
X61796540Y-36979101D01*
X61703066Y-37192985D01*
X61696613Y-37199194D01*
X61692345Y-37200000D01*
X61507655Y-37200000D01*
X61499382Y-37196573D01*
X61496934Y-37192985D01*
X61403459Y-36979101D01*
X61403286Y-36970148D01*
X61406543Y-36965552D01*
X61592366Y-36805571D01*
X61600872Y-36802772D01*
X61607633Y-36805571D01*
G37*
%TD.AperFunction*%
%TD*%
%TA.AperFunction,Conductor*%
%TO.N,GND*%
G36*
X61700618Y-37363427D02*
G01*
X61703066Y-37367015D01*
X61796540Y-37580897D01*
X61796713Y-37589850D01*
X61793453Y-37594449D01*
X61607634Y-37754427D01*
X61599128Y-37757227D01*
X61592366Y-37754427D01*
X61406546Y-37594449D01*
X61402513Y-37586454D01*
X61403458Y-37580899D01*
X61496934Y-37367014D01*
X61503387Y-37360806D01*
X61507655Y-37360000D01*
X61692345Y-37360000D01*
X61700618Y-37363427D01*
G37*
%TD.AperFunction*%
%TD*%
%TA.AperFunction,Conductor*%
%TO.N,GND*%
G36*
X61700618Y-36403427D02*
G01*
X61703066Y-36407015D01*
X61796540Y-36620897D01*
X61796713Y-36629850D01*
X61793453Y-36634449D01*
X61607634Y-36794427D01*
X61599128Y-36797227D01*
X61592366Y-36794427D01*
X61406546Y-36634449D01*
X61402513Y-36626454D01*
X61403458Y-36620899D01*
X61496934Y-36407014D01*
X61503387Y-36400806D01*
X61507655Y-36400000D01*
X61692345Y-36400000D01*
X61700618Y-36403427D01*
G37*
%TD.AperFunction*%
%TD*%
%TA.AperFunction,Conductor*%
%TO.N,GND*%
G36*
X61607633Y-35845571D02*
G01*
X61793453Y-36005549D01*
X61797486Y-36013544D01*
X61796540Y-36019101D01*
X61703066Y-36232985D01*
X61696613Y-36239194D01*
X61692345Y-36240000D01*
X61507655Y-36240000D01*
X61499382Y-36236573D01*
X61496934Y-36232985D01*
X61403459Y-36019101D01*
X61403286Y-36010148D01*
X61406543Y-36005552D01*
X61592366Y-35845571D01*
X61600872Y-35842772D01*
X61607633Y-35845571D01*
G37*
%TD.AperFunction*%
%TD*%
%TA.AperFunction,Conductor*%
%TO.N,GND*%
G36*
X61607633Y-34885571D02*
G01*
X61793453Y-35045549D01*
X61797486Y-35053544D01*
X61796540Y-35059101D01*
X61703066Y-35272985D01*
X61696613Y-35279194D01*
X61692345Y-35280000D01*
X61507655Y-35280000D01*
X61499382Y-35276573D01*
X61496934Y-35272985D01*
X61403459Y-35059101D01*
X61403286Y-35050148D01*
X61406543Y-35045552D01*
X61592366Y-34885571D01*
X61600872Y-34882772D01*
X61607633Y-34885571D01*
G37*
%TD.AperFunction*%
%TD*%
%TA.AperFunction,Conductor*%
%TO.N,GND*%
G36*
X61700618Y-35443427D02*
G01*
X61703066Y-35447015D01*
X61796540Y-35660897D01*
X61796713Y-35669850D01*
X61793453Y-35674449D01*
X61607634Y-35834427D01*
X61599128Y-35837227D01*
X61592366Y-35834427D01*
X61406546Y-35674449D01*
X61402513Y-35666454D01*
X61403458Y-35660899D01*
X61496934Y-35447014D01*
X61503387Y-35440806D01*
X61507655Y-35440000D01*
X61692345Y-35440000D01*
X61700618Y-35443427D01*
G37*
%TD.AperFunction*%
%TD*%
%TA.AperFunction,Conductor*%
%TO.N,+3.3V*%
G36*
X61060618Y-40243427D02*
G01*
X61063066Y-40247015D01*
X61156540Y-40460897D01*
X61156713Y-40469850D01*
X61153453Y-40474449D01*
X60967634Y-40634427D01*
X60959128Y-40637227D01*
X60952366Y-40634427D01*
X60766546Y-40474449D01*
X60762513Y-40466454D01*
X60763458Y-40460899D01*
X60856934Y-40247014D01*
X60863387Y-40240806D01*
X60867655Y-40240000D01*
X61052345Y-40240000D01*
X61060618Y-40243427D01*
G37*
%TD.AperFunction*%
%TD*%
%TA.AperFunction,Conductor*%
%TO.N,+3.3V*%
G36*
X60967633Y-39685571D02*
G01*
X61153453Y-39845549D01*
X61157486Y-39853544D01*
X61156540Y-39859101D01*
X61063066Y-40072985D01*
X61056613Y-40079194D01*
X61052345Y-40080000D01*
X60867655Y-40080000D01*
X60859382Y-40076573D01*
X60856934Y-40072985D01*
X60763459Y-39859101D01*
X60763286Y-39850148D01*
X60766543Y-39845552D01*
X60952366Y-39685571D01*
X60960872Y-39682772D01*
X60967633Y-39685571D01*
G37*
%TD.AperFunction*%
%TD*%
%TA.AperFunction,Conductor*%
%TO.N,+3.3V*%
G36*
X61060618Y-39283427D02*
G01*
X61063066Y-39287015D01*
X61156540Y-39500897D01*
X61156713Y-39509850D01*
X61153453Y-39514449D01*
X60967634Y-39674427D01*
X60959128Y-39677227D01*
X60952366Y-39674427D01*
X60766546Y-39514449D01*
X60762513Y-39506454D01*
X60763458Y-39500899D01*
X60856934Y-39287014D01*
X60863387Y-39280806D01*
X60867655Y-39280000D01*
X61052345Y-39280000D01*
X61060618Y-39283427D01*
G37*
%TD.AperFunction*%
%TD*%
%TA.AperFunction,Conductor*%
%TO.N,+3.3V*%
G36*
X60967633Y-38725571D02*
G01*
X61153453Y-38885549D01*
X61157486Y-38893544D01*
X61156540Y-38899101D01*
X61063066Y-39112985D01*
X61056613Y-39119194D01*
X61052345Y-39120000D01*
X60867655Y-39120000D01*
X60859382Y-39116573D01*
X60856934Y-39112985D01*
X60763459Y-38899101D01*
X60763286Y-38890148D01*
X60766543Y-38885552D01*
X60952366Y-38725571D01*
X60960872Y-38722772D01*
X60967633Y-38725571D01*
G37*
%TD.AperFunction*%
%TD*%
%TA.AperFunction,Conductor*%
%TO.N,+3.3V*%
G36*
X60967633Y-37765571D02*
G01*
X61153453Y-37925549D01*
X61157486Y-37933544D01*
X61156540Y-37939101D01*
X61063066Y-38152985D01*
X61056613Y-38159194D01*
X61052345Y-38160000D01*
X60867655Y-38160000D01*
X60859382Y-38156573D01*
X60856934Y-38152985D01*
X60763459Y-37939101D01*
X60763286Y-37930148D01*
X60766543Y-37925552D01*
X60952366Y-37765571D01*
X60960872Y-37762772D01*
X60967633Y-37765571D01*
G37*
%TD.AperFunction*%
%TD*%
%TA.AperFunction,Conductor*%
%TO.N,+3.3V*%
G36*
X61060618Y-38323427D02*
G01*
X61063066Y-38327015D01*
X61156540Y-38540897D01*
X61156713Y-38549850D01*
X61153453Y-38554449D01*
X60967634Y-38714427D01*
X60959128Y-38717227D01*
X60952366Y-38714427D01*
X60766546Y-38554449D01*
X60762513Y-38546454D01*
X60763458Y-38540899D01*
X60856934Y-38327014D01*
X60863387Y-38320806D01*
X60867655Y-38320000D01*
X61052345Y-38320000D01*
X61060618Y-38323427D01*
G37*
%TD.AperFunction*%
%TD*%
%TA.AperFunction,Conductor*%
%TO.N,+3.3V*%
G36*
X60967633Y-36805571D02*
G01*
X61153453Y-36965549D01*
X61157486Y-36973544D01*
X61156540Y-36979101D01*
X61063066Y-37192985D01*
X61056613Y-37199194D01*
X61052345Y-37200000D01*
X60867655Y-37200000D01*
X60859382Y-37196573D01*
X60856934Y-37192985D01*
X60763459Y-36979101D01*
X60763286Y-36970148D01*
X60766543Y-36965552D01*
X60952366Y-36805571D01*
X60960872Y-36802772D01*
X60967633Y-36805571D01*
G37*
%TD.AperFunction*%
%TD*%
%TA.AperFunction,Conductor*%
%TO.N,+3.3V*%
G36*
X61060618Y-37363427D02*
G01*
X61063066Y-37367015D01*
X61156540Y-37580897D01*
X61156713Y-37589850D01*
X61153453Y-37594449D01*
X60967634Y-37754427D01*
X60959128Y-37757227D01*
X60952366Y-37754427D01*
X60766546Y-37594449D01*
X60762513Y-37586454D01*
X60763458Y-37580899D01*
X60856934Y-37367014D01*
X60863387Y-37360806D01*
X60867655Y-37360000D01*
X61052345Y-37360000D01*
X61060618Y-37363427D01*
G37*
%TD.AperFunction*%
%TD*%
%TA.AperFunction,Conductor*%
%TO.N,+3.3V*%
G36*
X61060618Y-36403427D02*
G01*
X61063066Y-36407015D01*
X61156540Y-36620897D01*
X61156713Y-36629850D01*
X61153453Y-36634449D01*
X60967634Y-36794427D01*
X60959128Y-36797227D01*
X60952366Y-36794427D01*
X60766546Y-36634449D01*
X60762513Y-36626454D01*
X60763458Y-36620899D01*
X60856934Y-36407014D01*
X60863387Y-36400806D01*
X60867655Y-36400000D01*
X61052345Y-36400000D01*
X61060618Y-36403427D01*
G37*
%TD.AperFunction*%
%TD*%
%TA.AperFunction,Conductor*%
%TO.N,+3.3V*%
G36*
X60967633Y-35845571D02*
G01*
X61153453Y-36005549D01*
X61157486Y-36013544D01*
X61156540Y-36019101D01*
X61063066Y-36232985D01*
X61056613Y-36239194D01*
X61052345Y-36240000D01*
X60867655Y-36240000D01*
X60859382Y-36236573D01*
X60856934Y-36232985D01*
X60763459Y-36019101D01*
X60763286Y-36010148D01*
X60766543Y-36005552D01*
X60952366Y-35845571D01*
X60960872Y-35842772D01*
X60967633Y-35845571D01*
G37*
%TD.AperFunction*%
%TD*%
%TA.AperFunction,Conductor*%
%TO.N,+3.3V*%
G36*
X60967633Y-34885571D02*
G01*
X61153453Y-35045549D01*
X61157486Y-35053544D01*
X61156540Y-35059101D01*
X61063066Y-35272985D01*
X61056613Y-35279194D01*
X61052345Y-35280000D01*
X60867655Y-35280000D01*
X60859382Y-35276573D01*
X60856934Y-35272985D01*
X60763459Y-35059101D01*
X60763286Y-35050148D01*
X60766543Y-35045552D01*
X60952366Y-34885571D01*
X60960872Y-34882772D01*
X60967633Y-34885571D01*
G37*
%TD.AperFunction*%
%TD*%
%TA.AperFunction,Conductor*%
%TO.N,+3.3V*%
G36*
X61060618Y-35443427D02*
G01*
X61063066Y-35447015D01*
X61156540Y-35660897D01*
X61156713Y-35669850D01*
X61153453Y-35674449D01*
X60967634Y-35834427D01*
X60959128Y-35837227D01*
X60952366Y-35834427D01*
X60766546Y-35674449D01*
X60762513Y-35666454D01*
X60763458Y-35660899D01*
X60856934Y-35447014D01*
X60863387Y-35440806D01*
X60867655Y-35440000D01*
X61052345Y-35440000D01*
X61060618Y-35443427D01*
G37*
%TD.AperFunction*%
%TD*%
%TA.AperFunction,Conductor*%
%TO.N,+3.3V*%
G36*
X56976717Y-39316592D02*
G01*
X56980490Y-39319119D01*
X57110880Y-39449509D01*
X57114307Y-39457782D01*
X57113426Y-39462237D01*
X56854005Y-40092256D01*
X56847686Y-40098601D01*
X56838734Y-40098621D01*
X56483804Y-39952563D01*
X56477457Y-39946245D01*
X56477436Y-39946195D01*
X56331378Y-39591265D01*
X56331399Y-39582311D01*
X56337742Y-39575994D01*
X56967764Y-39316573D01*
X56976717Y-39316592D01*
G37*
%TD.AperFunction*%
%TD*%
%TA.AperFunction,Conductor*%
%TO.N,+3.3V*%
G36*
X57691936Y-38601874D02*
G01*
X57694438Y-38603779D01*
X57825608Y-38734949D01*
X57829035Y-38743222D01*
X57828216Y-38747524D01*
X57450078Y-39703987D01*
X57443849Y-39710420D01*
X57443201Y-39710679D01*
X57434738Y-39713760D01*
X57346806Y-39787544D01*
X57289410Y-39886958D01*
X57269479Y-39999998D01*
X57269479Y-40000001D01*
X57288512Y-40107943D01*
X57287871Y-40114277D01*
X57234366Y-40249614D01*
X57228137Y-40256047D01*
X57219183Y-40256193D01*
X57219020Y-40256126D01*
X56486068Y-39953504D01*
X56479729Y-39947180D01*
X56478854Y-39943393D01*
X56419906Y-38959453D01*
X56422832Y-38950990D01*
X56428468Y-38947477D01*
X57683050Y-38600775D01*
X57691936Y-38601874D01*
G37*
%TD.AperFunction*%
%TD*%
%TA.AperFunction,Conductor*%
%TO.N,+3.3V*%
G36*
X60793219Y-37570721D02*
G01*
X60796955Y-37573548D01*
X60954200Y-37752272D01*
X60957092Y-37760746D01*
X60954200Y-37767728D01*
X60796955Y-37946451D01*
X60788917Y-37950399D01*
X60784277Y-37949756D01*
X60537806Y-37862755D01*
X60531145Y-37856770D01*
X60530000Y-37851722D01*
X60530000Y-37668277D01*
X60533427Y-37660004D01*
X60537803Y-37657245D01*
X60784278Y-37570243D01*
X60793219Y-37570721D01*
G37*
%TD.AperFunction*%
%TD*%
%TA.AperFunction,Conductor*%
%TO.N,+3.3V*%
G36*
X56580473Y-39153427D02*
G01*
X56583000Y-39157200D01*
X56845053Y-39786129D01*
X56845072Y-39795084D01*
X56838755Y-39801428D01*
X56484502Y-39949123D01*
X56475548Y-39949144D01*
X56475498Y-39949123D01*
X56121244Y-39801428D01*
X56114926Y-39795081D01*
X56114945Y-39786131D01*
X56377000Y-39157199D01*
X56383345Y-39150881D01*
X56387800Y-39150000D01*
X56572200Y-39150000D01*
X56580473Y-39153427D01*
G37*
%TD.AperFunction*%
%TD*%
%TA.AperFunction,Conductor*%
%TO.N,+3.3V*%
G36*
X56838755Y-33798571D02*
G01*
X56845073Y-33804918D01*
X56845053Y-33813870D01*
X56583000Y-34442800D01*
X56576655Y-34449119D01*
X56572200Y-34450000D01*
X56387800Y-34450000D01*
X56379527Y-34446573D01*
X56377000Y-34442800D01*
X56114945Y-33813868D01*
X56114927Y-33804915D01*
X56121242Y-33798572D01*
X56475500Y-33650875D01*
X56484449Y-33650855D01*
X56838755Y-33798571D01*
G37*
%TD.AperFunction*%
%TD*%
%TA.AperFunction,Conductor*%
%TO.N,+3.3V*%
G36*
X56582930Y-38203427D02*
G01*
X56583499Y-38204037D01*
X57223821Y-38942871D01*
X57226649Y-38951368D01*
X57224342Y-38957550D01*
X56489363Y-39938503D01*
X56481660Y-39943069D01*
X56472984Y-39940850D01*
X56470637Y-39938503D01*
X55735657Y-38957550D01*
X55733438Y-38948874D01*
X55736178Y-38942871D01*
X56376501Y-38204037D01*
X56384509Y-38200030D01*
X56385343Y-38200000D01*
X56574657Y-38200000D01*
X56582930Y-38203427D01*
G37*
%TD.AperFunction*%
%TD*%
%TA.AperFunction,Conductor*%
%TO.N,+3.3V*%
G36*
X56488269Y-33657277D02*
G01*
X56488277Y-33657285D01*
X57472158Y-34642150D01*
X57475581Y-34650425D01*
X57472578Y-34658246D01*
X56583486Y-35646127D01*
X56575404Y-35649984D01*
X56574789Y-35650000D01*
X56385211Y-35650000D01*
X56376938Y-35646573D01*
X56376514Y-35646127D01*
X55487421Y-34658246D01*
X55484434Y-34649804D01*
X55487840Y-34642152D01*
X56471723Y-33657284D01*
X56479994Y-33653854D01*
X56488269Y-33657277D01*
G37*
%TD.AperFunction*%
%TD*%
%TA.AperFunction,Conductor*%
%TO.N,+1V1*%
G36*
X65059591Y-44891295D02*
G01*
X65188500Y-45020204D01*
X65191927Y-45028477D01*
X65190350Y-45034343D01*
X65005113Y-45354016D01*
X64998000Y-45359456D01*
X64990559Y-45358978D01*
X64804931Y-45283014D01*
X64798572Y-45276709D01*
X64797950Y-45274765D01*
X64749115Y-45058665D01*
X64750634Y-45049843D01*
X64754979Y-45045789D01*
X65045773Y-44889265D01*
X65054682Y-44888362D01*
X65059591Y-44891295D01*
G37*
%TD.AperFunction*%
%TD*%
%TA.AperFunction,Conductor*%
%TO.N,Net-(SW7-B)*%
G36*
X78057654Y-33957637D02*
G01*
X78492699Y-34391718D01*
X78496135Y-34399987D01*
X78492717Y-34408264D01*
X78492699Y-34408282D01*
X78057654Y-34842362D01*
X78049377Y-34845780D01*
X78041784Y-34842970D01*
X77604094Y-34468502D01*
X77600035Y-34460520D01*
X77600000Y-34459612D01*
X77600000Y-34340387D01*
X77603427Y-34332114D01*
X77604094Y-34331497D01*
X78041074Y-33957637D01*
X78041784Y-33957028D01*
X78050298Y-33954254D01*
X78057654Y-33957637D01*
G37*
%TD.AperFunction*%
%TD*%
%TA.AperFunction,Conductor*%
%TO.N,Net-(SW7-B)*%
G36*
X72046831Y-40466948D02*
G01*
X72166013Y-40495357D01*
X72173265Y-40500609D01*
X72174999Y-40506738D01*
X72174999Y-40618261D01*
X72171572Y-40626534D01*
X72166012Y-40629642D01*
X72046833Y-40658050D01*
X72041433Y-40658056D01*
X71770497Y-40594120D01*
X71684752Y-40573886D01*
X71677488Y-40568652D01*
X71676053Y-40559813D01*
X71681288Y-40552548D01*
X71684751Y-40551113D01*
X72041434Y-40466943D01*
X72046831Y-40466948D01*
G37*
%TD.AperFunction*%
%TD*%
%TA.AperFunction,Conductor*%
%TO.N,GND*%
G36*
X69558755Y-35048571D02*
G01*
X69565073Y-35054918D01*
X69565053Y-35063870D01*
X69303000Y-35692800D01*
X69296655Y-35699119D01*
X69292200Y-35700000D01*
X69107800Y-35700000D01*
X69099527Y-35696573D01*
X69097000Y-35692800D01*
X68834945Y-35063868D01*
X68834927Y-35054915D01*
X68841242Y-35048572D01*
X69195500Y-34900875D01*
X69204449Y-34900855D01*
X69558755Y-35048571D01*
G37*
%TD.AperFunction*%
%TD*%
%TA.AperFunction,Conductor*%
%TO.N,GND*%
G36*
X69268057Y-34937484D02*
G01*
X69268070Y-34937498D01*
X69823339Y-35522223D01*
X69826551Y-35530582D01*
X69823619Y-35538032D01*
X69303492Y-36126052D01*
X69295443Y-36129978D01*
X69294728Y-36130000D01*
X69105691Y-36130000D01*
X69097418Y-36126573D01*
X69096486Y-36125522D01*
X68635786Y-35538361D01*
X68633375Y-35529737D01*
X68636918Y-35522670D01*
X69251515Y-34937083D01*
X69259869Y-34933858D01*
X69268057Y-34937484D01*
G37*
%TD.AperFunction*%
%TD*%
%TA.AperFunction,Conductor*%
%TO.N,GND*%
G36*
X69363868Y-34534945D02*
G01*
X69992800Y-34797000D01*
X69999119Y-34803345D01*
X70000000Y-34807800D01*
X70000000Y-34992199D01*
X69996573Y-35000472D01*
X69992800Y-35002999D01*
X69363870Y-35265053D01*
X69354915Y-35265072D01*
X69348571Y-35258755D01*
X69200875Y-34904499D01*
X69200855Y-34895550D01*
X69348572Y-34541242D01*
X69354918Y-34534926D01*
X69363868Y-34534945D01*
G37*
%TD.AperFunction*%
%TD*%
%TA.AperFunction,Conductor*%
%TO.N,GND*%
G36*
X69967649Y-34337090D02*
G01*
X70483379Y-34815098D01*
X70483482Y-34815198D01*
X70589920Y-34921636D01*
X70615761Y-34947477D01*
X70619188Y-34955750D01*
X70615761Y-34964023D01*
X70614948Y-34964764D01*
X69967434Y-35500642D01*
X69958875Y-35503276D01*
X69952544Y-35500666D01*
X69270058Y-34939557D01*
X69265843Y-34931656D01*
X69268450Y-34923089D01*
X69269867Y-34921641D01*
X69952082Y-34336787D01*
X69960592Y-34334005D01*
X69967649Y-34337090D01*
G37*
%TD.AperFunction*%
%TD*%
%TA.AperFunction,Conductor*%
%TO.N,GND*%
G36*
X70849439Y-34321019D02*
G01*
X71035068Y-34396985D01*
X71041427Y-34403290D01*
X71042049Y-34405234D01*
X71090884Y-34621331D01*
X71089365Y-34630156D01*
X71085017Y-34634212D01*
X70794226Y-34790733D01*
X70785317Y-34791637D01*
X70780408Y-34788704D01*
X70651499Y-34659795D01*
X70648072Y-34651522D01*
X70649648Y-34645658D01*
X70834886Y-34325981D01*
X70841999Y-34320542D01*
X70849439Y-34321019D01*
G37*
%TD.AperFunction*%
%TD*%
%TA.AperFunction,Conductor*%
%TO.N,+3.3V*%
G36*
X60797620Y-37574305D02*
G01*
X60954200Y-37752272D01*
X60957092Y-37760746D01*
X60954200Y-37767729D01*
X60797620Y-37945695D01*
X60789582Y-37949642D01*
X60783716Y-37948486D01*
X60536580Y-37828202D01*
X60530641Y-37821500D01*
X60530000Y-37817682D01*
X60530000Y-37702317D01*
X60533427Y-37694044D01*
X60536578Y-37691798D01*
X60783717Y-37571512D01*
X60792654Y-37570974D01*
X60797620Y-37574305D01*
G37*
%TD.AperFunction*%
%TD*%
%TA.AperFunction,Conductor*%
%TO.N,+3.3V*%
G36*
X56545849Y-39153427D02*
G01*
X56548162Y-39156717D01*
X56844339Y-39785854D01*
X56844762Y-39794798D01*
X56838736Y-39801423D01*
X56838255Y-39801636D01*
X56484502Y-39949123D01*
X56475548Y-39949144D01*
X56475498Y-39949123D01*
X56121744Y-39801636D01*
X56115426Y-39795289D01*
X56115447Y-39786335D01*
X56115647Y-39785882D01*
X56411837Y-39156717D01*
X56418463Y-39150691D01*
X56422424Y-39150000D01*
X56537576Y-39150000D01*
X56545849Y-39153427D01*
G37*
%TD.AperFunction*%
%TD*%
%TA.AperFunction,Conductor*%
%TO.N,+3.3V*%
G36*
X56548114Y-38203427D02*
G01*
X56548480Y-38203810D01*
X57223466Y-38942847D01*
X57226515Y-38951266D01*
X57224190Y-38957753D01*
X56489363Y-39938503D01*
X56481660Y-39943069D01*
X56472984Y-39940850D01*
X56470637Y-39938503D01*
X55735809Y-38957753D01*
X55733590Y-38949077D01*
X55736533Y-38942847D01*
X56411520Y-38203810D01*
X56419630Y-38200012D01*
X56420159Y-38200000D01*
X56539841Y-38200000D01*
X56548114Y-38203427D01*
G37*
%TD.AperFunction*%
%TD*%
%TA.AperFunction,Conductor*%
%TO.N,+3.3V*%
G36*
X56838255Y-33798363D02*
G01*
X56844573Y-33804710D01*
X56844552Y-33813664D01*
X56844339Y-33814145D01*
X56548162Y-34443283D01*
X56541537Y-34449309D01*
X56537576Y-34450000D01*
X56422424Y-34450000D01*
X56414151Y-34446573D01*
X56411838Y-34443283D01*
X56115660Y-33814145D01*
X56115237Y-33805201D01*
X56121263Y-33798576D01*
X56121725Y-33798371D01*
X56475500Y-33650875D01*
X56484449Y-33650855D01*
X56838255Y-33798363D01*
G37*
%TD.AperFunction*%
%TD*%
%TA.AperFunction,Conductor*%
%TO.N,+3.3V*%
G36*
X56488269Y-33657277D02*
G01*
X56488277Y-33657285D01*
X57472007Y-34641999D01*
X57475430Y-34650274D01*
X57472276Y-34658259D01*
X56548468Y-35646291D01*
X56540315Y-35649993D01*
X56539922Y-35650000D01*
X56420078Y-35650000D01*
X56411805Y-35646573D01*
X56411532Y-35646291D01*
X55487723Y-34658259D01*
X55484576Y-34649875D01*
X55487991Y-34642000D01*
X56471723Y-33657284D01*
X56479994Y-33653854D01*
X56488269Y-33657277D01*
G37*
%TD.AperFunction*%
%TD*%
%TA.AperFunction,Conductor*%
%TO.N,unconnected-(U1-GPIO11-Pad14)*%
G36*
X71868012Y-37551592D02*
G01*
X71951634Y-37635214D01*
X71954850Y-37641273D01*
X71959545Y-37665637D01*
X71957745Y-37674409D01*
X71951079Y-37679154D01*
X71648004Y-37760208D01*
X71639126Y-37759035D01*
X71633703Y-37752020D01*
X71611624Y-37672080D01*
X71612725Y-37663195D01*
X71618005Y-37658341D01*
X71854845Y-37549237D01*
X71863792Y-37548889D01*
X71868012Y-37551592D01*
G37*
%TD.AperFunction*%
%TD*%
%TA.AperFunction,Conductor*%
%TO.N,unconnected-(U1-GPIO14-Pad17)*%
G36*
X70086003Y-36380120D02*
G01*
X70087978Y-36381708D01*
X70165444Y-36459174D01*
X70168871Y-36467447D01*
X70168746Y-36469156D01*
X70101615Y-36923924D01*
X70097016Y-36931608D01*
X70088980Y-36933867D01*
X70010036Y-36926684D01*
X70002107Y-36922521D01*
X69999397Y-36914920D01*
X70003508Y-36490856D01*
X70005346Y-36484673D01*
X70069845Y-36383681D01*
X70077186Y-36378555D01*
X70086003Y-36380120D01*
G37*
%TD.AperFunction*%
%TD*%
%TA.AperFunction,Conductor*%
%TO.N,unconnected-(U1-GPIO15-Pad18)*%
G36*
X69686003Y-36380120D02*
G01*
X69687978Y-36381708D01*
X69765444Y-36459174D01*
X69768871Y-36467447D01*
X69768746Y-36469156D01*
X69701615Y-36923924D01*
X69697016Y-36931608D01*
X69688980Y-36933867D01*
X69610036Y-36926684D01*
X69602107Y-36922521D01*
X69599397Y-36914920D01*
X69603508Y-36490856D01*
X69605346Y-36484673D01*
X69669845Y-36383681D01*
X69677186Y-36378555D01*
X69686003Y-36380120D01*
G37*
%TD.AperFunction*%
%TD*%
%TA.AperFunction,Conductor*%
%TO.N,unconnected-(U1-GPIO13-Pad16)*%
G36*
X70486003Y-36380120D02*
G01*
X70487978Y-36381708D01*
X70565444Y-36459174D01*
X70568871Y-36467447D01*
X70568746Y-36469156D01*
X70501615Y-36923924D01*
X70497016Y-36931608D01*
X70488980Y-36933867D01*
X70410036Y-36926684D01*
X70402107Y-36922521D01*
X70399397Y-36914920D01*
X70403508Y-36490856D01*
X70405346Y-36484673D01*
X70469845Y-36383681D01*
X70477186Y-36378555D01*
X70486003Y-36380120D01*
G37*
%TD.AperFunction*%
%TD*%
%TA.AperFunction,Conductor*%
%TO.N,USB_D+*%
G36*
X60651699Y-46644911D02*
G01*
X60659945Y-46648400D01*
X60663310Y-46656611D01*
X60663310Y-46771334D01*
X60661220Y-46778008D01*
X60290813Y-47311365D01*
X60283279Y-47316205D01*
X60274529Y-47314301D01*
X60272944Y-47312979D01*
X60002453Y-47043441D01*
X59999012Y-47035174D01*
X59999012Y-47035124D01*
X59999655Y-46778008D01*
X59999970Y-46651757D01*
X60003418Y-46643494D01*
X60011698Y-46640088D01*
X60651699Y-46644911D01*
G37*
%TD.AperFunction*%
%TD*%
%TA.AperFunction,Conductor*%
%TO.N,USB_D+*%
G36*
X57413159Y-44405276D02*
G01*
X57416463Y-44411856D01*
X57518046Y-45106640D01*
X57515852Y-45115322D01*
X57508162Y-45119910D01*
X57506498Y-45120033D01*
X57124875Y-45120987D01*
X57116594Y-45117581D01*
X57116558Y-45117546D01*
X57105690Y-45106640D01*
X57053992Y-45054758D01*
X56845519Y-44845548D01*
X56842107Y-44837268D01*
X56845548Y-44829001D01*
X56845563Y-44828985D01*
X57274705Y-44411856D01*
X57281595Y-44405159D01*
X57289750Y-44401849D01*
X57404886Y-44401849D01*
X57413159Y-44405276D01*
G37*
%TD.AperFunction*%
%TD*%
%TA.AperFunction,Conductor*%
%TO.N,USB_D+*%
G36*
X57359984Y-43817732D02*
G01*
X57361373Y-43821084D01*
X57498914Y-44390507D01*
X57497720Y-44399022D01*
X57418361Y-44539068D01*
X57411301Y-44544577D01*
X57408182Y-44545000D01*
X57291818Y-44545000D01*
X57283545Y-44541573D01*
X57281639Y-44539068D01*
X57202279Y-44399022D01*
X57201085Y-44390507D01*
X57338627Y-43821084D01*
X57343901Y-43813847D01*
X57352747Y-43812458D01*
X57359984Y-43817732D01*
G37*
%TD.AperFunction*%
%TD*%
%TA.AperFunction,Conductor*%
%TO.N,USB_D-*%
G36*
X60289910Y-45807130D02*
G01*
X60290938Y-45808310D01*
X60673560Y-46311862D01*
X60675944Y-46318941D01*
X60675943Y-46433898D01*
X60672516Y-46442171D01*
X60664857Y-46445582D01*
X60012283Y-46479853D01*
X60003841Y-46476865D01*
X59999985Y-46468783D01*
X59999969Y-46468198D01*
X59999912Y-46445582D01*
X59999012Y-46085373D01*
X60002418Y-46077093D01*
X60273365Y-45807099D01*
X60281643Y-45803689D01*
X60289910Y-45807130D01*
G37*
%TD.AperFunction*%
%TD*%
%TA.AperFunction,Conductor*%
%TO.N,USB_D-*%
G36*
X57918405Y-44405159D02*
G01*
X58354347Y-44828899D01*
X58357891Y-44837123D01*
X58354582Y-44845444D01*
X58354480Y-44845548D01*
X58083441Y-45117546D01*
X58075174Y-45120987D01*
X58075124Y-45120987D01*
X57693501Y-45120033D01*
X57685236Y-45116585D01*
X57681830Y-45108304D01*
X57681953Y-45106640D01*
X57720143Y-44845444D01*
X57783536Y-44411856D01*
X57788125Y-44404166D01*
X57795114Y-44401849D01*
X57910250Y-44401849D01*
X57918405Y-44405159D01*
G37*
%TD.AperFunction*%
%TD*%
%TA.AperFunction,Conductor*%
%TO.N,USB_D-*%
G36*
X57859984Y-43817732D02*
G01*
X57861373Y-43821084D01*
X57998914Y-44390507D01*
X57997720Y-44399022D01*
X57918361Y-44539068D01*
X57911301Y-44544577D01*
X57908182Y-44545000D01*
X57791818Y-44545000D01*
X57783545Y-44541573D01*
X57781639Y-44539068D01*
X57702279Y-44399022D01*
X57701085Y-44390507D01*
X57838627Y-43821084D01*
X57843901Y-43813847D01*
X57852747Y-43812458D01*
X57859984Y-43817732D01*
G37*
%TD.AperFunction*%
%TD*%
%TA.AperFunction,Conductor*%
%TO.N,Net-(U1-XOUT)*%
G36*
X65478673Y-34321402D02*
G01*
X65484734Y-34327205D01*
X65646603Y-34670743D01*
X65647029Y-34679688D01*
X65644292Y-34684003D01*
X65563760Y-34764535D01*
X65555487Y-34767962D01*
X65550927Y-34767037D01*
X65236165Y-34633812D01*
X65229881Y-34627431D01*
X65229313Y-34620458D01*
X65277950Y-34405234D01*
X65283116Y-34397920D01*
X65284923Y-34396988D01*
X65469719Y-34321364D01*
X65478673Y-34321402D01*
G37*
%TD.AperFunction*%
%TD*%
%TA.AperFunction,Conductor*%
%TO.N,Net-(U1-XOUT)*%
G36*
X66368064Y-34336913D02*
G01*
X66965032Y-34848686D01*
X67050167Y-34921671D01*
X67054218Y-34929658D01*
X67051435Y-34938169D01*
X67050017Y-34939563D01*
X66367798Y-35504832D01*
X66359241Y-35507472D01*
X66352487Y-35504502D01*
X66045652Y-35227134D01*
X65737809Y-34948856D01*
X65733971Y-34940767D01*
X65736977Y-34932332D01*
X65737363Y-34931925D01*
X65820606Y-34848683D01*
X66352342Y-34337363D01*
X66360680Y-34334099D01*
X66368064Y-34336913D01*
G37*
%TD.AperFunction*%
%TD*%
%TA.AperFunction,Conductor*%
%TO.N,GND*%
G36*
X69363466Y-34535921D02*
G01*
X69364365Y-34536341D01*
X69987748Y-34861719D01*
X69993495Y-34868584D01*
X69994033Y-34872090D01*
X69994033Y-34987283D01*
X69990606Y-34995556D01*
X69986940Y-34998038D01*
X69363932Y-35264900D01*
X69354978Y-35265007D01*
X69348570Y-35258752D01*
X69200875Y-34904499D01*
X69200855Y-34895550D01*
X69348166Y-34542216D01*
X69354512Y-34535900D01*
X69363466Y-34535921D01*
G37*
%TD.AperFunction*%
%TD*%
%TA.AperFunction,Conductor*%
%TO.N,GND*%
G36*
X69967658Y-34337364D02*
G01*
X70499397Y-34848686D01*
X70582616Y-34931905D01*
X70586043Y-34940178D01*
X70582616Y-34948451D01*
X70582189Y-34948857D01*
X69967512Y-35504502D01*
X69959077Y-35507508D01*
X69952201Y-35504832D01*
X69269982Y-34939563D01*
X69265798Y-34931646D01*
X69268438Y-34923089D01*
X69269825Y-34921677D01*
X69951936Y-34336912D01*
X69960444Y-34334131D01*
X69967658Y-34337364D01*
G37*
%TD.AperFunction*%
%TD*%
%TA.AperFunction,Conductor*%
%TO.N,GND*%
G36*
X61607634Y-40645572D02*
G01*
X61792584Y-40804801D01*
X61796617Y-40812796D01*
X61795027Y-40819613D01*
X61668395Y-41034245D01*
X61661239Y-41039629D01*
X61658318Y-41040000D01*
X61541682Y-41040000D01*
X61533409Y-41036573D01*
X61531605Y-41034245D01*
X61404972Y-40819613D01*
X61403720Y-40810747D01*
X61407413Y-40804803D01*
X61592366Y-40645571D01*
X61600872Y-40642772D01*
X61607634Y-40645572D01*
G37*
%TD.AperFunction*%
%TD*%
%TA.AperFunction,Conductor*%
%TO.N,GND*%
G36*
X64019613Y-45724972D02*
G01*
X64234244Y-45851604D01*
X64239628Y-45858760D01*
X64239999Y-45861681D01*
X64239999Y-45978318D01*
X64236572Y-45986591D01*
X64234244Y-45988395D01*
X64019613Y-46115027D01*
X64010747Y-46116279D01*
X64004801Y-46112584D01*
X63889207Y-45978318D01*
X63845571Y-45927633D01*
X63842772Y-45919128D01*
X63845572Y-45912366D01*
X64004803Y-45727413D01*
X64012796Y-45723382D01*
X64019613Y-45724972D01*
G37*
%TD.AperFunction*%
%TD*%
%TA.AperFunction,Conductor*%
%TO.N,GND*%
G36*
X64635198Y-45727415D02*
G01*
X64794427Y-45912366D01*
X64797227Y-45920872D01*
X64794427Y-45927634D01*
X64635198Y-46112584D01*
X64627203Y-46116617D01*
X64620386Y-46115027D01*
X64405755Y-45988395D01*
X64400371Y-45981239D01*
X64400000Y-45978318D01*
X64400000Y-45861681D01*
X64403427Y-45853408D01*
X64405751Y-45851606D01*
X64620387Y-45724971D01*
X64629252Y-45723720D01*
X64635198Y-45727415D01*
G37*
%TD.AperFunction*%
%TD*%
%TA.AperFunction,Conductor*%
%TO.N,GND*%
G36*
X70850280Y-34321364D02*
G01*
X71035068Y-34396985D01*
X71041427Y-34403290D01*
X71042049Y-34405234D01*
X71090686Y-34620458D01*
X71089167Y-34629283D01*
X71083834Y-34633812D01*
X70769072Y-34767037D01*
X70760118Y-34767106D01*
X70756239Y-34764535D01*
X70675707Y-34684003D01*
X70672280Y-34675730D01*
X70673395Y-34670747D01*
X70835266Y-34327204D01*
X70841891Y-34321182D01*
X70850280Y-34321364D01*
G37*
%TD.AperFunction*%
%TD*%
%TA.AperFunction,Conductor*%
%TO.N,+3.3V*%
G36*
X56838255Y-33798363D02*
G01*
X56844573Y-33804710D01*
X56844552Y-33813664D01*
X56844339Y-33814145D01*
X56548162Y-34443283D01*
X56541537Y-34449309D01*
X56537576Y-34450000D01*
X56422424Y-34450000D01*
X56414151Y-34446573D01*
X56411838Y-34443283D01*
X56115660Y-33814145D01*
X56115237Y-33805201D01*
X56121263Y-33798576D01*
X56121725Y-33798371D01*
X56475500Y-33650875D01*
X56484449Y-33650855D01*
X56838255Y-33798363D01*
G37*
%TD.AperFunction*%
%TD*%
%TA.AperFunction,Conductor*%
%TO.N,+3.3V*%
G36*
X56488268Y-33657276D02*
G01*
X57471968Y-34641960D01*
X57475391Y-34650234D01*
X57472197Y-34658261D01*
X56548463Y-35636333D01*
X56540291Y-35639995D01*
X56539957Y-35640000D01*
X56420043Y-35640000D01*
X56411770Y-35636573D01*
X56411537Y-35636333D01*
X55487802Y-34658261D01*
X55484613Y-34649894D01*
X55488029Y-34641962D01*
X56471723Y-33657284D01*
X56479994Y-33653854D01*
X56488268Y-33657276D01*
G37*
%TD.AperFunction*%
%TD*%
%TA.AperFunction,Conductor*%
%TO.N,Net-(U1-XIN)*%
G36*
X69967512Y-32655497D02*
G01*
X70582189Y-33211143D01*
X70586028Y-33219232D01*
X70583022Y-33227667D01*
X70582616Y-33228094D01*
X70499397Y-33311313D01*
X69967658Y-33822635D01*
X69959319Y-33825900D01*
X69951934Y-33823085D01*
X69269831Y-33238327D01*
X69265781Y-33230341D01*
X69268564Y-33221830D01*
X69269982Y-33220436D01*
X69271240Y-33219394D01*
X69952203Y-32655166D01*
X69960758Y-32652527D01*
X69967512Y-32655497D01*
G37*
%TD.AperFunction*%
%TD*%
%TA.AperFunction,Conductor*%
%TO.N,Net-(U1-XIN)*%
G36*
X70769072Y-33392962D02*
G01*
X71083834Y-33526187D01*
X71090118Y-33532568D01*
X71090686Y-33539541D01*
X71042049Y-33754765D01*
X71036883Y-33762079D01*
X71035068Y-33763014D01*
X70850280Y-33838634D01*
X70841326Y-33838596D01*
X70835265Y-33832793D01*
X70801299Y-33760707D01*
X70673395Y-33489254D01*
X70672970Y-33480311D01*
X70675705Y-33475998D01*
X70756240Y-33395463D01*
X70764512Y-33392037D01*
X70769072Y-33392962D01*
G37*
%TD.AperFunction*%
%TD*%
%TA.AperFunction,Conductor*%
%TO.N,Net-(U1-XOUT)*%
G36*
X68464034Y-36390927D02*
G01*
X68467142Y-36396487D01*
X68495550Y-36515666D01*
X68495556Y-36521066D01*
X68411387Y-36877746D01*
X68406152Y-36885011D01*
X68397313Y-36886446D01*
X68390048Y-36881211D01*
X68388613Y-36877746D01*
X68304443Y-36521066D01*
X68304448Y-36515668D01*
X68332857Y-36396487D01*
X68338110Y-36389234D01*
X68344239Y-36387500D01*
X68455761Y-36387500D01*
X68464034Y-36390927D01*
G37*
%TD.AperFunction*%
%TD*%
%TA.AperFunction,Conductor*%
%TO.N,Net-(U1-XOUT)*%
G36*
X67758544Y-34785280D02*
G01*
X67763272Y-34791431D01*
X68002378Y-35519181D01*
X68003915Y-35523857D01*
X68004500Y-35527509D01*
X68004500Y-35564795D01*
X68003843Y-35568660D01*
X68000733Y-35577545D01*
X68000733Y-35577548D01*
X68004463Y-35610650D01*
X68004500Y-35611306D01*
X68004500Y-35622031D01*
X68006886Y-35632484D01*
X68006994Y-35633120D01*
X68007897Y-35641133D01*
X68010724Y-35666228D01*
X68010723Y-35666228D01*
X68015735Y-35674203D01*
X68017234Y-35677823D01*
X68019330Y-35687004D01*
X68019331Y-35687006D01*
X68040099Y-35713048D01*
X68040479Y-35713583D01*
X68046185Y-35722664D01*
X68053764Y-35730243D01*
X68054201Y-35730732D01*
X68074973Y-35756779D01*
X68076984Y-35757747D01*
X68082952Y-35764423D01*
X68083024Y-35764637D01*
X68127979Y-35901465D01*
X68127306Y-35910394D01*
X68125137Y-35913390D01*
X68043671Y-35994856D01*
X68035398Y-35998283D01*
X68031211Y-35997508D01*
X67153584Y-35661126D01*
X67149498Y-35658474D01*
X67132157Y-35641133D01*
X67130702Y-35639360D01*
X67117365Y-35619399D01*
X67117364Y-35619398D01*
X67064300Y-35583942D01*
X67034505Y-35564034D01*
X66936764Y-35544592D01*
X66913221Y-35549275D01*
X66910938Y-35549500D01*
X66864513Y-35549500D01*
X66860326Y-35548725D01*
X66840678Y-35541194D01*
X66822676Y-35534294D01*
X66816178Y-35528133D01*
X66815939Y-35519181D01*
X66816048Y-35518907D01*
X67056937Y-34935003D01*
X67063260Y-34928662D01*
X67065330Y-34928019D01*
X67749744Y-34783635D01*
X67758544Y-34785280D01*
G37*
%TD.AperFunction*%
%TD*%
%TA.AperFunction,Conductor*%
%TO.N,Net-(P1-CC)*%
G36*
X56416455Y-43008427D02*
G01*
X56418361Y-43010932D01*
X56497720Y-43150977D01*
X56498914Y-43159492D01*
X56361373Y-43728915D01*
X56356099Y-43736152D01*
X56347253Y-43737541D01*
X56340016Y-43732267D01*
X56338627Y-43728915D01*
X56201085Y-43159492D01*
X56202278Y-43150978D01*
X56281638Y-43010932D01*
X56288699Y-43005423D01*
X56291818Y-43005000D01*
X56408182Y-43005000D01*
X56416455Y-43008427D01*
G37*
%TD.AperFunction*%
%TD*%
%TA.AperFunction,Conductor*%
%TO.N,Net-(P1-CC)*%
G36*
X56357634Y-42155572D02*
G01*
X56542584Y-42314801D01*
X56546617Y-42322796D01*
X56545027Y-42329613D01*
X56418395Y-42544245D01*
X56411239Y-42549629D01*
X56408318Y-42550000D01*
X56291682Y-42550000D01*
X56283409Y-42546573D01*
X56281605Y-42544245D01*
X56154972Y-42329613D01*
X56153720Y-42320747D01*
X56157413Y-42314803D01*
X56342366Y-42155571D01*
X56350872Y-42152772D01*
X56357634Y-42155572D01*
G37*
%TD.AperFunction*%
%TD*%
%TA.AperFunction,Conductor*%
%TO.N,Net-(U1-USB_DP)*%
G36*
X67209952Y-43843788D02*
G01*
X67211387Y-43847253D01*
X67295556Y-44203933D01*
X67295550Y-44209333D01*
X67267142Y-44328513D01*
X67261890Y-44335766D01*
X67255761Y-44337500D01*
X67144239Y-44337500D01*
X67135966Y-44334073D01*
X67132858Y-44328513D01*
X67104449Y-44209333D01*
X67104443Y-44203933D01*
X67188613Y-43847253D01*
X67193848Y-43839988D01*
X67202687Y-43838553D01*
X67209952Y-43843788D01*
G37*
%TD.AperFunction*%
%TD*%
%TA.AperFunction,Conductor*%
%TO.N,Net-(U1-USB_DP)*%
G36*
X67003760Y-44915464D02*
G01*
X67084292Y-44995996D01*
X67087719Y-45004269D01*
X67086603Y-45009256D01*
X66924734Y-45352793D01*
X66918108Y-45358816D01*
X66909719Y-45358634D01*
X66724931Y-45283014D01*
X66718572Y-45276709D01*
X66717950Y-45274765D01*
X66669313Y-45059541D01*
X66670832Y-45050716D01*
X66676164Y-45046187D01*
X66990927Y-44912961D01*
X66999881Y-44912893D01*
X67003760Y-44915464D01*
G37*
%TD.AperFunction*%
%TD*%
%TA.AperFunction,Conductor*%
%TO.N,USB_D+*%
G36*
X66530280Y-45841364D02*
G01*
X66715068Y-45916985D01*
X66721427Y-45923290D01*
X66722049Y-45925234D01*
X66770686Y-46140458D01*
X66769167Y-46149283D01*
X66763834Y-46153812D01*
X66449072Y-46287037D01*
X66440118Y-46287106D01*
X66436239Y-46284535D01*
X66355707Y-46204003D01*
X66352280Y-46195730D01*
X66353395Y-46190747D01*
X66515266Y-45847204D01*
X66521891Y-45841182D01*
X66530280Y-45841364D01*
G37*
%TD.AperFunction*%
%TD*%
%TA.AperFunction,Conductor*%
%TO.N,Net-(U1-USB_DM)*%
G36*
X66809952Y-43843788D02*
G01*
X66811387Y-43847253D01*
X66895556Y-44203933D01*
X66895550Y-44209333D01*
X66867142Y-44328513D01*
X66861890Y-44335766D01*
X66855761Y-44337500D01*
X66744239Y-44337500D01*
X66735966Y-44334073D01*
X66732858Y-44328513D01*
X66704449Y-44209333D01*
X66704443Y-44203933D01*
X66788613Y-43847253D01*
X66793848Y-43839988D01*
X66802687Y-43838553D01*
X66809952Y-43843788D01*
G37*
%TD.AperFunction*%
%TD*%
%TA.AperFunction,Conductor*%
%TO.N,Net-(U1-USB_DM)*%
G36*
X66043760Y-44915464D02*
G01*
X66124292Y-44995996D01*
X66127719Y-45004269D01*
X66126603Y-45009256D01*
X65964734Y-45352793D01*
X65958108Y-45358816D01*
X65949719Y-45358634D01*
X65764931Y-45283014D01*
X65758572Y-45276709D01*
X65757950Y-45274765D01*
X65709313Y-45059541D01*
X65710832Y-45050716D01*
X65716164Y-45046187D01*
X66030927Y-44912961D01*
X66039881Y-44912893D01*
X66043760Y-44915464D01*
G37*
%TD.AperFunction*%
%TD*%
%TA.AperFunction,Conductor*%
%TO.N,USB_D-*%
G36*
X65570280Y-45841364D02*
G01*
X65755068Y-45916985D01*
X65761427Y-45923290D01*
X65762049Y-45925234D01*
X65810686Y-46140458D01*
X65809167Y-46149283D01*
X65803834Y-46153812D01*
X65489072Y-46287037D01*
X65480118Y-46287106D01*
X65476239Y-46284535D01*
X65395707Y-46204003D01*
X65392280Y-46195730D01*
X65393395Y-46190747D01*
X65555266Y-45847204D01*
X65561891Y-45841182D01*
X65570280Y-45841364D01*
G37*
%TD.AperFunction*%
%TD*%
%TA.AperFunction,Conductor*%
%TO.N,Net-(SW1-B)*%
G36*
X68198673Y-46641402D02*
G01*
X68204734Y-46647205D01*
X68366603Y-46990743D01*
X68367029Y-46999688D01*
X68364292Y-47004003D01*
X68283760Y-47084535D01*
X68275487Y-47087962D01*
X68270927Y-47087037D01*
X67956165Y-46953812D01*
X67949881Y-46947431D01*
X67949313Y-46940458D01*
X67997950Y-46725234D01*
X68003116Y-46717920D01*
X68004923Y-46716988D01*
X68189719Y-46641364D01*
X68198673Y-46641402D01*
G37*
%TD.AperFunction*%
%TD*%
%TA.AperFunction,Conductor*%
%TO.N,Net-(U1-QSPI_SS)*%
G36*
X82097855Y-50418560D02*
G01*
X82774403Y-50694165D01*
X82780771Y-50700458D01*
X82780823Y-50709413D01*
X82774529Y-50715782D01*
X82774402Y-50715834D01*
X82097861Y-50991437D01*
X82088906Y-50991385D01*
X82087660Y-50990770D01*
X81973524Y-50925771D01*
X81705910Y-50773365D01*
X81700417Y-50766293D01*
X81700000Y-50763198D01*
X81700000Y-50646801D01*
X81703427Y-50638528D01*
X81705908Y-50636635D01*
X82087659Y-50419229D01*
X82096542Y-50418114D01*
X82097855Y-50418560D01*
G37*
%TD.AperFunction*%
%TD*%
%TA.AperFunction,Conductor*%
%TO.N,Net-(U1-QSPI_SS)*%
G36*
X68641307Y-45451413D02*
G01*
X68656795Y-45457811D01*
X68996500Y-45598141D01*
X69002838Y-45604467D01*
X69002853Y-45604503D01*
X69147834Y-45956822D01*
X69147813Y-45965776D01*
X69141466Y-45972094D01*
X69139665Y-45972670D01*
X68413173Y-46141661D01*
X68404338Y-46140197D01*
X68399126Y-46132916D01*
X68398822Y-46130265D01*
X68398822Y-46017293D01*
X68399688Y-46012876D01*
X68417353Y-45969552D01*
X68626010Y-45457809D01*
X68632306Y-45451444D01*
X68641260Y-45451394D01*
X68641307Y-45451413D01*
G37*
%TD.AperFunction*%
%TD*%
%TA.AperFunction,Conductor*%
%TO.N,Net-(U1-QSPI_SS)*%
G36*
X73363664Y-44035447D02*
G01*
X73364133Y-44035654D01*
X73993284Y-44331838D01*
X73999309Y-44338462D01*
X74000000Y-44342423D01*
X74000000Y-44457576D01*
X73996573Y-44465849D01*
X73993283Y-44468162D01*
X73364145Y-44764339D01*
X73355201Y-44764762D01*
X73348576Y-44758736D01*
X73348363Y-44758255D01*
X73200875Y-44404499D01*
X73200855Y-44395550D01*
X73348363Y-44041743D01*
X73354710Y-44035426D01*
X73363664Y-44035447D01*
G37*
%TD.AperFunction*%
%TD*%
%TA.AperFunction,Conductor*%
%TO.N,Net-(U1-QSPI_SS)*%
G36*
X73051423Y-44041263D02*
G01*
X73051636Y-44041744D01*
X73199123Y-44395498D01*
X73199144Y-44404452D01*
X73199123Y-44404502D01*
X73051636Y-44758255D01*
X73045289Y-44764573D01*
X73036335Y-44764552D01*
X73035854Y-44764339D01*
X72406717Y-44468162D01*
X72400691Y-44461537D01*
X72400000Y-44457576D01*
X72400000Y-44342423D01*
X72403427Y-44334150D01*
X72406713Y-44331839D01*
X73035855Y-44035659D01*
X73044798Y-44035237D01*
X73051423Y-44041263D01*
G37*
%TD.AperFunction*%
%TD*%
%TA.AperFunction,Conductor*%
%TO.N,Net-(U1-QSPI_SS)*%
G36*
X70900335Y-43762137D02*
G01*
X70905341Y-43766185D01*
X71011023Y-43916702D01*
X71012973Y-43925442D01*
X71009721Y-43931698D01*
X70924748Y-44016672D01*
X70912361Y-44029058D01*
X70904088Y-44032485D01*
X70895815Y-44029058D01*
X70893285Y-44025278D01*
X70848126Y-43916702D01*
X70803829Y-43810201D01*
X70803817Y-43801248D01*
X70810139Y-43794907D01*
X70891382Y-43762061D01*
X70900335Y-43762137D01*
G37*
%TD.AperFunction*%
%TD*%
%TA.AperFunction,Conductor*%
%TO.N,Net-(U1-QSPI_SS)*%
G36*
X68179613Y-45884972D02*
G01*
X68394245Y-46011605D01*
X68399629Y-46018760D01*
X68400000Y-46021681D01*
X68400000Y-46138318D01*
X68396573Y-46146591D01*
X68394245Y-46148395D01*
X68179613Y-46275027D01*
X68170747Y-46276279D01*
X68164801Y-46272584D01*
X68049207Y-46138318D01*
X68005571Y-46087633D01*
X68002772Y-46079128D01*
X68005572Y-46072366D01*
X68164803Y-45887413D01*
X68172796Y-45883382D01*
X68179613Y-45884972D01*
G37*
%TD.AperFunction*%
%TD*%
%TA.AperFunction,Conductor*%
%TO.N,Net-(U1-QSPI_SD3)*%
G36*
X74897855Y-49148560D02*
G01*
X75330602Y-49324848D01*
X75574402Y-49424165D01*
X75580771Y-49430459D01*
X75580823Y-49439414D01*
X75574529Y-49445783D01*
X75574402Y-49445835D01*
X74897861Y-49721437D01*
X74888906Y-49721385D01*
X74887660Y-49720770D01*
X74773524Y-49655771D01*
X74505910Y-49503365D01*
X74500417Y-49496293D01*
X74500000Y-49493198D01*
X74500000Y-49376801D01*
X74503427Y-49368528D01*
X74505908Y-49366635D01*
X74887659Y-49149229D01*
X74896542Y-49148114D01*
X74897855Y-49148560D01*
G37*
%TD.AperFunction*%
%TD*%
%TA.AperFunction,Conductor*%
%TO.N,Net-(U1-QSPI_SCLK)*%
G36*
X74897855Y-47878560D02*
G01*
X75330602Y-48054848D01*
X75574402Y-48154165D01*
X75580771Y-48160459D01*
X75580823Y-48169414D01*
X75574529Y-48175783D01*
X75574402Y-48175835D01*
X74897861Y-48451437D01*
X74888906Y-48451385D01*
X74887660Y-48450770D01*
X74773524Y-48385771D01*
X74505910Y-48233365D01*
X74500417Y-48226293D01*
X74500000Y-48223198D01*
X74500000Y-48106801D01*
X74503427Y-48098528D01*
X74505908Y-48096635D01*
X74887659Y-47879229D01*
X74896542Y-47878114D01*
X74897855Y-47878560D01*
G37*
%TD.AperFunction*%
%TD*%
%TA.AperFunction,Conductor*%
%TO.N,Net-(U1-QSPI_SCLK)*%
G36*
X69297315Y-43795644D02*
G01*
X69301283Y-43803153D01*
X69353525Y-44256632D01*
X69351068Y-44265243D01*
X69350175Y-44266244D01*
X69272746Y-44343673D01*
X69264473Y-44347100D01*
X69256200Y-44343673D01*
X69254495Y-44341509D01*
X69192598Y-44240417D01*
X69190878Y-44234082D01*
X69199086Y-43809967D01*
X69202672Y-43801761D01*
X69209939Y-43798523D01*
X69288817Y-43792822D01*
X69297315Y-43795644D01*
G37*
%TD.AperFunction*%
%TD*%
%TA.AperFunction,Conductor*%
%TO.N,Net-(U1-QSPI_SD0)*%
G36*
X74897855Y-46608560D02*
G01*
X75330602Y-46784848D01*
X75574402Y-46884165D01*
X75580771Y-46890459D01*
X75580823Y-46899414D01*
X75574529Y-46905783D01*
X75574402Y-46905835D01*
X74897861Y-47181437D01*
X74888906Y-47181385D01*
X74887660Y-47180770D01*
X74773524Y-47115771D01*
X74505910Y-46963365D01*
X74500417Y-46956293D01*
X74500000Y-46953198D01*
X74500000Y-46836801D01*
X74503427Y-46828528D01*
X74505908Y-46826635D01*
X74887659Y-46609229D01*
X74896542Y-46608114D01*
X74897855Y-46608560D01*
G37*
%TD.AperFunction*%
%TD*%
%TA.AperFunction,Conductor*%
%TO.N,Net-(U1-QSPI_SD2)*%
G36*
X70097315Y-43795644D02*
G01*
X70101283Y-43803153D01*
X70153525Y-44256632D01*
X70151068Y-44265243D01*
X70150175Y-44266244D01*
X70072746Y-44343673D01*
X70064473Y-44347100D01*
X70056200Y-44343673D01*
X70054495Y-44341509D01*
X69992598Y-44240417D01*
X69990878Y-44234082D01*
X69999086Y-43809967D01*
X70002672Y-43801761D01*
X70009939Y-43798523D01*
X70088817Y-43792822D01*
X70097315Y-43795644D01*
G37*
%TD.AperFunction*%
%TD*%
%TA.AperFunction,Conductor*%
%TO.N,Net-(U1-QSPI_SD2)*%
G36*
X77451423Y-45841263D02*
G01*
X77451636Y-45841744D01*
X77599123Y-46195498D01*
X77599144Y-46204452D01*
X77599123Y-46204502D01*
X77451636Y-46558255D01*
X77445289Y-46564573D01*
X77436335Y-46564552D01*
X77435854Y-46564339D01*
X76806717Y-46268162D01*
X76800691Y-46261537D01*
X76800000Y-46257576D01*
X76800000Y-46142423D01*
X76803427Y-46134150D01*
X76806713Y-46131839D01*
X77435855Y-45835659D01*
X77444798Y-45835237D01*
X77451423Y-45841263D01*
G37*
%TD.AperFunction*%
%TD*%
%TA.AperFunction,Conductor*%
%TO.N,Net-(U1-QSPI_SD1)*%
G36*
X75451423Y-44841263D02*
G01*
X75451636Y-44841744D01*
X75599123Y-45195498D01*
X75599144Y-45204452D01*
X75599123Y-45204502D01*
X75451636Y-45558255D01*
X75445289Y-45564573D01*
X75436335Y-45564552D01*
X75435854Y-45564339D01*
X74806717Y-45268162D01*
X74800691Y-45261537D01*
X74800000Y-45257576D01*
X74800000Y-45142423D01*
X74803427Y-45134150D01*
X74806713Y-45131839D01*
X75435855Y-44835659D01*
X75444798Y-44835237D01*
X75451423Y-44841263D01*
G37*
%TD.AperFunction*%
%TD*%
%TA.AperFunction,Conductor*%
%TO.N,GND*%
G36*
X70977666Y-34337718D02*
G01*
X70979132Y-34338937D01*
X71040707Y-34399293D01*
X71101061Y-34460866D01*
X71104405Y-34469173D01*
X71100896Y-34477411D01*
X71099429Y-34478631D01*
X70952586Y-34581734D01*
X70943846Y-34583684D01*
X70937590Y-34580432D01*
X70859567Y-34502409D01*
X70856140Y-34494136D01*
X70858263Y-34487416D01*
X70961368Y-34340569D01*
X70968926Y-34335768D01*
X70977666Y-34337718D01*
G37*
%TD.AperFunction*%
%TD*%
%TA.AperFunction,Conductor*%
%TO.N,GND*%
G36*
X61663443Y-41327427D02*
G01*
X61666695Y-41333683D01*
X61697623Y-41510421D01*
X61695673Y-41519161D01*
X61688115Y-41523963D01*
X61686215Y-41524137D01*
X61600000Y-41525000D01*
X61513784Y-41524137D01*
X61505546Y-41520628D01*
X61502202Y-41512321D01*
X61502376Y-41510421D01*
X61533305Y-41333683D01*
X61538107Y-41326125D01*
X61544830Y-41324000D01*
X61655170Y-41324000D01*
X61663443Y-41327427D01*
G37*
%TD.AperFunction*%
%TD*%
%TA.AperFunction,Conductor*%
%TO.N,GND*%
G36*
X61663443Y-41327427D02*
G01*
X61666695Y-41333683D01*
X61697623Y-41510421D01*
X61695673Y-41519161D01*
X61688115Y-41523963D01*
X61686215Y-41524137D01*
X61600000Y-41525000D01*
X61513784Y-41524137D01*
X61505546Y-41520628D01*
X61502202Y-41512321D01*
X61502376Y-41510421D01*
X61533305Y-41333683D01*
X61538107Y-41326125D01*
X61544830Y-41324000D01*
X61655170Y-41324000D01*
X61663443Y-41327427D01*
G37*
%TD.AperFunction*%
%TD*%
%TA.AperFunction,Conductor*%
%TO.N,GND*%
G36*
X61686215Y-40639862D02*
G01*
X61694453Y-40643371D01*
X61697797Y-40651678D01*
X61697623Y-40653578D01*
X61666695Y-40830317D01*
X61661893Y-40837875D01*
X61655170Y-40840000D01*
X61544830Y-40840000D01*
X61536557Y-40836573D01*
X61533305Y-40830317D01*
X61502376Y-40653578D01*
X61504326Y-40644838D01*
X61511884Y-40640036D01*
X61513782Y-40639862D01*
X61600000Y-40639000D01*
X61686215Y-40639862D01*
G37*
%TD.AperFunction*%
%TD*%
%TA.AperFunction,Conductor*%
%TO.N,GND*%
G36*
X61686215Y-40639862D02*
G01*
X61694453Y-40643371D01*
X61697797Y-40651678D01*
X61697623Y-40653578D01*
X61666695Y-40830317D01*
X61661893Y-40837875D01*
X61655170Y-40840000D01*
X61544830Y-40840000D01*
X61536557Y-40836573D01*
X61533305Y-40830317D01*
X61502376Y-40653578D01*
X61504326Y-40644838D01*
X61511884Y-40640036D01*
X61513782Y-40639862D01*
X61600000Y-40639000D01*
X61686215Y-40639862D01*
G37*
%TD.AperFunction*%
%TD*%
%TA.AperFunction,Conductor*%
%TO.N,GND*%
G36*
X63853576Y-45822375D02*
G01*
X64030318Y-45853305D01*
X64037875Y-45858107D01*
X64040000Y-45864830D01*
X64040000Y-45975169D01*
X64036573Y-45983442D01*
X64030317Y-45986694D01*
X63853578Y-46017623D01*
X63844838Y-46015673D01*
X63840036Y-46008115D01*
X63839862Y-46006215D01*
X63839634Y-45983442D01*
X63839000Y-45920000D01*
X63839862Y-45833783D01*
X63843371Y-45825546D01*
X63851678Y-45822202D01*
X63853576Y-45822375D01*
G37*
%TD.AperFunction*%
%TD*%
%TA.AperFunction,Conductor*%
%TO.N,+3.3V*%
G36*
X56543443Y-35373427D02*
G01*
X56546695Y-35379683D01*
X56577623Y-35556421D01*
X56575673Y-35565161D01*
X56568115Y-35569963D01*
X56566215Y-35570137D01*
X56480000Y-35571000D01*
X56393784Y-35570137D01*
X56385546Y-35566628D01*
X56382202Y-35558321D01*
X56382376Y-35556421D01*
X56413305Y-35379683D01*
X56418107Y-35372125D01*
X56424830Y-35370000D01*
X56535170Y-35370000D01*
X56543443Y-35373427D01*
G37*
%TD.AperFunction*%
%TD*%
%TA.AperFunction,Conductor*%
%TO.N,+3.3V*%
G36*
X58588657Y-37574731D02*
G01*
X58730067Y-37681270D01*
X58734613Y-37688986D01*
X58732372Y-37697655D01*
X58731383Y-37698805D01*
X58672417Y-37758962D01*
X58668441Y-37761621D01*
X58586572Y-37794652D01*
X58577617Y-37794570D01*
X58572368Y-37790153D01*
X58502010Y-37681270D01*
X58493742Y-37668474D01*
X58492130Y-37659665D01*
X58495294Y-37653853D01*
X58573345Y-37575802D01*
X58581617Y-37572376D01*
X58588657Y-37574731D01*
G37*
%TD.AperFunction*%
%TD*%
%TA.AperFunction,Conductor*%
%TO.N,+3.3V*%
G36*
X58588657Y-37574731D02*
G01*
X58730067Y-37681270D01*
X58734613Y-37688986D01*
X58732372Y-37697655D01*
X58731383Y-37698805D01*
X58672417Y-37758962D01*
X58668441Y-37761621D01*
X58586572Y-37794652D01*
X58577617Y-37794570D01*
X58572368Y-37790153D01*
X58502010Y-37681270D01*
X58493742Y-37668474D01*
X58492130Y-37659665D01*
X58495294Y-37653853D01*
X58573345Y-37575802D01*
X58581617Y-37572376D01*
X58588657Y-37574731D01*
G37*
%TD.AperFunction*%
%TD*%
%TA.AperFunction,Conductor*%
%TO.N,+3.3V*%
G36*
X56557740Y-35508782D02*
G01*
X56558729Y-35509932D01*
X56665268Y-35651342D01*
X56667509Y-35660011D01*
X56664196Y-35666655D01*
X56586148Y-35744703D01*
X56577875Y-35748130D01*
X56571525Y-35746257D01*
X56449847Y-35667632D01*
X56444758Y-35660264D01*
X56445347Y-35653427D01*
X56478380Y-35571553D01*
X56481033Y-35567587D01*
X56541196Y-35508614D01*
X56549501Y-35505273D01*
X56557740Y-35508782D01*
G37*
%TD.AperFunction*%
%TD*%
%TA.AperFunction,Conductor*%
%TO.N,+3.3V*%
G36*
X60955161Y-37664326D02*
G01*
X60959963Y-37671884D01*
X60960137Y-37673784D01*
X60961000Y-37760000D01*
X60960137Y-37846215D01*
X60956628Y-37854453D01*
X60948321Y-37857797D01*
X60946421Y-37857623D01*
X60769683Y-37826694D01*
X60762125Y-37821892D01*
X60760000Y-37815169D01*
X60760000Y-37704830D01*
X60763427Y-37696557D01*
X60769681Y-37693305D01*
X60946421Y-37662376D01*
X60955161Y-37664326D01*
G37*
%TD.AperFunction*%
%TD*%
%TA.AperFunction,Conductor*%
%TO.N,+3.3V*%
G36*
X58683576Y-37662375D02*
G01*
X58860318Y-37693305D01*
X58867875Y-37698107D01*
X58870000Y-37704830D01*
X58870000Y-37815169D01*
X58866573Y-37823442D01*
X58860317Y-37826694D01*
X58683578Y-37857623D01*
X58674838Y-37855673D01*
X58670036Y-37848115D01*
X58669862Y-37846215D01*
X58669634Y-37823442D01*
X58669000Y-37760000D01*
X58669862Y-37673783D01*
X58673371Y-37665546D01*
X58681678Y-37662202D01*
X58683576Y-37662375D01*
G37*
%TD.AperFunction*%
%TD*%
%TA.AperFunction,Conductor*%
%TO.N,+3.3V*%
G36*
X58683576Y-37662375D02*
G01*
X58860318Y-37693305D01*
X58867875Y-37698107D01*
X58870000Y-37704830D01*
X58870000Y-37815169D01*
X58866573Y-37823442D01*
X58860317Y-37826694D01*
X58683578Y-37857623D01*
X58674838Y-37855673D01*
X58670036Y-37848115D01*
X58669862Y-37846215D01*
X58669634Y-37823442D01*
X58669000Y-37760000D01*
X58669862Y-37673783D01*
X58673371Y-37665546D01*
X58681678Y-37662202D01*
X58683576Y-37662375D01*
G37*
%TD.AperFunction*%
%TD*%
%TA.AperFunction,Conductor*%
%TO.N,+3.3V*%
G36*
X60955161Y-37664326D02*
G01*
X60959963Y-37671884D01*
X60960137Y-37673784D01*
X60961000Y-37760000D01*
X60960137Y-37846215D01*
X60956628Y-37854453D01*
X60948321Y-37857797D01*
X60946421Y-37857623D01*
X60769683Y-37826694D01*
X60762125Y-37821892D01*
X60760000Y-37815169D01*
X60760000Y-37704830D01*
X60763427Y-37696557D01*
X60769681Y-37693305D01*
X60946421Y-37662376D01*
X60955161Y-37664326D01*
G37*
%TD.AperFunction*%
%TD*%
%TA.AperFunction,Conductor*%
%TO.N,+3.3V*%
G36*
X58683576Y-37662375D02*
G01*
X58860318Y-37693305D01*
X58867875Y-37698107D01*
X58870000Y-37704830D01*
X58870000Y-37815169D01*
X58866573Y-37823442D01*
X58860317Y-37826694D01*
X58683578Y-37857623D01*
X58674838Y-37855673D01*
X58670036Y-37848115D01*
X58669862Y-37846215D01*
X58669634Y-37823442D01*
X58669000Y-37760000D01*
X58669862Y-37673783D01*
X58673371Y-37665546D01*
X58681678Y-37662202D01*
X58683576Y-37662375D01*
G37*
%TD.AperFunction*%
%TD*%
%TA.AperFunction,Conductor*%
%TO.N,+3.3V*%
G36*
X56566215Y-35569862D02*
G01*
X56574453Y-35573371D01*
X56577797Y-35581678D01*
X56577623Y-35583578D01*
X56546695Y-35760317D01*
X56541893Y-35767875D01*
X56535170Y-35770000D01*
X56424830Y-35770000D01*
X56416557Y-35766573D01*
X56413305Y-35760317D01*
X56382376Y-35583578D01*
X56384326Y-35574838D01*
X56391884Y-35570036D01*
X56393782Y-35569862D01*
X56480000Y-35569000D01*
X56566215Y-35569862D01*
G37*
%TD.AperFunction*%
%TD*%
%TA.AperFunction,Conductor*%
%TO.N,+3.3V*%
G36*
X56543443Y-35373427D02*
G01*
X56546695Y-35379683D01*
X56577623Y-35556421D01*
X56575673Y-35565161D01*
X56568115Y-35569963D01*
X56566215Y-35570137D01*
X56480000Y-35571000D01*
X56393784Y-35570137D01*
X56385546Y-35566628D01*
X56382202Y-35558321D01*
X56382376Y-35556421D01*
X56413305Y-35379683D01*
X56418107Y-35372125D01*
X56424830Y-35370000D01*
X56535170Y-35370000D01*
X56543443Y-35373427D01*
G37*
%TD.AperFunction*%
%TD*%
M02*
