M48
; DRILL file {KiCad 7.0.5} date Fri Sep 22 01:01:43 2023
; FORMAT={-:-/ absolute / inch / decimal}
; #@! TF.CreationDate,2023-09-22T01:01:43+09:00
; #@! TF.GenerationSoftware,Kicad,Pcbnew,7.0.5
; #@! TF.FileFunction,Plated,1,2,PTH
FMAT,2
INCH
; #@! TA.AperFunction,Plated,PTH,ViaDrill
T1C0.0059
; #@! TA.AperFunction,Plated,PTH,ViaDrill
T2C0.0157
; #@! TA.AperFunction,Plated,PTH,ComponentDrill
T3C0.0236
%
G90
G05
T1
X2.252Y-1.6299
X2.2677Y-1.5748
X2.3071Y-1.5197
X2.3565Y-1.5669
X2.3701Y-1.5197
X2.378Y-1.5827
X2.4724Y-1.4016
X2.4882Y-1.346
X2.4961Y-1.4331
X2.5039Y-1.4882
X2.5039Y-1.5118
X2.5118Y-1.6142
X2.5275Y-1.4647
X2.5748Y-1.4173
X2.5906Y-1.4882
X2.5906Y-1.5236
X2.5906Y-1.5433
X2.5906Y-1.5669
X2.5906Y-1.5906
X2.5906Y-1.6142
X2.5906Y-1.6378
X2.5906Y-1.6614
X2.5906Y-1.6929
X2.6089Y-1.4953
X2.6299Y-1.4803
X2.6851Y-1.6771
X2.704Y-1.4993
X2.7234Y-1.4961
X2.7559Y-1.6772
X2.7717Y-1.4882
X2.8346Y-1.4173
T2
X2.0157Y-1.3071
X2.0157Y-1.4094
X2.0157Y-1.5118
X2.0157Y-1.6142
X2.0787Y-0.9291
X2.1417Y-1.6614
X2.1772Y-0.9242
X2.1811Y-1.126
X2.2236Y-1.3248
X2.2236Y-1.5728
X2.2488Y-1.7764
X2.2756Y-0.9213
X2.2866Y-1.7764
X2.3622Y-1.8142
X2.3622Y-1.852
X2.375Y-1.126
X2.3772Y-0.9242
X2.4567Y-1.4567
X2.4567Y-1.6299
X2.475Y-1.126
X2.4803Y-0.9213
X2.4804Y-1.3742
X2.4882Y-1.6614
X2.4882Y-1.748
X2.5433Y-1.4409
X2.5748Y-0.9213
X2.5748Y-1.126
X2.6378Y-1.3071
X2.6457Y-1.8898
X2.6744Y-1.126
X2.6772Y-0.9242
X2.6772Y-1.7717
X2.7165Y-1.5591
X2.7165Y-1.7953
X2.7244Y-1.374
X2.7772Y-0.9242
X2.7772Y-1.123
X2.7795Y-1.622
X2.8819Y-1.748
X2.8819Y-1.9685
X2.9055Y-1.6693
X2.908Y-1.7165
X2.9147Y-1.5638
X2.9567Y-1.3543
X2.9764Y-1.7795
X3.0236Y-1.6693
X3.0551Y-1.8189
X3.1457Y-1.6693
X3.2598Y-1.8976
X3.2598Y-1.9463
T3
G00X2.0976Y-1.7254
M15
G01X2.0976Y-1.7687
M16
G05
G00X2.0976Y-1.8967
M15
G01X2.0976Y-1.9281
M16
G05
G00X2.4378Y-1.7254
M15
G01X2.4378Y-1.7687
M16
G05
G00X2.4378Y-1.8967
M15
G01X2.4378Y-1.9281
M16
G05
T0
M30
